<?xml version="1.0" encoding="utf-8"?>
<!-- Generator: Adobe Illustrator 24.1.0, SVG Export Plug-In . SVG Version: 6.00 Build 0)  -->
<svg version="1.1" id="Capa_1" xmlns="http://www.w3.org/2000/svg" xmlns:xlink="http://www.w3.org/1999/xlink" x="0px" y="0px"
	 viewBox="0 0 217 141" style="enable-background:new 0 0 217 141;" xml:space="preserve">
<style type="text/css">
	.st0{fill:#E76334;}
</style>
<g>
	<g>
		<path class="st0" d="M12.6,58.4c4.9-3.2,8.7-3.8,11-3.8c4,0,6.8,1.9,7.3,4.9c0,0.1,0.1,0.1,0.1,0.1h6.5c0.1,0,0.1,0,0.1-0.1
			c0.5-3,3.3-4.9,7.3-4.9c2.3,0,6.2,0.7,11,3.8c0,0,0.1,0,0.1,0c0,0,0-0.1,0-0.1c-3.4-5.9-13.3-8-21.5-8c-0.1,0-0.2,0-0.3,0
			c-0.1,0-0.2,0-0.3,0c-8.2,0-18.1,2.1-21.5,8c0,0,0,0.1,0,0.1C12.5,58.4,12.6,58.4,12.6,58.4z"/>
		<path class="st0" d="M55.9,64.3c-4.9,3.2-8.7,3.8-11,3.8c-4,0-6.8-1.9-7.3-4.9c0-0.1-0.1-0.1-0.1-0.1H31c-0.1,0-0.1,0-0.1,0.1
			c-0.5,3-3.3,4.9-7.3,4.9c0,0,0,0,0,0c-2.3,0-6.2-0.7-11-3.8c0,0-0.1,0-0.1,0c0,0,0,0.1,0,0.1c3.4,5.9,13.3,8,21.5,8
			c0.1,0,0.2,0,0.3,0c0.1,0,0.2,0,0.3,0c8.2,0,18.1-2.1,21.5-8c0,0,0-0.1,0-0.1C56,64.3,56,64.3,55.9,64.3z"/>
	</g>
	<g>
		<polygon class="st0" points="81.5,50.2 74.3,50.2 68.4,50.2 61.1,50.2 61.1,55.1 68.4,55.1 68.4,72.5 74.3,72.5 74.3,55.1 
			81.5,55.1 		"/>
		<path class="st0" d="M101,64.5c2.6-1.1,4.4-3.8,4.4-6.9c0-1.2-0.3-2.3-0.7-3.3c-1.2-2.5-3.6-4.2-6.5-4.2h-8h-5.9v4.9v17.5h5.9
			V55.1h1.2h5.3c1.3,0,2.4,1.2,2.4,2.6c0,1.4-1.1,2.6-2.4,2.6h-5.2H91l1.2,1.4c0.3,0.5,0.7,1,1.2,1.5l7.6,9.4h6.5L101,64.5z"/>
		<path class="st0" d="M193.7,64.5c2.6-1.1,4.4-3.8,4.4-6.9c0-1.2-0.3-2.3-0.7-3.3c-1.2-2.5-3.6-4.2-6.5-4.2h-8H177v4.9v17.5h5.9
			V55.1h1.2h5.3c1.3,0,2.4,1.2,2.4,2.6c0,1.4-1.1,2.6-2.4,2.6h-5.2h-0.5l1.2,1.4c0.3,0.5,0.7,1,1.2,1.5l7.6,9.4h6.5L193.7,64.5z"/>
		<polygon class="st0" points="174,55.1 174,50.2 161.2,50.2 155.3,50.2 155.3,55.1 155.3,59 155.3,63.8 155.3,67.6 155.3,72.5 
			155.3,72.5 174,72.5 174,67.6 161.2,67.6 161.2,63.8 171.2,63.8 171.2,59 161.2,59 161.2,55.1 		"/>
		<path class="st0" d="M152.4,54.4c-1.2-2.5-3.6-4.2-6.5-4.2h-8H132v4.9v17.5h5.9v-7.4h8c0.9,0,1.8-0.2,2.7-0.5
			c2.7-1.1,4.5-3.8,4.5-6.9C153.1,56.5,152.9,55.4,152.4,54.4z M137.9,60.3v-5.2h1.2h5.3c1.3,0,2.4,1.2,2.4,2.6
			c0,1.4-1.1,2.6-2.4,2.6h-5.2H137.9z"/>
		<path class="st0" d="M122.9,50.2v10.2v4.8c0,1.8-2,3.2-4.5,3.2c-2.5,0-4.5-1.4-4.5-3.2v-4.8V50.2h-5.8v16c0,2.5,2.3,4.7,5.8,5.8
			c1.4,0.4,2.9,0.7,4.5,0.7c1.6,0,3.1-0.2,4.5-0.7c3.4-1,5.8-3.2,5.8-5.8v-16H122.9z"/>
	</g>
	<g>
		<path class="st0" d="M201.7,50.5c1.5,0,2.9,1.1,2.9,2.8c0,1.7-1.4,2.8-2.9,2.8c-1.5,0-2.9-1.1-2.9-2.8
			C198.8,51.6,200.1,50.5,201.7,50.5z M201.7,55.5c1.2,0,2.1-0.9,2.1-2.2c0-1.3-1-2.2-2.1-2.2c-1.2,0-2.1,0.9-2.1,2.2
			C199.5,54.6,200.5,55.5,201.7,55.5z M200.5,51.7h1.2c0.8,0,1.2,0.2,1.2,0.9c0,0.6-0.4,0.8-0.8,0.8l0.8,1.4h-0.7l-0.8-1.4h-0.4v1.4
			h-0.6V51.7z M201.2,53h0.6c0.4,0,0.6-0.1,0.6-0.4c0-0.3-0.4-0.4-0.6-0.4h-0.5V53z"/>
	</g>
	<g>
		<path class="st0" d="M13.1,83.7H20v1.5h-4c-0.7,0-1.1,0-1.2-0.1v0.8c0,0.2,0,0.4,0,0.5c0.2-0.2,0.4-0.3,0.6-0.4
			c0.3-0.1,0.9-0.1,1.8-0.1c1.3,0,2.1,0.1,2.5,0.4c0.2,0.2,0.4,0.4,0.5,0.7c0.1,0.3,0.1,0.7,0.1,1.2c0,0.7-0.1,1.2-0.2,1.6
			c-0.1,0.3-0.4,0.6-0.8,0.7c-0.3,0.1-0.7,0.2-1.2,0.2c-0.2,0-0.5,0-0.9,0c-0.9,0-1.6,0-2.1,0c-0.9,0-1.5-0.2-1.8-0.5
			c-0.2-0.3-0.3-0.7-0.3-1.4c0-0.1,0-0.2,0-0.3h1.8c0,0.3,0,0.4,0.1,0.5c0.1,0.1,0.2,0.1,0.5,0.2c0.3,0,0.6,0,1.2,0
			c0.7,0,1.2,0,1.3,0c0.2,0,0.4-0.1,0.5-0.1c0.1-0.1,0.2-0.2,0.2-0.4c0-0.1,0-0.3,0-0.4c0-0.3,0-0.5-0.1-0.6
			c-0.1-0.1-0.4-0.2-0.9-0.2c-0.7,0-1.1,0-1.3,0c-0.6,0-1,0-1.2,0.1c-0.1,0.1-0.2,0.2-0.2,0.3c0,0,0,0.1,0,0.1h-1.6V83.7z"/>
		<path class="st0" d="M25.3,83.6c1.1,0,1.8,0,2.3,0.1c0.5,0.1,0.9,0.4,1.1,0.8c0.1,0.3,0.2,0.7,0.2,1.2c0,0.2,0,0.6,0,1.4
			c0,1,0,1.5,0,1.8c0,0.5-0.2,0.9-0.4,1.2c-0.2,0.3-0.5,0.4-0.9,0.5c-0.4,0.1-1.2,0.1-2.3,0.1c-1.1,0-1.9,0-2.3-0.1
			c-0.5-0.1-0.9-0.4-1.1-0.8c-0.1-0.3-0.2-0.7-0.2-1.2c0-0.2,0-0.6,0-1.4c0-1,0-1.6,0-1.8c0-0.5,0.2-0.9,0.4-1.2
			c0.2-0.3,0.5-0.4,0.9-0.5C23.5,83.7,24.2,83.6,25.3,83.6z M25.2,85.1c-0.8,0-1.3,0.1-1.4,0.2c-0.1,0.1-0.2,0.4-0.2,0.7
			c0,0.3,0,0.7,0,1.3c0,0.8,0,1.3,0.1,1.6c0.1,0.3,0.2,0.4,0.3,0.5c0.1,0.1,0.4,0.1,0.6,0.1l0.7,0c0.7,0,1.1,0,1.2-0.1
			c0.2,0,0.3-0.1,0.4-0.2c0.1-0.1,0.2-0.2,0.2-0.4c0.1-0.3,0.1-0.8,0.1-1.6c0-0.8,0-1.3-0.1-1.6c-0.1-0.3-0.2-0.4-0.3-0.5
			C26.5,85.1,26,85.1,25.2,85.1z"/>
		<path class="st0" d="M40.4,90.7l-0.5-1.2h-4l-0.5,1.2h-2.1l3.2-7.2h2.8l3.1,7.2H40.4z M39.2,87.9l-1.2-2.7h-0.4l-1.2,2.7H39.2z"/>
		<path class="st0" d="M43.2,83.6h3.3l3.2,5.3h0.2l0-5.3h1.9v7.2h-3.2l-3.2-5.4H45l0,5.4h-1.9V83.6z"/>
		<path class="st0" d="M57.2,83.5c1.3,0,2.1,0,2.6,0.1c0.7,0.1,1.1,0.5,1.3,1.2c0.1,0.5,0.2,1.3,0.2,2.4c0,1.1-0.1,1.9-0.2,2.4
			c-0.2,0.7-0.6,1.1-1.3,1.2c-0.5,0.1-1.4,0.1-2.7,0.1c-1.3,0-2.2,0-2.7-0.1c-0.7-0.1-1.1-0.5-1.3-1.2c-0.1-0.5-0.2-1.3-0.2-2.4
			c0-1.1,0.1-1.9,0.2-2.4c0.2-0.7,0.6-1.1,1.3-1.2C55,83.5,55.9,83.5,57.2,83.5z M57.1,84.7c-0.9,0-1.5,0-1.7,0.1
			c-0.2,0.1-0.4,0.3-0.5,0.6c-0.1,0.3-0.1,0.9-0.1,1.8c0,0.6,0,1,0.1,1.2c0.1,0.5,0.3,0.7,0.7,0.8c0.3,0.1,0.8,0.1,1.6,0.1
			c0.8,0,1.3,0,1.6-0.1c0.4-0.1,0.6-0.3,0.7-0.8c0-0.3,0.1-0.7,0.1-1.2c0-0.7,0-1.1,0-1.4c0-0.5-0.1-0.8-0.3-0.9
			c-0.1-0.1-0.4-0.2-0.8-0.3C58.1,84.7,57.7,84.7,57.1,84.7z"/>
		<path class="st0" d="M188.4,83.5c1.3,0,2.1,0,2.6,0.1c0.7,0.1,1.1,0.5,1.3,1.2c0.1,0.5,0.2,1.3,0.2,2.4c0,1.1-0.1,1.9-0.2,2.4
			c-0.2,0.7-0.6,1.1-1.3,1.2c-0.5,0.1-1.4,0.1-2.7,0.1c-1.3,0-2.2,0-2.7-0.1c-0.7-0.1-1.1-0.5-1.3-1.2c-0.1-0.5-0.2-1.3-0.2-2.4
			c0-1.1,0.1-1.9,0.2-2.4c0.2-0.7,0.6-1.1,1.3-1.2C186.2,83.5,187.1,83.5,188.4,83.5z M188.3,84.7c-0.9,0-1.5,0-1.7,0.1
			c-0.2,0.1-0.4,0.3-0.5,0.6c-0.1,0.3-0.1,0.9-0.1,1.8c0,0.6,0,1,0.1,1.2c0.1,0.5,0.3,0.7,0.7,0.8c0.3,0.1,0.8,0.1,1.6,0.1
			c0.8,0,1.3,0,1.6-0.1c0.4-0.1,0.6-0.3,0.7-0.8c0-0.3,0.1-0.7,0.1-1.2c0-0.7,0-1.1,0-1.4c0-0.5-0.1-0.8-0.3-0.9
			c-0.1-0.1-0.4-0.2-0.8-0.3C189.4,84.7,189,84.7,188.3,84.7z"/>
		<path class="st0" d="M61.8,88.4h1.9c0,0.4,0.1,0.6,0.2,0.7c0.1,0,0.1,0.1,0.2,0.1c0.1,0,0.2,0,0.5,0c0.1,0,0.5,0,1.1,0
			c0.8,0,1.3,0,1.4,0c0.2,0,0.4-0.1,0.5-0.1c0.1-0.1,0.2-0.2,0.2-0.5c0-0.2,0-0.3-0.1-0.4C67.6,88.1,67.4,88,67,88
			c-0.2,0-0.8,0-1.5-0.1c-0.8,0-1.3-0.1-1.6-0.1c-0.6,0-1.1-0.1-1.3-0.2c-0.3-0.2-0.5-0.5-0.6-0.9c-0.1-0.2-0.1-0.5-0.1-0.9
			c0-0.8,0.1-1.4,0.4-1.7c0.2-0.3,0.5-0.4,0.9-0.5c0.4-0.1,1.3-0.1,2.7-0.1c0.9,0,1.6,0,2,0.1c0.5,0.1,0.9,0.2,1.1,0.4
			c0.3,0.3,0.5,0.8,0.5,1.5c0,0.1,0,0.2,0,0.4h-1.9c0-0.2,0-0.3,0-0.4c0-0.2-0.2-0.3-0.4-0.3c-0.2,0-0.7,0-1.6,0
			c-0.8,0-1.3,0-1.5,0.1c-0.2,0.1-0.3,0.2-0.3,0.5c0,0.3,0.1,0.4,0.3,0.5c0.2,0,0.8,0.1,2.1,0.1c1.1,0,1.8,0.1,2.1,0.1
			c0.3,0.1,0.6,0.1,0.7,0.2c0.2,0.1,0.3,0.3,0.4,0.4c0.2,0.3,0.2,0.7,0.2,1.4c0,0.7-0.1,1.2-0.2,1.5c-0.2,0.3-0.4,0.5-0.8,0.7
			c-0.4,0.1-1.4,0.2-3,0.2c-1,0-1.7,0-2.2-0.1c-0.5-0.1-0.9-0.2-1.2-0.4c-0.3-0.2-0.4-0.5-0.5-0.9c0-0.2,0-0.4,0-0.7V88.4z"/>
		<path class="st0" d="M193.2,88.4h1.9c0,0.4,0.1,0.6,0.2,0.7c0.1,0,0.1,0.1,0.2,0.1c0.1,0,0.2,0,0.5,0c0.1,0,0.5,0,1.1,0
			c0.8,0,1.3,0,1.4,0c0.2,0,0.4-0.1,0.5-0.1c0.1-0.1,0.2-0.2,0.2-0.5c0-0.2,0-0.3-0.1-0.4c-0.1-0.1-0.3-0.2-0.7-0.2
			c-0.2,0-0.8,0-1.5-0.1c-0.8,0-1.3-0.1-1.6-0.1c-0.6,0-1.1-0.1-1.3-0.2c-0.3-0.2-0.5-0.5-0.6-0.9c-0.1-0.2-0.1-0.5-0.1-0.9
			c0-0.8,0.1-1.4,0.4-1.7c0.2-0.3,0.5-0.4,0.9-0.5c0.4-0.1,1.3-0.1,2.7-0.1c0.9,0,1.6,0,2,0.1c0.5,0.1,0.9,0.2,1.1,0.4
			c0.3,0.3,0.5,0.8,0.5,1.5c0,0.1,0,0.2,0,0.4h-1.9c0-0.2,0-0.3,0-0.4c0-0.2-0.2-0.3-0.4-0.3c-0.2,0-0.7,0-1.6,0
			c-0.8,0-1.3,0-1.5,0.1c-0.2,0.1-0.3,0.2-0.3,0.5c0,0.3,0.1,0.4,0.3,0.5c0.2,0,0.8,0.1,2.1,0.1c1.1,0,1.8,0.1,2.1,0.1
			c0.3,0.1,0.6,0.1,0.7,0.2c0.2,0.1,0.3,0.3,0.4,0.4c0.2,0.3,0.2,0.7,0.2,1.4c0,0.7-0.1,1.2-0.2,1.5c-0.2,0.3-0.4,0.5-0.8,0.7
			c-0.4,0.1-1.4,0.2-3,0.2c-1,0-1.7,0-2.2-0.1c-0.5-0.1-0.9-0.2-1.2-0.4c-0.3-0.2-0.4-0.5-0.5-0.9c0-0.2,0-0.4,0-0.7V88.4z"/>
		<path class="st0" d="M74.3,83.6h6.2v1.7H76v1h4.3v1.6H76V89h4.6v1.7h-6.3V83.6z"/>
		<path class="st0" d="M82.2,83.6h3.2l3.2,5.3h0.2l0-5.3h1.9v7.2h-3.2l-3.2-5.4H84l0,5.4h-1.9V83.6z"/>
		<path class="st0" d="M96,90.7v-7.2h4.3c0.9,0,1.5,0,1.6,0c0.4,0,0.7,0.1,0.9,0.3c0.2,0.2,0.3,0.4,0.4,0.7c0.1,0.3,0.1,0.6,0.1,0.9
			c0,0.4,0,0.7-0.1,1c-0.1,0.3-0.3,0.6-0.7,0.7c0.3,0.1,0.5,0.1,0.6,0.2c0.3,0.2,0.4,0.7,0.4,1.5c0,0.6-0.1,1-0.2,1.3
			c-0.1,0.2-0.3,0.4-0.6,0.5c-0.2,0.1-0.6,0.1-1.2,0.1l-1.2,0H96z M97.7,86.6h2.6c0.6,0,0.9,0,1-0.1c0.1-0.1,0.2-0.3,0.2-0.7
			c0-0.4-0.1-0.6-0.3-0.7c-0.1,0-0.4,0-1-0.1h-2.6V86.6z M97.7,89.4h2.6c0.5,0,0.8,0,0.9,0c0.3,0,0.4-0.1,0.5-0.3
			c0.1-0.1,0.1-0.3,0.1-0.6c0-0.4-0.1-0.6-0.3-0.7c-0.1,0-0.5,0-1.2,0h-2.6V89.4z"/>
		<path class="st0" d="M105.1,83.6h1.8v3.9c0,0.8,0,1.2,0.1,1.4c0.1,0.3,0.3,0.5,0.6,0.6c0.3,0.1,0.8,0.1,1.4,0.1
			c0.6,0,1.1,0,1.3-0.1c0.4-0.1,0.6-0.3,0.6-0.8c0-0.4,0.1-0.8,0.1-1.3v-3.9h1.8v3.3c0,1.1-0.1,1.9-0.1,2.3c-0.1,0.6-0.3,1-0.7,1.3
			c-0.3,0.2-0.8,0.3-1.5,0.4c-0.3,0-0.8,0-1.5,0c-1,0-1.7,0-2.1-0.1c-0.3-0.1-0.6-0.1-0.8-0.2c-0.2-0.1-0.3-0.2-0.5-0.4
			c-0.2-0.2-0.3-0.5-0.3-0.9c-0.1-0.4-0.1-0.9-0.1-1.5l0-0.9V83.6z"/>
		<path class="st0" d="M114.1,83.6h5.9v1.7h-4.3v1h4.1v1.6h-4.1V89h4.3v1.7h-5.9V83.6z"/>
		<path class="st0" d="M121.9,83.6h3.3l3.2,5.3h0.2l0-5.3h1.9v7.2h-3.3l-3.2-5.4h-0.2l0,5.4h-1.9V83.6z"/>
		<path class="st0" d="M138.2,90.7l-0.5-1.2h-4l-0.5,1.2h-2.1l3.2-7.2h2.8l3.1,7.2H138.2z M137.1,87.9l-1.2-2.7h-0.4l-1.2,2.7H137.1
			z"/>
		<path class="st0" d="M140.4,88.4h1.8c0,0.4,0.1,0.6,0.2,0.7c0.1,0,0.1,0.1,0.2,0.1c0.1,0,0.2,0,0.4,0c0.1,0,0.5,0,1,0
			c0.8,0,1.3,0,1.4,0c0.2,0,0.4-0.1,0.5-0.1c0.1-0.1,0.2-0.2,0.2-0.5c0-0.2,0-0.3-0.1-0.4c-0.1-0.1-0.3-0.2-0.6-0.2
			c-0.2,0-0.7,0-1.5-0.1c-0.8,0-1.3-0.1-1.5-0.1c-0.6,0-1-0.1-1.3-0.2c-0.3-0.2-0.5-0.5-0.6-0.9c-0.1-0.2-0.1-0.5-0.1-0.9
			c0-0.8,0.1-1.4,0.4-1.7c0.2-0.3,0.5-0.4,0.9-0.5c0.4-0.1,1.2-0.1,2.6-0.1c0.9,0,1.5,0,1.9,0.1c0.5,0.1,0.8,0.2,1,0.4
			c0.3,0.3,0.4,0.8,0.4,1.5c0,0.1,0,0.2,0,0.4H146c0-0.2,0-0.3,0-0.4c0-0.2-0.2-0.3-0.4-0.3c-0.2,0-0.7,0-1.5,0
			c-0.8,0-1.3,0-1.4,0.1c-0.2,0.1-0.2,0.2-0.2,0.5c0,0.3,0.1,0.4,0.3,0.5c0.1,0,0.8,0.1,2,0.1c1.1,0,1.8,0.1,2.1,0.1
			c0.3,0.1,0.5,0.1,0.7,0.2c0.2,0.1,0.3,0.3,0.4,0.4c0.2,0.3,0.2,0.7,0.2,1.4c0,0.7-0.1,1.2-0.2,1.5c-0.2,0.3-0.4,0.5-0.8,0.7
			c-0.4,0.1-1.3,0.2-2.9,0.2c-1,0-1.7,0-2.1-0.1c-0.5-0.1-0.9-0.2-1.1-0.4c-0.2-0.2-0.4-0.5-0.4-0.9c0-0.2,0-0.4,0-0.7V88.4z"/>
		<path class="st0" d="M153.1,83.6h3.5l1.9,4.7l1.9-4.7h3.5v7.2H162l0-5.4h-0.3l-2.4,5.4h-1.6l-2.4-5.4H155l0,5.4h-1.9V83.6z"/>
		<path class="st0" d="M171.8,90.7l-0.5-1.2H167l-0.5,1.2h-2.2l3.4-7.2h3l3.3,7.2H171.8z M170.5,87.9l-1.2-2.7h-0.4l-1.2,2.7H170.5z
			"/>
		<path class="st0" d="M174.3,83.6h3.4l3.3,5.3h0.2l0-5.3h2v7.2h-3.4l-3.4-5.4h-0.2l0,5.4h-2V83.6z"/>
		<path class="st0" d="M45.1,81.8v1c0,0,0.8-0.3,1.3-0.3c0.5,0,1.4,0.7,2,0.7s1.3-0.4,1.3-0.4v-1c0,0-0.8,0.4-1.3,0.4
			c-0.5,0-1.5-0.7-2-0.7C45.9,81.6,45.1,81.8,45.1,81.8z"/>
	</g>
</g>
</svg>
