<?xml version="1.0" encoding="utf-8"?>
<!-- Generator: Adobe Illustrator 24.1.0, SVG Export Plug-In . SVG Version: 6.00 Build 0)  -->
<svg version="1.1" id="Layer_1" xmlns="http://www.w3.org/2000/svg" xmlns:xlink="http://www.w3.org/1999/xlink" x="0px" y="0px"
	 viewBox="0 0 217 141" style="enable-background:new 0 0 217 141;" xml:space="preserve">
<style type="text/css">
	.st0{fill-rule:evenodd;clip-rule:evenodd;fill:#2170B3;}
</style>
<g>
	<path class="st0" d="M58.3,70.5l-7.4-15.8H32c0.3,0.9,1.3,2.3,0.7,3.5l-5.8,12.4l-1.1,2.3c-0.9,2.3-1.9,3.5-1.9,5.8
		c0,5.1,4.4,7.7,8.1,7.7h20.7c4.1,0,8.1-2.9,8.1-7.7c0-2-0.6-3.9-1.5-5.7L58.3,70.5L58.3,70.5z M21.4,70.5l5.9-12.6
		c0.4-0.8,0.7-1.8-0.2-3.2l-2.2-3.5c-0.6-0.6-0.6-1.5,0.3-1.5h28.6l9,19.1c0.3,0.6,0.6,1.2,0.9,1.8c1.2,2.5,2.4,5.3,2.6,8.1
		c0.6,8.8-7.9,12.8-13.5,12.8H32.1c-7.5,0-14-5.6-13.5-12.8c0.1-1.2,0.3-2.5,0.9-3.8c0.3-0.8,0.6-1.3,0.9-2L21.4,70.5L21.4,70.5z"/>
	<path class="st0" d="M33.2,64.2v1.1l1.9-1.1l-1.9-1.1V64.2L33.2,64.2z M41.1,83.2l-1.8-1.1v1.1v1.1L41.1,83.2L41.1,83.2L41.1,83.2z
		 M55.1,68.6L53,67.5v1.2v1.2L55.1,68.6L55.1,68.6z M53,66.5l2.8,1.5v0.6v7.1L53,77.5v4.3l-2.6,1.5l-4.6,2.6L42,83.7l-2.7,1.5
		l-3.5-2l-3.4-1.9v-3.1L28.6,76v-7.4v-0.7l3.8-2.2v-1.6v-1.5l7-4l2.6,1.5l3.7-2.1l7.3,4.1L53,66.5L53,66.5z M52.2,68.6v-4.4v-1.5
		l-6.4-3.7l-6.5,3.8v1.4v2.2l-3.1-1.8l-6.7,3.8v0.3v7l6.7,3.9l3.2-1.8v3.6l3.5,2l3,1.7l2.9-1.7l3.5-2v-7.5l-3-1.7l3-1.8V68.6
		L52.2,68.6z"/>
	<polygon class="st0" points="41.8,68.6 42.5,68.2 39.8,66.7 39.8,64.2 39.8,63.1 41.7,64.2 45.7,66.4 45.7,68.6 45.7,74 48.6,72.3 
		51.7,74.1 45.6,77.6 39.3,74 39.3,76.9 35.9,78.9 35.9,71.9 41.8,68.6 	"/>
	<path class="st0" d="M124.2,73.9l-0.3-3.4l-1.7,3.4l-1.7,3.4h3.9L124.2,73.9L124.2,73.9z M113.7,73.9l11-19.5h7.3l0.5,19.5
		l0.3,12.5h-7.8l-0.3-3.2h-7l-1.7,3.2h-9.3L113.7,73.9L113.7,73.9z"/>
	<path class="st0" d="M151.9,66.7c1.2-5.5,0.7-7.3-1.5-7.6h-1l-2,7.6l-2,7.6h1c1.7,0,2.5-0.9,3.2-2
		C150.4,71.3,151.3,69.2,151.9,66.7L151.9,66.7z M138.9,66.7l3.3-12.3h12.1c1.3,0,2.9,1,4.1,2.3c2.3,2.5,2.3,6.6,1.7,10
		c0,0.3-0.1,0.6-0.1,0.9c-0.9,4.3-2.5,8-5.5,10.8c-1.3,1.1-3.2,2-5.2,2h-5.4l-1.6,6h-8.5L138.9,66.7L138.9,66.7z"/>
	<polygon class="st0" points="82.4,86.4 74.2,86.4 82.5,54.5 92,54.5 93.8,70.1 103.7,54.5 113.3,54.5 104.9,86.3 96.7,86.3 
		100.1,71.7 92.2,86.3 87,86.3 86.4,71.7 82.4,86.4 	"/>
	<polygon class="st0" points="173.1,86.3 156.3,86.3 164.7,54.4 181.4,54.4 179.3,62.6 170.6,62.6 169.4,66.6 178.3,66.6 
		176.2,74.3 167.4,74.3 166.5,78.1 175.2,78.1 173.1,86.3 	"/>
	<polygon class="st0" points="175.5,86.3 184,54.4 192.1,54.4 183.9,86.3 175.5,86.3 	"/>
	<path class="st0" d="M195.3,56.4v-0.6h0.4c0.3,0,0.6,0,0.6,0.3c0,0.3-0.2,0.3-0.4,0.3H195.3L195.3,56.4z M195.3,56.9h0.3l0.6,1.2
		h0.8l-0.8-1.2c0.4,0,0.7-0.2,0.7-0.8c0-0.6-0.5-0.9-1.2-0.9h-1.1v2.8h0.6V56.9L195.3,56.9z M198.5,56.7c0-1.6-1.3-2.6-2.7-2.6
		c-1.4,0-2.7,1-2.7,2.6c0,1.7,1.3,2.6,2.7,2.6C197.2,59.3,198.5,58.3,198.5,56.7L198.5,56.7z M197.7,56.7c0,1.2-0.9,2-1.9,2v0
		c-1.1,0-1.9-0.8-1.9-2c0-1.2,0.9-2,1.9-2S197.7,55.5,197.7,56.7L197.7,56.7z"/>
</g>
</svg>
