<?xml version="1.0" encoding="utf-8"?>
<!-- Generator: Adobe Illustrator 24.1.0, SVG Export Plug-In . SVG Version: 6.00 Build 0)  -->
<svg version="1.1" id="Layer_1" xmlns="http://www.w3.org/2000/svg" xmlns:xlink="http://www.w3.org/1999/xlink" x="0px" y="0px"
	 viewBox="0 0 217 141" style="enable-background:new 0 0 217 141;" xml:space="preserve">
<style type="text/css">
	.st0{fill:none;stroke:#000000;stroke-width:0.279;}
	.st1{fill:#FFFFFF;}
	.st2{fill:#29AAE1;}
</style>
<g>
	<g>
		<polygon points="55.7,71.9 51.2,64.5 51.2,71.9 45,71.9 45,55.6 51.2,55.6 51.3,62.4 55.6,55.6 62.6,55.6 57,63.2 63.2,71.9 		"/>
		<path d="M62.4,55.7L57,63.1l-0.1,0.1l0.1,0.1l6,8.4h-7.1l-4.2-6.9l-0.5-0.8V65v6.8h-6V55.7h6l0,6.2l0,0.9l0.5-0.7l4-6.4H62.4z
			 M62.9,55.5h-7.4L51.4,62l-0.1-6.5h-6.5V72h6.5v-7l4.3,7h7.8l-6.2-8.8L62.9,55.5z"/>
		<polygon points="184.1,71.9 184.1,55.6 198.4,55.6 198.4,59.3 190.4,59.3 190.4,62.3 198.1,62.3 198.1,66 190.4,66 190.4,71.9 		
			"/>
		<path d="M198.2,55.7v3.5h-7.8h-0.3v0.3v2.7v0.3h0.3h7.5v3.5h-7.5h-0.3v0.3v5.7h-6V55.7H198.2z M198.5,55.5H184V72h6.5v-5.9h7.8v-4
			h-7.8v-2.7h8V55.5z"/>
		<polygon points="167.9,71.9 167.9,55.6 182.2,55.6 182.2,59.3 174.1,59.3 174.1,62.3 181.9,62.3 181.9,66 174.1,66 174.1,71.9 		
			"/>
		<path d="M182,55.7v3.5h-7.8H174v0.3v2.7v0.3h0.3h7.5v3.5h-7.5H174v0.3v5.7h-6V55.7H182z M182.3,55.5h-14.5V72h6.5v-5.9h7.8v-4
			h-7.8v-2.7h8V55.5z"/>
		<path d="M154.2,63.7c0-1.5,0.2-4.6,2.6-4.6c2.5,0,2.7,3,2.7,4.6c0,1.8-0.1,4.6-2.7,4.6C154.5,68.3,154.2,65.5,154.2,63.7
			 M166.3,63.7c0-5.6-3.6-8.6-9.5-8.6c-5.9,0-9.4,3-9.4,8.6c0,5.6,3.5,8.6,9.4,8.6C162.7,72.3,166.3,69.4,166.3,63.7"/>
		<path class="st0" d="M154.2,63.7c0-1.5,0.2-4.6,2.6-4.6c2.5,0,2.7,3,2.7,4.6c0,1.8-0.1,4.6-2.7,4.6
			C154.5,68.3,154.2,65.5,154.2,63.7 M166.3,63.7c0-5.6-3.6-8.6-9.5-8.6c-5.9,0-9.4,3-9.4,8.6c0,5.6,3.5,8.6,9.4,8.6
			C162.7,72.3,166.3,69.4,166.3,63.7"/>
		<polygon points="139.3,71.9 139.3,65.9 134.7,65.9 134.7,71.9 128.5,71.9 128.5,55.6 134.7,55.6 134.7,61.3 139.3,61.3 
			139.3,55.6 145.6,55.6 145.6,71.9 		"/>
		<path d="M145.5,55.7v16.1h-6v-5.7v-0.3h-0.3h-4.4h-0.3v0.3v5.7h-6V55.7h6v5.5v0.3h0.3h4.4h0.3v-0.3v-5.5L145.5,55.7z M145.7,55.5
			l-6.5,0v5.7h-4.4v-5.7h-6.5V72h6.5v-6h4.4v6h6.5V55.5z"/>
		<polygon points="119.5,71.9 119.5,65.9 114.9,65.9 114.9,71.9 108.7,71.9 108.7,55.6 114.9,55.6 114.9,61.3 119.5,61.3 
			119.5,55.6 125.8,55.6 125.8,71.9 		"/>
		<path d="M125.7,55.7l0,16.1h-6v-5.7v-0.3h-0.3h-4.4h-0.3v0.3v5.7h-6V55.7h6v5.5v0.3h0.3h4.4h0.3v-0.3v-5.5H125.7z M125.9,55.5
			h-6.5v5.7h-4.4v-5.7h-6.5V72h6.5v-6h4.4v6h6.5L125.9,55.5z"/>
		<path d="M102.2,72.2c-4.9,0-10-2.3-10-8.7c0-6.1,5.4-8.2,10-8.2c1.7,0,2.7,0.2,4.3,0.5l0.2,0v4.1c-1-0.3-2-0.6-3.1-0.6
			c-3,0-5,1.7-5,4.3c0,2.7,1.8,4.4,4.8,4.4c1.1,0,2.2-0.2,3.4-0.6l0,4.1C106.1,71.7,104.1,72.2,102.2,72.2"/>
		<path d="M102.2,55.4c1.7,0,2.7,0.2,4.2,0.5l0.1,0v3.8c-1-0.3-2-0.5-3-0.5c-3.1,0-5.1,1.7-5.1,4.4c0,2.8,1.9,4.6,4.9,4.6
			c1,0,2.1-0.2,3.3-0.5l0,3.8c-0.7,0.2-2.6,0.6-4.4,0.6c-4.8,0-9.9-2.2-9.9-8.5C92.3,57.5,97.6,55.4,102.2,55.4 M102.2,55.2
			C96.7,55.2,92,58,92,63.5c0,5.9,4.5,8.8,10.2,8.8c1.7,0,3.5-0.3,4.7-0.7l0-4.4c-1.2,0.4-2.3,0.6-3.5,0.6c-2.7,0-4.6-1.4-4.6-4.3
			c0-2.7,2.1-4.2,4.9-4.2c1.1,0,2.2,0.3,3.3,0.6v-4.4C105.1,55.4,104,55.2,102.2,55.2"/>
		<path d="M84.5,71.9c-0.1-0.4-0.2-1-0.2-1.7c-0.1-1.2-0.3-2.4-0.6-3c-0.4-0.8-1.2-0.9-2-0.9H80v5.6h-6.3V55.6h10.4
			c4.3,0,6.4,1.4,6.4,4.3c0,2.2-1.3,3.6-4,4.3l0,0.2c1.2,0.2,2.1,0.8,2.8,1.7c0.5,1,0.8,2.2,1,3.4c0.1,0.8,0.3,1.7,0.5,2.3H84.5z
			 M79.8,62.8h1.8c1.3,0,2.8-0.2,2.8-2c0-1.6-1.4-1.8-2.7-1.8h-1.9V62.8z"/>
		<path d="M84.2,55.7c4.2,0,6.3,1.4,6.3,4.2c0,2.2-1.2,3.5-3.9,4.2l0,0.5c1.2,0.2,2,0.7,2.7,1.7c0.5,1,0.8,2.2,1,3.4
			c0.1,0.8,0.3,1.5,0.5,2.2h-6.2c-0.1-0.4-0.2-1-0.2-1.5c-0.1-1.2-0.3-2.4-0.7-3.1c-0.5-0.9-1.3-1-2.1-1h-1.5h-0.3v0.3v5.4h-6V55.7
			H84.2 M79.6,63h0.3h1.7c1,0,2.9,0,2.9-2.1c0-2-2-2-2.8-2h-1.8h-0.3v0.3v3.5V63 M84.2,55.5H73.7V72h6.5v-5.6h1.5
			c0.8,0,1.5,0.1,1.8,0.9c0.5,1,0.6,3.6,0.9,4.8h6.8c-0.7-1.6-0.6-4.2-1.6-5.9c-0.6-0.9-1.5-1.5-2.9-1.8c2.4-0.6,4.1-1.9,4.1-4.4
			C90.8,56.7,88.2,55.5,84.2,55.5 M79.9,62.7v-3.5h1.8c1.3,0,2.6,0.2,2.6,1.7c0,1.7-1.3,1.8-2.7,1.8H79.9z"/>
		<rect x="65" y="55.6" width="6.3" height="16.3"/>
	</g>
	<g>
		<path d="M71.2,55.7l0,16.1l-6,0V55.7H71.2z M71.4,55.5h-6.5V72l6.5,0L71.4,55.5z"/>
		<path class="st1" d="M18.5,64.1c0-5.9,4.8-10.7,10.7-10.7c5.9,0,10.7,4.8,10.7,10.7c0,5.9-4.8,10.7-10.7,10.7
			C23.3,74.7,18.5,70,18.5,64.1"/>
	</g>
	<g>
		<path class="st2" d="M18.5,64.1c0-5.9,4.8-10.7,10.7-10.7c0.6,0,1.1,0,1.7,0.1c-4.8,2.2-7.9,5.7-7.9,9.7c0,4.6,4.2,8.6,10.3,10.7
			c-1.3,0.5-2.7,0.8-4.1,0.8C23.3,74.7,18.5,70,18.5,64.1 M37.2,57.1c-4.1,2.1-6.7,5.2-6.7,8.7c0,2.8,1.7,5.3,4.4,7.3
			c3-1.9,4.9-5.2,4.9-9C39.8,61.4,38.8,58.9,37.2,57.1"/>
		<path d="M131.5,87.4h5.8v-0.9h-4.6v-3.9h4.2v-0.9h-4.2v-3.6h4.4v-0.9h-5.6V87.4z M130.3,77.3h-1.1l-3.8,9.1l-3.7-9.1h-1.2
			l4.2,10.1h1.2L130.3,77.3z M117.8,87.4h1.1V77.3h-1.1V87.4z M111.9,87.4h1.1v-9.2h3.4v-0.9h-7.8v0.9h3.4V87.4z M103.2,78
			c2.7,0,3.9,2.2,3.9,4.4c0,2.1-1.2,4.4-3.9,4.4c-2.7,0-3.9-2.2-3.9-4.4C99.3,80.2,100.5,78,103.2,78 M98.2,82.4
			c0,3.1,1.7,5.2,5,5.2c3.3,0,5-2.1,5-5.2c0-2.7-1.6-5.2-5-5.2C99.7,77.1,98.1,79.6,98.2,82.4 M84.5,87.4h1.1v-9.1h0l4.3,9.1h1
			l4.1-9.1h0v9.1h1.1V77.3h-1.6l-4.2,8.9l-4.2-8.9h-1.7V87.4z M77.6,78c2.7,0,3.9,2.2,3.9,4.4c0,2.1-1.2,4.4-3.9,4.4
			c-2.7,0-3.9-2.2-3.9-4.4C73.7,80.2,74.9,78,77.6,78 M72.6,82.4c0,3.1,1.7,5.2,5,5.2c3.3,0,5-2.1,5-5.2c0-2.7-1.6-5.2-5-5.2
			C74.2,77.1,72.5,79.6,72.6,82.4 M68,87.4h1.1v-9.2h3.4v-0.9h-7.8v0.9H68V87.4z M63.6,77.3h-1.1v6.6c0,1.7-1,2.8-3,2.8
			c-2,0-3-1.2-3-2.8v-6.6h-1.1v6.6c0,3,2.5,3.7,4.1,3.7c1.7,0,4.1-0.7,4.1-3.7V77.3z M51.7,83.8h-4.9l2.5-5.6L51.7,83.8z M44,87.4
			h1.1l1.2-2.7H52l1.2,2.7h1.2l-4.5-10.1h-1.3L44,87.4z"/>
	</g>
</g>
</svg>
