<?xml version="1.0" encoding="utf-8"?>
<!-- Generator: Adobe Illustrator 24.1.0, SVG Export Plug-In . SVG Version: 6.00 Build 0)  -->
<svg version="1.1" id="Layer_1" xmlns="http://www.w3.org/2000/svg" xmlns:xlink="http://www.w3.org/1999/xlink" x="0px" y="0px"
	 viewBox="0 0 217 141" style="enable-background:new 0 0 217 141;" xml:space="preserve">
<style type="text/css">
	.st0{fill:#003975;}
	.st1{fill:none;stroke:#003975;stroke-width:1.408;}
	.st2{fill:none;stroke:#FFFFFF;stroke-width:0.553;}
	.st3{fill:#FFFFFF;}
	.st4{fill:none;stroke:#003975;stroke-width:0.384;}
</style>
<g>
	<path class="st0" d="M182.6,70.5c0,15.7-34,28.4-75.9,28.4c-41.9,0-75.9-12.7-75.9-28.4c0-15.7,34-28.4,75.9-28.4
		C148.6,42.1,182.6,54.8,182.6,70.5"/>
	<ellipse class="st1" cx="106.7" cy="70.5" rx="75.9" ry="28.4"/>
	<path class="st0" d="M182.6,70.5c0,15.7-34,28.4-75.9,28.4c-41.9,0-75.9-12.7-75.9-28.4c0-15.7,34-28.4,75.9-28.4
		C148.6,42.1,182.6,54.8,182.6,70.5"/>
	<ellipse class="st2" cx="106.7" cy="70.5" rx="75.9" ry="28.4"/>
	<path class="st3" d="M55.4,87.1c-3.4,1.2-5.3,1.8-8,1.8c-10,0-14.4-7.6-13.3-18.2C35.7,55,46.9,43.9,59.3,44c2.6,0,4.1,0.3,6.1,1
		L62.7,56c-1.7-2-2.9-2.6-5.3-2.6c-5.8,0-11,7.3-11.9,15.7c-0.5,5.2,1.7,9,5.8,9c2.6,0,4.6-1,7.7-3.1L55.4,87.1z"/>
	<path class="st4" d="M55.4,87.1c-3.4,1.2-5.3,1.8-8,1.8c-10,0-14.4-7.6-13.3-18.2C35.7,55,46.9,43.9,59.3,44c2.6,0,4.1,0.3,6.1,1
		L62.7,56c-1.7-2-2.9-2.6-5.3-2.6c-5.8,0-11,7.3-11.9,15.7c-0.5,5.2,1.7,9,5.8,9c2.6,0,4.6-1,7.7-3.1L55.4,87.1z"/>
	<polygon class="st3" points="75.7,55.2 69.4,81.5 77,81.5 75.5,87.9 60.5,87.9 68.3,55.2 	"/>
	<polygon class="st3" points="101.3,55.2 99.9,61.9 90.9,61.9 89.2,68.1 97.4,68.1 95.9,74.8 87.7,74.8 86,81.4 95.1,81.4 
		93.6,87.9 77.8,87.9 85.5,55.2 	"/>
	<polygon class="st3" points="178.2,55.2 176.8,61.9 167.8,61.9 166.1,68.1 174.3,68.1 172.8,74.8 164.6,74.8 162.9,81.4 172,81.4 
		170.6,87.9 154.7,87.9 162.4,55.2 	"/>
	<polygon class="st4" points="178.2,55.2 176.8,61.9 167.8,61.9 166.1,68.1 174.3,68.1 172.8,74.8 164.6,74.8 162.9,81.4 172,81.4 
		170.6,87.9 154.7,87.9 162.4,55.2 	"/>
	<polygon class="st3" points="109.9,55.2 110,77.6 119.7,55.2 127.3,55.2 110.8,87.9 103.6,87.9 103.3,55.2 	"/>
	<polygon class="st3" points="138,55.2 130.3,87.9 122.8,87.9 130.5,55.2 	"/>
	<polygon class="st3" points="159.1,55.2 157.7,62 151.8,62 145.5,87.9 138.5,87.9 144.7,62 139,62 140.7,55.2 	"/>
	<path class="st0" d="M183.5,51.5c1.9,0,3.4,1.5,3.4,3.4c0,1.9-1.5,3.4-3.4,3.4c-1.9,0-3.4-1.5-3.4-3.4
		C180,53,181.6,51.5,183.5,51.5L183.5,51.5z M183.5,52.1c-1.5,0-2.8,1.3-2.8,2.9c0,1.6,1.2,2.9,2.8,2.9c1.5,0,2.8-1.3,2.8-2.9
		C186.2,53.3,185,52.1,183.5,52.1L183.5,52.1z M182.8,56.9h-0.6v-3.8c0.3,0,0.6-0.1,1.1-0.1c0.6,0,1,0.1,1.2,0.3
		c0.2,0.2,0.3,0.4,0.3,0.8c0,0.5-0.3,0.8-0.7,0.9v0c0.3,0.1,0.6,0.4,0.6,0.9c0.1,0.6,0.2,0.8,0.2,0.9h-0.6c-0.1-0.1-0.2-0.5-0.3-1
		c-0.1-0.5-0.3-0.7-0.8-0.7h-0.4V56.9z M182.8,54.8h0.4c0.5,0,0.9-0.2,0.9-0.7c0-0.3-0.2-0.7-0.9-0.7c-0.2,0-0.3,0-0.4,0V54.8z"/>
</g>
</svg>
