<?xml version="1.0" encoding="utf-8"?>
<!-- Generator: Adobe Illustrator 24.1.0, SVG Export Plug-In . SVG Version: 6.00 Build 0)  -->
<svg version="1.1" id="Layer_1" xmlns="http://www.w3.org/2000/svg" xmlns:xlink="http://www.w3.org/1999/xlink" x="0px" y="0px"
	 viewBox="0 0 217 141" style="enable-background:new 0 0 217 141;" xml:space="preserve">
<style type="text/css">
	.st0{fill:#01A4E4;}
	.st1{fill:#003A63;}
</style>
<g>
	<path class="st0" d="M18.5,36.8h30.2c0,0,6.5-0.3,10.8,3.9c4.3,4.3,24.7,31.7,24.7,31.7l-19-0.2c0,0-2.7,0.7-5.3-2.2
		c-2-2.3-2-2.3-14.2-16.4h11.6c1.8,0.3,3.5,0.3,4.8,1.8c1.4,1.7-4.4-7.3-7.4-10.2c-2-2-2.9-2.2-5.1-2.2c-3.6,0.3-23.5,0.2-23.5,0.2
		s-2.9,0.3-4.6-2.4C19.5,38,18.5,36.8,18.5,36.8z"/>
	<path class="st1" d="M28.8,46.7h12.8l2.8,4c0,0-1.5-1.5-6.4-2.5C33,47.2,28.8,46.7,28.8,46.7z"/>
	<polygon class="st1" points="32.4,97.9 32.4,77.4 37.9,77.4 44.2,87.5 51.6,77.2 57,77.2 57,98.1 53.1,98.1 53.1,82.8 44.9,94.3 
		36.5,82.8 36.5,97.7 	"/>
	<g>
		<g>
			<path class="st1" d="M94.6,86.6l7.4-9.1h-6.7L92,82.7l-4.5-5.5h-6.2l7.7,9.1l-5.4,5.4c-0.3,0.2-3.9,2.8-6.1,2.8
				c-3.7,0.5-9.1,1.1-11.1-2.3c-1-1.6-1-2-1.1-3.5h15c0,0,0.4-5.3-1.3-9.2c-1.3-1.8-2.9-3-7.3-3.2c-4.5-0.2-9.7,0.7-10.7,5.5
				c-1,4.5-1,9.9,2.5,13.2c4.8,4.5,12.2,3.4,15.2,2.9c3-0.5,5-1.7,6.5-2.6c1.1-0.6,6.3-5.1,6.3-5.1l11.1,14h5.1L94.6,86.6z
				 M70.2,80.1c1.4,0,3.6,0,4.8,1.2c0.9,1,1,3.9,1,3.9l-11.2,0C64.6,80.9,68.2,80.1,70.2,80.1z"/>
		</g>
	</g>
	<polygon class="st1" points="103.9,77.3 109.2,77.3 109.2,99.7 104,92.9 	"/>
	<path class="st1" d="M130.8,91.5c0,0-2.8,2.3-7.2,2.3c-5.3,0-6.7-1.8-7.4-4.7c-1.4-5.7,4.4-7.8,7.6-7.6c2.4,0.2,6.5,2,6.5,2
		l1.5-3.9c0,0-3.5-1.9-7.6-2.3c-3.2-0.3-10.7,0.2-12.5,6.9c-1.5,5.8,0.5,11.9,7.3,13.5c4.9,1.1,10.5,0,11.7-1.7V91.5z"/>
	<g>
		<g>
			<path class="st1" d="M152.9,98.1c0,0-0.1-10.9-0.3-14.2c-0.4-5.4-5.8-6.9-9.2-6.8c-4.5,0.1-7.9,2.2-7.9,2.2l1.8,3.4
				c0,0,2.8-1.5,4.2-1.7c1.5-0.2,3.5-0.2,4.8,0.6c1.5,1,1.9,2.2,1.9,2.2v1.7c0,0-8-0.4-10.4,0.4c-2.6,0.8-4.1,2.3-4.1,5.9
				c0,3.3,3.2,6.1,7.3,6.2c4.7,0.1,7.1-2,7.7-2.9v2.9H152.9z M144.1,94.1c-2.6,0.7-3.4,0.5-4.5,0.2c-2.3-0.7-2.1-2.2-2.2-3
				c0-0.7,0.5-2.4,2.3-2.7h8.6C148.1,90.1,147,93.4,144.1,94.1z"/>
		</g>
	</g>
	<g>
		<g>
			<path class="st1" d="M198.5,98.1c0,0-0.1-10.9-0.3-14.2c-0.4-5.4-5.8-6.9-9.2-6.8c-4.5,0.1-7.9,2.2-7.9,2.2l1.8,3.4
				c0,0,2.8-1.5,4.2-1.7c1.5-0.2,3.5-0.2,4.8,0.6c1.5,1,1.9,2.2,1.9,2.2v1.7c0,0-8-0.4-10.4,0.4c-2.6,0.8-4.1,2.3-4.1,5.9
				c0,3.3,3.2,6.1,7.3,6.2c4.7,0.1,7.1-2,7.7-2.9v2.9H198.5z M189.7,94.1c-2.6,0.7-3.4,0.5-4.5,0.2c-2.3-0.7-2.1-2.2-2.2-3
				c0-0.7,0.5-2.4,2.3-2.7h8.6C193.7,90.1,192.6,93.4,189.7,94.1z"/>
		</g>
	</g>
	<polygon class="st1" points="156.6,97.9 156.6,77.2 162.7,77.2 172.9,90.2 172.9,77.3 176.7,77.3 176.7,97.7 172.9,97.7 
		161.2,82.3 161.2,97.8 	"/>
</g>
</svg>
