<?xml version="1.0" encoding="utf-8"?>
<!-- Generator: Adobe Illustrator 24.1.0, SVG Export Plug-In . SVG Version: 6.00 Build 0)  -->
<svg version="1.1" id="Layer_1" xmlns="http://www.w3.org/2000/svg" xmlns:xlink="http://www.w3.org/1999/xlink" x="0px" y="0px"
	 viewBox="0 0 217 141" style="enable-background:new 0 0 217 141;" xml:space="preserve">
<style type="text/css">
	.st0{fill:#7BA0C4;}
	.st1{fill:#010101;}
	.st2{fill:#E1251B;}
</style>
<g>
	<path class="st0" d="M147.5,84.7l0,0.8c0,0-0.6-0.2-1.4-0.2c-0.6,0-2.3,0.6-2.3,2.2c0,1.7,1.6,2,2.1,2c0.5,0,1.4-0.2,1.4-0.2
		l-0.1,0.9c0,0-0.8,0.2-1.6,0.2c-0.8,0-3.1-0.5-3.1-2.8c0-2.4,2.2-3.2,3.4-3.2C147.2,84.5,147.5,84.7,147.5,84.7 M127.1,84.7l0,0.8
		c0,0-0.6-0.2-1.5-0.2c-0.6,0-2.2,0.6-2.2,2.2c0,1.7,1.6,2,2.1,2c0.5,0,1.4-0.2,1.4-0.2l-0.1,0.9c0,0-0.8,0.2-1.6,0.2
		c-0.8,0-3.1-0.5-3.1-2.8c0-2.4,2.2-3.2,3.4-3.2C126.8,84.5,127.1,84.7,127.1,84.7z M138,84.7l-0.1,5.7h1.1l0.1-4.9h1.7
		c0.3,0,0.4,0.5,0.4,0.7c0,0.2-0.1,1.1-1.8,1.1l2.1,4.4h1.3l-1.8-3.8c0,0,1.5-0.5,1.5-1.7c0-1.2-0.8-1.5-1-1.5
		C141.1,84.7,138,84.7,138,84.7z M154.7,84.7l-0.1,5.7h1.1l0.1-4.9h1.7c0.3,0,0.4,0.5,0.4,0.7c0,0.2-0.1,1.1-1.8,1.1l2.1,4.4h1.3
		l-1.8-3.8c0,0,1.5-0.5,1.5-1.7c0-1.2-0.8-1.5-1-1.5C157.8,84.7,154.7,84.7,154.7,84.7z M150.8,89.7c-0.4,0-2-0.4-2-2.1
		c0-1.7,1.6-2.1,2.1-2.1c0.4,0,2,0.2,2,2C153,89.6,151.3,89.7,150.8,89.7z M151.1,84.6c-0.7,0-3.5,0.4-3.5,3.1
		c0,2.8,2.7,2.9,3.2,2.9c0.9,0,3.4-0.4,3.4-3.1C154.2,84.8,151.8,84.6,151.1,84.6z M134,87.2l0.8-1.5h0.2l0.5,1.5H134z M135.7,84.7
		h-1.5l-2.9,5.7h1.3l1.1-2.2h2l0.9,2.2h1.3L135.7,84.7z M127.7,84.7l-0.2,5.6h3.5l0.2-0.9h-2.4l0.2-4.7H127.7z"/>
	<path class="st1" d="M164,87.4c-0.2-0.1-0.3-0.1-0.5-0.1c-0.1,0-0.2,0-0.3,0c-0.3,0-0.6,0.1-0.7,0.3c-0.2,0.2-0.3,0.4-0.3,0.8
		c0,0.3,0.1,0.5,0.2,0.7c0.2,0.2,0.4,0.2,0.7,0.2c0.1,0,0.2,0,0.4,0c0.1,0,0.3-0.1,0.5-0.1l-0.1,0.8c-0.2,0-0.3,0.1-0.5,0.1
		c-0.2,0-0.3,0-0.4,0c-0.5,0-0.9-0.1-1.2-0.4c-0.3-0.3-0.4-0.7-0.4-1.2c0-0.6,0.2-1,0.5-1.3c0.3-0.3,0.7-0.5,1.3-0.5
		c0.2,0,0.3,0,0.4,0c0.1,0,0.3,0.1,0.5,0.1V87.4 M166.2,87.3c-0.3,0-0.5,0.1-0.6,0.3c-0.1,0.2-0.2,0.5-0.2,0.8
		c0,0.3,0.1,0.6,0.2,0.7c0.1,0.2,0.3,0.2,0.6,0.2c0.3,0,0.5-0.1,0.6-0.3c0.1-0.2,0.2-0.5,0.2-0.8c0-0.3-0.1-0.6-0.2-0.7
		C166.6,87.3,166.4,87.3,166.2,87.3z M164.4,88.4c0-0.6,0.2-1,0.5-1.3c0.3-0.3,0.8-0.5,1.3-0.5c0.5,0,0.9,0.1,1.2,0.4
		c0.3,0.3,0.4,0.7,0.4,1.2c0,0.6-0.2,1-0.5,1.4c-0.3,0.3-0.8,0.5-1.3,0.5c-0.5,0-0.9-0.1-1.2-0.4C164.5,89.3,164.4,88.9,164.4,88.4z
		 M168.3,90c0.1-0.5,0.1-1.1,0.1-1.6c0-0.6,0-1.1,0-1.7h0.8V87c0.1-0.2,0.3-0.3,0.4-0.4c0.2-0.1,0.3-0.1,0.6-0.1
		c0.2,0,0.3,0,0.5,0.1c0.1,0.1,0.3,0.2,0.4,0.3c0.1-0.1,0.3-0.2,0.4-0.3c0.1-0.1,0.3-0.1,0.5-0.1c0.4,0,0.7,0.1,0.8,0.3
		c0.2,0.2,0.3,0.5,0.3,0.9c0,0.1,0,0.3,0,0.8c0,0.4,0,0.8,0,1.1V90h-0.9c0-0.4,0.1-0.8,0.1-1.2c0-0.4,0-0.7,0-1c0-0.2,0-0.3-0.1-0.4
		c-0.1-0.1-0.2-0.1-0.3-0.1c-0.3,0-0.5,0.2-0.6,0.5c-0.1,0.3-0.2,1-0.2,1.9V90h-0.9c0-0.4,0.1-0.8,0.1-1.2c0-0.4,0-0.7,0-0.8
		c0-0.2,0-0.4-0.1-0.5c-0.1-0.1-0.2-0.2-0.3-0.2c-0.3,0-0.5,0.2-0.6,0.5c-0.1,0.3-0.2,0.9-0.2,1.8V90H168.3z M173.7,91.3
		c0.1-0.4,0.1-1,0.2-1.7c0-0.7,0.1-1.7,0.1-2.9c0.3-0.1,0.5-0.1,0.8-0.2c0.3,0,0.5-0.1,0.7-0.1c0.6,0,1.1,0.1,1.4,0.4
		c0.3,0.3,0.5,0.7,0.5,1.2c0,0.6-0.2,1-0.5,1.3c-0.3,0.4-0.7,0.5-1.2,0.5c-0.2,0-0.4,0-0.5-0.1c-0.2-0.1-0.3-0.1-0.4-0.3l0,0.7
		l0,0.4l0,0.6H173.7z M174.8,87.4c0,0.1,0,0.3-0.1,0.4c0,0.1,0,0.3,0,0.4c0,0.4,0.1,0.7,0.2,0.8c0.1,0.2,0.3,0.3,0.6,0.3
		c0.3,0,0.5-0.1,0.6-0.3c0.2-0.2,0.2-0.4,0.2-0.8c0-0.3-0.1-0.6-0.2-0.7c-0.2-0.1-0.4-0.2-0.7-0.2c-0.1,0-0.2,0-0.3,0
		C175,87.3,174.9,87.3,174.8,87.4z M179.6,90c0-0.1,0-0.2,0-0.3c0-0.1,0-0.3,0-0.4l0.1-0.9c-0.1,0-0.1,0.1-0.2,0.1
		c-0.1,0-0.1,0-0.2,0.1l-0.4,0.1c-0.2,0.1-0.3,0.1-0.4,0.2c-0.1,0.1-0.1,0.1-0.1,0.2c0,0.1,0,0.2,0.1,0.2c0.1,0.1,0.2,0.1,0.3,0.1
		c0.1,0,0.1,0,0.2,0c0.1,0,0.2,0,0.3-0.1l-0.2,0.7c-0.1,0-0.2,0-0.3,0.1c-0.1,0-0.2,0-0.3,0c-0.3,0-0.6-0.1-0.8-0.3
		c-0.2-0.2-0.3-0.4-0.3-0.7c0-0.3,0.1-0.5,0.2-0.6c0.1-0.2,0.3-0.3,0.6-0.4l0.7-0.2c0.2-0.1,0.4-0.1,0.5-0.2
		c0.1-0.1,0.1-0.1,0.1-0.2c0-0.1,0-0.2-0.1-0.2c-0.1-0.1-0.2-0.1-0.4-0.1c-0.2,0-0.3,0-0.5,0.1c-0.2,0-0.4,0.1-0.6,0.2l0.1-0.8
		c0.2-0.1,0.4-0.1,0.6-0.1c0.2,0,0.4,0,0.6,0c0.4,0,0.8,0.1,0.9,0.2c0.2,0.1,0.3,0.4,0.3,0.7v0.2l0,0.1l-0.1,1.6V90H179.6z
		 M181.2,90c0.1-0.5,0.1-1.1,0.1-1.6c0-0.6,0-1.1,0-1.7h0.8V87c0.2-0.2,0.3-0.3,0.5-0.4c0.2-0.1,0.4-0.1,0.7-0.1
		c0.4,0,0.8,0.1,1,0.3c0.2,0.2,0.3,0.5,0.3,0.9c0,0.1,0,0.3,0,0.8c0,0.4,0,0.8,0,1.2V90h-0.9c0-0.4,0.1-0.8,0.1-1.1
		c0-0.3,0-0.6,0-0.8c0-0.3,0-0.5-0.1-0.6c-0.1-0.1-0.2-0.2-0.5-0.2c-0.4,0-0.6,0.2-0.8,0.5c-0.2,0.3-0.2,0.9-0.2,1.7V90H181.2z
		 M186,86.6l0.6,2l0,0.2l0,0.3l0.1-0.2l0.1-0.3l0.5-1.2c0-0.1,0.1-0.3,0.1-0.4c0-0.1,0.1-0.3,0.1-0.4h1l-1.6,3.6
		c-0.2,0.5-0.4,0.8-0.7,1c-0.2,0.2-0.6,0.3-1,0.3c-0.1,0-0.2,0-0.3,0c-0.1,0-0.2,0-0.3,0l0-0.8c0.1,0,0.2,0,0.3,0.1
		c0.1,0,0.2,0,0.3,0c0.2,0,0.3,0,0.4-0.1c0.1-0.1,0.2-0.2,0.3-0.3l0.2-0.3l-0.8-2.3c0-0.1-0.1-0.3-0.3-0.7l-0.1-0.3H186z M119.3,90
		c0-0.1,0-0.2,0-0.3c0-0.1,0-0.3,0-0.4l0.1-0.9c-0.1,0-0.1,0.1-0.2,0.1c-0.1,0-0.1,0-0.2,0.1l-0.4,0.1c-0.2,0.1-0.3,0.1-0.4,0.2
		c-0.1,0.1-0.1,0.1-0.1,0.2c0,0.1,0,0.2,0.1,0.2c0.1,0.1,0.2,0.1,0.3,0.1c0.1,0,0.1,0,0.2,0c0.1,0,0.2,0,0.3-0.1l-0.2,0.7
		c-0.1,0-0.2,0-0.3,0.1c-0.1,0-0.2,0-0.3,0c-0.3,0-0.6-0.1-0.8-0.3c-0.2-0.2-0.3-0.4-0.3-0.7c0-0.3,0.1-0.5,0.2-0.6
		c0.1-0.2,0.3-0.3,0.6-0.4l0.7-0.2c0.2-0.1,0.4-0.1,0.5-0.2c0.1-0.1,0.1-0.1,0.1-0.2c0-0.1,0-0.2-0.1-0.2c-0.1-0.1-0.2-0.1-0.4-0.1
		c-0.2,0-0.3,0-0.5,0.1c-0.2,0-0.4,0.1-0.7,0.2l0.1-0.8c0.2-0.1,0.4-0.1,0.6-0.1c0.2,0,0.4,0,0.6,0c0.4,0,0.8,0.1,0.9,0.2
		c0.2,0.1,0.3,0.4,0.3,0.7v0.2l0,0.1l-0.1,1.6l0,0.2l0,0.4H119.3z"/>
	<path class="st2" d="M70,66.6c0,0,1,0.6,2.5,0.8c1.9,0.3,4.7,0.1,7.1-1.9c4.2-3.4,2.8-6.4,1.4-7.9c-1.4-1.4-6.9-4.1-17-3
		c-10.1,1.1-15.8,8.5-13.6,13.1c2.2,4.6,8.5,2.5,10.7,1c2.1-1.5,3.2-3.6,3.4-4.4c0.1-0.5,0-1.7,0-2.1c-0.6,1.1-2.6,4.9-6.5,4.6
		c-2.7-0.2-3-3-1.7-5.3c1.4-2.3,4.7-4.6,8.3-5.5c3.5-1,8.5-0.2,9.5,0.1c1,0.2,2.1,1.4,2.1,1.4S70.8,58.7,68,62
		c-2.8,3.3-7.2,10.5-9.6,14c-2.3,3.5-5.6,6.5-8.4,6.4c-2.8,0-6.4-1-7-3.5c-0.5-2.5,1.7-3,2.7-2.5c1,0.5,0.8,1.8,0.7,2.1
		c-0.1,0.3-0.4,1.1,0.3,1c0.7-0.2,1.9-2.7,0.9-5.1c-1-2.4-5.7-2.5-7.5-0.7c-1.8,1.9-1.7,4.7-0.7,6.1c1,1.4,3.1,3.7,8.3,4.2
		c4.8,0.5,10-2.5,12-4.1c0.7-0.5,2.3-1.9,4-3.8c1-1.1,2-2.5,2.9-3.8C68.8,69.7,70,66.6,70,66.6 M72.8,74c0,0-0.2-0.8,0.9-2.4
		c1.1-1.6,3.1-2.2,3-1.4c-0.1,0.8-0.7,2.2-2.2,3.3C73.6,74.1,72.8,74,72.8,74z M102.8,65.5c0,0,0.1,1.1,0.8,1.8
		c0.7,0.7,1.5,0.5,1.5,0.5s0.6,0.8-0.5,1.9c-0.7,0.7-1.9,1.5-2.9,1.8c-1.1,0.3-2.1,0.1-2.6-0.5c-1.5-1.8,0.5-4,1.5-4.7
		C101.6,65.6,102.8,65.5,102.8,65.5z M72.3,75.9c0,0,7.5-2.1,8.2-5.6c0.7-3.5-4.2-2.2-5.8-1.7c-0.8,0.2-2,0.8-3.1,1.5
		c-1.2,0.9-2.4,1.9-2.9,2.7c-1,1.4-1.1,3.3-1.1,3.3s-0.6,1.5-3.1,3c-2.5,1.5-3,1.7-3.4,1.8c-0.4,0.1,0,1,0.4,1.3
		c0.4,0.2,2.7-0.8,3.8-1.7c1.2-0.9,2.6-2.2,2.6-2.2s0.3,1.9,3.4,1.9c3.1,0,6.9-2.9,8.1-3.9c1.3-1.2,2.4-2,2.4-2s0.5,3.6,3.4,3.5
		c2.2-0.1,3.6-1.1,5.3-2.4c2-1.5,3.4-3.3,3.4-3.3s0.6,4.1,5.6,2.8c2.5-0.6,4.7-2.3,6-3.9c1.4-1.6,1.8-3.1,1.8-3.1s1.9-0.9,3.2-2.2
		c1.3-1.2,1.7-2.4,1.7-2.8c0-0.4-0.4-0.7-1,0c-0.6,0.8-1.5,1.9-1.9,2.2c-0.4,0.3-1,0.4-1,0.4s-0.5-3.5-4.9-2.5
		c-1.9,0.4-4.3,1.3-5.8,2.8c-1.8,1.5-2.5,3-2.5,3s-2.7,2.8-5.2,4.1c-2.5,1.3-4.2,0.6-3.6-2.1c0.5-2.7,2.6-3.9,3.4-4.1
		c0.9-0.2,1.8,0.4,1.3,1.6c-0.5,1.1-2.4,0.6-2.4,0.6s0.2,1,1.5,1.1c1.3,0.1,3.7-0.1,3.8-2c0.2-1.9-0.8-3-3.3-2.9c-2.7,0-5.6,1.9-7,4
		c-1.5,2-1.9,3.1-1.9,3.1s-3,2.8-5.1,4c-1.1,0.6-2.4,1.5-3.7,0.9C72.3,76.9,72.3,75.9,72.3,75.9z M75.7,58.8
		c1.4-0.9,1.9,0.2,1.8,1.4c-0.1,1.2-0.7,2.9-1.6,4.2c-0.9,1.3-2.3,1.9-3.7,1.9c-1.5-0.1-1.7-0.2-1.7-0.2s0.3-1.4,1.3-2.9
		C72.9,61.3,75,59.3,75.7,58.8z"/>
	<path class="st1" d="M23.5,70.5c0-14.2,20.1-25.7,44.8-25.7c11,0,21,2.4,28.8,6.3v0.1c-7.4-3.6-16.9-5.9-27.2-5.9
		c-23.9,0-43.3,11.4-43.3,25.4c0,13.9,18.9,25.2,42.5,25.4l-0.8,0C43.6,96.2,23.5,84.7,23.5,70.5"/>
	<path class="st2" d="M27,71.1c0-13.7,19.9-24.9,44.5-24.9c16.7,0,31.3,5.2,38.9,12.8c-7.9-6.2-21.6-10.9-36.6-10.9
		c-23.4,0-42.4,10-42.4,22.3c0,12.3,18.2,22.3,42.4,22.3c16.8,0,32-5.2,39.2-12.6c-6.5,9.3-22.6,15.8-41.5,15.8
		C46.9,95.9,27,84.8,27,71.1"/>
	<path class="st1" d="M32.4,70.3c-0.5-4.1,1.4-8,4.9-11.3c7.4-6.5,21-10.9,36.5-10.9c10.8,0,21,2.4,28.7,6.1l0.3,0.2
		c-8.4-3.8-19.8-5.7-31.1-5.2C50.3,50,32.7,60,34,72.1c0.2,2.1,1.1,4.1,2.5,6C34.2,75.7,32.7,73,32.4,70.3"/>
	<path class="st1" d="M187.9,78.9c-0.2,0.1-0.5,0.1-0.8,0.2c-0.5,0.1-0.9,0.1-1.4,0.1c-1.4,0-2.5-0.3-3.3-1c-0.9-0.8-1.4-2.3-1.4-4
		v-9.1h-2.4v-2.3h2.4V60l2.9-0.9v3.8h4.2v2.3h-4.2v8.5c0,0.8,0.2,1.8,0.5,2.3c0.5,0.6,1.1,0.8,1.9,0.8c0.5,0,1,0,1.4-0.2L187.9,78.9
		 M174,69.3c0-1.2-0.3-2.4-0.9-3.2c-0.7-1-1.9-1.4-3.1-1.4c-1.4,0-2.5,0.6-3.3,1.8c-0.6,0.9-1,2-1,2.9H174z M176.6,71.4h-11.2
		c0,1.5,0.5,3.2,1.5,4.2c1,1,2.5,1.4,3.9,1.4c0.8,0,1.7,0,2.6-0.2c1-0.2,1.3-0.4,1.8-0.7l0.5,2.1c-0.7,0.3-1.7,0.6-2.5,0.8
		c-0.8,0.2-1.7,0.3-2.7,0.3c-2.5,0-4.4-0.7-5.8-2.1c-1.5-1.5-2.2-3.6-2.2-6.5c0-2.4,0.7-4.4,2-5.9c1.4-1.5,3.1-2.2,5.3-2.2
		c2.4,0,4.2,0.9,5.3,2.5C176.3,66.6,176.6,68.5,176.6,71.4z M160.6,78.3c-0.5,0.3-1.2,0.6-1.9,0.7c-0.7,0.1-1.3,0.3-2,0.3
		c-2.5,0-4.7-0.5-6.3-2.1c-1.7-1.6-2.3-3.6-2.3-6c0-2.4,0.8-4.6,2.3-6.2c1.6-1.6,3.7-2.5,6.4-2.5c1.2,0,2.6,0.3,3.9,0.9l-0.5,2.4
		c-1.2-0.6-2.2-0.9-3.2-0.9c-1.7,0-3.3,0.5-4.3,1.7c-1,1.2-1.6,2.6-1.6,4.2c0,1.5,0.3,2.9,1.1,4c0.9,1.2,2.2,2.1,4.8,2.1
		c0.6,0,1.2-0.1,1.7-0.2c0.5-0.1,0.8-0.2,1.4-0.6L160.6,78.3z M141.7,72.3v-1.5c-0.8,0-1.6,0-2.1,0c-1.5,0.1-2.3,0.4-3.3,1
		c-0.9,0.5-1.4,1.6-1.4,2.6c0,0.7,0.3,1.6,0.8,2c0.5,0.5,1.2,0.7,2,0.7c1.5,0,2.7-0.7,3.4-1.7C141.7,74.5,141.7,74,141.7,72.3z
		 M144.8,78.9h-2.6l-0.4-2c-0.5,0.7-1.1,1.2-1.7,1.6c-0.9,0.5-1.5,0.8-2.6,0.8c-1.5,0-2.8-0.3-3.7-1c-1.1-0.9-1.7-2.1-1.7-3.9
		c0-1.8,0.8-3.2,2.4-4.1c1.3-0.7,2.8-1.2,4.5-1.4l2.6-0.1c0-1.2,0.1-1.7-0.3-2.3c-0.6-0.9-1.7-1.7-3.3-1.7c-0.9,0-1.4,0-2.5,0.3
		c-0.7,0.2-1.2,0.4-1.8,0.9l-0.7-1.9c0.8-0.5,1.4-0.7,1.9-0.9c1-0.4,2-0.5,3.1-0.5c2.1,0,4.2,0.8,5.1,2c0.8,1.1,1.2,2.5,1.2,4.6v6.2
		c0,0.5,0.1,1.1,0.1,1.7C144.7,77.7,144.7,78.2,144.8,78.9z M130.7,59h-9.1v7.5h8.5v2.3h-8.5v10.1h-2.9V56.6h12V59z"/>
	<path class="st1" d="M191,74.5c0.4,0,0.7,0.1,1,0.2c0.3,0.1,0.6,0.3,0.8,0.5c0.2,0.2,0.4,0.5,0.5,0.8c0.1,0.3,0.1,0.6,0.1,0.9
		c0,0.3,0,0.7-0.2,1c-0.1,0.3-0.3,0.6-0.5,0.8c-0.2,0.2-0.5,0.4-0.9,0.5c-0.3,0.1-0.7,0.2-1.1,0.2c-0.4,0-0.7-0.1-1-0.2
		c-0.3-0.1-0.6-0.3-0.8-0.5c-0.2-0.2-0.4-0.5-0.5-0.7c-0.1-0.3-0.2-0.6-0.2-0.9c0-0.4,0.1-0.7,0.2-1c0.1-0.3,0.3-0.6,0.5-0.8
		c0.2-0.2,0.5-0.4,0.9-0.5C190.3,74.6,190.7,74.5,191,74.5 M191,74.9c-0.3,0-0.6,0-0.9,0.1c-0.3,0.1-0.5,0.2-0.7,0.4
		c-0.2,0.2-0.3,0.4-0.5,0.7c-0.1,0.3-0.1,0.6-0.1,0.8c0,0.3,0,0.5,0.1,0.8c0.1,0.2,0.2,0.5,0.4,0.6c0.2,0.2,0.4,0.3,0.7,0.4
		c0.3,0.1,0.5,0.1,0.8,0.1c0.3,0,0.6,0,0.9-0.1c0.3-0.1,0.5-0.2,0.7-0.4c0.2-0.2,0.3-0.4,0.4-0.7c0.1-0.3,0.1-0.5,0.1-0.8
		c0-0.3,0-0.5-0.1-0.8c-0.1-0.3-0.2-0.5-0.4-0.6c-0.2-0.2-0.4-0.3-0.7-0.4C191.6,74.9,191.3,74.9,191,74.9z M189.9,78.2
		c0-0.4,0.1-0.8,0.1-1.3c0-0.5,0-0.9,0-1.3c0.2,0,0.3,0,0.4,0c0.1,0,0.2,0,0.3,0c0.1,0,0.2,0,0.3,0c0.2,0,0.3,0,0.4,0
		c0.1,0,0.2,0,0.3,0.1c0.1,0.1,0.2,0.1,0.2,0.2c0,0.1,0.1,0.2,0.1,0.3c0,0.2-0.1,0.3-0.2,0.5c-0.1,0.1-0.3,0.2-0.5,0.3
		c0.1,0.1,0.2,0.3,0.3,0.6c0.1,0.2,0.3,0.4,0.3,0.6c-0.1,0-0.3,0-0.4,0c-0.1,0-0.2,0-0.3,0l-0.2-0.4c0,0,0-0.1-0.1-0.1
		c0-0.1-0.1-0.2-0.2-0.4l-0.2-0.5c0.1,0,0.2,0,0.3,0c0.1,0,0.2,0,0.3,0c0.1,0,0.2-0.1,0.2-0.2c0.1-0.1,0.1-0.1,0.1-0.2
		c0-0.1,0-0.1,0-0.2c0,0-0.1-0.1-0.1-0.1c0,0-0.1,0-0.2,0c-0.1,0-0.2,0-0.3,0c-0.1,0-0.2,0-0.3,0c0,0.3,0,0.6,0,1.1c0,0.5,0,0.8,0,1
		c-0.1,0-0.2,0-0.3,0C190.1,78.2,190,78.2,189.9,78.2z"/>
</g>
</svg>
