<?xml version="1.0" encoding="utf-8"?>
<!-- Generator: Adobe Illustrator 24.1.0, SVG Export Plug-In . SVG Version: 6.00 Build 0)  -->
<svg version="1.1" id="Layer_1" xmlns="http://www.w3.org/2000/svg" xmlns:xlink="http://www.w3.org/1999/xlink" x="0px" y="0px"
	 viewBox="0 0 217 141" style="enable-background:new 0 0 217 141;" xml:space="preserve">
<style type="text/css">
	.st0{fill-rule:evenodd;clip-rule:evenodd;}
</style>
<g>
	<path class="st0" d="M153.5,72.7c-1.3,7-6.2,9.4-10.6,9.4h-24V60.6c0-1.5,0.4-1.7,1.7-2.5l-9-0.1c0.5,0.2,1.8,0.9,1.8,2.5l0,20.7
		c0,1.7-0.7,2.4-1.8,2.8l31.6,0c8.2,0,11.5-3.1,13.9-5.9c2.6-3.1,4-8.7,1-13.5c-2.1-3.5-6.1-6.5-10.7-7.2c-1.1-0.2-2.4-0.4-4.1-0.4
		c-1.6,0-3.1,0.2-4.3,0.4c-3.8,0.9-8.5,3.3-10.7,7.3c-2.3,4.2-1.1,8.7,0.5,11.2c1.5,2.3,5.1,5.4,10,5.5l0.1-0.1
		c-3.2-1.6-4.8-4.6-5.8-8.7c-0.7-3.1-0.2-7.7,2.5-10.6c2-2.1,5-3.3,7.7-3.3c2.7,0,5.6,1.1,7.6,3.2C153.6,64.9,154.1,69.8,153.5,72.7
		L153.5,72.7z M57.2,82l-8-10.2c8.9-1.4,8-13.9-2.6-13.9H28.5c1.2,0.4,2.1,1.1,2.1,2.3v21.2c0,1-0.7,2.1-1.6,2.7h8.6
		c-0.9-0.5-1.8-1.8-1.8-2.6v-9.2h7.4L52,84l7.6,0C58.7,83.6,57.9,82.9,57.2,82L57.2,82z M43.1,70.3h-7.4l0-10.5l8.8,0
		C50.8,59.8,52.3,70.2,43.1,70.3L43.1,70.3z M90.2,60.7c-0.6-1.4,0.1-2.2,1.2-2.7H81.3c1.1,0.8,2.3,1.4,2.7,3l11.4,23h2.7l10.7-23.7
		c0.6-1.4,1.2-1.8,1.8-2.3h-6c1.1,0.3,2,1.3,1.3,2.8l-7.9,17.4L90.2,60.7L90.2,60.7z M163.9,81c0,1.6-1.4,2.6-1.9,3h5.8
		c-0.5-0.3-1.8-1.2-1.8-2.7V62.9l18,21.1h2.6V60.5c0-1.6,1.3-2.1,1.8-2.5h-5.7c0.5,0.3,1.9,1.1,1.9,2.7l0,15.2L169,58h-8.3
		c0.9,0.4,3.2,1.4,3.2,3.6V81L163.9,81z M80.7,58h-21c1,0.5,1.9,0.9,1.9,2.6l0,20.8c0,1.4-0.6,2.1-1.6,2.6h21.7l2-6.3
		c-1.1,1.2-3.6,4.4-8.1,4.4l-8.3,0V71.6h6c1.9,0,2.9,1.1,3.5,2.1v-6.2c-0.9,1.3-1.7,2.2-3.6,2.2h-6v-9.8l8.5,0
		c3.6,0,5.1,2.3,5.9,3.6L80.7,58L80.7,58z"/>
</g>
</svg>
