<?xml version="1.0" encoding="utf-8"?>
<!-- Generator: Adobe Illustrator 24.1.0, SVG Export Plug-In . SVG Version: 6.00 Build 0)  -->
<svg version="1.1" id="Capa_1" xmlns="http://www.w3.org/2000/svg" xmlns:xlink="http://www.w3.org/1999/xlink" x="0px" y="0px"
	 viewBox="0 0 217 141" style="enable-background:new 0 0 217 141;" xml:space="preserve">
<style type="text/css">
	.st0{fill:#54565A;}
	.st1{fill:#FF8300;}
</style>
<g>
	<path class="st0" d="M26.6,68.2h4c-0.2-4.8-1.3-5.6-4-5.6c-4,0-7.3,1.2-7.3,1.2l0.4-3.6c0,0,2.8-0.8,6.9-0.8c6,0,8.1,1.4,8.1,10.4
		c0,9-2.2,10.4-8.1,10.4s-8.1-1.6-8.1-6.2C18.5,69.3,20.7,68.2,26.6,68.2 M30.6,71.4h-4c-3,0-4.1,0.5-4.1,2.6c0,2.2,1.1,3,4.1,3
		C29.3,77,30.4,76.1,30.6,71.4"/>
	<path class="st0" d="M46.1,59.4c1.6,0,3,0.1,4.1,0.3v-9.9h4.1v20c0,9.2-0.4,10.4-8.1,10.4c-6,0-8.1-1.4-8.1-10.4
		C38.1,60.7,40.2,59.4,46.1,59.4 M42.1,69.8c0,6.2,1.1,7.2,4.1,7.2c3.7,0,4.1-0.4,4.1-7.2V63c-1.2-0.2-2.6-0.4-4.1-0.4
		C43.2,62.6,42.1,63.5,42.1,69.8"/>
	<path class="st0" d="M69.3,77.6c-0.7,2-2,2.6-3.3,2.6c-1.2,0-2.5-0.6-3.3-2.6c0,0-3.8-11.9-5.7-17.8h4.1l4.5,13.8L66,76
		c0.1-0.4,0.4-2.4,0.4-2.4s3-9.2,4.5-13.8H75L69.3,77.6z"/>
	<path class="st0" d="M84.5,68.2h4c-0.2-4.8-1.3-5.6-4-5.6c-4,0-7.3,1.2-7.3,1.2l0.4-3.6c0,0,2.8-0.8,6.9-0.8c6,0,8.1,1.4,8.1,10.4
		c0,9-2.2,10.4-8.1,10.4c-6,0-8.1-1.6-8.1-6.2C76.4,69.3,78.6,68.2,84.5,68.2 M88.6,71.4h-4c-3,0-4.1,0.5-4.1,2.6c0,2.2,1.1,3,4.1,3
		C87.2,77,88.3,76.1,88.6,71.4"/>
	<path class="st0" d="M112.6,79.8h-4.1v-10c0-6.2-1.1-7.2-4.1-7.2c-3,0-4.1,1-4.1,7.2v10h-4.1v-10c0-9,2.2-10.4,8.1-10.4
		c6,0,8.1,1.4,8.1,10.4V79.8z"/>
	<path class="st0" d="M120.3,69.8c0,6.2,1.1,7.2,4.1,7.2c4,0,6.5-1.2,6.5-1.2l-0.4,3.6c0,0-2,0.8-6.1,0.8c-6,0-8.1-1.4-8.1-10.4
		s2.2-10.4,8.1-10.4c4.1,0,6.1,0.8,6.1,0.8l0.4,3.6c0,0-2.5-1.2-6.5-1.2C121.4,62.6,120.3,63.6,120.3,69.8"/>
	<path class="st0" d="M141.8,71.4h-4c0.2,4.8,1.3,5.6,4,5.6c4,0,7.3-1.2,7.3-1.2l-0.4,3.6c0,0-2.8,0.8-6.9,0.8
		c-6,0-8.1-1.4-8.1-10.4s2.2-10.4,8.1-10.4c6,0,8.1,1.6,8.1,6.2C150,70.3,147.8,71.4,141.8,71.4 M137.8,68.2h4c3,0,4.1-0.5,4.1-2.6
		c0-2.2-1.1-3-4.1-3C139.1,62.6,138,63.4,137.8,68.2"/>
	<path class="st1" d="M159.4,102.3c-2.8,0-5.1-2.2-5.1-5c0-1,0.3-2,1-2.9c0.1-0.1,0.2-0.2,0.4-0.3l0,0c4.3-3.4,9.4-5.9,14.7-7.3
		c-2.1,5.6-5.1,10.6-9.1,15.1C160.7,102.1,160,102.3,159.4,102.3"/>
	<path class="st1" d="M165,99.8c3.1-4.1,5.5-8.6,7.2-13.4c2.7-0.6,5.6-0.9,8.3-0.9c1.3,0,2.7,0.1,4,0.2
		C178.4,90.9,171.9,95.6,165,99.8"/>
	<path class="st1" d="M174.8,68.5c-0.2-4.1-0.9-8.2-2.1-12.2c2.6,0.5,5.2,0.7,7.8,0.7c1.4,0,2.8-0.1,4.2-0.2
		C181.4,60.7,178,64.6,174.8,68.5"/>
	<path class="st1" d="M180.5,55.6c-2.8,0-5.6-0.3-8.4-0.9c-1.7-4.9-4.2-9.4-7.3-13.6c4.5,2.7,11.4,7,19.8,14.2
		C183.2,55.5,181.8,55.6,180.5,55.6"/>
	<path class="st1" d="M170.4,54.3c-5.4-1.4-10.5-3.9-14.8-7.3c-0.2-0.2-0.4-0.4-0.4-0.4c-0.6-0.8-0.9-1.8-0.9-2.8c0-2.8,2.3-5,5.1-5
		c0.6,0,1.2,0.1,1.9,0.4C165.2,43.6,168.3,48.7,170.4,54.3"/>
	<path class="st1" d="M160.5,85.7c2.1-4.8,3.2-9.9,3.2-15.2c0-5.1-1.1-10.2-3.1-14.9c4.1,4.9,8.1,9.9,12.4,15
		C168.9,75.5,164.7,80.5,160.5,85.7"/>
	<path class="st1" d="M186.1,83.6c-3.8-4.5-7.6-8.8-11.1-13c3.7-4.4,7.4-8.7,11.1-13c0.9,4.2,1.4,8.6,1.4,13.1
		C187.5,75,187.1,79.3,186.1,83.6"/>
	<path class="st1" d="M187.9,82.7c0.8-4,1.2-8,1.2-12.1c0-4.2-0.4-8.3-1.2-12.4c3.3,3,6.5,6.2,9.6,9.6c0.7,0.7,1,1.7,1,2.7
		c0,1-0.4,2-1.1,2.7C194.4,76.5,191.2,79.7,187.9,82.7"/>
	<path class="st1" d="M172.7,84.7c1.2-4,1.9-8,2.1-12.2c3.2,3.8,6.5,7.7,9.9,11.6c-1.4-0.1-2.8-0.2-4.2-0.2
		C177.9,84,175.3,84.2,172.7,84.7"/>
	<path class="st1" d="M159.1,89.9c4.7-5.8,9.4-11.5,14.2-17.2c-0.2,4.2-1,8.4-2.3,12.4C166.7,86.1,162.7,87.7,159.1,89.9"/>
	<path class="st1" d="M173.2,68.4c-4.9-5.9-9.6-11.5-14.3-17.3c3.7,2.2,7.7,3.8,12,4.8C172.3,60,173.1,64.2,173.2,68.4"/>
	<path class="st1" d="M52.9,91.8h-1v2.6H51V88h2.4c1.2,0,2,0.9,2,1.9c0,0.9-0.6,1.6-1.6,1.8l1.5,2.7h-1L52.9,91.8z M53.3,91
		c0.7,0,1.2-0.4,1.2-1.1c0-0.7-0.5-1.1-1.2-1.1h-1.4V91H53.3z"/>
	<polygon class="st1" points="57.5,94.4 57.5,88 61.4,88 61.4,88.8 58.4,88.8 58.4,90.8 61.1,90.8 61.1,91.6 58.4,91.6 58.4,93.6 
		61.4,93.6 61.4,94.4 	"/>
	<path class="st1" d="M67.4,92.6h-2.8l-0.7,1.8h-1l2.6-6.4h1l2.6,6.4h-1L67.4,92.6z M64.9,91.8h2.2L66,88.9L64.9,91.8z"/>
	<polygon class="st1" points="70.9,94.4 70.9,88 71.8,88 71.8,93.6 74.8,93.6 74.8,94.4 	"/>
	<polygon class="st1" points="79.9,94.4 79.9,88 83.8,88 83.8,88.8 80.8,88.8 80.8,90.8 83.5,90.8 83.5,91.6 80.8,91.6 80.8,93.6 
		83.8,93.6 83.8,94.4 	"/>
	<path class="st1" d="M89.4,89.7c-0.1-0.5-0.5-1.1-1.4-1.1c-0.7,0-1.2,0.5-1.2,1.1c0,0.5,0.3,0.8,0.8,0.9l1,0.2
		c1.1,0.2,1.7,0.9,1.7,1.8c0,1-0.9,1.9-2.2,1.9c-1.5,0-2.3-1-2.4-1.9l0.9-0.3c0.1,0.7,0.6,1.4,1.5,1.4c0.9,0,1.3-0.5,1.3-1
		c0-0.5-0.3-0.9-1-1l-0.9-0.2c-0.9-0.2-1.6-0.8-1.6-1.8c0-1,0.9-1.9,2.1-1.9c1.4,0,2,0.9,2.2,1.6L89.4,89.7z"/>
	<polygon class="st1" points="94.6,88.8 94.6,94.4 93.7,94.4 93.7,88.8 91.6,88.8 91.6,88 96.8,88 96.8,88.8 	"/>
	<path class="st1" d="M101.7,92.6h-2.8l-0.7,1.8h-1l2.6-6.4h1l2.6,6.4h-1L101.7,92.6z M99.2,91.8h2.2l-1.1-2.9L99.2,91.8z"/>
	<polygon class="st1" points="106.9,88.8 106.9,94.4 106,94.4 106,88.8 103.9,88.8 103.9,88 109.1,88 109.1,88.8 	"/>
	<polygon class="st1" points="110.9,94.4 110.9,88 114.8,88 114.8,88.8 111.8,88.8 111.8,90.8 114.5,90.8 114.5,91.6 111.8,91.6 
		111.8,93.6 114.8,93.6 114.8,94.4 	"/>
	<path class="st1" d="M194.6,102.3c-2.2,0-3.9-1.8-3.9-3.9c0-2.2,1.8-3.9,3.9-3.9c2.2,0,3.9,1.8,3.9,3.9
		C198.5,100.5,196.7,102.3,194.6,102.3 M194.6,95c-1.8,0-3.3,1.5-3.3,3.3s1.5,3.3,3.3,3.3c1.8,0,3.3-1.5,3.3-3.3S196.4,95,194.6,95"
		/>
	<path class="st1" d="M194.4,98.7h-0.6v1.5h-0.5v-3.7h1.4c0.7,0,1.1,0.5,1.1,1.1c0,0.5-0.3,0.9-0.9,1.1l0.9,1.6h-0.6L194.4,98.7z
		 M194.6,98.2c0.4,0,0.7-0.2,0.7-0.6c0-0.4-0.3-0.6-0.7-0.6h-0.8v1.3H194.6z"/>
</g>
</svg>
