<?xml version="1.0" encoding="utf-8"?>
<!-- Generator: Adobe Illustrator 24.1.0, SVG Export Plug-In . SVG Version: 6.00 Build 0)  -->
<svg version="1.1" id="Layer_1" xmlns="http://www.w3.org/2000/svg" xmlns:xlink="http://www.w3.org/1999/xlink" x="0px" y="0px"
	 viewBox="0 0 217 141" style="enable-background:new 0 0 217 141;" xml:space="preserve">
<style type="text/css">
	.st0{fill-rule:evenodd;clip-rule:evenodd;fill:#1A1818;}
	.st1{fill:#CE6365;}
	.st2{fill:#DC9091;}
	.st3{fill:#B92023;}
	.st4{fill-rule:evenodd;clip-rule:evenodd;fill:#FFFFFF;}
	.st5{fill:#A01923;}
	.st6{fill:#C21F2C;}
</style>
<g>
	<g>
		<g>
			<path class="st0" d="M197.5,79.8c-1.1,0-2,0.4-2.8,1.1c-0.8,0.8-1.2,1.8-1.2,2.9c0,1.1,0.4,2,1.2,2.8c0.8,0.8,1.8,1.2,2.9,1.2
				c1,0,2-0.4,2.8-1.2c0.8-0.7,1.2-1.7,1.2-2.9c0-1.1-0.4-2.1-1.1-2.8C199.6,80.2,198.6,79.8,197.5,79.8z M197.5,80.5
				c0.9,0,1.7,0.3,2.4,1c0.6,0.6,0.9,1.4,0.9,2.3c0,0.9-0.3,1.7-1,2.3c-0.6,0.6-1.5,1-2.3,1c-0.9,0-1.7-0.4-2.3-1
				c-0.6-0.6-0.9-1.4-0.9-2.3c0-0.9,0.3-1.7,1-2.4C195.8,80.8,196.6,80.5,197.5,80.5z M195.8,81.5v4.4h1.2v-1.8h0.4l0.8,1.8h1.3
				l-1-1.9c0.6-0.2,0.9-0.6,0.9-1.2c0-0.8-0.6-1.3-1.9-1.3H195.8z M197,82.3h0.4c0.6,0,0.9,0.2,0.9,0.6c0,0.4-0.3,0.6-0.8,0.6H197
				V82.3z"/>
			<path class="st1" d="M184.8,84.7l0-28.4l4.7-3v34.4C184.8,84.7,184.8,84.7,184.8,84.7L184.8,84.7z"/>
			<path class="st2" d="M105.5,48.9c-0.1,0-43.1-0.9-79.3,7.5l-4.7-3.1c38.3-10,83.9-9.7,84-9.7c0.1,0,45.6-0.3,84,9.7l-4.7,3
				C148.6,47.9,105.6,48.9,105.5,48.9z"/>
			<path class="st3" d="M21.7,87.7l-0.1,0V53.3c4.7,3.1,4.7,3,4.7,3c36.2-8.4,79.3-8.1,79.3-8.1c0,0,43-0.3,79.2,8.1v28.4l4.7,3.1
				c-38.3,10-83.9,9.7-84,9.7C105.4,97.4,60,97.8,21.7,87.7z"/>
			<g>
				<path class="st4" d="M61.1,67.4h-4.2v4.8c0,2.4-0.3,3.7-2,3.7c-1.9,0-2.2-1.2-2.2-3v-5.6h-4.2v6.2c0,2.8,0.7,5.1,4.7,5.1
					c1.9,0,2.8-0.5,3.8-2.4h0c0,0.7,0,1.3,0.1,2h4c-0.1-0.7-0.1-1.5-0.1-2.2V67.4z"/>
				<path class="st4" d="M111.3,78.3h4.2v-4.1c0-2.2,1.5-3.5,3.7-3.5c0.5,0,0.8,0,1.1,0.1v-3.6c-2.7,0-3.9,0.4-4.9,2.5h0
					c0-0.8,0-1.6-0.1-2.3h-4c0.1,0.7,0.1,1.5,0.1,2.2V78.3z"/>
				<path class="st4" d="M121.9,78.3h4.2v-5.2c0-2,0.6-3.3,2.1-3.3c1.9,0,2.3,1.3,2.3,3v5.6h4.2v-5.8c0-1.6,0.6-2.7,2-2.7
					c1.7,0,2.3,1.2,2.3,2.8v5.7h4.2v-6.2c0-4.3-2.8-5.1-5.2-5.1c-2.2,0-3.7,1-4.6,2.5c-0.7-1.7-2.3-2.5-3.9-2.5
					c-2.1,0-3,1.3-3.4,2.4h0c0-0.7,0-2,0-2h-4.1c0.1,0.7,0.1,1.5,0.1,2.2V78.3z"/>
				<path class="st4" d="M35.8,65.6v3.7h3.1c2.1,0,2.8-0.7,2.8-1.9c0-1.5-1.2-1.8-3.4-1.8H35.8z M31.2,78.3V62.6h9.1
					c3.8,0,5.9,1.4,5.9,4.1c0,2-1.6,3.4-4,3.8c1.3,0.1,2.6,0.4,3.1,1.4c0.8,1.4,0.8,4.7,1.5,6.4H42c-0.5-1.5-0.4-3.8-0.9-4.9
					c-0.3-0.7-1-1.1-2.8-1.1h-2.5v6H31.2z"/>
				<path class="st4" d="M74.1,72.8c0-1.9-1.3-3.3-3.2-3.3c-1.9,0-3.2,1.3-3.2,3.4c0,1.9,1.3,3.3,3.2,3.3
					C73.1,76.2,74.1,74.5,74.1,72.8z M63.6,78.3V62.6h4.2v6.2c0.8-0.9,2.2-1.8,4.7-1.8c3.7,0,5.6,2.2,5.6,5.8c0,3.7-2.1,5.9-5.5,5.9
					c-2.7,0-3.9-1.1-4.9-2.2c0,0.6,0,1.8,0,1.8H63.6z"/>
				<path class="st4" d="M99.9,71.6c0.2-1.1,0.8-2.4,2.7-2.4c1.5,0,2.7,0.6,2.7,2.4H99.9z M109.7,73.9c0-4.3-1.8-6.9-7.2-6.9
					c-3.7,0-7,1.8-7,6.1c0,4.3,3.3,5.7,7.1,5.7c3,0,6-0.3,6.9-3.7H105c-0.2,0.7-0.5,1.5-2.4,1.5c-1.8,0-2.8-0.9-2.9-2.6H109.7z"/>
				<path class="st4" d="M154.1,73.5c0,1.1-0.6,2.8-3.3,2.8c-1.2,0-1.8-0.5-1.8-1.1c0-0.9,0.6-1.7,3.4-1.7H154.1z M149.6,70.6
					c0-0.8,0.5-1.4,2-1.4c1.7,0,2.5,0.4,2.5,2.2h-3c-4.1,0-6.5,1.2-6.5,3.8c0,2.3,1.8,3.5,4.9,3.5c1.9,0,3.7-0.5,4.7-2.2h0
					c0,0.6,0,1.4,0.1,1.8h4c-0.1-0.8-0.1-1.6-0.1-2.4v-4.2c0-3.7-2.4-4.7-6.7-4.7c-2.9,0-6.1,0.8-6.3,3.6H149.6z"/>
				<path class="st4" d="M159.8,78.3h4.2V67.4h-4.2V78.3z M164.2,62.6h-4.6v3h4.6V62.6z"/>
				<path class="st4" d="M90.5,72.8c0-1.9-1.3-3.3-3.2-3.3c-1.9,0-3.2,1.3-3.2,3.4c0,1.9,1.3,3.3,3.2,3.3
					C89.5,76.2,90.5,74.5,90.5,72.8z M79.9,78.3V62.6h4.2v6.2c0.8-0.9,2.2-1.8,4.7-1.8c3.7,0,5.6,2.2,5.6,5.8c0,3.7-2.1,5.9-5.5,5.9
					c-2.7,0-3.9-1.1-4.9-2.2c0,0.6,0,1.8,0,1.8H79.9z"/>
				<path class="st4" d="M169.4,72.8c0-1.9,1.3-3.3,3.2-3.3c1.9,0,3.2,1.3,3.2,3.4c0,1.9-1.3,3.3-3.2,3.3
					C170.4,76.2,169.4,74.5,169.4,72.8z M180,78.3V62.6h-4.2v6.2c-0.8-0.9-2.2-1.8-4.7-1.8c-3.7,0-5.6,2.2-5.6,5.8
					c0,3.7,2.1,5.9,5.5,5.9c2.7,0,3.9-1.1,4.9-2.2c0,0.6,0,1.8,0,1.8H180z"/>
			</g>
			<path class="st5" d="M189.4,87.7c-38.3,10-83.9,9.7-84,9.7c-0.1,0-45.5,0.4-83.8-9.6l4.5-3.1c36.2,8.4,79.2,8.1,79.2,8.1
				c0.1,0,43.1,0.3,79.4-8.1L189.4,87.7z"/>
			<path class="st6" d="M21.6,87.7l-0.1,0V53.3c4.7,3.1,4.7,3,4.7,3l0,28.3L21.6,87.7z"/>
		</g>
	</g>
</g>
</svg>
