<?xml version="1.0" encoding="utf-8"?>
<!-- Generator: Adobe Illustrator 24.1.0, SVG Export Plug-In . SVG Version: 6.00 Build 0)  -->
<svg version="1.1" id="Layer_1" xmlns="http://www.w3.org/2000/svg" xmlns:xlink="http://www.w3.org/1999/xlink" x="0px" y="0px"
	 viewBox="0 0 217 141" style="enable-background:new 0 0 217 141;" xml:space="preserve">
<style type="text/css">
	.st0{fill:#695D55;}
	.st1{fill:#A4C4CB;}
</style>
<g>
	<path class="st0" d="M88.5,83.1c-9,0-16.4-6.9-16.4-17.1v-0.1c0-9.5,6.7-17.1,15.8-17.1c9.7,0,15.3,8,15.3,16.7
		c0,1.3-1.1,2.3-2.3,2.3H77.1c0.7,7.1,5.7,11.1,11.6,11.1c4.1,0,7.1-1.6,9.5-3.8c0.4-0.3,0.8-0.6,1.4-0.6c1.2,0,2.2,1,2.2,2.1
		c0,0.6-0.3,1.1-0.8,1.6C97.8,81.1,94.1,83.1,88.5,83.1 M98.3,64.1c-0.5-6-3.9-11.2-10.5-11.2c-5.7,0-10.1,4.8-10.7,11.2H98.3z"/>
	<path class="st0" d="M109,44.1c0-1.3,1.1-2.5,2.4-2.5c1.4,0,2.5,1.1,2.5,2.5v36.1c0,1.4-1,2.5-2.4,2.5c-1.4,0-2.5-1.1-2.5-2.5V44.1
		z"/>
	<path class="st0" d="M120.2,51.6c0-1.3,1.1-2.5,2.4-2.5c1.4,0,2.5,1.1,2.5,2.5v28.6c0,1.4-1,2.5-2.4,2.5c-1.4,0-2.5-1.1-2.5-2.5
		V51.6z"/>
	<path class="st0" d="M130.7,66v-0.1c0-9.3,7.3-17.2,16.9-17.2c5.5,0,9.2,2.1,12.1,4.8c0.4,0.3,0.8,1,0.8,1.7c0,1.3-1.1,2.4-2.4,2.4
		c-0.6,0-1.2-0.3-1.6-0.6c-2.4-2.2-5-3.9-9-3.9c-6.7,0-11.8,5.7-11.8,12.7v0.1c0,7.1,5.2,12.8,12.1,12.8c3.8,0,6.7-1.7,9.2-4
		c0.3-0.3,0.8-0.6,1.4-0.6c1.2,0,2.2,1.1,2.2,2.2c0,0.6-0.3,1.1-0.6,1.5c-3.1,3.1-6.9,5.3-12.4,5.3C137.9,83.1,130.7,75.3,130.7,66"
		/>
	<path class="st0" d="M165.2,72.8v-0.1c0-6.9,5.7-10.6,14.1-10.6c4.2,0,7.2,0.6,10.1,1.4v-1.1c0-5.9-3.6-9-9.8-9
		c-3.3,0-6.1,0.8-8.5,1.8c-0.3,0.1-0.6,0.2-0.9,0.2c-1.1,0-2.2-1-2.2-2.1c0-1,0.7-1.8,1.3-2c3.2-1.4,6.6-2.2,10.8-2.2
		c4.6,0,8.2,1.2,10.6,3.6c2.2,2.2,3.4,5.4,3.4,9.6v18c0,1.4-1,2.4-2.4,2.4c-1.4,0-2.4-1-2.4-2.3v-3c-2.3,3-6.1,5.7-11.9,5.7
		C171.4,83,165.2,79.5,165.2,72.8 M189.5,70.2v-3.2c-2.4-0.7-5.7-1.4-9.7-1.4c-6.2,0-9.6,2.7-9.6,6.8v0.1c0,4.1,3.8,6.6,8.3,6.6
		C184.5,79.2,189.5,75.5,189.5,70.2"/>
	<path class="st1" d="M28.3,61.1c-0.3,0.2-0.6,0.1-0.7-0.2c-0.2-0.4-0.4-0.8-0.6-1.2c-1.1-2.5-0.1-5.5,2.3-6.8
		c0.1-0.1,0.2-0.1,0.3-0.2c2.6-1.3,5-2.8,7.3-4.5c1.8-1.3,3.5-2.7,5.2-4.2c0.1-0.1,0.1-0.1,0.2-0.1c0,0,0.1,0,0.1,0
		c0.1,0,0.2,0,0.3,0.1c1,0.6,1.7,1.4,2.2,2.4c0.1,0.2,0.2,0.3,0.2,0.5c0.5,1.3,0.4,2.3-0.4,3.5c-0.8,1.1-1.6,2.1-2.7,3
		c-2.6,2.2-5.3,3.9-8.4,5.2C31.9,59.3,30.1,60.2,28.3,61.1L28.3,61.1"/>
	<path class="st1" d="M48.9,51.5c4.2,2.2,6.7,6.9,6.1,11.6c-0.3,2.4-1.6,4.6-3.7,5.9c-2.7,1.7-5.4,3.2-8.3,4.5
		c-5.5,2.4-10.5,5.4-15.2,9.2c-0.4,0.3-0.7,0.3-1,0c-3.4-2.9-3.5-8.2-0.3-11.2c1.2-1.1,2.4-2,3.9-2.8c2.9-1.6,5.9-3,9-4.2
		c2.2-0.9,4.3-1.9,6.3-3.2c1.9-1.1,3-2.5,3.7-4.6c0.5-1.6,0.2-3.4-0.8-4.7C48.2,51.7,48.5,51.3,48.9,51.5"/>
	<path class="st1" d="M49,74.8c2.1,1.1,3.3,3.4,3,5.7c-0.2,1.3-0.7,2.2-1.8,2.9c-1.3,0.8-2.7,1.6-4.1,2.2c-2.7,1.2-5.2,2.7-7.5,4.5
		c-0.2,0.1-0.3,0.1-0.5,0c-1.7-1.4-1.7-4-0.1-5.5c0.6-0.5,1.2-1,1.9-1.4c1.4-0.8,2.9-1.5,4.4-2.1c1.1-0.4,2.1-0.9,3.1-1.6
		c0.9-0.6,1.4-1.2,1.8-2.2c0.3-0.9,0.2-1.6-0.4-2.3C48.7,74.9,48.8,74.7,49,74.8"/>
	<path class="st0" d="M133,93.4l-0.3-0.9c0.8-0.4,1.6-0.6,2.6-0.6c2,0,3.1,1,3.1,2.9v4.4h-1v-1.1c-0.5,0.7-1.3,1.2-2.6,1.2
		c-1.3,0-2.7-0.8-2.7-2.3c0-1.5,1.3-2.3,3.1-2.3c0.9,0,1.6,0.1,2.2,0.3v-0.3c0-1.3-0.8-2-2.1-2C134.3,92.9,133.6,93.1,133,93.4
		 M133.1,97.1c0,0.9,0.8,1.5,1.8,1.5c1.3,0,2.4-0.8,2.4-2v-0.7c-0.5-0.2-1.2-0.3-2.1-0.3C133.8,95.6,133.1,96.2,133.1,97.1"/>
	<path class="st0" d="M140.9,99.3h-1.1V92h1.1v1.9c0.5-1.2,1.6-2.1,3-2v1.2h-0.1c-1.6,0-2.9,1.1-2.9,3.3V99.3z"/>
	<path class="st0" d="M144.6,89.3h1.2v1.2h-1.2V89.3z M144.7,92h1.1v7.2h-1.1V92z"/>
	<path class="st0" d="M147.8,93.4l-0.3-0.9c0.8-0.4,1.6-0.6,2.6-0.6c2,0,3.1,1,3.1,2.9v4.4h-1v-1.1c-0.5,0.7-1.3,1.2-2.6,1.2
		c-1.3,0-2.7-0.8-2.7-2.3c0-1.5,1.3-2.3,3.1-2.3c0.9,0,1.6,0.1,2.2,0.3v-0.3c0-1.3-0.8-2-2.2-2C149.2,92.9,148.5,93.1,147.8,93.4
		 M148,97.1c0,0.9,0.8,1.5,1.8,1.5c1.3,0,2.4-0.8,2.4-2v-0.7c-0.5-0.2-1.2-0.3-2.1-0.3C148.7,95.6,148,96.2,148,97.1"/>
	<path class="st0" d="M159.1,99.3H158V92h1.1v1.3c0.5-0.8,1.2-1.4,2.5-1.4c1.7,0,2.8,1.2,2.8,2.9v4.5h-1.1V95c0-1.3-0.7-2.2-2-2.2
		c-1.2,0-2.2,0.9-2.2,2.3V99.3z"/>
	<path class="st0" d="M170.9,92h1.1v7.2h-1.1V98c-0.5,0.8-1.2,1.4-2.5,1.4c-1.7,0-2.8-1.2-2.8-2.9V92h1.1v4.2c0,1.3,0.7,2.2,2,2.2
		c1.2,0,2.2-0.9,2.2-2.3V92z"/>
	<path class="st0" d="M176.8,99.4c-2.2,0-3.7-1.7-3.7-3.8c0-2.1,1.6-3.8,3.8-3.8c2.2,0,3.8,1.7,3.8,3.8
		C180.6,97.7,179,99.4,176.8,99.4 M176.8,92.8c-1.6,0-2.6,1.2-2.6,2.8c0,1.6,1.1,2.8,2.7,2.8c1.6,0,2.7-1.2,2.7-2.8
		C179.5,94.1,178.4,92.8,176.8,92.8"/>
	<polygon class="st0" points="186.6,92 187.8,92 184.7,99.3 183.7,99.3 180.6,92 181.8,92 184.2,98 	"/>
	<path class="st0" d="M188.7,93.4l-0.3-0.9c0.8-0.4,1.6-0.6,2.6-0.6c2,0,3.1,1,3.1,2.9v4.4h-1v-1.1c-0.5,0.7-1.3,1.2-2.6,1.2
		c-1.3,0-2.7-0.8-2.7-2.3c0-1.5,1.3-2.3,3.1-2.3c0.9,0,1.6,0.1,2.2,0.3v-0.3c0-1.3-0.8-2-2.2-2C190.1,92.9,189.4,93.1,188.7,93.4
		 M188.8,97.1c0,0.9,0.8,1.5,1.8,1.5c1.3,0,2.4-0.8,2.4-2v-0.7c-0.5-0.2-1.2-0.3-2.1-0.3C189.6,95.6,188.8,96.2,188.8,97.1"/>
</g>
</svg>
