<?xml version="1.0" encoding="utf-8"?>
<!-- Generator: Adobe Illustrator 24.1.0, SVG Export Plug-In . SVG Version: 6.00 Build 0)  -->
<svg version="1.1" id="Layer_1" xmlns="http://www.w3.org/2000/svg" xmlns:xlink="http://www.w3.org/1999/xlink" x="0px" y="0px"
	 viewBox="0 0 217 141" style="enable-background:new 0 0 217 141;" xml:space="preserve">
<style type="text/css">
	.st0{fill-rule:evenodd;clip-rule:evenodd;fill:#E3001E;}
	.st1{fill:#E3001E;}
	.st2{fill-rule:evenodd;clip-rule:evenodd;fill:#123467;}
	.st3{fill:#123467;}
</style>
<g>
	<path class="st0" d="M107.4,34.3c-21.5,0-39,5.2-39,11.5c0,6.4,17.5,11.5,39,11.5c21.5,0,39-5.2,39-11.5
		C146.4,39.5,128.9,34.3,107.4,34.3 M90.7,39.3c0,2.7,7.5,5,16.8,5c7.6,0,13.6,1.8,13.6,4c0,2.2-6.1,4-13.6,4H85.1
		c-5.5-1.7-8.9-3.9-8.9-6.5c0-3.3,6-6.3,15-7.9C90.9,38.4,90.7,38.8,90.7,39.3 M107.4,41.9c-5,0-9-1.2-9-2.7c0-1.5,4-2.7,9-2.7
		c17.2,0,31.2,4.1,31.2,9.2c0,5.1-14,9.2-31.2,9.2c-3.4,0-6.7-0.2-9.7-0.5h9.7c11.8,0,21.4-2.8,21.4-6.4
		C128.9,44.8,119.3,41.9,107.4,41.9"/>
	<rect x="23.5" y="88.8" class="st1" width="169.1" height="1.3"/>
	<path class="st2" d="M33.5,101.3h-1.9l1.3-2.5c0.1-0.3,0.4-0.8,0.4-1.1h0c0,0.3,0,0.7,0,1.1 M35.2,103.9c0-0.2,0-0.2,0-0.2
		c0,0,0-0.1-0.1-0.1h-0.6l-0.6-6.8c0-0.1,0-0.1-0.2-0.1h-0.6c-0.1,0-0.1,0-0.2,0.1l-3.5,6.9H29c-0.1,0-0.1,0-0.1,0.1l-0.1,0.3
		c0,0.2,0,0.2,0,0.2c0,0,0,0.1,0.1,0.1h2c0.1,0,0.1,0,0.1-0.1l0.1-0.3c0-0.2,0-0.2,0-0.2c0,0,0-0.1-0.1-0.1h-0.7l0.8-1.6h2.4
		l0.1,1.6H33c-0.1,0-0.1,0-0.1,0.1l-0.1,0.3c0,0.2,0,0.2,0,0.2c0,0,0,0.1,0.1,0.1H35c0.1,0,0.1,0,0.1-0.1L35.2,103.9z"/>
	<path class="st3" d="M45,103.9c0-0.2,0-0.2,0-0.2c0,0,0-0.1-0.1-0.1h-0.8l1.3-6.3h0.7c0.1,0,0.1,0,0.1-0.1l0.1-0.3
		c0-0.2,0-0.2,0-0.2c0,0,0-0.1-0.1-0.1H44c-0.1,0-0.1,0-0.1,0.1l-0.1,0.3c0,0.2,0,0.2,0,0.2c0,0,0,0.1,0.1,0.1h0.7l-0.6,2.6h-2.6
		l0.6-2.6h0.7c0.1,0,0.1,0,0.1-0.1l0.1-0.3c0-0.2,0-0.2,0-0.2c0,0,0-0.1-0.1-0.1h-2.4c-0.1,0-0.1,0-0.1,0.1l-0.1,0.3
		c0,0.2,0,0.2,0,0.2c0,0,0,0.1,0.1,0.1h0.7l-1.3,6.3h-0.7c-0.1,0-0.1,0-0.1,0.1l-0.1,0.3c0,0.2,0,0.2,0,0.2c0,0,0,0.1,0.1,0.1h2.4
		c0.1,0,0.1,0,0.1-0.1l0.1-0.3c0-0.2,0-0.2,0-0.2c0,0,0-0.1-0.1-0.1h-0.7l0.6-2.9h2.6l-0.6,2.9h-0.7c-0.1,0-0.1,0-0.1,0.1l-0.1,0.3
		c0,0.2,0,0.2,0,0.2c0,0,0,0.1,0.1,0.1h2.4c0.1,0,0.1,0,0.1-0.1"/>
	<path class="st2" d="M47.4,99.6l-0.8,4c0,0.1,0,0.2,0,0.3c0,0.3,0.3,0.5,0.6,0.5H48c0.1,0,0.1,0,0.1-0.1l0.1-0.4c0,0,0-0.1,0-0.1
		c0,0,0-0.1-0.1-0.1h-0.7l0.9-4.4c0-0.1,0.1-0.2,0.1-0.3c0-0.1,0-0.1-0.2-0.1h-1.5c-0.1,0-0.1,0-0.1,0.1l-0.1,0.3c0,0.2,0,0.2,0,0.2
		c0,0,0,0.1,0.1,0.1 M49,97c0-0.3-0.3-0.6-0.6-0.6c-0.3,0-0.6,0.3-0.6,0.6c0,0.3,0.3,0.6,0.6,0.6C48.7,97.6,49,97.3,49,97"/>
	<path class="st2" d="M53.7,100.7c0.1-0.3,0.1-0.6,0.4-1.1c0.1-0.1,0.2-0.2,0.2-0.3c0,0,0-0.1,0-0.1L54,98.9c0,0,0,0-0.1,0
		c-0.2,0-0.4,0.3-0.5,0.5c-0.2-0.2-0.7-0.5-1.3-0.5c-1.9,0-2.6,2.5-2.6,3.9c0,1,0.4,1.6,1.3,1.6c0.9,0,1.4-0.7,1.6-1.2l0,0
		c-0.3,1-0.2,2.7-1.6,2.7c-0.8,0-1.4-0.5-1.6-0.5c0,0-0.1,0-0.1,0.1l-0.2,0.5c0,0,0,0.1,0,0.1c0,0.1,1,0.5,1.8,0.5
		c0.9,0,1.9-0.4,2.1-1.5c0.1-0.8,0.4-1.9,0.5-2.9 M52.7,101.6c-0.2,0.8-0.8,2-1.8,2c-0.4,0-0.6-0.4-0.6-0.9c0-0.8,0.4-2.4,0.9-2.8
		c0.2-0.1,0.3-0.3,0.7-0.3c0.6,0,1,0.3,1.1,0.4L52.7,101.6z"/>
	<path class="st3" d="M56.1,101.8c0.2-0.7,0.8-2.2,2-2.2c0.3,0,0.5,0.2,0.5,0.5c0,0.1,0,0.3-0.1,0.4l-0.6,3.1c0,0.1,0,0.2,0,0.3
		c0,0.3,0.3,0.5,0.6,0.5h0.9c0.1,0,0.1,0,0.1-0.1l0.1-0.4c0,0,0-0.1,0-0.1c0,0,0-0.1-0.1-0.1h-0.7l0.7-3.2c0-0.3,0.1-0.5,0.1-0.8
		c0-0.6-0.4-0.9-1-0.9c-1,0-1.6,0.6-2,1.2l0,0c0.1-0.3,0.2-0.6,0.3-0.8l0.5-2.5c0-0.1,0.1-0.2,0.1-0.3c0,0,0-0.1-0.1-0.1h-1.5
		c-0.1,0-0.1,0-0.1,0.1l-0.1,0.3c0,0.2,0,0.2,0,0.2c0,0,0,0.1,0.1,0.1h0.8l-1.5,7.1c0,0.2,0,0.2,0,0.2c0,0,0,0.1,0.1,0.1h0.6
		c0.1,0,0.1,0,0.1-0.1"/>
	<path class="st2" d="M64.1,103.3c0,0-0.1-0.1-0.1-0.1c-0.2,0-0.6,0.5-1.6,0.5c-0.7,0-1.1-0.4-1.1-1.2c0-0.1,0-0.2,0-0.3
		c1,0,3.5,0,3.5-2c0-0.8-0.5-1.4-1.5-1.4c-1.7,0-2.8,1.7-2.8,3.6c0,1.2,0.5,2,1.8,2c1.1,0,2.1-0.7,2.1-0.8c0,0,0,0,0-0.1
		 M61.5,101.5c0.1-0.5,0.5-2,1.8-2c0.5,0,0.8,0.3,0.8,0.8C64,101.5,62.1,101.5,61.5,101.5"/>
	<path class="st3" d="M67,101.8c0.1-0.5,0.2-0.9,0.5-1.4c0.2-0.2,0.6-0.8,1-0.8c0.2,0,0.3,0.1,0.3,0.1c0,0,0,0,0.1-0.1l0.2-0.5
		c0,0,0-0.1,0-0.1c0-0.1-0.2-0.1-0.4-0.1c-0.6,0-1.2,0.6-1.5,1.1l0,0c0-0.1,0-0.2,0-0.3c0-0.4-0.1-0.7-0.2-0.7h-1.2
		c-0.1,0-0.1,0-0.1,0.1l-0.1,0.3c0,0.2,0,0.2,0,0.2c0,0,0,0.1,0.1,0.1h0.8c0,0.1,0,0.2,0,0.3c0,0.2,0,0.4-0.1,0.5l-0.8,3.7
		c0,0.2,0,0.2,0,0.2c0,0,0,0.1,0.1,0.1h0.6c0.1,0,0.1,0,0.1-0.1"/>
	<path class="st3" d="M76.6,98.4c0,0.1,0,0.1,0,0.2c0,0.1,0,0.1,0.1,0.1h0.5c0.1,0,0.1,0,0.1-0.1l0.3-1.3c0,0,0-0.1,0-0.1
		c0-0.2-0.8-0.6-1.7-0.6c-1.4,0-2.4,0.8-2.4,2.1c0,1.8,2.4,1.9,2.4,3.5c0,0.9-0.5,1.5-1.5,1.5c-0.6,0-1-0.2-1.1-0.3l0.2-1
		c0-0.1,0-0.1,0-0.2c0-0.1,0-0.1-0.1-0.1h-0.5c-0.1,0-0.1,0-0.1,0.1l-0.3,1.4c0,0,0,0.1,0,0.1c0,0.2,0.9,0.6,1.8,0.6
		c1.5,0,2.6-1,2.6-2.4c0-0.8-0.3-1.3-0.8-1.7c-0.7-0.7-1.6-1-1.6-1.8c0-0.8,0.6-1.4,1.4-1.4c0.5,0,0.9,0.2,1,0.3"/>
	<path class="st3" d="M80.6,103.6C80.6,103.5,80.6,103.5,80.6,103.6c-0.2-0.1-0.6,0.2-1.1,0.2c-0.4,0-0.5-0.1-0.5-0.5
		c0-0.1,0-0.4,0.1-0.6l0.7-3.1h1.4c0.1,0,0.1,0,0.1-0.1l0.2-0.4c0-0.1,0-0.1,0-0.1c0,0,0-0.1-0.1-0.1h-1.5l0.4-1.7c0,0,0-0.1,0-0.1
		c0,0,0-0.1-0.1-0.1c0,0-0.1,0-0.1,0l-0.6,0.2c-0.1,0-0.1,0-0.1,0.1L79,99h-0.8c-0.1,0-0.1,0-0.1,0.1L78,99.4c0,0.2,0,0.2,0,0.2
		c0,0,0,0.1,0.1,0.1h0.8l-0.7,3.1c0,0.2-0.1,0.5-0.1,0.7c0,0.7,0.4,1.1,1,1.1c0.7,0,1.6-0.3,1.6-0.5c0,0,0-0.1,0-0.1"/>
	<path class="st2" d="M84.9,101.6c-0.2,0.9-0.8,2.2-1.8,2.2c-0.5,0-0.7-0.4-0.7-0.9c0-1,0.5-3.2,1.8-3.2c0.5,0,0.9,0.4,1,0.5
		 M86.2,103.9C86.2,103.8,86.2,103.8,86.2,103.9c0-0.1,0-0.1-0.1-0.1h-0.7c0-0.1,0-0.2,0-0.3c0-0.2,0-0.6,0.1-0.8l0.7-3.5
		c0-0.1,0-0.1,0-0.1c0,0,0-0.1-0.1-0.1h-0.5c-0.1,0-0.1,0.1-0.1,0.1l-0.2,0.3c-0.2-0.2-0.4-0.6-1.2-0.6c-1.8,0-2.6,2.6-2.6,4
		c0,1,0.4,1.6,1.3,1.6c0.9,0,1.5-0.8,1.8-1.2c0,0.2-0.1,0.5,0.1,0.8c0.1,0.2,0.2,0.3,0.4,0.3H86c0.1,0,0.1,0,0.1-0.1L86.2,103.9z"/>
	<path class="st3" d="M87.4,104.1c0,0.2,0,0.2,0,0.2c0,0,0,0.1,0.1,0.1h0.6c0.1,0,0.1,0,0.1-0.1l0.5-2.4c0.2-0.7,0.8-2.2,2-2.2
		c0.3,0,0.5,0.2,0.5,0.5c0,0.1,0,0.3-0.1,0.4l-0.6,3.1c0,0.1,0,0.2,0,0.3c0,0.3,0.2,0.5,0.6,0.5h0.8c0.1,0,0.1,0,0.1-0.1l0.1-0.4
		c0,0,0-0.1,0-0.1c0,0,0-0.1-0.1-0.1h-0.7l0.7-3.2c0.1-0.3,0.1-0.5,0.1-0.8c0-0.6-0.4-0.9-1-0.9c-1,0-1.6,0.6-2,1.2l0,0
		c0-0.1,0-0.2,0-0.3c0-0.4-0.1-0.7-0.2-0.7h-1.2c-0.1,0-0.1,0-0.1,0.1l-0.1,0.3c0,0.2,0,0.2,0,0.2c0,0,0,0.1,0.1,0.1h0.8
		c0,0.1,0,0.2,0,0.3c0,0.2,0,0.4-0.1,0.5"/>
	<path class="st2" d="M96.4,101.7c-0.2,1.1-0.9,2.1-1.9,2.1c-0.5,0-0.6-0.4-0.6-1c0-1.2,0.4-3.2,1.8-3.2c0.5,0,0.8,0.2,1,0.3
		 M97.4,97L97,99.2c-0.2-0.1-0.6-0.4-1.2-0.4c-1.8,0-2.6,2.1-2.6,4c0,1.1,0.5,1.7,1.3,1.7c0.9,0,1.5-0.7,1.8-1.1h0
		c0,0.2,0,0.4,0.1,0.6c0.1,0.2,0.2,0.4,0.5,0.4h0.9c0.1,0,0.1,0,0.1-0.1l0.1-0.4c0,0,0-0.1,0-0.1c0,0,0-0.1-0.1-0.1H97
		c0-0.1,0-0.2,0-0.3c0-0.2,0-0.6,0.1-0.8l1.3-5.9c0-0.1,0.1-0.2,0.1-0.3c0-0.1,0-0.1-0.2-0.1h-1.4c-0.1,0-0.1,0-0.1,0.1l-0.1,0.3
		c0,0.1,0,0.2,0,0.2c0,0,0,0.1,0.1,0.1H97.4z"/>
	<path class="st2" d="M102,101.6c-0.2,0.9-0.8,2.2-1.8,2.2c-0.5,0-0.7-0.4-0.7-0.9c0-1,0.5-3.2,1.8-3.2c0.5,0,0.9,0.4,1,0.5
		 M103.4,103.9C103.4,103.8,103.4,103.8,103.4,103.9c0-0.1,0-0.1-0.1-0.1h-0.7c0-0.1,0-0.2,0-0.3c0-0.2,0-0.6,0.1-0.8l0.8-3.5
		c0-0.1,0-0.1,0-0.1c0,0,0-0.1-0.1-0.1h-0.5c-0.1,0-0.1,0.1-0.1,0.1l-0.2,0.3c-0.2-0.2-0.4-0.6-1.2-0.6c-1.8,0-2.6,2.6-2.6,4
		c0,1,0.4,1.6,1.3,1.6c0.9,0,1.5-0.8,1.8-1.2c0,0.2-0.1,0.5,0.1,0.8c0.1,0.2,0.2,0.3,0.4,0.3h0.9c0.1,0,0.1,0,0.1-0.1L103.4,103.9z"
		/>
	<path class="st3" d="M105.9,101.8c0.1-0.5,0.2-0.9,0.5-1.4c0.2-0.2,0.6-0.8,1-0.8c0.2,0,0.3,0.1,0.3,0.1c0,0,0,0,0.1-0.1l0.2-0.5
		c0,0,0-0.1,0-0.1c0-0.1-0.2-0.1-0.4-0.1c-0.6,0-1.2,0.6-1.5,1.1l0,0c0-0.1,0-0.2,0-0.3c0-0.4-0.1-0.7-0.2-0.7h-1.2
		c-0.1,0-0.1,0-0.1,0.1l-0.1,0.3c0,0.2,0,0.2,0,0.2c0,0,0,0.1,0.1,0.1h0.8c0,0.1,0,0.2,0,0.3c0,0.2,0,0.4-0.1,0.5l-0.8,3.7
		c0,0.2,0,0.2,0,0.2c0,0,0,0.1,0.1,0.1h0.6c0.1,0,0.1,0,0.1-0.1"/>
	<path class="st2" d="M111.5,101.7c-0.2,1.1-0.9,2.1-1.9,2.1c-0.5,0-0.6-0.4-0.6-1c0-1.2,0.4-3.2,1.8-3.2c0.5,0,0.8,0.2,1,0.3
		 M112.5,97l-0.5,2.2c-0.2-0.1-0.6-0.4-1.2-0.4c-1.8,0-2.6,2.1-2.6,4c0,1.1,0.5,1.7,1.3,1.7c0.9,0,1.5-0.7,1.8-1.1h0
		c0,0.2,0,0.4,0.1,0.6c0.1,0.2,0.2,0.4,0.5,0.4h0.9c0.1,0,0.1,0,0.1-0.1l0.1-0.4c0,0,0-0.1,0-0.1c0,0,0-0.1-0.1-0.1H112
		c0-0.1,0-0.2,0-0.3c0-0.2,0-0.6,0.1-0.8l1.3-5.9c0-0.1,0.1-0.2,0.1-0.3c0-0.1,0-0.1-0.2-0.1h-1.4c-0.1,0-0.1,0-0.1,0.1l-0.1,0.3
		c0,0.1,0,0.2,0,0.2c0,0,0,0.1,0.1,0.1H112.5z"/>
	<path class="st2" d="M120,98.8c-1.9,0-2.9,2-2.9,3.8c0,1.3,0.7,1.9,1.7,1.9c1.9,0,2.9-2,2.9-3.8C121.7,99.4,121,98.8,120,98.8
		 M120.8,100.7c0,1.2-0.6,3-1.9,3c-0.7,0-1-0.4-1-1.1c0-1.3,0.5-3,1.9-3C120.4,99.6,120.8,99.9,120.8,100.7"/>
	<path class="st3" d="M125.9,99.6c0.1,0,0.1,0,0.1-0.1l0.1-0.3c0.1-0.2,0.1-0.2,0.1-0.2c0,0,0-0.1-0.1-0.1h-1.6l0.2-1
		c0.1-0.4,0.1-1.1,0.9-1.1c0.5,0,0.9,0.3,1,0.3c0,0,0.1,0,0.1-0.1l0.2-0.5c0,0,0,0,0,0c0-0.1-0.6-0.3-1.2-0.3c-1.5,0-1.7,1-1.8,1.7
		l-0.2,1.1h-0.8c-0.1,0-0.1,0-0.1,0.1l-0.1,0.3c0,0.2,0,0.2,0,0.2c0,0,0,0.1,0.1,0.1h0.8l-1,5c-0.1,0.4-0.3,1.3-1.2,1.3
		c-0.3,0-0.6-0.1-0.7-0.1c0,0-0.1,0-0.1,0.1l-0.2,0.5c0,0,0,0.1,0,0.1c0,0.1,0.5,0.2,0.9,0.2c1.7,0,2-1.3,2.1-2l1-5"/>
	<path class="st2" d="M131.2,100.3l0.6-2.9h1.1c0.5,0,0.9,0.1,0.9,1.1c0,0.3-0.1,1-0.6,1.5c-0.3,0.3-0.7,0.4-1.3,0.4 M131.4,103.9
		c0-0.2,0-0.2,0-0.2c0,0,0-0.1-0.1-0.1h-0.9l0.5-2.6h0.8c0.6,0,1.3-0.1,1.8-0.5c0.5-0.5,1-1.2,1-2.3c0-1.6-1.2-1.6-2.1-1.6h-2.2
		c-0.1,0-0.1,0-0.1,0.1l-0.1,0.3c0,0.2,0,0.2,0,0.2c0,0,0,0.1,0.1,0.1h0.8l-1.3,6.3h-0.7c-0.1,0-0.1,0-0.1,0.1l-0.1,0.3
		c0,0.2,0,0.2,0,0.2c0,0,0,0.1,0.1,0.1h2.5c0.1,0,0.1,0,0.1-0.1L131.4,103.9z"/>
	<path class="st2" d="M138.1,103.3c0,0-0.1-0.1-0.1-0.1c-0.2,0-0.6,0.5-1.6,0.5c-0.7,0-1.1-0.4-1.1-1.2c0-0.1,0-0.2,0-0.3
		c1,0,3.5,0,3.5-2c0-0.8-0.5-1.4-1.5-1.4c-1.7,0-2.8,1.7-2.8,3.6c0,1.2,0.5,2,1.8,2c1.1,0,2.1-0.7,2.1-0.8c0,0,0,0,0-0.1
		 M135.4,101.5c0.1-0.5,0.5-2,1.8-2c0.5,0,0.8,0.3,0.8,0.8C138,101.5,136,101.5,135.4,101.5"/>
	<path class="st3" d="M141,101.8c0.1-0.5,0.2-0.9,0.5-1.4c0.2-0.2,0.6-0.8,1-0.8c0.2,0,0.3,0.1,0.3,0.1c0,0,0,0,0.1-0.1l0.2-0.5
		c0,0,0-0.1,0-0.1c0-0.1-0.2-0.1-0.4-0.1c-0.6,0-1.2,0.6-1.5,1.1l0,0c0-0.1,0-0.2,0-0.3c0-0.4-0.1-0.7-0.2-0.7h-1.2
		c-0.1,0-0.1,0-0.1,0.1l-0.1,0.3c0,0.2,0,0.2,0,0.2c0,0,0,0.1,0.1,0.1h0.8c0,0.1,0,0.2,0,0.3c0,0.2,0,0.4-0.1,0.5l-0.8,3.7
		c0,0.2,0,0.2,0,0.2c0,0,0,0.1,0.1,0.1h0.6c0.1,0,0.1,0,0.1-0.1"/>
	<path class="st3" d="M147,99.6c0.1,0,0.1,0,0.1-0.1l0.1-0.3c0.1-0.2,0.1-0.2,0.1-0.2c0,0,0-0.1-0.1-0.1h-1.6l0.2-1
		c0.1-0.4,0.1-1.1,0.9-1.1c0.5,0,0.9,0.3,1,0.3c0,0,0.1,0,0.1-0.1l0.2-0.5c0,0,0,0,0,0c0-0.1-0.6-0.3-1.2-0.3c-1.5,0-1.7,1-1.8,1.7
		l-0.2,1.1H144c-0.1,0-0.1,0-0.1,0.1l-0.1,0.3c0,0.2,0,0.2,0,0.2c0,0,0,0.1,0.1,0.1h0.8l-1,5c-0.1,0.4-0.3,1.3-1.2,1.3
		c-0.3,0-0.6-0.1-0.7-0.1c0,0-0.1,0-0.1,0.1l-0.2,0.5c0,0,0,0.1,0,0.1c0,0.1,0.5,0.2,0.9,0.2c1.7,0,2-1.3,2.1-2l0.9-5"/>
	<path class="st2" d="M149.7,98.8c-1.9,0-2.9,2-2.9,3.8c0,1.3,0.7,1.9,1.7,1.9c1.9,0,2.9-2,2.9-3.8
		C151.4,99.4,150.7,98.8,149.7,98.8 M150.5,100.7c0,1.2-0.6,3-1.9,3c-0.7,0-1-0.4-1-1.1c0-1.3,0.5-3,1.9-3
		C150.1,99.6,150.5,99.9,150.5,100.7"/>
	<path class="st3" d="M153.7,101.8c0.1-0.5,0.2-0.9,0.5-1.4c0.2-0.2,0.6-0.8,1-0.8c0.2,0,0.3,0.1,0.3,0.1c0,0,0,0,0.1-0.1l0.2-0.5
		c0,0,0-0.1,0-0.1c0-0.1-0.2-0.1-0.4-0.1c-0.6,0-1.2,0.6-1.5,1.1l0,0c0-0.1,0-0.2,0-0.3c0-0.4-0.1-0.7-0.2-0.7h-1.2
		c-0.1,0-0.1,0-0.1,0.1l-0.1,0.3c0,0.2,0,0.2,0,0.2c0,0,0,0.1,0.1,0.1h0.8c0,0.1,0,0.2,0,0.3c0,0.2,0,0.4-0.1,0.5l-0.8,3.7
		c0,0.2,0,0.2,0,0.2c0,0,0,0.1,0.1,0.1h0.6c0.1,0,0.1,0,0.1-0.1"/>
	<path class="st3" d="M157.2,99.6c0,0.1,0,0.2,0,0.3c0,0.2,0,0.4-0.1,0.5l-0.8,3.7c0,0.2,0,0.2,0,0.2c0,0,0,0.1,0.1,0.1h0.6
		c0.1,0,0.1,0,0.1-0.1l0.5-2.4c0.1-0.7,0.7-2.2,1.8-2.2c0.3,0,0.5,0.2,0.5,0.5c0,0.1,0,0.3-0.1,0.4l-0.8,3.6c0,0.2,0,0.2,0,0.2
		c0,0,0,0.1,0.1,0.1h0.6c0.1,0,0.1,0,0.1-0.1l0.5-2.3c0.2-1.2,0.7-2.4,1.8-2.4c0.3,0,0.5,0.2,0.5,0.5c0,0.1,0,0.3-0.1,0.4l-0.7,3.1
		c0,0.1,0,0.2,0,0.3c0,0.3,0.3,0.5,0.6,0.5h0.9c0.1,0,0.1,0,0.1-0.1l0.1-0.4c0,0,0-0.1,0-0.1c0,0,0-0.1-0.1-0.1h-0.7l0.7-3.2
		c0-0.3,0.1-0.5,0.1-0.8c0-0.6-0.4-0.9-1-0.9c-0.9,0-1.4,0.5-1.8,1h0c0-0.7-0.4-1-0.9-1c-0.9,0-1.4,0.6-1.8,1.2l0,0
		c0-0.1,0-0.2,0-0.3c0-0.4-0.1-0.7-0.2-0.7h-1.2c-0.1,0-0.1,0-0.1,0.1l-0.1,0.3c0,0.2,0,0.2,0,0.2c0,0,0,0.1,0.1,0.1"/>
	<path class="st2" d="M168.1,101.6c-0.2,0.9-0.8,2.2-1.8,2.2c-0.5,0-0.7-0.4-0.7-0.9c0-1,0.5-3.2,1.8-3.2c0.5,0,0.9,0.4,1,0.5
		 M169.4,103.9C169.4,103.8,169.4,103.8,169.4,103.9c0-0.1,0-0.1-0.1-0.1h-0.7c0-0.1,0-0.2,0-0.3c0-0.2,0-0.6,0.1-0.8l0.7-3.5
		c0-0.1,0-0.1,0-0.1c0,0,0-0.1-0.1-0.1h-0.5c-0.1,0-0.1,0.1-0.1,0.1l-0.2,0.3c-0.2-0.2-0.4-0.6-1.2-0.6c-1.8,0-2.6,2.6-2.6,4
		c0,1,0.4,1.6,1.3,1.6c0.9,0,1.5-0.8,1.8-1.2c0,0.2-0.1,0.5,0.1,0.8c0.1,0.2,0.2,0.3,0.4,0.3h0.9c0.1,0,0.1,0,0.1-0.1L169.4,103.9z"
		/>
	<path class="st3" d="M170.6,104.1c0,0.2,0,0.2,0,0.2c0,0,0,0.1,0.1,0.1h0.6c0.1,0,0.1,0,0.1-0.1l0.5-2.4c0.2-0.7,0.8-2.2,2-2.2
		c0.3,0,0.5,0.2,0.5,0.5c0,0.1,0,0.3-0.1,0.4l-0.7,3.1c0,0.1,0,0.2,0,0.3c0,0.3,0.2,0.5,0.6,0.5h0.9c0.1,0,0.1,0,0.1-0.1l0.1-0.4
		c0,0,0-0.1,0-0.1c0,0,0-0.1-0.1-0.1h-0.7l0.7-3.2c0.1-0.3,0.1-0.5,0.1-0.8c0-0.6-0.4-0.9-1-0.9c-1,0-1.6,0.6-2,1.2l0,0
		c0-0.1,0-0.2,0-0.3c0-0.4-0.1-0.7-0.2-0.7h-1.2c-0.1,0-0.1,0-0.1,0.1l-0.1,0.3c0,0.2,0,0.2,0,0.2c0,0,0,0.1,0.1,0.1h0.8
		c0,0.1,0,0.2,0,0.3c0,0.2,0,0.4-0.1,0.5"/>
	<path class="st3" d="M180.4,99.5c0-0.1,0-0.1,0-0.1c0-0.4-1-0.5-1.3-0.5c-1.9,0-2.9,2-2.9,3.8c0,1.2,0.5,1.9,1.6,1.9
		c1,0,1.8-0.6,1.8-0.7c0,0,0-0.1,0-0.1l-0.2-0.4c0,0-0.1,0-0.1,0c-0.1,0-0.5,0.5-1.3,0.5c-0.7,0-1-0.4-1-1.1c0-1.3,0.6-3.1,1.9-3.1
		c0.3,0,0.5,0.1,0.6,0.1l-0.2,0.8c0,0,0,0.1,0,0.1c0,0.1,0,0.1,0.1,0.1h0.5c0.1,0,0.1,0,0.1-0.1"/>
	<path class="st2" d="M184.2,103.3c0,0-0.1-0.1-0.1-0.1c-0.2,0-0.6,0.5-1.6,0.5c-0.7,0-1.1-0.4-1.1-1.2c0-0.1,0-0.2,0-0.3
		c1,0,3.5,0,3.5-2c0-0.8-0.5-1.4-1.5-1.4c-1.7,0-2.8,1.7-2.8,3.6c0,1.2,0.5,2,1.8,2c1.1,0,2.1-0.7,2.1-0.8c0,0,0,0,0-0.1
		 M181.6,101.5c0.1-0.5,0.5-2,1.8-2c0.5,0,0.8,0.3,0.8,0.8C184.2,101.5,182.2,101.5,181.6,101.5"/>
	<path class="st3" d="M186.8,103.8c0-0.4-0.3-0.8-0.8-0.8c-0.4,0-0.8,0.3-0.8,0.8c0,0.4,0.3,0.7,0.8,0.7
		C186.5,104.5,186.8,104.2,186.8,103.8"/>
	<path class="st3" d="M187.4,98.7c-0.1,0.3,0,0.8,0.8,0.8c0.2,0,0.9-0.1,1.1-0.8c0.1-0.4-0.2-0.6-0.5-0.6l-0.5-0.1
		c-0.1,0-0.2-0.1-0.2-0.2c0-0.2,0.3-0.3,0.5-0.3c0.4,0,0.4,0.2,0.4,0.4h0.5c0.1-0.3,0-0.8-0.8-0.8c-0.8,0-1,0.5-1.1,0.7
		c-0.1,0.5,0.2,0.6,0.6,0.7l0.2,0.1c0.2,0.1,0.4,0.1,0.4,0.3c-0.1,0.3-0.3,0.3-0.6,0.3c-0.4,0-0.4-0.2-0.4-0.4"/>
	<polyline class="st3" points="192.4,97.1 191.7,97.1 190.8,99 190.8,99 190.8,97.1 190.1,97.1 189.6,99.5 190,99.5 190.5,97.5 
		190.5,97.5 190.5,99.5 191,99.5 191.8,97.5 191.8,97.5 191.4,99.5 191.9,99.5 	"/>
	<path class="st3" d="M47.8,73H32.1V71l20.3,0v-4.3l-18.6,0c-3.2,0-6.4,2.2-6.4,5.4c0,3.1,2.7,5.3,5.8,5.3h15.9v2H28.5v4.3l19.3,0
		c3,0,5.7-2.2,5.8-5.2C53.7,75.4,50.9,73,47.8,73"/>
	<polyline class="st3" points="54.9,66.7 54.9,71 64.8,71 64.8,83.7 69.2,83.7 69.2,71 79.1,71 79.1,66.7 	"/>
	<path class="st3" d="M87.4,66.7c-1.8,0-3,0.2-4.3,1.4c-1.2,1.2-1.7,2.3-1.7,4v6.1c0,1.5,0.4,2.4,1.4,3.5c1.2,1.5,2.6,2,4.6,2h17.9
		v-4.3H86v-2l19.3,0V73H86v-2h19.3v-4.3"/>
	<path class="st3" d="M112.3,83.7V71.3l4,8.8c1,2.2,2.5,4.3,5,4c2.1-0.3,3-2,3.9-4l4.1-8.9v12.5h4.1V71.4c0-2.5-1.7-4.8-4.2-4.7
		c-2.1,0.1-3.4,1.3-4.2,3.2l-4.2,10l-3.9-9.5c-0.9-2.2-2.7-3.9-5-3.7c-2.2,0.2-3.7,2-3.7,4.2v12.8"/>
	<path class="st3" d="M160.6,66.7h-17.8c-1.8,0-3.1,0-4.5,1.2c-1.6,1.3-2,3-2,5.1v5.7c0,1.5,0.6,2.4,1.6,3.4c1.2,1.2,2.3,1.6,4,1.6
		h18.7v-4.3H141V71h19.6"/>
	<path class="st2" d="M169.5,66.7c-1.7,0-2.9,0.3-4.1,1.4c-1.2,1-1.9,2-1.9,3.6v6.5c0,1.5,0.3,2.5,1.3,3.7c1.2,1.3,2.3,1.8,4.1,1.8
		H182c1.6,0,2.7-0.5,3.8-1.6c1.1-1.1,1.6-2.1,1.6-3.6v-6.4c0-1.4-0.4-2.3-1.2-3.3c-1.1-1.4-2.3-2.1-4.1-2.1 M182.7,79.4h-14.6V71
		h14.6V79.4z"/>
	<path class="st2" d="M190.7,69.1h0.3l0.6,1.1h0.7l-0.7-1.1c0.3,0,0.6-0.2,0.6-0.7c0-0.6-0.4-0.8-1.1-0.8h-1v2.6h0.6 M190.7,68.6V68
		h0.4c0.2,0,0.5,0,0.5,0.3c0,0.3-0.1,0.3-0.4,0.3H190.7z M193.5,68.9c0-1.5-1.2-2.4-2.4-2.4c-1.3,0-2.4,0.9-2.4,2.4
		c0,1.5,1.2,2.4,2.4,2.4C192.3,71.3,193.5,70.4,193.5,68.9 M192.8,68.9c0,1.1-0.8,1.9-1.7,1.9v0c-1,0-1.7-0.7-1.7-1.9
		c0-1.1,0.8-1.9,1.7-1.9C192,67,192.8,67.8,192.8,68.9"/>
</g>
</svg>
