<?xml version="1.0" encoding="utf-8"?>
<!-- Generator: Adobe Illustrator 24.1.0, SVG Export Plug-In . SVG Version: 6.00 Build 0)  -->
<svg version="1.1" id="Layer_1" xmlns="http://www.w3.org/2000/svg" xmlns:xlink="http://www.w3.org/1999/xlink" x="0px" y="0px"
	 viewBox="0 0 217 141" style="enable-background:new 0 0 217 141;" xml:space="preserve">
<style type="text/css">
	.st0{fill:#FFFFFF;}
	.st1{fill:#001C2C;}
	.st2{fill:#FEFEFE;}
	.st3{fill:#DE2F38;}
	.st4{fill:#F9A526;}
	.st5{fill:#502D12;}
</style>
<g>
	<g>
		<g>
			<path class="st0" d="M153.2,70.5c0,24.7-20,44.7-44.7,44.7c-24.7,0-44.7-20-44.7-44.7c0-24.7,20-44.7,44.7-44.7
				C133.2,25.8,153.2,45.8,153.2,70.5"/>
		</g>
		<g>
			<path class="st1" d="M137.4,70.5c0,16-13,28.9-28.9,28.9c-16,0-28.9-12.9-28.9-28.9c0-16,12.9-28.9,28.9-28.9
				C124.5,41.6,137.4,54.5,137.4,70.5"/>
		</g>
		<g>
			<path class="st1" d="M108.5,115.5c-24.8,0-45-20.2-45-45c0-24.8,20.2-45,45-45c24.8,0,45,20.2,45,45
				C153.5,95.3,133.3,115.5,108.5,115.5L108.5,115.5z M108.5,26.9c-24,0-43.6,19.5-43.6,43.6c0,24,19.5,43.6,43.6,43.6
				c24,0,43.6-19.5,43.6-43.6C152.1,46.5,132.5,26.9,108.5,26.9L108.5,26.9z M108.5,101.6c-17.1,0-31.1-13.9-31.1-31.1
				c0-17.1,13.9-31.1,31.1-31.1c17.1,0,31.1,13.9,31.1,31.1C139.6,87.6,125.6,101.6,108.5,101.6L108.5,101.6z M108.5,40.9
				c-16.3,0-29.6,13.3-29.6,29.6c0,16.3,13.3,29.6,29.6,29.6c16.3,0,29.6-13.3,29.6-29.6C138.1,54.2,124.8,40.9,108.5,40.9
				L108.5,40.9z"/>
		</g>
	</g>
	<g>
		<polygon class="st0" points="87.7,66.3 93.7,66 93.2,67 92.4,67.3 91.1,67.6 90.3,67.4 89.6,67.4 88.7,67.4 88.2,67.1 87.9,66.7 
					"/>
	</g>
	<g>
		<polygon class="st2" points="99.5,68.4 82.8,67.5 82,68.3 83,69.2 99.1,69.9 		"/>
	</g>
	<g>
		<polygon class="st0" points="117.5,68.5 118,70.1 134.1,69 135,68.2 133.8,67 117.4,68.3 		"/>
	</g>
	<g>
		<polygon class="st0" points="122.6,66 128.3,66 128,66.7 126.8,67 125.1,67.3 124.2,67 122.9,67 		"/>
	</g>
	<g>
		<g>
			<path class="st3" d="M116.7,66c0.1,0.1,0.2-0.2,0.3-0.3c0,0,0.4-0.5,2.2-1.3l1.6-0.8c0,0,0.5-0.3,0.2-1c0,0-0.1-0.6-0.9-0.6
				c0,0,0.1-0.7,1-1c0,0,0.1,2.3,1.4,3c0,0-0.1-0.4,0-0.7c0,0,0.3,0.5,0.6,0.5c0,0-0.1-0.8,1-1c0,0,1.6-0.4,1.7,0.6
				c0,0,0.3,0.9-0.7,1.5c0,0-0.9,0.6-1.1,0.7c0,0-0.7,0.6,0,0.8c0,0,0.7-0.1,1-0.3c0,0,0,0.3,0.4,0.3c0,0,0.4,0,0.8-0.4
				c0,0,0.3,0.6,1,0.1l0.9-0.9c0,0,0.2,0,0-0.8c0,0-0.6-2.8,0.2-2.5c0,0,0.5,0.1,0.7,0.4c0,0-0.3-2.2-1.4-2.2c0,0-0.6-0.1-1.1,0.2
				c0,0-0.6,0.3-1.1-0.2c0,0-0.8-0.6-1.3-2c0,0-0.6-1.4,0.8-1.1c0,0-0.6-0.8-0.6-1.1c0,0,0.8,0.1,1,0.4c0,0-0.8-2-1.8-2.9
				c0,0,1.1-4.5-2-4.6c0,0-2.7-0.3-7.1,1c0,0-2.4,0.7-3.5-0.3c0,0-0.5-0.8,0.8-1.1c0,0,1-0.4,2.3-0.1c0,0,3.5,0.9,5.6-0.4
				c0,0-1.2-0.2-1.4-0.5c0,0,1.2-0.4,2.4-0.3c0,0-5.2-2.5-7.8-0.4c0,0-3.9,0.1-3.5,2.9c0,0,0.5,2.7,4.3,1.8c0,0,3.9-0.9,4.4-1.1
				c0,0,6-1,3.5,2.1c0,0-3.3-0.1-6.6,0.9c0,0-3.3,1.2-5.5,1.3c0,0,0.4-0.5,0.3-0.9c0,0-1.4,0.2-2-0.4c0,0,0.6-0.9,0.9-1
				c0,0-0.5,0.1-1.2-0.3c0,0,1-0.6,1.6-0.6c0,0-0.5-0.6-2.3-0.9c0,0,0.7-0.4,0.9-0.6c0,0-1-0.3-2-1.3c0,0-1.2-1.5-1.8-1.3
				c0,0-0.5-1-1.9-1c0,0-0.6-0.6-2.4-0.4c0,0-0.3-0.4-0.3-0.6c0,0-0.9,0.7-1.3,1.5c0,0-1.2,0.5-2,1.7c0,0-0.3,0.6-0.8,0.9
				c0,0-2.4,1-2.3,2.1c0,0,0,0.9,0.7,0.8c0,0,0.4,0.1,0.3,0.6c0,0,0.8,0.2,1.4,0.1c0,0-0.9,1.1-2.1,1.7c0,0,1.2,0.4,3.5-0.9
				c0,0,0,0.3-0.7,0.6c0,0-0.1,0.1,0,0.2c0,0-0.1,0.1-0.4,0.1c0,0,0,0.8,2.4,0.5c0,0-0.1,0.5-0.6,1c0,0,0.2,0.1,0.5,0.1
				c0,0-0.5,1.7-1.3,2.8c0,0-0.5,0.8-0.9,1.1c0,0-2,1.3-2,1.7c0,0,0.4,0,0.6,0c0,0-1.1,1.5-2.7,2.2c0,0-2.1,0.8-2.5,1.3
				c0,0-1,1.6,0.1,1.6c0,0,1.8-0.2,2.2-0.1c0,0,0.5,0.1,1.8-1.1c0,0,3.7-3.1,5.1-3.1c0,0,0,0.5,0.2,0.6c0,0,1.1-1.5,1.7-1.5
				c0.6,0,1.5,1.7,5.4,1.6c0,0,2.8,0.2,6.1-1.8c0,0,3-1.7,4.4-2.9c0,0,1.9-0.1,2,0.1c0,0-1.7,1.6-1.4,3.8c0,0,0.4-0.5,0.4-0.5
				c0,0,0,0.4,0.2,0.5c0,0,0.3-0.7,0.6-0.6c0,0,0.7,0,0.6,0.9c0,0,0,0.8-0.9,0.8c0,0-1.8,0.1-2.4,0.4c0,0-0.8,0.3-1.2,0.8
				C114,64.7,115.8,65.2,116.7,66"/>
		</g>
		<g>
			<path class="st3" d="M116.4,65.7l6.4,0.4c0,0,0,1.2,1.6,0.7c0,0,1,0.6,1.8,0.1c0,0,1.9-0.2,1.7-0.9l5.2,0.2l1.5,1.7l-16.9,0.9
				C117.7,68.8,117,66.5,116.4,65.7"/>
		</g>
		<g>
			<path class="st3" d="M119.2,83.8l15.5-15.3l-16.8,1.1c0,0,1.4,4.7,1.4,7.3C119.3,76.9,119.4,82.4,119.2,83.8"/>
		</g>
		<g>
			<path class="st3" d="M98.1,83.7L82.3,68.6l17,1c0,0-1.1,5.3-1.2,6.3C98.1,75.8,97.8,79.7,98.1,83.7"/>
		</g>
		<g>
			<path class="st3" d="M99.5,68.7l-17-0.9l1.7-1.5l3.8-0.1c0,0,0.1,0.8,0.6,1c0,0,0.8,0.2,1.3,0c0,0,0.6-0.1,0.7,0.1
				c0,0,0.6,0.3,1.2,0l1-0.4c0,0,0.6-0.2,0.6-0.9l6.8-0.2C100.3,65.8,99.7,68.2,99.5,68.7"/>
		</g>
		<g>
			<path class="st4" d="M108.7,64.1c0,0-8.2,0-8.7,2.4c0,0-1.2,4.5-1.6,6.7c0,0-0.9,5.9-0.3,10.5c0,0,0.8,6.3,4.5,11
				c0,0,1.6,1.6,6.1,1.6c0,0,4.2,0.1,6-1.6c1.8-1.7,4.4-8.3,4.4-11c0,0,0.6-5.8-0.4-10.5c0,0-1-5-1.8-6.7
				C116.9,66.5,116.4,64.1,108.7,64.1"/>
		</g>
		<g>
			<path class="st5" d="M113.7,68.9l0-0.2l-11,0c-0.6-0.3-0.6-0.8-0.5-1c0-1.2,5-1.7,6.6-1.8c0,0,0,0,0,0c1.1,0,6.2,0.1,6.2,1.9
				c0,0,0,0,0,0c0,0,0.1,0.2-0.1,0.5C114.7,68.5,114.3,68.8,113.7,68.9L113.7,68.9z M109.3,68.3h4.8c0.2-0.1,0.3-0.2,0.3-0.3
				c0.1-0.1,0-0.2,0-0.2c0-0.1,0-0.2-0.1-0.3h-4C110.3,67.9,109.9,68.2,109.3,68.3L109.3,68.3z M102.8,68.3h5
				c-0.6-0.1-1-0.4-1.1-0.8h-3.9c-0.1,0.1-0.2,0.2-0.2,0.3C102.5,67.9,102.5,68.1,102.8,68.3L102.8,68.3z M108.5,66.7
				c-0.9,0-1.5,0.3-1.5,0.6c0,0.3,0.6,0.6,1.5,0.6c0.9,0,1.5-0.3,1.5-0.6C110.1,67,109.4,66.7,108.5,66.7L108.5,66.7z M110.4,67.1
				h3.4c-1-0.5-2.8-0.7-4.4-0.7C110,66.5,110.3,66.8,110.4,67.1L110.4,67.1z M103.7,67.1h2.9c0.1-0.3,0.3-0.5,0.7-0.6
				C106,66.6,104.6,66.9,103.7,67.1L103.7,67.1z M115.5,68.3l-0.2-0.4c0.3-0.1,0.2-0.5,0.2-0.5c0-0.2-0.1-0.3-0.2-0.4
				c-0.9-1-5.1-1.3-6.6-1.3c-3,0.1-7.3,0.7-7.3,1.7c0,0,0,0.4,0.3,0.5l-0.2,0.4c-0.6-0.2-0.6-0.8-0.6-0.9c0-1.8,6.4-2.1,7.7-2.1
				c0.2,0,5.7,0.1,6.9,1.4c0.2,0.2,0.3,0.4,0.3,0.7C116,67.5,116,68.1,115.5,68.3L115.5,68.3z"/>
		</g>
		<g>
			<path class="st5" d="M107.7,66.6v1.5c0,0,0.4,0.1,0.9,0.1c0,0,0.5,0,0.8-0.1v-1.5c0,0-0.3-0.1-0.8-0.1
				C108.6,66.5,108.1,66.5,107.7,66.6"/>
		</g>
		<g>
			<path class="st0" d="M109.2,66.8c0,0.2-0.3,0.3-0.7,0.3c-0.4,0-0.7-0.1-0.7-0.3c0-0.2,0.3-0.3,0.7-0.3
				C108.9,66.5,109.2,66.7,109.2,66.8"/>
		</g>
	</g>
	<g>
		<path class="st5" d="M115.4,68.2h-0.4v-1.8l1-0.9l0.3,0.3l-0.9,0.7V68.2L115.4,68.2z M102.5,67.8h-0.4v-1.4l-0.9-1.1l0.3-0.3
			l1,1.3V67.8L102.5,67.8z M115.7,67.2l-0.1-0.4l1.2-0.3l0.1,0.4L115.7,67.2L115.7,67.2z M101.3,67l-1.2-0.7l0.2-0.4l1.2,0.7
			L101.3,67L101.3,67z M104,66.9h-0.4v-0.9l-0.6-1.2l0.4-0.2l0.6,1.3L104,66.9L104,66.9z M113.7,66.7h-0.4v-0.8l0.9-1.2l0.3,0.3
			l-0.8,1.1L113.7,66.7L113.7,66.7z M105.8,66.5h-0.4v-0.8l-0.5-1.2l0.4-0.2l0.5,1.3L105.8,66.5L105.8,66.5z M111.7,66.3h-0.4v-0.7
			l0.6-1.3l0.4,0.2l-0.6,1.2L111.7,66.3L111.7,66.3z M107.5,66.3H107v-0.8l-0.2-1.2l0.4-0.1l0.2,1.3L107.5,66.3L107.5,66.3z
			 M109.6,66.1h-0.4v-0.7l0.4-1.3l0.4,0.1l-0.3,1.2L109.6,66.1L109.6,66.1z"/>
	</g>
	<g>
		<path class="st0" d="M116.9,66.6c0,2.5-8.2,2.9-8.2,2.9c-7.5,0-8.7-2.9-8.7-2.9c-0.1,0.4-0.7,2.5-0.7,2.5s4,2.6,9.3,2.6
			c0,0,5.5-0.1,9.1-2.5L116.9,66.6z"/>
	</g>
	<g>
		<path class="st5" d="M108.6,72c-5.3,0-9.3-2.6-9.4-2.6l-0.1-0.1l0-0.2c0,0,0.6-2.1,0.7-2.5L100,66l0.2,0.6c0,0,1.2,2.7,8.5,2.7
			c2.2-0.1,7.9-0.8,7.9-2.7l0.4-0.1l0.9,2.8l-0.1,0.1C114.2,71.9,108.9,72,108.6,72L108.6,72L108.6,72z M99.6,69.1
			c0.7,0.4,4.4,2.5,9,2.5c0.1,0,5.3-0.1,8.8-2.4l-0.6-1.8c-1.2,2-7.4,2.3-8.1,2.4c-5.9,0-7.9-1.7-8.6-2.6
			C100,67.8,99.7,68.7,99.6,69.1L99.6,69.1z"/>
	</g>
	<g>
		<path class="st0" d="M101.6,93.1c0,0,2.5,1.5,7.1,1.5c0,0,4.2,0.1,7.2-1.5c0,0-0.8,1.3-1.4,1.7c0,0-2,1.4-5.7,1.4
			c0,0-3.5,0.1-5.9-1.4L101.6,93.1z"/>
	</g>
	<g>
		<path class="st5" d="M108.5,96.4c-0.8,0-3.7-0.1-5.9-1.4l-1.3-1.7l0.3-0.3c0,0,2.5,1.4,6.9,1.4l0.2,0c0.7,0,4.3-0.1,7-1.5l0.6-0.3
			l-0.4,0.6c0,0.1-0.8,1.4-1.5,1.8c-0.1,0-2.1,1.4-5.8,1.4L108.5,96.4L108.5,96.4z M102.2,93.7l0.7,1c2.1,1.2,5,1.3,5.6,1.3l0.1,0
			c3.6,0,5.6-1.3,5.6-1.3c0.3-0.2,0.7-0.6,1-1c-2.6,1.1-5.8,1.2-6.5,1.2l-0.2,0C105.4,94.8,103.3,94.1,102.2,93.7L102.2,93.7z"/>
	</g>
	<g>
		<path class="st5" d="M108.9,94.5h-0.4V71.8h0.4V94.5L108.9,94.5z M106,94.4c-1.7-10.2-0.4-22.8-0.4-22.9l0.4,0
			c0,0.1-1.3,12.6,0.4,22.8L106,94.4L106,94.4z M111.6,94.3l-0.4-0.1c1.9-8.3-0.1-22.5-0.1-22.6l0.4-0.1
			C111.5,71.7,113.5,85.9,111.6,94.3L111.6,94.3z M103.7,93.9c-3.4-10.9-0.9-22.9-0.9-23.1l0.4,0.1c0,0.1-2.5,12,0.9,22.8
			L103.7,93.9L103.7,93.9z M114,93.9l-0.4-0.1c3.1-8.5,0.4-22.6,0.3-22.8l0.4-0.1C114.4,71,117.1,85.3,114,93.9L114,93.9z
			 M102.3,93.6c-6-10.9-1.7-23.6-1.7-23.7l0.4,0.1c0,0.1-4.3,12.6,1.7,23.4L102.3,93.6L102.3,93.6z M115.1,93.5l-0.4-0.2
			c5.5-9.9,1.5-23.1,1.5-23.3l0.4-0.1C116.7,70.1,120.7,83.5,115.1,93.5L115.1,93.5z"/>
	</g>
	<g>
		<path class="st0" d="M99.2,46.4c0,0-0.4,0.8-0.4,1.1c0,0-0.3-0.3-0.4-0.4C98.4,47.1,98.9,46.4,99.2,46.4"/>
	</g>
	<g>
		<path class="st0" d="M97.7,48.5c0,0,0.4-0.4,0.6-0.3c0,0,0.2-0.1,0.3,0.2l0,0.5C98.5,48.8,97.8,48.5,97.7,48.5"/>
	</g>
	<g>
		<path class="st0" d="M96.4,48.8c0,0,0.5,0.6,0.8,0.7c0,0-0.3,0.5-0.3,0.7c0,0-0.7-0.2-1-0.1c0,0,0.2-0.6,0.5-0.6L96.4,48.8z"/>
	</g>
	<g>
		<path class="st0" d="M100,46.7c0,0,0.2-0.4,0.6-0.2c0,0,0.6,0.4,0.6,0.8c0,0-0.9-0.1-1-0.2C100.2,47.1,99.9,47,100,46.7"/>
	</g>
	<g>
		<path class="st0" d="M102.3,47.5c0,0,0.2,0.5,0.3,0.7c0,0,0.6-0.3,0.7-0.3C103.3,47.9,103,47.5,102.3,47.5"/>
	</g>
	<g>
		<path class="st0" d="M100.7,48.9c0,0,0.9,2.6,2.5,2.8c0,0-1.4-1.7-1.6-2.3C101.6,49.4,100.9,49.1,100.7,48.9"/>
	</g>
	<g>
		<path class="st0" d="M102.6,49.4c0,0,0.6,1.9,2.5,1.7C105.1,51,102.9,49.6,102.6,49.4"/>
	</g>
	<g>
		<path class="st0" d="M103.8,48.7c0,0,0.3-0.2,0.7,0.1c0,0,0.8,0.7,0.9,0.9C105.4,49.7,103.6,49.7,103.8,48.7"/>
	</g>
	<g>
		<path class="st0" d="M104.9,51.7h1.2c0,0-0.2,0.4-0.6,0.4C105.5,52.1,105,52,104.9,51.7"/>
	</g>
	<g>
		<path class="st0" d="M105.9,52.9l0.7,0c0,0,0.1,0.4,0.3,0.7C106.9,53.5,106.2,53.4,105.9,52.9"/>
	</g>
	<g>
		<path class="st0" d="M105.9,54.1c0,0,0.8,0.4,1.1,0.5c0,0-0.6,0.2-0.8,0.3C106.2,54.9,105.9,54.5,105.9,54.1"/>
	</g>
	<g>
		<path class="st0" d="M102.2,52.7c0,0,1.2,0.7,2,0.8l0.2,0.9C104.4,54.4,103.1,54.1,102.2,52.7"/>
	</g>
	<g>
		<path class="st0" d="M102,54.6c0,0,2.5,0.6,3.4,0.5l0.3,0.9c0,0-0.9-0.3-1.4-0.4c0,0,0,0.4,0.1,0.6
			C104.4,56.2,102.7,55.8,102,54.6"/>
	</g>
	<g>
		<path class="st0" d="M105,57l0.5,1l-0.7-0.1C104.8,57.8,105,57.4,105,57"/>
	</g>
	<g>
		<path class="st0" d="M102.6,56.7c0,0,1.1,0.2,1.7,0.4c0,0-0.2,0.7-0.1,0.9C104.2,57.9,103.5,57.7,102.6,56.7"/>
	</g>
	<g>
		<path class="st0" d="M100.5,54.2c0,0,1,1.5,1.2,1.7c0,0-0.4-0.2-0.7-0.3c0,0-0.1,0.5,0,0.7C101,56.2,100.3,55.7,100.5,54.2"/>
	</g>
	<g>
		<path class="st0" d="M99.4,54.3c0,0,0.4,0.2,0.3,0.5c0,0-0.6,0.6-0.8,0.8C98.9,55.5,98.6,54.3,99.4,54.3"/>
	</g>
	<g>
		<path class="st0" d="M99.3,51c0,0,0.6,0.3,0.7,1.4c0,0-0.3-0.5-0.7-0.5C99.3,51.9,99.4,51.2,99.3,51"/>
	</g>
	<g>
		<path class="st0" d="M100.2,49.9l-0.4,0.5c0,0,1.1,1.8,1.2,2.2c0,0,0.1-1.1,0.2-1.2c0,0-0.3-0.1-0.5-0.2c0,0,0-0.4,0.2-0.4
			C100.9,50.7,100.3,50.7,100.2,49.9"/>
	</g>
	<g>
		<path class="st0" d="M93.6,50.9c0,0-0.5,0.2-0.5,0.7c0,0-0.1,0.4,0.4,0.4C93.5,52,93.4,51.2,93.6,50.9"/>
	</g>
	<g>
		<path class="st0" d="M94,51.2c0,0-0.3,0.8,0.1,0.8c0,0,0.1,0,0.2-0.1C94.3,51.8,94.1,51.4,94,51.2"/>
	</g>
	<g>
		<path class="st0" d="M96,52.9c0,0,0.3,0.3,0.5,0.4c0,0-0.6,0.4-0.9,0.5C95.6,53.8,95.9,53.2,96,52.9"/>
	</g>
	<g>
		<path class="st0" d="M96.3,52c0,0,1.5,0.1,1.2,2.2c0,0,0.7-0.3,0.9-0.8c0,0,0.3,0.1,0.4,0.1l0.1-0.4l0.3,0.1l-0.1-0.7
			c0,0-0.7,0.6-0.9,0.7C98.2,53.2,97.5,51.7,96.3,52"/>
	</g>
	<g>
		<path class="st0" d="M97.9,58.4c0,0,0.1-1.3,0.8-1.2c0,0,0.2,0.1,0.3,0.2c0,0,0.6-1.1,0.8-1.1l0,0.1l-0.3,1.4l1-0.4l1,0.8l0.5-0.4
			l1.2,1.2l0.3-0.6l0.7,0.9c0,0,0.2,0.1,0.4,0c0,0,0.4-0.8,0.9-0.6l0.7,0.3l0-1.9l0.9,0l0.1-1.4l1.2-0.4l0.4,0.2l-1.1,0.6l0.2,1.3
			c0,0-0.9,0.2-1,0.4l0.1,1.9l-1.9,0.1c0,0-0.2,0.5-0.2,0.9c0,0-0.7-0.4-1.2-1c0,0-0.2,0.3-0.3,0.5l-1.1-1.1l-0.5,0.4l-1.4-1.4
			l-1.6,0.9l0-0.8C98.5,58.1,98.1,58.3,97.9,58.4"/>
	</g>
	<g>
		<path class="st0" d="M97.3,60.3l0-0.6c0,0-1.2,0.7-2.2,1.9c0,0-1.2,1.4-1.7,1.8c0,0-1.1,0.8-1.7,1.1c0,0-1.3,0.5-1.7,0.9
			c0,0,1-0.4,1.4-0.5c0,0,0.8-0.2,1.5-0.9c0,0,1.7-1.5,2.1-1.8C94.9,62.3,96.7,60.6,97.3,60.3"/>
	</g>
	<g>
		<path class="st0" d="M100.3,60.4c0,0,0.5-0.5,0.1-0.8c0,0-0.2-0.1-0.5,0.1c0,0-0.6,0.1-0.7-0.2c0,0-1.5,1.1-2.4,1.9
			c0,0-1.5,1.2-1.9,1.5c0,0-1.2,0.9-1.8,1.7c0,0-0.9,0.5-1.5,0.7c0,0-1.6,0.3-1.6,0.7c0,0,1.8,0.1,2.3-0.2c0,0,1.7-1.4,1.8-1.5
			c0,0,2-1.7,3-2.2c0,0,1.9-1,2.5-1.1C99.6,60.9,100,60.7,100.3,60.4"/>
	</g>
	<g>
		<path class="st0" d="M104.1,60.9c0,0,1.2,0.2,1.5,0.1c0,0,0-0.8,0.5-0.9c0,0,0.4-0.1,0.5,0.6c0,0,0,0.2,0.3,0.2
			c0,0,0.4,0.2,1.1-1.1c0,0,4.9-0.9,6.5-1.8c0,0-2.2,2.1-5.7,3.1c0,0-3,0.8-4.9,0.1L104.1,60.9z"/>
	</g>
	<g>
		<path class="st0" d="M109.4,56.6c0,0-0.5,0.5-0.5,0.8c0,0,0.9,0,2-0.4c0,0,2.7-1.4,4.6-1.3c0,0-1.1-0.9-3.3,0
			C112.1,55.7,110.2,56.5,109.4,56.6"/>
	</g>
	<g>
		<path class="st0" d="M115.2,54.4c0,0,2.3-1.5,6-1.2l0.3,0.7C121.5,53.9,116.9,54,115.2,54.4"/>
	</g>
	<g>
		<path class="st0" d="M118.6,55c0,0,3.8-1.3,4.3,2.6C122.8,57.6,120.3,55.5,118.6,55"/>
	</g>
	<g>
		<path class="st0" d="M122.9,53.9c0,0,0,0.8-0.1,1c0,0,1-0.1,1.1,0C123.9,55,123.3,54.1,122.9,53.9"/>
	</g>
	<g>
		<path class="st0" d="M119.1,58.8c0,0,1.3,0.5,1.5,0.9c0,0-1.1,0.8-1.3,1.1c0,0-0.6-0.7-1.2-0.3C118.1,60.5,118.6,59.1,119.1,58.8"
			/>
	</g>
	<g>
		<path class="st0" d="M121.9,60c0,0,0.1,1.5,1.2,1.7c0,0,1.8,0,1.9,0.2c0,0,0-0.7-1.3-1.1C123.7,60.8,122.8,60.8,121.9,60"/>
	</g>
	<g>
		<path class="st0" d="M115.5,64.3c0,0-0.5,0-0.8,0.3c0,0-0.1,0.2,0.1,0.2c0,0,0.1,0.1,0.4,0C115.1,64.8,115.4,64.5,115.5,64.3"/>
	</g>
	<g>
		<path class="st0" d="M117,64.7c0,0-0.6-0.1-1,0.3c0,0-0.3,0.3,0,0.3c0,0,0.2,0.1,0.5-0.1C116.4,65.3,116.8,65,117,64.7"/>
	</g>
	<g>
		<path class="st0" d="M126.4,61.3c0,0,0.6,0.7,0.6,1c0,0,0.2-0.8,0.3-0.9C127.4,61.4,126.6,61.4,126.4,61.3"/>
	</g>
	<g>
		<path class="st0" d="M127.9,64.6c0,0-0.6,0.6-0.8,0.7c0,0-0.4,0.2-0.1,0.4C127,65.7,127.9,66,127.9,64.6"/>
	</g>
	<g>
		<path class="st0" d="M126.2,65.3c0,0-0.5,0.3-0.6,0.4C125.6,65.7,125.9,66.5,126.2,65.3"/>
	</g>
	<g>
		<path class="st0" d="M125.3,65.4c0,0-0.7,0.2-0.8,0.3C124.4,65.7,124.9,66.3,125.3,65.4"/>
	</g>
	<g>
		<path class="st0" d="M122.3,52.8c0,0,0.5,0.2,0.6,0.4c0,0,0.4-1.9-0.2-2.7C122.7,50.5,122.9,52,122.3,52.8"/>
	</g>
	<g>
		<path class="st0" d="M111.6,50.8c-1.2-0.1-1.4-1.1-1.4-1.1c-0.2-1.1,1-1.6,1-1.6c1.3-0.6,3.3-0.4,3.3-0.4c2.8,0.6,3.3-0.3,3.3-0.3
			c-0.7,0.2-2.3-0.1-2.3-0.1c0.1-0.4,1.4-0.6,1.4-0.6s-1.5-0.5-3.3,0.6c0,0-0.2,0.1-0.5,0.1c0,0-1.5,0.2-2,0.5c0,0-1.3,0.6-1.2,1.8
			C110,49.7,110.2,51.3,111.6,50.8"/>
	</g>
	<g>
		<path class="st5" d="M108.8,96.4L108.8,96.4L108.8,96.4c-4.7,0-6.3-1.6-6.3-1.7c-3.6-4.6-4.5-11-4.5-11
			c-0.6-4.5,0.3-10.5,0.3-10.5c0.3-2.2,1.5-6.7,1.5-6.7c0.5-2.5,8-2.5,8.9-2.5c7.8,0,8.4,2.4,8.4,2.5c0.8,1.7,1.8,6.5,1.8,6.7
			c1,4.6,0.4,10.5,0.4,10.5c0,2.8-2.6,9.4-4.4,11.1C113.2,96.3,109.5,96.4,108.8,96.4L108.8,96.4z M102.8,94.5c0,0,1.6,1.5,5.9,1.5
			l0.1,0l0,0c0.4,0,4.2,0,5.8-1.6c1.7-1.6,4.3-8,4.3-10.8c0-0.1,0.6-5.8-0.4-10.4c0-0.1-1-5-1.8-6.6c0-0.1-0.7-2.2-8-2.2
			c-2.8,0-8.1,0.5-8.5,2.2c0,0.1-1.2,4.5-1.5,6.7c0,0.1-0.9,5.9-0.3,10.4C98.4,83.7,99.2,89.9,102.8,94.5L102.8,94.5L102.8,94.5z"/>
	</g>
	<g>
		<path class="st5" d="M110.8,70.5c0,0.2-0.2,0.4-0.4,0.4c-0.2,0-0.4-0.2-0.4-0.4c0-0.2,0.2-0.4,0.4-0.4
			C110.6,70.1,110.8,70.3,110.8,70.5"/>
	</g>
	<g>
		<path class="st5" d="M111.9,70.4c0,0.2-0.2,0.4-0.4,0.4c-0.2,0-0.4-0.2-0.4-0.4c0-0.2,0.2-0.4,0.4-0.4
			C111.7,70,111.9,70.1,111.9,70.4"/>
	</g>
	<g>
		<path class="st5" d="M111.3,69.2c0,0,1.2,0.1,1.4,1c0,0,0.2,1.1-1.2,1.3l1.7-0.3c0,0,0.5-0.2,0.4-1.2c0,0-0.3-1-0.7-1L111.3,69.2z
			"/>
	</g>
	<g>
		<path class="st5" d="M107,95.3c0,0.2-0.2,0.4-0.4,0.4c-0.2,0-0.4-0.2-0.4-0.4c0-0.2,0.2-0.4,0.4-0.4C106.8,94.9,107,95.1,107,95.3
			"/>
	</g>
	<g>
		<path class="st5" d="M108.1,95.4c0,0.2-0.2,0.4-0.4,0.4c-0.2,0-0.4-0.2-0.4-0.4c0-0.2,0.2-0.4,0.4-0.4
			C107.9,95,108.1,95.2,108.1,95.4"/>
	</g>
	<g>
		<path class="st5" d="M106.3,94.4c0,0-0.6,0-0.7,0.6c0,0,0,0.8,0.8,1l-1.6-0.3c0,0-0.2-0.3-0.1-0.9c0,0,0.2-0.6,0.5-0.5L106.3,94.4
			z"/>
	</g>
	<g>
		<path class="st0" d="M98.5,73.3c0,0,4.1,2.8,10.1,2.8c0,0,6.5-0.1,10-2.9c0,0,0.5,2.2,0.4,2.6c0,0-4.7,2.6-10.4,2.6
			c0,0-6.2,0.1-10.4-2.5L98.5,73.3z"/>
	</g>
	<g>
		<path class="st5" d="M108.5,78.6c-1.1,0-6.5-0.1-10.4-2.6L98,76l0.4-3l0.3,0.2c0,0,4.1,2.7,10,2.7c0.1,0,6.5-0.2,9.9-2.8l0.3-0.2
			l0.1,0.3c0.1,0.4,0.5,2.2,0.4,2.6l0,0.1l-0.1,0.1c0,0-4.8,2.7-10.5,2.7H108.5L108.5,78.6z M98.4,75.7c3.8,2.3,9.1,2.4,10.1,2.4
			v0.2l0.1-0.2c5.1,0,9.5-2.2,10.2-2.6c0-0.4-0.2-1.3-0.4-2.1c-3.5,2.6-9.6,2.7-9.9,2.7c-5.1,0-8.9-2-10-2.6L98.4,75.7L98.4,75.7z"
			/>
	</g>
	<g>
		<path class="st5" d="M111.5,77c0,0.2-0.2,0.4-0.4,0.4c-0.2,0-0.4-0.2-0.4-0.4c0-0.2,0.2-0.4,0.4-0.4
			C111.3,76.6,111.5,76.8,111.5,77"/>
	</g>
	<g>
		<path class="st5" d="M112.6,76.9c0,0.2-0.2,0.4-0.4,0.4c-0.2,0-0.4-0.2-0.4-0.4c0-0.2,0.2-0.4,0.4-0.4
			C112.4,76.4,112.6,76.6,112.6,76.9"/>
	</g>
	<g>
		<path class="st5" d="M112.1,75.7c0,0,1.2,0.1,1.4,1c0,0,0.2,1.1-1.2,1.3l1.7-0.3c0,0,0.5-0.2,0.4-1.2c0,0-0.3-1-0.7-1L112.1,75.7z
			"/>
	</g>
	<g>
		<path class="st5" d="M110.8,82.2c0,1.2-1,2.1-2.1,2.1c-1.2,0-2.1-1-2.1-2.1c0-1.2,1-2.1,2.1-2.1C109.8,80.1,110.8,81.1,110.8,82.2
			"/>
	</g>
	<g>
		<path class="st0" d="M110,82.2c0,0.8-0.6,1.4-1.4,1.4c-0.8,0-1.4-0.6-1.4-1.4c0-0.8,0.6-1.4,1.4-1.4C109.4,80.9,110,81.5,110,82.2
			"/>
	</g>
	<g>
		<path class="st5" d="M109.4,82.2c0,0.4-0.3,0.7-0.7,0.7c-0.4,0-0.7-0.3-0.7-0.7c0-0.4,0.3-0.7,0.7-0.7
			C109,81.5,109.4,81.8,109.4,82.2"/>
	</g>
	<g>
		<path class="st0" d="M98.4,84.5c0,0,3.8,3.1,10.3,3.1c0,0,6.1,0,10.4-3.2c0,0-0.3,2.2-0.8,3.2c0,0-4.5,2.4-9.6,2.4
			c0,0-5.2,0.1-9.5-2.3L98.4,84.5z"/>
	</g>
	<g>
		<path class="st5" d="M108.5,90.2c-0.9,0-5.5-0.1-9.5-2.4l-0.1-0.1l-1-3.8l0.5,0.4c0,0,3.8,3.1,10.2,3.1l0,0c0.3,0,6.1,0,10.3-3.1
			l0.4-0.3l-0.1,0.5c0,0.1-0.3,2.3-0.8,3.3c-0.1,0.1-4.7,2.5-9.8,2.5L108.5,90.2L108.5,90.2z M99.3,87.5c3.8,2.1,8.3,2.3,9.2,2.3V90
			l0.1-0.2c5,0,9.5-2.3,9.5-2.4c0.2-0.6,0.5-1.8,0.6-2.5c-4.2,2.9-9.8,2.9-10.1,2.9c-5.2,0-8.7-2-10-2.8L99.3,87.5L99.3,87.5z"/>
	</g>
	<g>
		<path class="st5" d="M105.8,88.6c0,0.2-0.2,0.4-0.4,0.4c-0.2,0-0.4-0.2-0.4-0.4c0-0.2,0.2-0.4,0.4-0.4
			C105.7,88.2,105.8,88.4,105.8,88.6"/>
	</g>
	<g>
		<path class="st5" d="M107,88.7c0,0.2-0.2,0.4-0.4,0.4c-0.2,0-0.4-0.2-0.4-0.4c0-0.2,0.2-0.4,0.4-0.4C106.8,88.3,107,88.5,107,88.7
			"/>
	</g>
	<g>
		<path class="st5" d="M105.6,87.4c0,0-1.1,0.1-1.4,1c0,0-0.3,1.2,1.3,1.5l-2-0.4c0,0-0.3-0.4-0.2-1.2c0,0,0.2-0.8,0.7-1.1
			L105.6,87.4z"/>
	</g>
	<g>
		<path class="st1" d="M72.6,63.1L71,62.7l1-4c0.1,0,0.1,0,0.2,0c0.1,0,0.2,0,0.3,0.1c1.3,0.3,2.2,0.9,2.7,1.7
			c0.5,0.8,0.7,1.9,0.4,3.1c-0.1,0.6-0.4,1.1-0.7,1.5c-0.3,0.4-0.7,0.8-1.1,1c-0.4,0.3-0.9,0.4-1.5,0.5c-0.5,0.1-1.1,0-1.6-0.1
			c-0.6-0.1-1-0.4-1.5-0.7c-0.4-0.3-0.8-0.7-1-1.2c-0.3-0.5-0.4-1-0.5-1.5c-0.1-0.5,0-1.1,0.1-1.6c0.2-0.7,0.5-1.3,0.9-1.8
			c0.4-0.5,1-0.9,1.6-1.1l0.4,1.9c-0.3,0.1-0.6,0.3-0.8,0.6c-0.2,0.2-0.3,0.5-0.4,0.8c-0.1,0.6-0.1,1.1,0.3,1.6
			c0.3,0.4,0.8,0.8,1.5,0.9c0.7,0.2,1.3,0.1,1.8-0.1c0.5-0.2,0.8-0.7,1-1.3c0.1-0.5,0.1-1-0.1-1.4c-0.2-0.4-0.5-0.7-0.9-0.8
			L72.6,63.1z"/>
	</g>
	<g>
		<path class="st1" d="M74.2,54.5l0.2-0.3c0.2-0.4,0.3-0.7,0.2-1c0-0.3-0.2-0.4-0.5-0.6c-0.3-0.2-0.6-0.2-0.9-0.1
			c-0.2,0.1-0.4,0.4-0.6,0.8l-0.2,0.4L74.2,54.5z M77,58l-6.9-3.3l0.9-2c0.4-0.8,0.7-1.3,0.9-1.6c0.2-0.3,0.5-0.5,0.7-0.6
			c0.3-0.2,0.6-0.2,1-0.2c0.4,0,0.7,0.1,1.1,0.3c0.5,0.3,0.9,0.6,1.1,1c0.2,0.4,0.2,0.9,0.1,1.5l3.7-0.6l-1,2.1L75.1,55l2.7,1.3
			L77,58z"/>
	</g>
	<g>
		<path class="st1" d="M74.7,46.3l1.4-1.5l2.8,2.5c0.4,0.4,0.7,0.6,0.9,0.8c0.2,0.1,0.4,0.2,0.5,0.3c0.2,0.1,0.4,0.1,0.6,0
			c0.2-0.1,0.4-0.2,0.6-0.4c0.2-0.2,0.3-0.4,0.4-0.6c0.1-0.2,0-0.4-0.1-0.6c-0.1-0.2-0.2-0.3-0.3-0.5c-0.2-0.2-0.4-0.5-0.8-0.8
			l-0.4-0.3l-2.4-2.1l1.4-1.5l3,2.7c0.6,0.6,1,1,1.3,1.3c0.2,0.3,0.4,0.7,0.4,1.1c0.1,0.4,0,0.8-0.2,1.3c-0.2,0.4-0.5,0.9-0.9,1.4
			c-0.4,0.5-0.9,0.8-1.3,1.1c-0.4,0.2-0.8,0.3-1.2,0.3c-0.4,0-0.7-0.1-1.1-0.3c-0.4-0.2-0.9-0.6-1.5-1.1l-0.6-0.5L74.7,46.3z"/>
	</g>
	<g>
		<path class="st1" d="M86,39.8l0.3-0.2c0.4-0.3,0.6-0.6,0.7-0.8c0.1-0.2,0-0.5-0.2-0.7c-0.2-0.3-0.4-0.4-0.6-0.4
			c-0.2,0-0.6,0.2-1,0.4L85,38.4L86,39.8z M88.5,43.2l-1.6,1.1l-4.5-6.2l1.8-1.3c0.7-0.5,1.2-0.8,1.5-1c0.3-0.1,0.6-0.2,1-0.2
			c0.4,0,0.7,0.1,1,0.3c0.3,0.2,0.6,0.5,0.9,0.8c0.3,0.4,0.4,0.7,0.5,1.1c0.1,0.4,0.1,0.7,0,1.1c-0.1,0.3-0.2,0.5-0.4,0.7
			c-0.2,0.2-0.5,0.5-1.1,0.9L87.3,41L87,41.2L88.5,43.2z"/>
	</g>
	<g>
		<path class="st1" d="M96.3,37.4c0.5-0.3,0.8-0.7,0.9-1.3c0.1-0.6,0-1.1-0.3-1.7c-0.3-0.6-0.7-0.9-1.3-1.1
			c-0.5-0.2-1.1-0.1-1.5,0.1c-0.5,0.3-0.8,0.7-0.9,1.3c-0.1,0.6,0,1.1,0.3,1.7c0.3,0.6,0.7,0.9,1.3,1.1
			C95.2,37.8,95.8,37.7,96.3,37.4 M98.7,33.5c0.3,0.5,0.4,1,0.5,1.5c0.1,0.5,0,1-0.1,1.6c-0.2,0.5-0.4,1-0.7,1.4
			c-0.3,0.4-0.7,0.8-1.2,1c-0.5,0.3-1,0.4-1.5,0.5c-0.5,0.1-1.1,0-1.6-0.1c-0.5-0.1-1-0.4-1.4-0.7c-0.4-0.3-0.8-0.7-1-1.2
			c-0.3-0.5-0.4-1-0.5-1.5c-0.1-0.5,0-1,0.1-1.6c0.1-0.5,0.4-1,0.7-1.4c0.3-0.4,0.7-0.8,1.2-1c0.5-0.3,1-0.4,1.5-0.5
			c0.5-0.1,1.1,0,1.6,0.1c0.5,0.1,1,0.4,1.4,0.7C98.1,32.6,98.4,33,98.7,33.5"/>
	</g>
	<g>
		<path class="st1" d="M115.2,38l-1.9-0.1l-0.3-3.3c0-0.2,0-0.5,0-0.8c0-0.3,0-0.6,0-0.9c-0.1,0.3-0.2,0.7-0.4,1.2
			c0,0.1-0.1,0.2-0.1,0.2l-1.2,3.5l-1.4-0.1l-0.8-3.6c0,0,0-0.1,0-0.2c-0.1-0.5-0.2-0.9-0.2-1.2c0,0.3-0.1,0.6-0.1,0.9
			c0,0.3-0.1,0.6-0.1,0.8l-0.6,3.3l-1.9-0.1l1.6-7.5l2.1,0.1l0.9,4c0,0,0,0.1,0,0.1c0.1,0.4,0.1,0.7,0.2,0.9c0-0.1,0.1-0.3,0.1-0.4
			c0-0.2,0.1-0.4,0.2-0.6l1.4-3.9l2.1,0.1L115.2,38z"/>
	</g>
	<g>
		<path class="st1" d="M121.8,38.7c0.6,0.1,1.1-0.1,1.5-0.4c0.4-0.4,0.7-0.9,0.8-1.5c0.1-0.6,0-1.2-0.3-1.7
			c-0.3-0.5-0.8-0.8-1.3-0.8c-0.6-0.1-1.1,0.1-1.5,0.4c-0.4,0.4-0.7,0.9-0.8,1.5c-0.1,0.6,0,1.2,0.3,1.7
			C120.8,38.3,121.2,38.6,121.8,38.7 M126.2,37.1c-0.1,0.5-0.3,1-0.5,1.5c-0.3,0.4-0.6,0.8-1.1,1.1c-0.4,0.3-0.9,0.5-1.4,0.7
			c-0.5,0.1-1.1,0.2-1.6,0.1c-0.5-0.1-1-0.3-1.5-0.5c-0.5-0.3-0.9-0.6-1.2-1c-0.3-0.4-0.6-0.9-0.7-1.4c-0.1-0.5-0.2-1-0.1-1.6
			c0.1-0.5,0.3-1,0.5-1.5c0.3-0.4,0.6-0.8,1.1-1.1c0.4-0.3,0.9-0.5,1.4-0.7c0.5-0.1,1.1-0.2,1.6-0.1c0.5,0.1,1,0.3,1.5,0.5
			c0.5,0.3,0.9,0.6,1.2,1.1c0.3,0.4,0.5,0.9,0.7,1.4C126.2,36,126.2,36.5,126.2,37.1"/>
	</g>
	<g>
		<path class="st1" d="M129,42.8l0.3,0.2c0.6,0.5,1.2,0.8,1.7,0.7c0.5,0,1-0.3,1.4-0.9c0.5-0.6,0.6-1.1,0.6-1.6
			c-0.1-0.5-0.4-1-1.1-1.5l-0.3-0.2L129,42.8z M126.3,42.8l4.8-5.9l1.2,1c0.9,0.7,1.5,1.3,1.8,1.7c0.3,0.4,0.5,0.8,0.7,1.2
			c0.2,0.6,0.2,1.1,0,1.7c-0.1,0.6-0.4,1.1-0.8,1.6c-0.4,0.5-0.9,0.9-1.4,1.2c-0.5,0.2-1.1,0.4-1.7,0.3c-0.4,0-0.9-0.2-1.3-0.4
			c-0.4-0.2-1-0.6-1.8-1.3l-0.3-0.2L126.3,42.8z"/>
	</g>
	<g>
		<polygon class="st1" points="133,48.9 138.9,44.1 141.9,47.7 140.6,48.7 138.9,46.7 137.9,47.5 139.5,49.5 138.2,50.5 136.6,48.6 
			135.6,49.4 137.3,51.4 136,52.5 		"/>
	</g>
	<g>
		<polygon class="st1" points="137.1,54.2 143.9,50.8 144.8,52.6 139.6,55.2 140.7,57.5 139.1,58.3 		"/>
	</g>
	<g>
		<g>
			<path class="st1" d="M142.7,64.1c0.4,0.4,0.8,0.7,1.4,0.7c0.6,0,1.1-0.2,1.6-0.6c0.5-0.4,0.8-0.9,0.9-1.4c0.1-0.6,0-1.1-0.4-1.5
				c-0.4-0.5-0.8-0.7-1.4-0.7c-0.6,0-1.1,0.2-1.6,0.6c-0.5,0.4-0.8,0.9-0.9,1.4C142.2,63.1,142.3,63.6,142.7,64.1 M146.9,65.8
				c-0.4,0.3-0.9,0.6-1.4,0.7c-0.5,0.1-1,0.2-1.6,0.1c-0.5-0.1-1-0.2-1.5-0.5c-0.5-0.3-0.9-0.6-1.2-1c-0.3-0.4-0.6-0.9-0.7-1.4
				c-0.1-0.5-0.2-1-0.1-1.6c0.1-0.5,0.2-1,0.5-1.5c0.2-0.5,0.6-0.9,1-1.2c0.4-0.3,0.9-0.6,1.4-0.7c0.5-0.1,1-0.2,1.6-0.1
				c0.5,0.1,1,0.2,1.5,0.5c0.5,0.3,0.9,0.6,1.2,1c0.3,0.4,0.6,0.9,0.7,1.4c0.2,0.5,0.2,1,0.1,1.6c-0.1,0.5-0.2,1-0.5,1.5
				C147.7,65.1,147.4,65.5,146.9,65.8"/>
		</g>
	</g>
	<g>
		<g>
			<path class="st1" d="M88.3,107.3l-1.6-1.1l1.5-3c0.1-0.2,0.2-0.4,0.4-0.7c0.1-0.2,0.3-0.5,0.5-0.8c-0.2,0.2-0.5,0.5-0.9,0.8
				c-0.1,0.1-0.1,0.1-0.2,0.1l-2.9,2.3l-1.1-0.8l1.2-3.5c0,0,0-0.1,0.1-0.2c0.2-0.5,0.3-0.9,0.5-1.1c-0.2,0.2-0.4,0.4-0.6,0.7
				c-0.2,0.2-0.4,0.4-0.6,0.6l-2.3,2.4l-1.6-1.1l5.3-5.6l1.7,1.2l-1.3,3.9c0,0,0,0.1,0,0.1c-0.1,0.3-0.2,0.6-0.4,0.9
				c0.1-0.1,0.2-0.2,0.3-0.3c0.1-0.1,0.3-0.2,0.5-0.4l3.2-2.5l1.7,1.2L88.3,107.3z"/>
		</g>
	</g>
	<g>
		<polygon class="st1" points="92.2,109.2 94.8,102.1 99.2,103.7 98.6,105.2 96.1,104.3 95.7,105.6 98,106.4 97.5,108 95.1,107.1 
			94.7,108.3 97.2,109.2 96.6,110.8 		"/>
	</g>
	<g>
		<g>
			<path class="st1" d="M104.7,106.3L104.7,106.3c0.1,0.3,0.2,0.5,0.2,0.6c0.1-0.2,0.1-0.3,0.3-0.5c0,0,0,0,0-0.1l1.1-1.7l2.5,0.2
				l-2.9,3.4l2.5,4.2l-2.4-0.2l-1.1-2.4c-0.1-0.1-0.1-0.2-0.1-0.3c0-0.1-0.1-0.2-0.1-0.3c0,0.1-0.1,0.2-0.1,0.3
				c-0.1,0.1-0.1,0.2-0.2,0.3L103,112l-2.3-0.2l3.2-3.7l-2.2-3.8l2.5,0.2L104.7,106.3z"/>
		</g>
	</g>
	<g>
		
			<rect x="111.9" y="104.9" transform="matrix(0.9992 -3.876165e-02 3.876165e-02 0.9992 -4.1281 4.4595)" class="st1" width="2.1" height="7.6"/>
	</g>
	<g>
		<path class="st1" d="M122.3,102.5l0.7,2.2c-0.4-0.2-0.7-0.4-1-0.4c-0.3-0.1-0.6,0-0.9,0.1c-0.6,0.2-1,0.5-1.2,1
			c-0.2,0.5-0.3,1.1-0.1,1.7c0.2,0.6,0.5,1,1,1.3c0.5,0.3,1,0.3,1.6,0.2c0.3-0.1,0.6-0.3,0.8-0.5c0.2-0.2,0.4-0.5,0.6-0.9l0.7,2.2
			c-0.3,0.2-0.5,0.5-0.8,0.6c-0.3,0.2-0.6,0.3-0.9,0.4c-0.4,0.1-0.8,0.2-1.1,0.2c-0.4,0-0.7,0-1.1-0.1c-0.7-0.2-1.2-0.5-1.7-1
			c-0.5-0.5-0.8-1-1-1.7c-0.2-0.6-0.2-1.1-0.2-1.6c0-0.5,0.2-1,0.4-1.5c0.2-0.5,0.5-0.8,0.9-1.2c0.4-0.3,0.8-0.5,1.4-0.7
			c0.3-0.1,0.6-0.2,1-0.2C121.6,102.4,121.9,102.4,122.3,102.5"/>
	</g>
	<g>
		<path class="st1" d="M131,104.1c0.5-0.3,0.8-0.7,1-1.2c0.2-0.5,0.1-1.1-0.2-1.7c-0.3-0.6-0.7-1-1.2-1.2c-0.5-0.2-1-0.2-1.6,0.1
			c-0.5,0.3-0.8,0.7-1,1.2c-0.1,0.5-0.1,1.1,0.2,1.7c0.3,0.6,0.7,1,1.2,1.2C129.9,104.4,130.4,104.4,131,104.1 M133.6,100.3
			c0.2,0.5,0.4,1,0.4,1.5c0,0.5,0,1-0.2,1.5c-0.2,0.5-0.5,1-0.8,1.4c-0.4,0.4-0.8,0.7-1.3,1c-0.5,0.2-1,0.4-1.5,0.4
			c-0.5,0-1.1,0-1.6-0.2c-0.5-0.2-1-0.4-1.4-0.8c-0.4-0.3-0.7-0.8-1-1.2c-0.2-0.5-0.4-1-0.4-1.5c0-0.5,0-1,0.2-1.6
			c0.2-0.5,0.4-1,0.8-1.4c0.4-0.4,0.8-0.7,1.3-1c0.5-0.2,1-0.4,1.5-0.4c0.5,0,1.1,0,1.6,0.2c0.5,0.2,1,0.4,1.4,0.8
			C133.1,99.4,133.4,99.8,133.6,100.3"/>
	</g>
</g>
</svg>
