<?xml version="1.0" encoding="utf-8"?>
<!-- Generator: Adobe Illustrator 24.1.0, SVG Export Plug-In . SVG Version: 6.00 Build 0)  -->
<svg version="1.1" id="Layer_1" xmlns="http://www.w3.org/2000/svg" xmlns:xlink="http://www.w3.org/1999/xlink" x="0px" y="0px"
	 viewBox="0 0 217 141" style="enable-background:new 0 0 217 141;" xml:space="preserve">
<style type="text/css">
	.st0{fill-rule:evenodd;clip-rule:evenodd;fill:#006598;}
</style>
<g>
	<path class="st0" d="M68.4,52c0.1-0.9,0.5-1.7,1.3-2.2c2.3-0.9,7.2-1.2,9,3c1.2,4.4,1.3,10-0.6,14c-1.6,2.3-4.9,2.3-7.4,1.9
		c-2.4-0.6-2.1-2.5-2.1-3.4V52L68.4,52z"/>
	<path class="st0" d="M163.5,94.5c0,10.2-8.2,18.6-18.5,18.6H72c-10.2,0-18.5-8.4-18.5-18.6V46.4c0-10.2,8.2-18.5,18.5-18.5h10.5
		c3.3,0,6,2.7,6,6v19.9c-0.2-0.7-0.5-2.2-1.4-3.8c-6.1-10-16.5-3.9-27.8-5.5c-0.2,0-0.8-0.3-0.8-0.3v43.7h13.2
		c-1.7-0.6-3.2-2.8-3.3-4.6V69.9l4.4,4.5c7.4,1,11.8-3.4,12.9-4.6c1.7-2.2,2.8-5,2.8-5v33h16.6c-2.1-0.7-4-3.2-4.2-5.5V68.4l6,6.3
		c4.8,0.2,10-0.3,14.1-2.7c5.1-3,7.4-8.4,7.4-8.4l-0.1,1.8c0,8.4,2.3,17.3,10.9,20.6c3.5,1.4,7.4,1.8,11.6,1.5
		c2.7-0.1,5.3-0.3,7.9-0.8V65.3H146c2.3,0.7,4.1,3.5,4.2,5.7c0,2.8-0.1,5.4,0,7.1c-0.2,0.8-0.6,1.6-1.3,2.1c-1,0.5-2.3,0.3-3.4,0.1
		c-1.5-0.4-2.9-1.2-3.9-2.5c-3.2-5.6-3.1-12.9-2-19.4c0.6-3.2,3.3-7.2,6.8-7.8c4.3-0.8,9.7-0.6,12.4,3.4v-9.4
		c-11.5-1.8-17.5-1-22.1,1.8c-3.7,2.4-5.3,5.6-5.3,5.6s0.5-11.4-3.1-16.6c-4.2-6.3-10.1-7.4-11.4-7.5H145c10.2,0,18.5,8.3,18.5,18.5
		V94.5L163.5,94.5z"/>
	<path class="st0" d="M101,36.5c0.2-1,1-2.1,2.1-2.6c3.5-1.5,11.9-1.3,14.1,4.4c1.8,4.6,1.3,7.4,1.4,11.3
		c-0.2,6.4-0.2,14.1-7.2,16.5c-2.5,1-5.8,0.9-8.3,0.1c-1.6-0.6-2-2.4-2.1-4V36.5L101,36.5z"/>
</g>
</svg>
