<?xml version="1.0" encoding="utf-8"?>
<!-- Generator: Adobe Illustrator 24.1.0, SVG Export Plug-In . SVG Version: 6.00 Build 0)  -->
<svg version="1.1" id="Layer_1" xmlns="http://www.w3.org/2000/svg" xmlns:xlink="http://www.w3.org/1999/xlink" x="0px" y="0px"
	 viewBox="0 0 217 141" style="enable-background:new 0 0 217 141;" xml:space="preserve">
<style type="text/css">
	.st0{fill-rule:evenodd;clip-rule:evenodd;fill:#1A1818;}
</style>
<g>
	<polygon class="st0" points="19.5,67 21.6,67 21.6,75.3 19.5,75.3 19.5,67 	"/>
	<polygon class="st0" points="32.2,75.3 30.5,75.3 25.8,70 25.8,75.3 23.8,75.3 23.8,67 25.7,67 30.1,72.1 30.1,67 32.2,67 
		32.2,75.3 	"/>
	<polygon class="st0" points="41.7,68.5 38.7,68.5 38.7,75.3 36.6,75.3 36.6,68.5 33.5,68.5 33.5,67 41.7,67 41.7,68.5 	"/>
	<polygon class="st0" points="49.2,75.3 43.1,75.3 43.1,67 49.1,67 49.1,68.5 45.1,68.5 45.1,70.2 49,70.2 49,71.8 45.1,71.8 
		45.1,73.8 49.2,73.8 49.2,75.3 	"/>
	<path class="st0" d="M54.8,67c1.7,0,2.7,1.1,2.7,2.4c0,0.9-0.4,1.6-1.4,2c0.8,0.4,1.1,1.4,2.3,3.9h-2.3c-0.9-1.8-1.3-3.4-2.4-3.4
		h-0.6v3.4H51V67H54.8L54.8,67L54.8,67z M53.1,70.4h1.1c0.5,0,1.1-0.2,1.1-1c0-0.7-0.4-1-1.2-1h-1.1V70.4L53.1,70.4z"/>
	<polygon class="st0" points="67.8,75.3 66.1,75.3 61.4,70 61.4,75.3 59.3,75.3 59.3,67 61.3,67 65.8,72.1 65.8,67 67.8,67 
		67.8,75.3 	"/>
	<path class="st0" d="M78.5,75.3h-2.3l-0.7-1.7h-3.8l-0.6,1.7h-2.2l3.4-8.3h2.5L78.5,75.3L78.5,75.3L78.5,75.3z M73.6,68.9l-1.2,3.2
		h2.6L73.6,68.9L73.6,68.9z"/>
	<polygon class="st0" points="85.6,68.5 82.6,68.5 82.6,75.3 80.5,75.3 80.5,68.5 77.5,68.5 77.5,67 85.6,67 85.6,68.5 	"/>
	<polygon class="st0" points="87.1,67 89.2,67 89.2,75.3 87.1,75.3 87.1,67 	"/>
	<path class="st0" d="M95.4,75.4c-3.1,0-4.8-2.2-4.8-4.3c0-2,1.6-4.3,4.8-4.3c3.1,0,4.7,2.3,4.7,4.3C100.1,73.3,98.4,75.4,95.4,75.4
		L95.4,75.4L95.4,75.4z M95.4,68.6c-1.6,0-2.6,1-2.6,2.5c0,1.6,1,2.6,2.6,2.6c1.6,0,2.6-1,2.6-2.6C98,69.6,97,68.6,95.4,68.6
		L95.4,68.6z"/>
	<polygon class="st0" points="109.8,75.3 108,75.3 103.4,70 103.4,75.3 101.3,75.3 101.3,67 103.2,67 107.7,72.1 107.7,67 109.8,67 
		109.8,75.3 	"/>
	<path class="st0" d="M120.4,75.3h-2.3l-0.7-1.7h-3.8l-0.6,1.7h-2.2l3.4-8.3h2.5L120.4,75.3L120.4,75.3L120.4,75.3z M115.5,68.9
		l-1.3,3.2h2.6L115.5,68.9L115.5,68.9z"/>
	<polygon class="st0" points="127.8,75.3 121.4,75.3 121.4,67 123.5,67 123.5,73.8 127.8,73.8 127.8,75.3 	"/>
	<path class="st0" d="M161.9,67c1.9,0,2.8,1.3,2.8,2.5c0,1.2-0.8,2.5-2.8,2.5h-1.7v3.4h-2.1V67H161.9L161.9,67L161.9,67z
		 M160.2,70.4h1c1,0,1.3-0.3,1.3-1c0-0.7-0.4-1-1.5-1h-0.8V70.4L160.2,70.4z"/>
	<path class="st0" d="M173.7,75.3h-2.2l-0.7-1.7H167l-0.7,1.7h-2.2l3.4-8.3h2.4L173.7,75.3L173.7,75.3L173.7,75.3z M168.8,68.9
		l-1.2,3.2h2.6L168.8,68.9L168.8,68.9z"/>
	<path class="st0" d="M178.1,67c1.9,0,2.8,1.3,2.8,2.5c0,1.2-0.8,2.5-2.8,2.5h-1.6v3.4h-2.1V67H178.1L178.1,67L178.1,67z
		 M176.5,70.4h1c1,0,1.3-0.3,1.3-1c0-0.7-0.4-1-1.6-1h-0.7V70.4L176.5,70.4z"/>
	<polygon class="st0" points="188.4,75.3 182.3,75.3 182.3,67 188.4,67 188.4,68.5 184.4,68.5 184.4,70.2 188.2,70.2 188.2,71.8 
		184.4,71.8 184.4,73.8 188.4,73.8 188.4,75.3 	"/>
	<path class="st0" d="M193.9,67c1.7,0,2.7,1.1,2.7,2.4c0,0.9-0.5,1.6-1.4,2c0.9,0.4,1.1,1.4,2.3,3.9h-2.3c-0.8-1.8-1.2-3.4-2.3-3.4
		h-0.6v3.4h-2.1V67H193.9L193.9,67L193.9,67z M192.2,70.4h1.1c0.5,0,1.1-0.2,1.1-1c0-0.7-0.4-1-1.2-1h-1.1V70.4L192.2,70.4z"/>
	<polygon class="st0" points="134,75.3 136.7,75.3 143.7,63.1 142.4,60.8 134,75.3 	"/>
	<path class="st0" d="M142.4,58.2c-6.8,0-12.3,5.5-12.3,12.3c0,6.8,5.5,12.3,12.3,12.3c6.8,0,12.3-5.5,12.3-12.3
		C154.7,63.7,149.3,58.2,142.4,58.2L142.4,58.2L142.4,58.2z M143.6,80.6V67.3l3.2,5.6H144v2.4h6.8l-6.7-11.6l-2.8,4.9v12
		c-5.1-0.5-9-4.9-9-10.1c0-5.6,4.6-10.1,10.1-10.1c5.6,0,10.2,4.5,10.2,10.1C152.6,75.7,148.7,80,143.6,80.6L143.6,80.6z"/>
</g>
</svg>
