<?xml version="1.0" encoding="utf-8"?>
<!-- Generator: Adobe Illustrator 24.1.0, SVG Export Plug-In . SVG Version: 6.00 Build 0)  -->
<svg version="1.1" id="Layer_1" xmlns="http://www.w3.org/2000/svg" xmlns:xlink="http://www.w3.org/1999/xlink" x="0px" y="0px"
	 viewBox="0 0 217 141" style="enable-background:new 0 0 217 141;" xml:space="preserve">
<style type="text/css">
	.st0{stroke:#000000;stroke-width:0.3855;}
	.st1{fill:#FFFFFF;stroke:#000000;stroke-width:0.3855;}
	.st2{fill:#E76B05;stroke:#F06D1A;stroke-width:0.3855;}
	.st3{fill:#141215;}
</style>
<g>
	<g>
		<g>
			<path d="M47.8,103.6h-3.6c0.1-0.4-0.1-0.9-0.3-1.1c-0.2-0.3-0.9-0.3-1.5-0.3h-3.9c-0.3,0-1.1,0-1.6,0.2c-0.5,0.3-0.7,0.7-0.7,1.2
				v2.7c0,0.6,0.1,1,0.5,1.4c0.3,0.3,1.1,0.5,1.4,0.5h4.4c0.5,0,1.1-0.2,1.4-0.4c0.4-0.3,0.6-0.8,0.5-1.3H48v1.3
				c0,1-0.2,1.8-1.4,2.4c-1.3,0.7-2.3,0.6-3.8,0.6h-5.4c-1.6,0-2.6-0.1-3.8-1c-1.1-0.8-1.1-2.9-1.1-4v-1.8c0-1.6,0.2-3.1,1.3-3.9
				c1-0.7,3.2-0.8,3.9-0.8h5.8c0.3,0,2.3,0.1,2.9,0.5c1.2,0.8,1.4,1.7,1.4,2.9V103.6z"/>
		</g>
		<path d="M67.7,104.3c0-0.9,0.1-2.9-1.5-4c-1.2-0.8-2.3-0.9-3.9-0.9h-6.6c-1.4,0-2.5,0-3.5,0.8c-1.3,1-1.3,3.1-1.3,4.1v1.4
			c0,1.1-0.1,3.3,1,4.1c1.2,0.9,2.3,1,3.7,1h7c1.6,0,3-0.2,3.9-0.9c1.3-0.9,1.2-3,1.2-4.3V104.3z M63.6,106.6c0,0.5-0.1,0.9-0.5,1.2
			c-0.3,0.2-0.8,0.3-1.4,0.3h-5.1c-0.4,0-1.3-0.2-1.5-0.5c-0.4-0.4-0.4-0.9-0.4-1.4v-2.3c0-0.7,0.1-1.2,0.7-1.6
			c0.4-0.3,1.2-0.2,1.6-0.2h4.7c0.6,0,1,0,1.4,0.3c0.4,0.3,0.5,0.7,0.5,1.2V106.6z"/>
		<g>
			<polygon points="74.3,110.9 70.5,110.9 70.5,99.4 76.3,99.4 83.5,107.8 83.5,99.4 87.1,99.4 87.1,110.9 81.4,110.9 74.3,102.6 
							"/>
		</g>
		<path d="M106.1,104c0-0.7,0.3-2.7-1.5-3.8c-0.9-0.6-2.9-0.7-3.4-0.7H90v11.4h10.9c1.6,0,3-0.3,4-1c1.4-1,1.2-2.1,1.2-3.9V104z
			 M102.3,106.6c0,0.5-0.1,0.9-0.5,1.2c-0.3,0.2-0.8,0.3-1.4,0.3h-6.6l0-6h6.5c0.6,0,1,0,1.4,0.3c0.4,0.3,0.5,0.7,0.5,1.2V106.6z"/>
		<g>
			<path d="M108.9,99.4h3.8v6.9c0,0.5,0,0.9,0.4,1.2c0.4,0.4,0.9,0.5,1.6,0.5h4c0.7,0,1.1,0,1.7-0.4c0.4-0.3,0.5-0.7,0.5-1.2v-7.2
				h3.7v7.5c0,1.1-0.2,1.9-0.9,2.7c-1.2,1.4-4.1,1.2-4.7,1.2H114c-0.9,0-2.7,0.1-3.8-0.9c-1-0.9-1.2-2.5-1.2-3.3V99.4z"/>
		</g>
		<g>
			<polygon points="133.2,99.4 137.5,106.9 141.8,99.4 147.8,99.4 147.8,110.9 144.1,110.9 144.1,102.4 139,110.9 136.3,110.9 
				131.1,102.6 131.1,110.9 127.3,110.9 127.3,99.4 			"/>
		</g>
		<g>
			<polygon points="150.6,99.4 163.8,99.4 163.8,102.1 154.3,102.1 154.3,104 163.4,104 163.4,106.3 154.4,106.3 154.4,108.2 
				164.1,108.2 164.1,110.9 150.6,110.9 			"/>
		</g>
		<g>
			<polygon points="178.4,105.2 184.5,110.9 179.6,110.9 175.5,106.7 171.5,110.9 166.6,110.9 172.6,105.1 166.7,99.4 171.6,99.4 
				175.6,103.6 179.4,99.4 184.2,99.4 			"/>
		</g>
	</g>
	<g>
		<path class="st0" d="M87.8,92.5c-4.4,1.2-8.9-2-7.7-7.3l22.7-62.5c1.2-3.5,5.2-3.5,5.6-3.5c0.5,0,4.4,0,5.6,3.5l22.7,62.5
			c1.1,5.3-3.4,8.5-7.7,7.3L108.3,85L87.8,92.5z"/>
		<path class="st1" d="M108.3,83.1l21,7.9c3.4,0.7,6-1.9,5.4-5.2L112,22.7c-1.2-1.8-3.5-1.7-3.7-1.7c-0.2,0-2.5-0.1-3.7,1.7
			L81.8,85.7c-0.6,3.4,2,5.9,5.4,5.2L108.3,83.1L108.3,83.1z"/>
		<path class="st0" d="M108.3,26.1L94.5,64.3c-3.2,7.2-0.2,8.5,3.9,9.8l31.9,11.7l-2.4-6.7L99.3,68.9l9-24.8l5.1,12.9l7.3,2.6
			L108.3,26.1z"/>
		<g>
			<polygon class="st2" points="110.3,70.2 117.9,73 124.6,70.1 122.6,64.9 			"/>
			<polygon class="st2" points="97.3,76 105.5,79.2 86.7,86.4 89.2,79.4 			"/>
		</g>
	</g>
	<g>
		<g>
			<path d="M139.8,92.8v-1.5c0-0.1,0-0.4,0-0.6h0l-0.7,2.1h-0.3l-0.7-2.1h0c0,0.2,0,0.6,0,0.6v1.5h-0.3v-2.5h0.5l0.7,2.1h0l0.7-2.1
				h0.5v2.5H139.8z"/>
		</g>
		<g>
			<rect x="140.7" y="92.4" width="0.4" height="0.4"/>
		</g>
		<path d="M143.6,92.5l0-0.5c0-0.4-0.2-0.4-0.3-0.5c0.2-0.1,0.4-0.2,0.4-0.6c0-0.5-0.4-0.7-0.8-0.7h-1.2v2.5h0.3v-1.1h0.8
			c0.4,0,0.4,0.2,0.4,0.4c0,0.1,0,0.5,0.1,0.6h0.4v-0.1C143.6,92.6,143.6,92.6,143.6,92.5z M142.8,91.4H142v-0.9h0.8
			c0.2,0,0.5,0,0.5,0.4C143.3,91.3,143,91.4,142.8,91.4z"/>
		<g>
			<rect x="144.2" y="92.4" width="0.4" height="0.4"/>
		</g>
	</g>
	<g>
		<path class="st3" d="M90.6,120.3l-0.2,1.5c-0.8,0.1-1.5,0.2-2.1,0.2c-1.4,0-2.7-0.2-3.6-0.6c-1.1-0.5-1.7-1.1-1.7-2
			c0-0.8,0.5-1.5,1.6-2c1-0.5,2.4-0.7,4.2-0.7c0.6,0,1.1,0,1.7,0.1v1.5c-0.5-0.2-1.1-0.3-1.6-0.3c-0.7,0-1.3,0.1-1.7,0.4
			c-0.4,0.3-0.6,0.6-0.6,1c0,0.2,0.1,0.4,0.2,0.6c0.1,0.2,0.2,0.3,0.4,0.4c0.2,0.1,0.4,0.2,0.7,0.3c0.3,0.1,0.6,0.1,0.9,0.1
			C89.4,120.7,90,120.5,90.6,120.3z"/>
		<path class="st3" d="M101.4,121.9h-3.6l-0.3-0.7h-2.3l-0.3,0.7h-3.6l3.1-5.4h4.3L101.4,121.9z M97.2,120.1l-0.2-0.6c0,0,0,0,0-0.1
			c0-0.1-0.1-0.3-0.2-0.6c0,0,0-0.1,0-0.2c0-0.1,0-0.2-0.1-0.3l-0.1-0.5c0,0,0,0.1,0,0.2c0,0.1,0,0.1-0.1,0.2c0,0.1-0.1,0.2-0.1,0.3
			c0,0.1,0,0.1,0,0.1l-0.2,0.6l-0.4,0.8H97.2z"/>
		<path class="st3" d="M102.5,121.9v-5.4h4.1c1.5,0,2.6,0.1,3.4,0.4c0.7,0.3,1.1,0.7,1.1,1.1c0,0.7-0.8,1-2.4,1.1
			c0.9,0.1,1.6,0.2,2,0.4c0.4,0.2,0.6,0.5,0.6,0.8c0,0.5-0.4,0.8-1.1,1.1c-0.7,0.3-1.7,0.4-2.8,0.4H102.5z M105.9,118.6h0.2
			c0.4,0,0.7,0,1-0.1c0.2-0.1,0.4-0.2,0.4-0.3c0-0.3-0.4-0.5-1.2-0.5c0,0-0.1,0-0.1,0c-0.1,0-0.1,0-0.2,0V118.6z M105.9,120.8
			c0.1,0,0.1,0,0.2,0c0.1,0,0.1,0,0.1,0c0.4,0,0.8,0,1-0.1c0.3-0.1,0.4-0.2,0.4-0.4c0-0.2-0.1-0.3-0.4-0.4c-0.3-0.1-0.6-0.1-1.1-0.1
			h-0.3V120.8z"/>
		<path class="st3" d="M118.8,121.9h-6.1v-5.4h3.5v4.1h2.6V121.9z"/>
		<path class="st3" d="M119.9,121.9v-5.4h6.5v1.3h-3v0.7h2.7v1.3h-2.7v0.8h3v1.3H119.9z"/>
		<path class="st3" d="M127.5,121.7v-1.6c0.7,0.4,1.4,0.6,2.2,0.6c0.3,0,0.5,0,0.7-0.1c0.2-0.1,0.3-0.1,0.3-0.2
			c0-0.1-0.2-0.3-0.6-0.4l-0.6-0.2c-0.4-0.1-0.7-0.2-1-0.3c-0.3-0.1-0.5-0.2-0.7-0.3c-0.2-0.1-0.3-0.2-0.4-0.4
			c-0.1-0.1-0.1-0.3-0.1-0.4c0-0.2,0.1-0.5,0.4-0.8c0.1-0.1,0.3-0.2,0.5-0.3c0.2-0.1,0.4-0.2,0.6-0.3c0.7-0.2,1.5-0.3,2.4-0.3
			c0.8,0,1.7,0.1,2.5,0.3v1.6c-0.3-0.2-0.6-0.3-1-0.4c-0.4-0.1-0.7-0.2-1.1-0.2c-0.3,0-0.5,0-0.7,0.1c-0.2,0.1-0.3,0.1-0.3,0.2
			c0,0.1,0.2,0.3,0.7,0.4l0.6,0.2c0.7,0.2,1.3,0.4,1.6,0.7c0.3,0.2,0.5,0.5,0.5,0.8c0,0.5-0.4,0.9-1.2,1.3c-0.8,0.3-1.8,0.5-2.9,0.5
			C129.4,121.9,128.5,121.9,127.5,121.7z"/>
	</g>
</g>
</svg>
