<?xml version="1.0" encoding="utf-8"?>
<!-- Generator: Adobe Illustrator 24.1.0, SVG Export Plug-In . SVG Version: 6.00 Build 0)  -->
<svg version="1.1" id="Layer_1" xmlns="http://www.w3.org/2000/svg" xmlns:xlink="http://www.w3.org/1999/xlink" x="0px" y="0px"
	 viewBox="0 0 217 141" style="enable-background:new 0 0 217 141;" xml:space="preserve">
<style type="text/css">
	.st0{fill-rule:evenodd;clip-rule:evenodd;}
	.st1{fill-rule:evenodd;clip-rule:evenodd;fill:#FBE62B;}
	.st2{fill-rule:evenodd;clip-rule:evenodd;fill:#429A31;}
	.st3{fill-rule:evenodd;clip-rule:evenodd;fill:#243B83;}
	.st4{fill-rule:evenodd;clip-rule:evenodd;fill:#FFFFFF;}
</style>
<g>
	<path class="st0" d="M174.9,90.8c0.1,0,0.2,0,0.3,0c0.5,0,0.6,0.4,0.9,1.2c0.2,0.5,0.5,2.1,0.5,2.4c0,0.2-0.4,0.7-0.6,1
		c-0.3,0.3-0.4,0.4-0.6,0.4c-0.2,0-0.3-0.2-0.5-0.2c-0.2,0-0.3,0.1-0.3,0.3c0,0.4,0.4,0.4,0.4,0.4c1.1,0,3.6-4.2,3.6-5.2
		c0-0.3-0.2-0.5-0.5-0.5c-0.2,0-0.3,0.1-0.3,0.3c0,0.4,0.5,0.3,0.5,0.7c0,0.5-0.7,1.7-1.1,2.3l-0.2-1c-0.1-0.7-0.6-2.3-0.8-2.3
		c-0.2,0-0.9,0.1-1.3,0.2L174.9,90.8L174.9,90.8z M174.4,93.3c-0.3,0.4-0.6,0.7-0.7,0.7c0,0-0.1,0-0.1-0.1c0-0.3,0.7-2.5,0.7-2.9
		c0-0.4-0.2-0.6-0.6-0.6c-0.7,0-1.5,1.2-2,1.9h0l0.6-1.9l0,0c-0.5,0.1-1,0.2-1.4,0.3v0.1c0.5,0,0.6,0.1,0.6,0.2
		c0,0.2-0.6,2.3-0.9,3.3h0.7c0.4-1.2,0.5-1.6,0.9-2.2c0.3-0.5,0.9-1.3,1.3-1.3c0.2,0,0.2,0.1,0.2,0.3c0,0.4-0.7,2.6-0.7,2.8
		c0,0.2,0,0.5,0.4,0.5c0.5,0,0.8-0.4,1.2-1L174.4,93.3z M170,93.4c-0.4,0.4-0.6,0.6-0.7,0.6c-0.1,0-0.1-0.1-0.1-0.1
		c0-0.3,0.8-3.3,0.9-3.4l-0.1,0l-0.6,0.1l0,0l-0.1,0.4h0c0-0.3-0.3-0.5-0.7-0.5c-1.2,0-2.6,1.7-2.6,3c0,0.2,0,1.1,0.9,1.1
		c0.5,0,1-0.3,1.8-1.4l0,0c-0.1,0.5-0.2,0.7-0.2,0.9c0,0.2,0,0.4,0.4,0.4c0.4,0,0.7-0.3,1.2-1L170,93.4z M161.8,90.8l0.2,0
		c0.2,0,0.4,0.1,0.4,0.3c0,0.2-0.9,3.5-1.1,4.5c-0.1,0.3-0.1,0.5-0.6,0.5v0.1h1.8v-0.1c-0.2,0-0.6,0-0.6-0.3c0-0.2,0.2-1.2,0.3-1.5
		c0.2,0.1,0.4,0.2,0.6,0.2c1.2,0,2.7-1.5,2.7-2.9c0-0.6-0.3-1.2-1.1-1.2c-0.7,0-1.2,0.7-1.5,1h0l0.2-0.8c0-0.1,0-0.1,0-0.1l-1.4,0.2
		L161.8,90.8z M161,93.3c-0.3,0.4-0.6,0.7-0.8,0.7c-0.1,0-0.1,0-0.1-0.2c0-0.1,0.7-2.5,0.7-2.8c0-0.3-0.2-0.6-0.5-0.6
		c-0.6,0-1.3,0.8-1.9,1.8l0,0c0.1-0.4,0.3-1.1,0.3-1.2c0-0.4-0.2-0.6-0.5-0.6c-0.8,0-1.7,1.4-1.9,1.8l0,0l0.5-1.8l0,0
		c-0.5,0.1-0.9,0.2-1.4,0.3v0.1c0.4,0,0.6,0,0.6,0.2c0,0.2-0.7,2.7-0.9,3.3h0.7c0.3-1.1,0.5-1.7,0.9-2.2c0.2-0.4,0.9-1.3,1.3-1.3
		c0.1,0,0.2,0,0.2,0.2c0,0.2-0.6,2.4-0.8,3.2h0.7c0.2-1,0.4-1.6,0.8-2.3c0.3-0.4,0.9-1.2,1.3-1.2c0.1,0,0.2,0.1,0.2,0.2
		c0,0.2-0.7,2.7-0.7,2.9c0,0.1,0,0.4,0.4,0.4c0.5,0,0.9-0.5,1.3-1l0-0.1L161,93.3z M153.2,90.4c-1.3,0-2.6,1.4-2.6,2.8
		c0,0.8,0.4,1.3,1.3,1.3c1.4,0,2.6-1.6,2.6-2.7C154.6,91.2,154.3,90.4,153.2,90.4L153.2,90.4z M150.2,90.2l0.3-1.8h-0.2
		c-0.1,0.1-0.1,0.2-0.4,0.2c-0.2,0-0.8-0.2-1.4-0.2c-2.1,0-3.7,2-3.7,3.7c0,1.8,1.3,2.4,2.3,2.4c1.3,0,2.1-1,2.4-1.3l-0.2-0.1
		c-0.4,0.4-1.1,1.1-2.1,1.1c-1.1,0-1.6-0.8-1.6-1.9c0-1.3,0.9-3.5,2.7-3.5c1.3,0,1.4,1.2,1.4,1.4L150.2,90.2z M141.8,93.4
		c-0.4,0.4-0.5,0.6-0.7,0.6c-0.1,0-0.2-0.1-0.2-0.2c0-0.1,1.1-4,1.5-5.5l0,0c-0.4,0.1-0.9,0.1-1.4,0.2v0.1c0.5,0,0.5,0.1,0.5,0.3
		c0,0.1-0.1,0.3-0.1,0.6l-0.4,1.4v0c0-0.2-0.1-0.5-0.6-0.5c-1.1,0-2.6,1.6-2.6,3c0,0.5,0.2,1.1,0.9,1.1c0.4,0,0.9-0.2,1.6-1.1l0,0
		c-0.1,0.2-0.1,0.5-0.1,0.7c0,0.2,0.1,0.4,0.4,0.4c0.3,0,0.9-0.4,1.3-1L141.8,93.4z M137.3,93.3c-0.3,0.4-0.5,0.7-0.7,0.7
		c0,0-0.1,0-0.1-0.1c0-0.3,0.7-2.5,0.7-2.9c0-0.4-0.2-0.6-0.6-0.6c-0.8,0-1.6,1.2-2,1.9h0l0.6-1.9l0,0c-0.5,0.1-1,0.2-1.4,0.3v0.1
		c0.5,0,0.6,0.1,0.6,0.2c0,0.2-0.6,2.3-0.9,3.3h0.7c0.4-1.2,0.5-1.6,0.9-2.2c0.3-0.5,0.9-1.3,1.3-1.3c0.2,0,0.2,0.1,0.2,0.3
		c0,0.4-0.7,2.6-0.7,2.8c0,0.2,0,0.5,0.4,0.5c0.5,0,0.8-0.4,1.2-1L137.3,93.3z M132.9,93.4c-0.4,0.4-0.6,0.6-0.7,0.6
		c-0.1,0-0.1-0.1-0.1-0.1c0-0.3,0.8-3.3,0.8-3.4l-0.1,0l-0.5,0.1l0,0l-0.1,0.4h0c0-0.3-0.3-0.5-0.7-0.5c-1.2,0-2.6,1.7-2.6,3
		c0,0.2,0,1.1,0.9,1.1c0.5,0,1-0.3,1.8-1.4l0,0c-0.1,0.5-0.2,0.7-0.2,0.9c0,0.2,0,0.4,0.4,0.4c0.4,0,0.7-0.3,1.2-1L132.9,93.4z
		 M128.3,93.3c-0.4,0.5-0.6,0.8-0.9,0.8c-0.1,0-0.1-0.1-0.1-0.2c0-0.1,0.1-0.3,0.1-0.4l1.4-5.2l-0.1,0c-0.4,0.1-0.9,0.2-1.4,0.2v0.1
		c0.2,0,0.6,0,0.6,0.2c0,0.2-1.3,4.9-1.3,5.1c0,0.3,0,0.6,0.4,0.6c0.6,0,0.9-0.4,1.4-1.1L128.3,93.3z M125.9,93.3
		c-0.3,0.4-0.5,0.7-0.7,0.7c0,0-0.1,0-0.1-0.1c0-0.3,0.7-2.5,0.7-2.9c0-0.4-0.2-0.6-0.6-0.6c-0.7,0-1.6,1.2-2,1.9h0l0.6-1.9l0,0
		c-0.5,0.1-1,0.2-1.5,0.3v0.1c0.5,0,0.6,0.1,0.6,0.2c0,0.2-0.6,2.3-0.9,3.3h0.7c0.4-1.2,0.5-1.6,0.9-2.2c0.3-0.5,0.9-1.3,1.3-1.3
		c0.2,0,0.2,0.1,0.2,0.3c0,0.4-0.7,2.6-0.7,2.8c0,0.2,0,0.5,0.4,0.5c0.5,0,0.8-0.4,1.3-1L125.9,93.3z M118.7,94.4h2.2v-0.1
		c-0.4-0.1-0.6-0.1-0.6-0.4c0-0.2,0-0.4,0.1-0.6l1.1-4c0.1-0.6,0.3-0.6,0.7-0.7v-0.1H120v0.1c0.4,0,0.6,0.1,0.6,0.4
		c0,0.2,0,0.4-0.1,0.5l-1.1,4c-0.1,0.5-0.3,0.6-0.7,0.7V94.4z M118.3,92.1h-2l-0.1,0.6h2L118.3,92.1z M115,93.4
		c-0.4,0.4-0.8,0.7-1.3,0.7c-0.4,0-0.9-0.2-0.9-0.8c0-0.2,0.1-0.4,0.1-0.5l0.2,0c1.4-0.2,2.3-0.9,2.3-1.6c0-0.4-0.3-0.6-0.7-0.6
		c-1.3,0-2.7,1.5-2.7,2.8c0,0.6,0.3,1.3,1.2,1.3c0.9,0,1.7-0.8,1.8-1L115,93.4z M111.4,93.3c-0.4,0.5-0.6,0.8-0.9,0.8
		c-0.1,0-0.1-0.1-0.1-0.2c0-0.1,0.1-0.3,0.1-0.4l1.3-5.2l0,0c-0.5,0.1-0.9,0.2-1.4,0.2v0.1c0.2,0,0.6,0,0.6,0.2
		c0,0.2-1.3,4.9-1.3,5.1c0,0.3,0,0.6,0.4,0.6c0.5,0,0.9-0.4,1.3-1.1L111.4,93.3z M105.3,90.8l0.2,0c0.2,0,0.4,0.1,0.4,0.3
		c0,0.2-0.9,3.5-1.2,4.5c-0.1,0.3-0.1,0.5-0.6,0.5v0.1h1.8v-0.1c-0.2,0-0.6,0-0.6-0.3c0-0.2,0.2-1.2,0.3-1.5
		c0.2,0.1,0.4,0.2,0.6,0.2c1.2,0,2.7-1.5,2.7-2.9c0-0.6-0.3-1.2-1-1.2c-0.7,0-1.3,0.7-1.5,1h0l0.2-0.8c0-0.1,0-0.1,0-0.1l-1.4,0.2
		L105.3,90.8z M104.5,93.3c-0.3,0.4-0.6,0.7-0.7,0.7c-0.1,0-0.1,0-0.1-0.2c0-0.1,0.7-2.5,0.7-2.8c0-0.3-0.2-0.6-0.5-0.6
		c-0.6,0-1.3,0.8-2,1.8v0c0.1-0.4,0.3-1.1,0.3-1.2c0-0.4-0.2-0.6-0.5-0.6c-0.8,0-1.7,1.4-1.9,1.8l0,0l0.5-1.8l0,0
		c-0.5,0.1-1,0.2-1.4,0.3v0.1c0.4,0,0.6,0,0.6,0.2c0,0.2-0.7,2.7-0.9,3.3h0.7c0.3-1.1,0.5-1.7,0.9-2.2c0.2-0.4,0.9-1.3,1.3-1.3
		c0.1,0,0.2,0,0.2,0.2c0,0.2-0.6,2.4-0.9,3.2h0.7c0.3-1,0.4-1.6,0.9-2.3c0.3-0.4,0.9-1.2,1.3-1.2c0.1,0,0.2,0.1,0.2,0.2
		c0,0.2-0.7,2.7-0.7,2.9c0,0.1,0,0.4,0.4,0.4c0.5,0,1-0.5,1.3-1l0-0.1L104.5,93.3z M97.6,93.4c-0.4,0.4-0.8,0.7-1.3,0.7
		c-0.4,0-0.9-0.2-0.9-0.8c0-0.2,0-0.4,0.1-0.5l0.2,0c1.4-0.2,2.3-0.9,2.3-1.6c0-0.4-0.3-0.6-0.7-0.6c-1.3,0-2.7,1.5-2.7,2.8
		c0,0.6,0.3,1.3,1.2,1.3c0.9,0,1.7-0.8,1.8-1L97.6,93.4z M95.9,88.5h-4.8l-0.4,1.4l0.2,0c0.5-1.1,1-1.1,2.1-1.1l-1.3,4.7
		c-0.2,0.6-0.6,0.6-1,0.7v0.1h2.6v-0.1c-0.7-0.1-0.8-0.1-0.8-0.4c0-0.1,0-0.3,0.1-0.5l1.2-4.5h0.5c0.7,0,1.1,0.2,0.9,1.1h0.1
		L95.9,88.5z M87.7,94.3c-0.5-0.1-0.6-0.1-0.7-0.8l-0.9-5.1H86l-2.6,4.5c-0.7,1.2-0.8,1.3-1.1,1.4v0.1h1.7v-0.1
		c-0.4,0-0.5-0.1-0.5-0.3c0-0.2,0.1-0.3,0.2-0.5l0.5-1h2l0.2,1.2c0,0.1,0,0.2,0,0.3c0,0.3-0.2,0.4-0.7,0.4v0.1h2.2L87.7,94.3
		L87.7,94.3z M86.4,80.7V68.1h-1.9v12.6H86.4z M162.7,80.7l-0.1-9.9l7.6,9.9h2.1V68.1h-2.2l0.1,9.5l-7.4-9.5h-2.2v12.6H162.7z
		 M100.4,80.7l-0.1-9.9l7.6,9.9h2.1V68.1h-2.1l0.1,9.5l-7.4-9.5h-2.2v12.6H100.4z M129,80.7V79h-5.3V68.1h-2.3v12.6H129z M141.7,77
		h5.1l1.4,3.7h2.1l-5.1-12.6h-1.9l-5.1,12.6h2L141.7,77z M187.4,80.7c1.7,0,3.1-0.1,4.5-1.1c1.7-1.2,2.6-3,2.6-5.2
		c0-3.7-2.6-6.3-6.6-6.3h-4.2v12.6H187.4z M187.4,80.7"/>
	<path class="st1" d="M46,62.4l4.1,8.9h-0.5v9.1h22.7V51.9h-19v10.6H46z M46,62.4"/>
	<path class="st2" d="M39.7,62.4l3.1-6.6l3.1,6.6h7.4V44.8H34.2v17.7H39.7z M39.7,62.4"/>
	<path class="st3" d="M35.6,71.2l-0.1,0.2h5.9v8.8h2.3v-8.8h5.9v20.9H28.4v-21H35.6z M35.6,71.2"/>
	<path class="st1" d="M39.7,62.4l-4.2,8.7h-7.2v3h-5.9V55.9h11.7v6.5H39.7z M39.7,62.4"/>
	<path class="st4" d="M166.7,93.4c0-0.8,0.8-2.8,1.9-2.8c0.3,0,0.5,0.2,0.5,0.6c0,0.9-0.9,2.8-1.8,2.8
		C167,94.1,166.7,93.9,166.7,93.4L166.7,93.4z M153.2,90.6c0.4,0,0.6,0.4,0.6,0.9c0,1-0.7,2.8-1.7,2.8c-0.4,0-0.7-0.3-0.7-0.8
		C151.4,92.4,152.2,90.6,153.2,90.6L153.2,90.6z M139.1,94.1c-0.6,0-0.6-0.5-0.6-0.7c0-0.8,0.9-2.8,1.9-2.8c0.4,0,0.4,0.4,0.4,0.6
		C140.9,92.4,140,94.1,139.1,94.1L139.1,94.1z M129.6,93.4c0-0.8,0.8-2.8,1.9-2.8c0.2,0,0.5,0.2,0.5,0.6c0,0.9-0.9,2.8-1.8,2.8
		C129.9,94.1,129.6,93.9,129.6,93.4L129.6,93.4z M113.1,92.1c0.3-0.8,1-1.5,1.4-1.5c0.2,0,0.3,0.2,0.3,0.4c0,0.1-0.1,1.1-1.9,1.5
		L113.1,92.1z M95.8,92.1c0.3-0.8,0.9-1.5,1.4-1.5c0.2,0,0.3,0.2,0.3,0.4c0,0.1,0,1.1-1.9,1.5L95.8,92.1z M146.1,75.3h-3.7l1.9-4.8
		L146.1,75.3z M185.5,79v-9.2h2c3.2,0,5.1,1.8,5.1,4.6c0,2.8-1.8,4.6-4.8,4.6L185.5,79L185.5,79z M164.7,91.6c0,1.1-0.8,2.7-1.9,2.7
		c-0.2,0-0.4-0.1-0.4-0.3c0-0.3,0.3-1.6,0.6-2.1c0.2-0.6,0.8-1,1.2-1C164.7,90.8,164.7,91.3,164.7,91.6L164.7,91.6z M108.2,91.6
		c0,1.1-0.8,2.7-1.9,2.7c-0.2,0-0.4-0.1-0.4-0.3c0-0.3,0.4-1.6,0.6-2.1c0.2-0.6,0.8-1,1.2-1C108.2,90.8,108.2,91.3,108.2,91.6
		L108.2,91.6z M84.3,92.1l1.3-2.3h0l0.4,2.3H84.3z M84.3,92.1"/>
</g>
</svg>
