<?xml version="1.0" encoding="utf-8"?>
<!-- Generator: Adobe Illustrator 24.1.0, SVG Export Plug-In . SVG Version: 6.00 Build 0)  -->
<svg version="1.1" id="Layer_1" xmlns="http://www.w3.org/2000/svg" xmlns:xlink="http://www.w3.org/1999/xlink" x="0px" y="0px"
	 viewBox="0 0 217 141" style="enable-background:new 0 0 217 141;" xml:space="preserve">
<style type="text/css">
	.st0{fill-rule:evenodd;clip-rule:evenodd;fill:#808285;}
	.st1{fill-rule:evenodd;clip-rule:evenodd;fill:#E5001C;}
</style>
<g>
	<g>
		<path class="st0" d="M189.6,66.7c0-1.3,1-2.3,2.2-2.3c1.3,0,2.2,1,2.2,2.3c0,1.3-1,2.3-2.2,2.3C190.6,69,189.6,68,189.6,66.7
			L189.6,66.7L189.6,66.7z M191.8,69.4c1.5,0,2.7-1.2,2.7-2.7c0-1.5-1.2-2.7-2.7-2.7c-1.4,0-2.6,1.2-2.6,2.7
			C189.2,68.2,190.4,69.4,191.8,69.4L191.8,69.4L191.8,69.4z M190.8,68.1h0.5v-1.1h0.6l0.4,1.1h0.6l-0.5-1.2
			c0.2-0.1,0.5-0.1,0.5-0.7c0-0.8-0.6-0.9-1.1-0.9l0,0h-0.9V68.1L190.8,68.1z M191.3,65.8h0.6c0.3,0,0.4,0.1,0.4,0.3
			c0,0.2-0.2,0.4-0.4,0.4l0,0h-0.6V65.8L191.3,65.8z"/>
		<polygon class="st1" points="49.9,56.9 41.7,56.9 49.9,68.5 49.9,56.9 		"/>
		<polygon class="st1" points="22.7,84.1 30.9,84.1 22.7,72.4 22.7,84.1 		"/>
		<polygon class="st1" points="49.9,75.9 38.3,84.1 49.9,84.1 49.9,75.9 		"/>
		<polygon class="st1" points="22.7,56.9 22.7,65 34.4,56.9 22.7,56.9 		"/>
		<polygon class="st0" points="29.9,70.4 26.2,66.7 22.5,70.4 26.2,74.2 29.9,70.4 		"/>
		<polygon class="st0" points="40,70.4 36.3,66.7 32.6,70.4 36.3,74.2 40,70.4 		"/>
		<polygon class="st0" points="35,75.5 31.3,71.8 27.5,75.5 31.3,79.2 35,75.5 		"/>
		<polygon class="st0" points="45.1,75.5 41.4,71.8 37.7,75.5 41.4,79.2 45.1,75.5 		"/>
		<polygon class="st0" points="35,65.4 31.3,61.7 27.5,65.4 31.3,69.1 35,65.4 		"/>
		<polygon class="st0" points="45.1,65.4 41.4,61.7 37.7,65.4 41.4,69.1 45.1,65.4 		"/>
		<polygon class="st0" points="40,60.4 36.3,56.7 32.6,60.4 36.3,64.1 40,60.4 		"/>
		<polygon class="st0" points="50.1,70.4 46.4,66.7 42.7,70.4 46.4,74.2 50.1,70.4 		"/>
		<polygon class="st0" points="40,80.5 36.3,76.9 32.6,80.5 36.3,84.2 40,80.5 		"/>
		<polygon class="st0" points="57.2,63.8 60.3,63.8 60.3,84.1 57.2,84.1 57.2,63.8 		"/>
		<path class="st0" d="M63.5,70.8h2.8v3.1h0.1c0.4-1,1.7-3.4,4.7-3.4c2.3,0,3.3,2,3.3,3.9l0,0v9.7h-2.8v-8.3c0-1.7-0.2-3.2-1.7-3.2
			c-2.8,0-3.6,4.4-3.6,6l0,0v5.5h-2.8V70.8L63.5,70.8z"/>
		<path class="st0" d="M84.4,84.2c-0.5,0.1-1.3,0.2-2,0.2c-2.6,0-4.2-0.8-4.2-3.4l0,0v-8.8h-2.1v-1.4h2.1v-3.1l2.8-1.7v4.8h3.6v1.4
			h-3.6v7.6c0,2,0.2,2.9,2,2.9c0.4,0,0.9-0.1,1.3-0.2l0,0V84.2L84.4,84.2z"/>
		<path class="st0" d="M88.9,74.6c0.1-0.7,0.5-3,2.6-3c2.1,0,2.5,2,2.5,3l0,0H88.9L88.9,74.6z M96.5,82.3c-0.8,0.4-1.7,0.5-2.5,0.5
			c-4,0-5.2-4.3-5.2-6.9l0,0h8c0-2.5-0.8-5.4-5.1-5.4c-4.2,0-5.6,2.6-5.6,6.3c0,5.3,2.9,7.5,6.6,7.5c1.7,0,2.7-0.3,3.9-0.8l0,0V82.3
			L96.5,82.3z"/>
		<path class="st0" d="M98.8,70.8h2.8v3.4h0.1c0.9-1.8,1.9-3.5,4.3-3.7l0,0v2.9c-2.7,0.1-4.4,1-4.4,4.6l0,0v6.1h-2.8V70.8L98.8,70.8
			z"/>
		<path class="st0" d="M117.3,83.7c-1.1,0.4-2.4,0.7-3.5,0.7c-4.2,0-6.7-2.5-6.7-7.5c0-4,1.8-6.4,5.6-6.4c3.6,0,4.7,1.9,4.7,4.6l0,0
			h-2.9c0-1.6-0.1-3.5-1.9-3.5c-1.6,0-2.4,1.9-2.4,4.3c0,3.2,1.3,6.9,4.7,6.9c0.8,0,1.6-0.2,2.4-0.5l0,0V83.7L117.3,83.7z"/>
		<path class="st0" d="M121.9,74.6c0.1-0.7,0.4-3,2.6-3c2.1,0,2.5,2,2.5,3l0,0H121.9L121.9,74.6z M129.5,82.3
			c-0.9,0.4-1.7,0.5-2.5,0.5c-4,0-5.2-4.3-5.2-6.9l0,0h8c0-2.5-0.8-5.4-5.1-5.4c-4.2,0-5.6,2.6-5.6,6.3c0,5.3,2.9,7.5,6.6,7.5
			c1.7,0,2.7-0.3,3.9-0.8l0,0V82.3L129.5,82.3z"/>
		<path class="st0" d="M131.7,70.8h2.8v3.4h0.1c0.9-1.8,1.9-3.5,4.3-3.7l0,0v2.9c-2.7,0.1-4.4,1-4.4,4.6l0,0v6.1h-2.8V70.8
			L131.7,70.8z"/>
		<path class="st0" d="M147,79.4c0,2.3-1.8,3.2-2.7,3.2c-0.9,0-1.6-0.8-1.6-2c0-2.5,3.2-2.7,4.4-2.8l0,0V79.4L147,79.4z M147,84.1
			h2.8v-8.6c0-2.6-0.4-5-4.7-5c-4.2,0-4.9,2.1-5.1,4l0,0h2.9c0.1-1.5,0.4-2.9,2.1-2.9c1.9,0,1.9,2.4,1.9,3.9l0,0v1.2
			c-1.8,0.1-7.4,0.3-7.4,4.4c0,1.9,1.5,3.3,3.6,3.3c2.1,0,3.3-1.4,3.7-2.1l0,0h0.1V84.1L147,84.1z"/>
		<path class="st0" d="M153.1,70.8h2.8v3.1h0.1c0.3-1,1.5-3.4,4-3.4c2.4,0,3.2,1.9,3.3,3.3l0,0h0.1c0.5-1,1.4-3.3,4-3.3
			c2.8,0,3.4,2.3,3.4,4.5l0,0v9h-2.8v-8.6c0-1.5-0.2-2.9-1.6-2.9c-2.5,0-3,4.4-3,6l0,0v5.5h-2.8v-8.3c0-1.7-0.2-3.2-1.7-3.2
			c-2.6,0-2.9,4.6-2.9,6l0,0v5.5h-2.8V70.8L153.1,70.8z"/>
		<path class="st0" d="M173.8,70.8h2.8v13.3h-2.8V70.8L173.8,70.8z M173.7,63.9h3v2.8h-3V63.9L173.7,63.9z"/>
		<path class="st0" d="M189,83.7c-1.1,0.4-2.4,0.7-3.5,0.7c-4.2,0-6.6-2.5-6.6-7.5c0-4,1.8-6.4,5.6-6.4c3.5,0,4.7,1.9,4.7,4.6l0,0
			h-2.9c0-1.6-0.2-3.5-2-3.5c-1.6,0-2.5,1.9-2.5,4.3c0,3.2,1.4,6.9,4.8,6.9c0.8,0,1.6-0.2,2.4-0.5l0,0V83.7L189,83.7z"/>
	</g>
</g>
</svg>
