<?xml version="1.0" encoding="utf-8"?>
<!-- Generator: Adobe Illustrator 24.1.0, SVG Export Plug-In . SVG Version: 6.00 Build 0)  -->
<svg version="1.1" id="Layer_1" xmlns="http://www.w3.org/2000/svg" xmlns:xlink="http://www.w3.org/1999/xlink" x="0px" y="0px"
	 viewBox="0 0 217 141" style="enable-background:new 0 0 217 141;" xml:space="preserve">
<style type="text/css">
	.st0{fill-rule:evenodd;clip-rule:evenodd;fill:#2A3416;}
	.st1{fill-rule:evenodd;clip-rule:evenodd;fill:#A2A2A2;}
</style>
<path class="st0" d="M18.5,70.5c0-3.9,3.2-6.7,6.6-6.7c1.3,0,6.1,0,6.1,0L28.7,68c0,0-2.1,0-3.5,0c-3.2,0-3.5,4.9-0.1,4.9
	c1.4,0,1.8-0.6,2.6-2.1c0.5-0.7,5.3-8.6,5.9-9.5c0.3-0.6,1.4-2.8,3.6-3.7c2-0.9,3.6-0.9,4.6-0.6c2.9,0.6,4.4,2.5,4.4,2.5l-2.5,4
	c-0.5-2.2-2.4-2.5-3.2-2.5c-2.1,0-2.6,1.2-3.2,2.1c-0.1,0.2-4.9,8.2-5.2,8.7c-1.1,1.9-2.9,5.3-7.1,5.3
	C21.9,77.1,18.5,74.4,18.5,70.5L18.5,70.5z"/>
<path class="st0" d="M25.3,84.4h4.8c0,0,8.7-14.2,9-14.9c0.4-0.6,0.9-1.4,2.2-1.4c1.4,0,2.6,0.9,2.6,2.4c0,1.3-0.9,2.6-2.6,2.6
	c-1.7,0-3.4,0-3.4,0l-2.5,4c0,0,4.4,0,6,0c3.3,0,6.6-2.4,6.6-6.3c0.1-5.2-4-6.8-6.5-6.8c-2.6,0-4.5,1.4-5.6,3.1
	C34.9,68.5,25.3,84.4,25.3,84.4L25.3,84.4z"/>
<path class="st1" d="M62.7,72.8l1.7-0.1c0.1,0.7,0.3,1.2,0.6,1.6c0.3,0.4,0.7,0.8,1.3,1c0.6,0.3,1.3,0.4,2,0.4
	c0.7,0,1.3-0.1,1.8-0.3c0.5-0.2,0.9-0.5,1.2-0.8c0.3-0.4,0.4-0.7,0.4-1.1c0-0.4-0.1-0.8-0.4-1.1C71,72,70.6,71.8,70,71.5
	c-0.4-0.1-1.2-0.4-2.4-0.7c-1.2-0.3-2.1-0.6-2.6-0.8c-0.6-0.3-1.1-0.7-1.4-1.2c-0.3-0.5-0.5-1-0.5-1.7c0-0.7,0.2-1.3,0.6-1.9
	c0.4-0.6,0.9-1,1.7-1.3c0.7-0.3,1.6-0.5,2.5-0.5c1,0,1.9,0.2,2.6,0.5c0.8,0.3,1.3,0.8,1.7,1.4c0.4,0.6,0.6,1.3,0.7,2.1l-1.7,0.1
	c-0.1-0.8-0.4-1.5-0.9-1.9C69.8,65.2,69,65,68,65c-1.1,0-1.8,0.2-2.3,0.6c-0.5,0.4-0.7,0.9-0.7,1.4c0,0.5,0.2,0.9,0.5,1.2
	c0.3,0.3,1.2,0.6,2.7,1c1.4,0.3,2.4,0.6,3,0.9c0.8,0.4,1.4,0.8,1.7,1.4c0.4,0.6,0.6,1.2,0.6,1.9c0,0.7-0.2,1.4-0.6,2
	c-0.4,0.6-1,1.1-1.8,1.5c-0.8,0.3-1.6,0.5-2.6,0.5c-1.2,0-2.2-0.2-3-0.5c-0.8-0.4-1.5-0.9-1.9-1.6C62.9,74.5,62.7,73.7,62.7,72.8
	L62.7,72.8z"/>
<path class="st1" d="M81.8,73.5l1.6,0.2c-0.2,1.1-0.6,2-1.4,2.6c-0.7,0.6-1.6,0.9-2.7,0.9c-1.3,0-2.4-0.4-3.2-1.3
	c-0.8-0.9-1.2-2.1-1.2-3.7c0-1,0.2-2,0.5-2.7c0.3-0.8,0.9-1.4,1.6-1.8c0.7-0.4,1.5-0.6,2.3-0.6c1.1,0,1.9,0.3,2.6,0.8
	c0.7,0.5,1.1,1.3,1.3,2.3l-1.6,0.2c-0.2-0.6-0.4-1.1-0.8-1.5c-0.4-0.3-0.9-0.5-1.4-0.5c-0.8,0-1.5,0.3-2,0.9
	c-0.5,0.6-0.8,1.5-0.8,2.8c0,1.3,0.2,2.2,0.7,2.8c0.5,0.6,1.1,0.9,1.9,0.9c0.6,0,1.2-0.2,1.6-0.6C81.4,74.9,81.7,74.3,81.8,73.5
	L81.8,73.5z"/>
<path class="st1" d="M84.8,77.1V63.7h1.6v4.8c0.8-0.9,1.7-1.3,2.9-1.3c0.7,0,1.3,0.1,1.9,0.4c0.5,0.3,0.9,0.7,1.1,1.2
	c0.2,0.5,0.3,1.2,0.3,2.2v6.1h-1.6v-6.1c0-0.8-0.2-1.4-0.5-1.8c-0.4-0.4-0.9-0.6-1.5-0.6c-0.5,0-0.9,0.1-1.4,0.4
	c-0.4,0.3-0.7,0.6-0.9,1c-0.2,0.4-0.3,1-0.3,1.8v5.3H84.8L84.8,77.1z"/>
<path class="st1" d="M101.8,73.9l1.7,0.2c-0.3,1-0.8,1.8-1.5,2.3c-0.7,0.5-1.6,0.8-2.8,0.8c-1.4,0-2.5-0.4-3.4-1.3
	c-0.8-0.9-1.2-2.1-1.2-3.7c0-1.6,0.4-2.9,1.3-3.8c0.8-0.9,1.9-1.3,3.3-1.3c1.3,0,2.4,0.4,3.2,1.3c0.8,0.9,1.2,2.1,1.2,3.7
	c0,0.1,0,0.2,0,0.4h-7.2c0.1,1.1,0.4,1.9,0.9,2.4c0.5,0.6,1.2,0.8,2,0.8c0.6,0,1.1-0.2,1.5-0.5C101.2,75.1,101.6,74.6,101.8,73.9
	L101.8,73.9z M96.5,71.3h5.4c-0.1-0.8-0.3-1.4-0.6-1.8c-0.5-0.6-1.2-0.9-2-0.9c-0.8,0-1.4,0.3-1.9,0.8
	C96.8,69.8,96.5,70.4,96.5,71.3L96.5,71.3z"/>
<path class="st1" d="M105.6,77.1v-9.7h1.5v1.5c0.4-0.7,0.7-1.1,1-1.4c0.3-0.2,0.7-0.3,1.1-0.3c0.6,0,1.1,0.2,1.7,0.5l-0.6,1.5
	c-0.4-0.2-0.8-0.4-1.2-0.4c-0.4,0-0.7,0.1-1,0.3c-0.3,0.2-0.5,0.5-0.6,0.9c-0.2,0.6-0.3,1.2-0.3,1.9v5.1H105.6L105.6,77.1z"/>
<path class="st1" d="M111.8,65.6v-1.9h1.6v1.9H111.8L111.8,65.6z M111.8,77.1v-9.7h1.6v9.7H111.8L111.8,77.1z"/>
<path class="st1" d="M115.9,77.1v-9.7h1.5v1.4c0.7-1.1,1.7-1.6,3.1-1.6c0.6,0,1.1,0.1,1.6,0.3c0.5,0.2,0.9,0.5,1.1,0.8
	c0.2,0.3,0.4,0.7,0.5,1.2c0.1,0.3,0.1,0.8,0.1,1.6v5.9h-1.6v-5.9c0-0.7-0.1-1.2-0.2-1.5c-0.1-0.3-0.4-0.6-0.7-0.8
	c-0.3-0.2-0.7-0.3-1.1-0.3c-0.7,0-1.3,0.2-1.8,0.7c-0.5,0.4-0.8,1.3-0.8,2.5v5.3H115.9L115.9,77.1z"/>
<path class="st1" d="M126,77.9l1.6,0.2c0.1,0.5,0.3,0.8,0.6,1.1c0.4,0.3,1,0.5,1.7,0.5c0.8,0,1.3-0.2,1.8-0.5
	c0.4-0.3,0.7-0.7,0.8-1.3c0.1-0.3,0.1-1,0.1-2.1c-0.7,0.8-1.6,1.3-2.7,1.3c-1.3,0-2.4-0.5-3.1-1.4c-0.7-1-1.1-2.1-1.1-3.5
	c0-0.9,0.2-1.8,0.5-2.6c0.3-0.8,0.8-1.4,1.5-1.8c0.6-0.4,1.4-0.6,2.2-0.6c1.1,0,2.1,0.5,2.8,1.4v-1.2h1.5v8.4c0,1.5-0.2,2.6-0.5,3.2
	c-0.3,0.6-0.8,1.1-1.5,1.5c-0.7,0.4-1.5,0.5-2.5,0.5c-1.2,0-2.1-0.3-2.8-0.8C126.3,79.7,126,78.9,126,77.9L126,77.9z M127.4,72
	c0,1.3,0.3,2.2,0.8,2.8c0.5,0.6,1.1,0.9,1.9,0.9c0.8,0,1.4-0.3,1.9-0.9c0.5-0.6,0.8-1.5,0.8-2.7c0-1.2-0.3-2.1-0.8-2.7
	c-0.5-0.6-1.2-0.9-1.9-0.9c-0.7,0-1.3,0.3-1.9,0.9C127.6,70,127.4,70.9,127.4,72L127.4,72z"/>
<polygon class="st1" points="136.1,73 136.1,71.4 141.1,71.4 141.1,73 136.1,73 "/>
<path class="st1" d="M143.1,77.1V63.7h5c0.9,0,1.6,0,2,0.1c0.7,0.1,1.2,0.3,1.7,0.6c0.4,0.3,0.8,0.7,1.1,1.3
	c0.3,0.6,0.4,1.2,0.4,1.8c0,1.1-0.4,2.1-1.1,2.9c-0.7,0.8-2,1.2-3.9,1.2h-3.4v5.4H143.1L143.1,77.1z M144.9,70.1h3.5
	c1.1,0,2-0.2,2.4-0.6c0.5-0.4,0.7-1,0.7-1.8c0-0.6-0.1-1-0.4-1.4c-0.3-0.4-0.7-0.7-1.1-0.8c-0.3-0.1-0.8-0.1-1.6-0.1h-3.4V70.1
	L144.9,70.1z"/>
<polygon class="st1" points="155.3,77.1 155.3,63.7 157,63.7 157,77.1 155.3,77.1 "/>
<path class="st1" d="M158.9,72.2c0-1.8,0.5-3.1,1.5-4c0.8-0.7,1.8-1.1,3-1.1c1.3,0,2.4,0.4,3.3,1.3c0.8,0.9,1.3,2.1,1.3,3.6
	c0,1.2-0.2,2.2-0.6,2.9c-0.4,0.7-0.9,1.3-1.6,1.7c-0.7,0.4-1.5,0.6-2.3,0.6c-1.4,0-2.4-0.4-3.3-1.3
	C159.3,75.1,158.9,73.9,158.9,72.2L158.9,72.2z M160.6,72.2c0,1.2,0.3,2.2,0.8,2.8c0.5,0.6,1.2,0.9,2,0.9c0.8,0,1.5-0.3,2-0.9
	c0.5-0.6,0.8-1.6,0.8-2.8c0-1.2-0.3-2.1-0.8-2.7c-0.5-0.6-1.2-0.9-2-0.9c-0.8,0-1.5,0.3-2,0.9C160.8,70.1,160.6,71,160.6,72.2
	L160.6,72.2z"/>
<path class="st1" d="M176.2,77.1v-1.4c-0.8,1.1-1.8,1.6-3.1,1.6c-0.6,0-1.1-0.1-1.6-0.3c-0.5-0.2-0.9-0.5-1.1-0.8
	c-0.2-0.3-0.4-0.7-0.5-1.2c-0.1-0.3-0.1-0.8-0.1-1.5v-6h1.6v5.4c0,0.9,0,1.4,0.1,1.7c0.1,0.4,0.3,0.8,0.7,1c0.3,0.2,0.7,0.4,1.2,0.4
	c0.5,0,1-0.1,1.4-0.4c0.4-0.3,0.7-0.6,0.9-1c0.2-0.4,0.3-1.1,0.3-1.9v-5.2h1.6v9.7H176.2L176.2,77.1z"/>
<path class="st1" d="M179.9,77.9l1.6,0.2c0.1,0.5,0.3,0.8,0.6,1.1c0.4,0.3,1,0.5,1.7,0.5c0.8,0,1.3-0.2,1.8-0.5
	c0.4-0.3,0.7-0.7,0.8-1.3c0.1-0.3,0.1-1,0.1-2.1c-0.7,0.8-1.6,1.3-2.7,1.3c-1.3,0-2.4-0.5-3.1-1.4c-0.7-1-1.1-2.1-1.1-3.5
	c0-0.9,0.2-1.8,0.5-2.6c0.3-0.8,0.8-1.4,1.5-1.8c0.6-0.4,1.4-0.6,2.2-0.6c1.1,0,2.1,0.5,2.8,1.4v-1.2h1.5v8.4c0,1.5-0.2,2.6-0.5,3.2
	c-0.3,0.6-0.8,1.1-1.5,1.5c-0.7,0.4-1.5,0.5-2.5,0.5c-1.2,0-2.1-0.3-2.8-0.8C180.3,79.7,179.9,78.9,179.9,77.9L179.9,77.9z
	 M181.3,72c0,1.3,0.3,2.2,0.8,2.8c0.5,0.6,1.1,0.9,1.9,0.9c0.8,0,1.4-0.3,1.9-0.9c0.5-0.6,0.8-1.5,0.8-2.7c0-1.2-0.3-2.1-0.8-2.7
	c-0.5-0.6-1.2-0.9-1.9-0.9c-0.7,0-1.3,0.3-1.9,0.9C181.6,70,181.3,70.9,181.3,72L181.3,72z"/>
<path class="st1" d="M190.6,77.1V63.7h1.6v4.8c0.8-0.9,1.7-1.3,2.9-1.3c0.7,0,1.3,0.1,1.9,0.4c0.5,0.3,0.9,0.7,1.1,1.2
	c0.2,0.5,0.3,1.2,0.3,2.2v6.1h-1.6v-6.1c0-0.8-0.2-1.4-0.5-1.8c-0.4-0.4-0.9-0.6-1.5-0.6c-0.5,0-0.9,0.1-1.4,0.4
	c-0.4,0.3-0.7,0.6-0.9,1c-0.2,0.4-0.3,1-0.3,1.8v5.3H190.6L190.6,77.1z"/>
</svg>
