<?xml version="1.0" encoding="utf-8"?>
<!-- Generator: Adobe Illustrator 24.1.0, SVG Export Plug-In . SVG Version: 6.00 Build 0)  -->
<svg version="1.1" id="Layer_1" xmlns="http://www.w3.org/2000/svg" xmlns:xlink="http://www.w3.org/1999/xlink" x="0px" y="0px"
	 viewBox="0 0 217 141" style="enable-background:new 0 0 217 141;" xml:space="preserve">
<style type="text/css">
	.st0{fill:#009A7B;}
	.st1{fill:none;stroke:#009A7B;stroke-width:0.6877;}
</style>
<g>
	<path class="st0" d="M60.9,86.3c1,0.6,2.2,1.2,2.2,2.8c0,2.2-1.7,2.9-3.6,2.9c-1.1,0-2.1-0.3-2.4-0.3v-1.2c0.2,0.1,1.2,0.6,2.5,0.6
		c1.3,0,2.2-0.6,2.2-1.8c0-1.2-0.9-1.6-1.7-2.1l-0.9-0.5c-1-0.6-2.2-1.1-2.2-2.7c0-1.8,1.4-2.7,3.3-2.7c1,0,1.8,0.2,2.2,0.3v1.2
		c-0.2-0.1-1.2-0.4-2.3-0.4c-1.2,0-1.9,0.6-1.9,1.6c0,0.9,0.9,1.4,1.7,1.9L60.9,86.3"/>
	<polyline class="st0" points="66.1,81.6 67.3,81.6 67.3,86 71.6,86 71.6,81.6 72.7,81.6 72.7,91.8 71.6,91.8 71.6,87 67.3,87 
		67.3,91.8 66.1,91.8 66.1,81.6 	"/>
	<path class="st0" d="M75.5,91.8h1.2l1-3.2h3.7l1,3.2h1.2l-3.3-10.3h-1.4L75.5,91.8 M79.5,82.6L79.5,82.6l1.5,5.1h-3L79.5,82.6z"/>
	<path class="st0" d="M86.3,91.8h1.2v-4.6h1.1c1.6,0,1.9,0.7,2.2,2.2l0.5,2.4h1.2L91.8,89c-0.2-1.2-0.4-1.9-1.8-2.3v0
		c1-0.2,2.1-0.7,2.1-2.6c0-2.5-2.6-2.6-3.3-2.6h-2.6V91.8 M87.4,82.5h0.9c1.2,0,2.6,0,2.6,1.8c0,1.7-1.5,2-2.9,2h-0.6V82.5z"/>
	<rect x="95.7" y="81.5" class="st0" width="1.2" height="10.3"/>
	<polyline class="st0" points="100.8,81.6 102.3,81.6 106.6,90.3 106.6,90.3 106.6,81.6 107.7,81.6 107.7,91.8 106.2,91.8 102,83.2 
		101.9,83.2 101.9,91.8 100.8,91.8 100.8,81.6 	"/>
	<path class="st0" d="M118.2,91c-0.2,0.2-1.3,1-3,1c-3.3,0-4.1-2.7-4.1-5.6c0-2.6,1-5,3.8-5c2,0,3.3,1.2,3.3,3h-1.3c0-0.9-0.5-2-2-2
		c-2.1,0-2.6,2.1-2.6,4c0,2,0.4,4.7,2.8,4.7c1,0,1.7-0.4,1.9-0.6V87h-2.4v-1h3.5V91"/>
	<polyline class="st0" points="127,81.6 132,81.6 132,82.5 128.2,82.5 128.2,86 131.8,86 131.8,86.9 128.2,86.9 128.2,90.9 
		132.1,90.9 132.1,91.8 127,91.8 127,81.6 	"/>
	<polyline class="st0" points="137.2,86.5 134.3,81.6 135.6,81.6 137.9,85.4 140.1,81.6 141.4,81.6 138.5,86.5 141.7,91.8 
		140.5,91.8 137.9,87.5 135.3,91.8 134,91.8 137.2,86.5 	"/>
	<path class="st0" d="M144.3,91.8h1.2v-4.6h1.2c1.9,0,3.3-0.8,3.3-2.8c0-2.8-2.5-2.8-3.3-2.8h-2.4V91.8 M145.5,82.5h1
		c0.8,0,2.3,0,2.3,1.9c0,1.2-0.6,1.9-2.1,1.9h-1.3V82.5z"/>
	<polyline class="st0" points="152.9,81.6 157.9,81.6 157.9,82.5 154,82.5 154,86 157.7,86 157.7,86.9 154,86.9 154,90.9 158,90.9 
		158,91.8 152.9,91.8 152.9,81.6 	"/>
	<path class="st0" d="M161.1,91.8h1.2v-4.6h1.1c1.6,0,1.9,0.7,2.2,2.2l0.5,2.4h1.2l-0.6-2.8c-0.2-1.2-0.4-1.9-1.8-2.3v0
		c1-0.2,2.1-0.7,2.1-2.6c0-2.5-2.6-2.6-3.3-2.6h-2.6V91.8 M162.3,82.5h0.9c1.2,0,2.6,0,2.6,1.8c0,1.7-1.5,2-2.9,2h-0.6V82.5z"/>
	<polyline class="st0" points="171.7,82.5 169.2,82.5 169.2,81.6 175.3,81.6 175.3,82.5 172.9,82.5 172.9,91.8 171.7,91.8 
		171.7,82.5 	"/>
	<rect x="178" y="81.5" class="st0" width="1.2" height="10.3"/>
	<path class="st0" d="M186.4,86.3c1,0.6,2.2,1.2,2.2,2.8c0,2.2-1.7,2.9-3.6,2.9c-1.1,0-2.1-0.3-2.4-0.3v-1.2
		c0.2,0.1,1.2,0.6,2.5,0.6c1.3,0,2.2-0.6,2.2-1.8c0-1.2-0.9-1.6-1.7-2.1l-0.9-0.5c-1-0.6-2.2-1.1-2.2-2.7c0-1.8,1.4-2.7,3.3-2.7
		c1,0,1.8,0.2,2.2,0.3v1.2c-0.2-0.1-1.1-0.4-2.3-0.4c-1.2,0-1.9,0.6-1.9,1.6c0,0.9,0.9,1.4,1.7,1.9L186.4,86.3"/>
	<polyline class="st0" points="191.6,81.6 196.6,81.6 196.6,82.5 192.8,82.5 192.8,86 196.5,86 196.5,86.9 192.8,86.9 192.8,90.9 
		196.8,90.9 196.8,91.8 191.6,91.8 191.6,81.6 	"/>
	<path class="st0" d="M63.6,55.7v13.5h3.9c0,0,3.3,0,3.3-2.9c0,0-0.3-2.6-6.3-5.2h2.5c0,0,2.7,0.1,2.7-2.8c0-3-3-2.7-3-2.7H63.6
		 M70,52.1c5.2,0,5.5,4.5,5.5,4.5c0,4.7-4,4.7-4,4.7c5.8,0,5.7,5.5,5.7,5.5c0,6.4-7.7,6.1-7.7,6.1s-15.1,0-14,0
		c1.1,0,1.5-1.9,1.5-1.9s0-15.8,0-16.9c0-1.5-1.5-2-1.5-2S64.8,52.1,70,52.1z"/>
	<path class="st0" d="M30,55.7v13.5h3.9c0,0,3.3,0,3.3-2.9c0,0-0.4-2.6-6.3-5.2h2.5c0,0,2.7,0.1,2.7-2.8c0-3-3-2.7-3-2.7H30
		 M36.4,52.1c5.2,0,5.5,4.5,5.5,4.5c0,4.7-4,4.7-4,4.7c5.8,0,5.7,5.5,5.7,5.5c0,6.4-7.7,6.1-7.7,6.1s-15.1,0-14,0
		c1.1,0,1.5-1.9,1.5-1.9s0-15.8,0-16.9c0-1.5-1.5-2-1.5-2S31.2,52.1,36.4,52.1z"/>
	<path class="st0" d="M78.4,52.1c0,0,1.9,0.3,1.9,1.9c0,1.6,0,17,0,17s-0.3,1.9-1.9,1.9c-1.7,0,8.5,0,8.5,0V55.7h3.4c0,0,3,0,3,3.3
		c0,3.2-2.8,3.3-2.8,3.3h-3c0,0,1.3,1.1,3,4.8c1.7,3.7,1.7,3.7,1.7,3.7c0,0,1.1,2.1,2.5,2.1c1.3,0,6.6,0,6.6,0s-1.5-0.4-2.3-2.4
		c-0.9-2-1.9-4.3-1.9-4.3s-0.9-2.8-3.3-2.8c-2.3,0-0.1,0-0.1,0s5.8,0.3,5.8-5.9c0-6.2-8.6-5.3-8.6-5.3H78.4"/>
	<path class="st0" d="M119.8,72.9h8.2c0,0-1.2-0.3-2.1-2.7c-0.9-2.4-5.7-15.9-5.7-15.9s-0.5-2.2-2.3-2.2c-1.9,0-9.4,0-9.4,0
		s2.1,0.5,1.6,2c-0.3,0.9-2,5.4-3.4,9.1h-2.1c-1.4,0-1.6,1-2.2,2.3c-0.5,1.3-1.7,2.4-1.7,2.4c1-0.6,3.2-0.4,3.2-0.4s0.5,0,1.2,0
		c-0.3,0.6-0.4,1.1-0.4,1.1s-1.6,3.7-2.4,4.3h6.3l2-5.3c0.5,0,1,0,1.2,0c1.5-0.1,1.9-0.9,2.3-1.9c0.4-1,1.7-2.5,1.7-2.5
		c-1.1,0.3-3.3,0.2-3.3,0.2h-0.3l2.1-5.6L119.8,72.9"/>
	<path class="st0" d="M125.5,52.1c0,0,2.2,0.2,2.2,1.9c0,1.8,0,11.3,0,11.3s-0.4,7.9,9.8,7.9c10.3,0,10-7.4,10-7.4V54.2
		c0,0-0.5-2.2-2.2-2.2c-1.6,0-4.9,0-4.9,0s1.9,0.5,1.9,2.2c0,1.6,0,11.3,0,11.3s0.2,3.5-4,3.5c0,0-3.6,0.1-3.6-3.7
		c0-3.8,0-11.1,0-11.1s-0.1-2.2-2.1-2.2C130.8,52.1,125.5,52.1,125.5,52.1"/>
	<path class="st0" d="M149.8,52.1c0,0,1.9,0.7,1.9,2.2c0,1.5,0,16.4,0,16.4s-0.3,2.1-1.9,2.1c-1.6,0,6.9,0,6.9,0V62l8.4,9.3
		c0,0,0.8,1.6,3.5,1.6c2.7,0,3.2,0,3.2,0V54.4c0,0-0.1-2.4-2.4-2.4c-2.3,0-4.6,0-4.6,0s1.8,0.5,1.8,2.1c0,1.5,0,8.8,0,8.8L157,52.1
		H149.8"/>
	<line class="st1" x1="49.1" y1="49" x2="49.1" y2="75.4"/>
</g>
</svg>
