<?xml version="1.0" encoding="utf-8"?>
<!-- Generator: Adobe Illustrator 24.1.0, SVG Export Plug-In . SVG Version: 6.00 Build 0)  -->
<svg version="1.1" id="Layer_1" xmlns="http://www.w3.org/2000/svg" xmlns:xlink="http://www.w3.org/1999/xlink" x="0px" y="0px"
	 viewBox="0 0 217 141" style="enable-background:new 0 0 217 141;" xml:space="preserve">
<style type="text/css">
	.st0{fill-rule:evenodd;clip-rule:evenodd;fill:#13328C;}
	.st1{fill-rule:evenodd;clip-rule:evenodd;fill:#FFFFFF;}
	.st2{fill:none;stroke:#1A1818;stroke-width:0.75;stroke-miterlimit:22.9256;}
	.st3{fill:#1A1818;}
</style>
<g>
	<path class="st0" d="M108.5,105.5c48.3,0,87.5-15.7,87.5-35c0-19.3-39.2-35-87.5-35c-48.3,0-87.5,15.7-87.5,35
		C21,89.8,60.2,105.5,108.5,105.5L108.5,105.5z"/>
	<path class="st1" d="M108.5,101.5c46.8,0,84.8-13.9,84.8-31c0-17.1-38-31-84.8-31c-46.8,0-84.8,13.9-84.8,31
		C23.7,87.6,61.7,101.5,108.5,101.5L108.5,101.5z"/>
	<path class="st0" d="M108.5,99.4c46.2,0,83.6-13,83.6-28.9c0-16-37.4-28.9-83.6-28.9c-46.2,0-83.6,13-83.6,28.9
		C24.9,86.5,62.3,99.4,108.5,99.4L108.5,99.4z"/>
	<path class="st1" d="M85.9,63h3.7l-4.5,13.4c0,0-0.8,2.8,1.2,1c1.8-1.6,2.2-2.6,2.2-2.6h1.1c0,0-2.5,4.3-4.5,5.3
		c-2,1.1-4.7,0.9-4.7-1.5c0-1.5,0.4-1.8,0.4-1.8s-4.1,4.6-6.7,4.2c-2.8-0.4-3.9-2.4-3.4-6.9c0.5-3.8,4.9-9.8,10.8-10.9
		c0,0,2.6-0.5,3.9,1.2L85.9,63L85.9,63z"/>
	<path class="st0" d="M84.2,67.8c0,0-1.4,4.4-3.4,6.9c-1.1,1.4-6.8,6.4-5.6-0.6l0.5-2.1c0,0,1.6-4.7,5.8-7.3
		C83.5,63.4,85.2,64.8,84.2,67.8L84.2,67.8z"/>
	<path class="st1" d="M65.1,79.1c-4,2.6-9.2,1.7-9.2,1.7c-9.1-2-9.2-11.9-3.1-18.6c7.1-7.7,17-6.9,19.4-6.1c2.6,0.9,2.7,3.7,0.9,4.9
		c-1.6,1-4.8-0.3-3.2-3.4c0,0-1.5-0.8-4.8-0.2c-7.8,1.5-11.7,9.6-11.9,14.5c-0.2,7.8,5.4,7.2,7.5,6.9c3.3-0.5,4.3-1.2,6.3-2.8h1.2
		c0,0-0.8,1.5-2.8,2.8L65.1,79.1L65.1,79.1z"/>
	<path class="st1" d="M96.7,80.4h-3.5c0,0,2.8-9.2,3.8-12.5c0.8-2.6-0.3-2.4-1.8-0.9l-1.5,1.9h-1c0,0,3.7-5.7,6.6-6
		c0,0,2.5-0.2,1.6,3.1l-1,4l3.1-4.6c1.3-2,3-2.7,4.9-2.1c0,0,1.9,1.6,0.3,3.9c-1.4,1.9-3.7,0.9-3.4-1.5c0,0-2.4,0.2-6.4,9.9
		L96.7,80.4L96.7,80.4z"/>
	<path class="st1" d="M113.9,80.4h-3.5c0,0,2.8-9.2,3.8-12.5c0.8-2.6-0.3-2.4-1.8-0.9l-1.5,1.9h-1c0,0,3.7-5.7,6.6-6
		c0,0,2.5-0.2,1.6,3.1l-1,4l3.1-4.6c1.3-2,3-2.7,4.9-2.1c0,0,1.9,1.6,0.3,3.9c-1.4,1.9-3.7,0.9-3.4-1.5c0,0-2.4,0.2-6.4,9.9
		L113.9,80.4L113.9,80.4z"/>
	<path class="st1" d="M130.1,63.4h3.6c0,0-4.3,12.7-4.4,13.1c-0.1,0.4-0.8,3.4,1.2,1.6c2.1-1.8,1-0.7,2.6-2.5h1.1c0,0-3,4.9-6.5,5.6
		c-3.1,0.6-3-2.1-3-2.1s0-0.9,1-3.9L130.1,63.4L130.1,63.4z"/>
	<path class="st1" d="M131.9,61.4c1.1,0.5,2.6-0.3,3.2-1.8c0.6-1.5,0.2-3.1-0.9-3.5c-1.1-0.5-2.5,0.3-3.2,1.8
		C130.3,59.4,130.7,61,131.9,61.4L131.9,61.4z"/>
	<path class="st1" d="M159.1,80.7h-3.5c0,0,2.8-9.2,3.8-12.5c0.8-2.6-0.3-2.4-1.8-0.9l-1.5,1.9h-1c0,0,3.7-5.7,6.6-6
		c0,0,2.5-0.2,1.6,3.1l-1,4l3.1-4.6c1.3-2,3-2.7,4.9-2.1c0,0,1.9,1.6,0.3,3.9c-1.4,1.9-3.7,0.9-3.4-1.5c0,0-2.4,0.2-6.4,9.9
		L159.1,80.7L159.1,80.7z"/>
	<path class="st1" d="M137.2,71c0,0,3.3-9.2,12.7-8.1c0,0,6.3,2.2,1.9,7.2c0,0-2.1,3.1-10.6,3.4c0,0-2.2,7.2,5.8,4.7
		c0,0,2.9-1.7,3.3-2.5h1c0,0-1.8,4.7-7.9,5.7C143.4,81.6,134.1,82.6,137.2,71L137.2,71z"/>
	<path class="st0" d="M141.6,72.1c0,0,0.9-6.9,5.8-7.8c0,0,3.1-0.3,1.9,3.6c0,0-1.8,3.6-5.7,4.1L141.6,72.1L141.6,72.1z"/>
	<path class="st2" d="M178.9,95.4c1.6,0,2.9,1.3,2.9,2.9c0,1.6-1.3,2.9-2.9,2.9c-1.6,0-2.9-1.3-2.9-2.9
		C176,96.6,177.3,95.4,178.9,95.4L178.9,95.4z"/>
	<path class="st3" d="M177.7,99.9v-3.3h1.4c0.3,0,0.5,0,0.7,0.1c0.1,0.1,0.3,0.2,0.4,0.3c0.1,0.2,0.1,0.3,0.1,0.5
		c0,0.2-0.1,0.4-0.2,0.6c-0.1,0.2-0.4,0.3-0.7,0.3c0.1,0.1,0.2,0.1,0.3,0.2c0.1,0.1,0.2,0.3,0.4,0.4l0.6,0.9h-0.5l-0.4-0.7
		c-0.1-0.2-0.2-0.4-0.3-0.5c-0.1-0.1-0.2-0.2-0.2-0.2c-0.1,0-0.1-0.1-0.2-0.1c0,0-0.1,0-0.2,0h-0.5v1.5H177.7L177.7,99.9z
		 M178.2,98.1h0.9c0.2,0,0.3,0,0.5-0.1c0.1,0,0.2-0.1,0.3-0.2c0.1-0.1,0.1-0.2,0.1-0.3c0-0.2-0.1-0.3-0.2-0.4
		c-0.1-0.1-0.3-0.2-0.5-0.2h-1V98.1L178.2,98.1z"/>
</g>
</svg>
