<?xml version="1.0" encoding="utf-8"?>
<!-- Generator: Adobe Illustrator 24.1.0, SVG Export Plug-In . SVG Version: 6.00 Build 0)  -->
<svg version="1.1" id="Layer_1" xmlns="http://www.w3.org/2000/svg" xmlns:xlink="http://www.w3.org/1999/xlink" x="0px" y="0px"
	 viewBox="0 0 217 141" style="enable-background:new 0 0 217 141;" xml:space="preserve">
<style type="text/css">
	.st0{fill:#191616;stroke:#191616;}
	.st1{fill:#191616;}
	.st2{fill:#E31023;}
</style>
<g>
	<g>
		<path class="st0" d="M115.3,27"/>
	</g>
	<g>
		<line class="st1" x1="115.3" y1="27" x2="115.3" y2="50"/>
		
			<rect x="113.3" y="27" transform="matrix(1 -1.265555e-03 1.265555e-03 1 -4.864695e-02 0.146)" class="st1" width="4.1" height="22.9"/>
	</g>
	<g>
		<line class="st1" x1="115.3" y1="74.3" x2="115.3" y2="88.3"/>
		
			<rect x="108.3" y="79.2" transform="matrix(3.124985e-03 -1 1 3.124985e-03 33.6737 196.3537)" class="st1" width="14" height="4.1"/>
	</g>
	<g>
		<line class="st1" x1="120.4" y1="33.6" x2="120.4" y2="53.6"/>
		<rect x="118.3" y="33.6" class="st1" width="4.1" height="20"/>
	</g>
	<g>
		<line class="st1" x1="120.4" y1="70.7" x2="120.4" y2="88.5"/>
		<rect x="118.4" y="70.7" class="st1" width="4.1" height="17.8"/>
	</g>
	<g>
		<line class="st1" x1="125.6" y1="40" x2="125.6" y2="88.7"/>
		<rect x="123.5" y="40" class="st1" width="4.1" height="48.7"/>
	</g>
	<g>
		<line class="st1" x1="131.1" y1="47.1" x2="131.1" y2="89.7"/>
		<rect x="129" y="47.1" class="st1" width="4.1" height="42.7"/>
	</g>
	<g>
		<line class="st1" x1="136.4" y1="53.8" x2="136.4" y2="90.8"/>
		<rect x="134.3" y="53.8" class="st1" width="4.1" height="37"/>
	</g>
	<g>
		<line class="st1" x1="141.7" y1="60.3" x2="141.7" y2="92.2"/>
		<rect x="139.6" y="60.3" class="st1" width="4.1" height="31.9"/>
	</g>
	<g>
		<line class="st1" x1="147" y1="67.1" x2="147" y2="94.1"/>
		<rect x="144.9" y="67.1" class="st1" width="4.1" height="27.1"/>
	</g>
	<g>
		<line class="st1" x1="152.1" y1="73.3" x2="152.1" y2="95.9"/>
		<rect x="150.1" y="73.3" class="st1" width="4.1" height="22.7"/>
	</g>
	<g>
		<line class="st1" x1="157.6" y1="80" x2="157.6" y2="98.6"/>
		<rect x="155.5" y="80" class="st1" width="4.1" height="18.6"/>
	</g>
	<g>
		<line class="st1" x1="162.9" y1="86.7" x2="162.9" y2="101.4"/>
		<rect x="160.9" y="86.7" class="st1" width="4.1" height="14.7"/>
	</g>
	<g>
		<line class="st1" x1="168.1" y1="93.3" x2="168.1" y2="105.3"/>
		<rect x="166" y="93.3" class="st1" width="4.1" height="12"/>
	</g>
	<g>
		<line class="st1" x1="173" y1="99.6" x2="173" y2="109.4"/>
		<rect x="170.9" y="99.6" class="st1" width="4.1" height="9.7"/>
	</g>
	<g>
		<line class="st1" x1="177.4" y1="104.2" x2="177.4" y2="111.1"/>
		<rect x="175.4" y="104.2" class="st1" width="4.1" height="6.9"/>
	</g>
	<g>
		<polyline class="st2" points="43,112.4 38.4,112.4 110.7,22.3 		"/>
	</g>
	<g>
		<path class="st1" d="M43,112.4l-4.6,0l72.4-90.1v26.7c-7.2,0-12.9,5.9-12.9,13.1c0,7.2,5.8,13,13,13L110.7,88
			C82.9,88.3,57,98,43,112.4"/>
		<path class="st1" d="M43.2,112.8l-5.7,0l73.6-91.7v28.3h-0.4c-6.9,0-12.5,5.7-12.5,12.6c0,7,5.7,12.6,12.6,12.6h0.4l-0.1,13.7
			l-0.4,0c-27.3,0.3-53.1,9.6-67.4,24.3L43.2,112.8z M39.2,112l3.6,0C57.2,97.3,83,88,110.3,87.6l0.1-12.1c-7.2-0.2-13-6.2-13-13.4
			c0-7.3,5.8-13.2,12.9-13.5V23.5L39.2,112z"/>
	</g>
	<g>
		<path class="st1" d="M68.9,108.6L68.9,108.6l2.5,5.4h-5.1L68.9,108.6z M65.3,116.3h7.3l1.3,2.8h4.5l-7-13.6h-4.8l-7.1,13.6h4.4
			L65.3,116.3z"/>
		<path class="st1" d="M79.1,119.5h-5.4l-1.3-2.8h-6.8l-1.4,2.8h-5.3l7.5-14.4h5.3L79.1,119.5z M74.1,118.7h3.6l-6.6-12.8h-4.3
			l-6.6,12.8h3.4l1.4-2.8h7.8L74.1,118.7z M72.1,114.4h-6.4l2.9-6.2h0.6L72.1,114.4z M67,113.6h3.8l-1.9-4.1L67,113.6z"/>
	</g>
	<g>
		<path class="st1" d="M85.3,116.7h9.9v2.4h-14v-13.6h4.2V116.7z"/>
		<path class="st1" d="M95.6,119.5H80.7v-14.4h5v11.1h9.9V119.5z M81.5,118.7h13.2v-1.6h-9.9v-11.1h-3.3V118.7z"/>
	</g>
	<g>
		<path class="st1" d="M110.8,110c-0.3-0.8-1-2.3-4.4-2.3c-2,0-4.9,0.9-4.9,4.7c0,2.4,1.4,4.6,4.9,4.6c2.3,0,3.9-0.9,4.4-2.6h4.1
			c-0.8,2.9-3.6,5-8.6,5c-5.3,0-9-2.4-9-7.1c0-4.7,4-7.1,9.1-7.1c5.9,0,8.3,2.8,8.6,4.8H110.8z"/>
		<path class="st1" d="M106.3,119.9c-5.8,0-9.5-2.9-9.5-7.5c0-4.6,3.7-7.6,9.5-7.6c5.8,0,8.7,2.7,9,5.1l0.1,0.5h-4.9l-0.1-0.3
			c-0.3-0.8-0.9-2.1-4-2.1c-1.1,0-4.5,0.3-4.5,4.3c0,2.6,1.7,4.2,4.5,4.2c2.1,0,3.6-0.8,4-2.3l0.1-0.3h5l-0.1,0.5
			C114.4,117.9,111.1,119.9,106.3,119.9z M106.4,105.6c-4.2,0-8.7,1.8-8.7,6.7c0,4.2,3.2,6.7,8.6,6.7c4.2,0,7-1.5,8-4.2h-3.3
			c-0.6,1.6-2.3,2.6-4.7,2.6c-3.9,0-5.3-2.6-5.3-5c0-3.8,2.8-5.2,5.3-5.2c3.4,0,4.3,1.4,4.7,2.3h3.4
			C114,108,111.9,105.6,106.4,105.6z"/>
	</g>
	<g>
		<path class="st1" d="M126,108.6L126,108.6l2.5,5.4h-5.1L126,108.6z M122.4,116.3h7.3l1.3,2.8h4.5l-7-13.6h-4.8l-7.1,13.6h4.4
			L122.4,116.3z"/>
		<path class="st1" d="M136.1,119.5h-5.4l-1.3-2.8h-6.8l-1.4,2.8h-5.3l7.5-14.4h5.3L136.1,119.5z M131.2,118.7h3.6l-6.6-12.8h-4.3
			l-6.6,12.8h3.4l1.4-2.8h7.8L131.2,118.7z M129.2,114.4h-6.3l2.9-6.2h0.6L129.2,114.4z M124.1,113.6h3.8l-1.9-4.1L124.1,113.6z"/>
	</g>
	<g>
		<path class="st1" d="M150.3,105.5h3.9v13.6h-4.1l-8.1-9.7h-0.1v9.7H138v-13.6h4.3l7.9,9.5h0.1V105.5z"/>
		<path class="st1" d="M154.6,119.5h-4.7l-7.6-9v9h-4.7v-14.4h5l7.3,8.8v-8.8h4.7V119.5z M150.3,118.7h3.5v-12.8h-3v9.5h-0.6
			l-0.2-0.1l-7.8-9.3h-3.7v12.8h3V109h0.6l0.2,0.1L150.3,118.7z"/>
	</g>
</g>
</svg>
