<?xml version="1.0" encoding="utf-8"?>
<!-- Generator: Adobe Illustrator 24.1.0, SVG Export Plug-In . SVG Version: 6.00 Build 0)  -->
<svg version="1.1" id="Layer_1" xmlns="http://www.w3.org/2000/svg" xmlns:xlink="http://www.w3.org/1999/xlink" x="0px" y="0px"
	 viewBox="0 0 217 141" style="enable-background:new 0 0 217 141;" xml:space="preserve">
<style type="text/css">
	.st0{fill:#004997;}
	.st1{fill:#E5A023;}
</style>
<g>
	<g>
		<path class="st0" d="M33.4,77.9C33.4,77.9,33.4,77.9,33.4,77.9c-10.9-1.9-16.6-4.5-16.8-8c-0.5-6.9,20.7-14,21.6-14.3
			c0.1,0,0.2,0,0.3,0.1c0,0.1,0,0.2-0.1,0.3c-11.3,5-16.9,9.6-16.5,13.6c0.5,5.3,11.5,7.8,11.6,7.8c0.1,0,0.2,0.1,0.2,0.3
			C33.7,77.8,33.6,77.9,33.4,77.9"/>
		<path class="st1" d="M25.3,85.4c-0.9,0-1.6,0-2.2-0.1c-0.1,0-0.2-0.1-0.2-0.2c0-0.1,0.1-0.2,0.2-0.2h0l0.1,0
			c4.8,0,14.9-2.1,17.3-6.1c0.7-1.2,0.7-2.4,0-3.7c-1-1.8-3.4-2.9-5.5-3.8c-1.3-0.6-2.6-1.1-3.4-1.8c-0.9-0.8-1.2-1.7-0.9-2.7
			c0.7-2.5,5-5.3,9.3-6c0.1,0,0.2,0.1,0.3,0.2c0,0.1,0,0.2-0.2,0.3c-3.5,0.9-5.5,3-5.9,4.5c-0.2,0.7,0,1.4,0.5,1.8
			c0.4,0.4,1.6,1,3.1,1.6c2.7,1.3,6.1,2.8,6.9,4.5c1,2,1,3.9,0,5.5C41.9,83.7,31.3,85.4,25.3,85.4"/>
		<path class="st0" d="M56,77.9c-4.8,0-7.8-3.4-7.8-8.5c0-5.1,3.1-8.5,7.7-8.5c1.9,0,3.4,0.5,4.6,1.2l-0.5,3c-1.1-0.8-2.4-1.4-4-1.4
			c-2.9,0-4.7,2.2-4.7,5.8c0,3.6,1.9,5.7,4.8,5.7c1.5,0,2.9-0.5,4.2-1.4l0.4,2.7C59.5,77.3,57.9,77.9,56,77.9"/>
		<path class="st0" d="M67,77.8c-3.1,0-5.4-2.2-5.4-6c0-3.7,2.3-6,5.4-6c3.1,0,5.4,2.3,5.4,6C72.4,75.6,70.1,77.8,67,77.8 M67,68.3
			c-1.7,0-2.6,1.5-2.6,3.6c0,2.1,0.9,3.6,2.6,3.6c1.8,0,2.7-1.5,2.7-3.6C69.7,69.8,68.7,68.3,67,68.3"/>
		<path class="st0" d="M78.8,77.8c-3.1,0-5.4-2.2-5.4-6c0-3.7,2.3-6,5.4-6c3.1,0,5.4,2.3,5.4,6C84.2,75.6,81.9,77.8,78.8,77.8
			 M78.8,68.3c-1.7,0-2.6,1.5-2.6,3.6c0,2.1,0.9,3.6,2.6,3.6c1.8,0,2.7-1.5,2.7-3.6C81.5,69.8,80.5,68.3,78.8,68.3"/>
		<path class="st0" d="M90.9,77.7c-1.1,0-2-0.2-2.7-0.5v4.8l-2.8,0V66.1h2.4l0.3,1.6c0.8-0.9,1.9-1.8,3.5-1.8c2.4,0,4.3,1.8,4.3,5.7
			C95.9,75.8,93.5,77.7,90.9,77.7 M90.8,68.4c-1,0-1.8,0.6-2.6,1.6v4.9c0.7,0.3,1.2,0.5,2.2,0.5c1.5,0,2.6-1.2,2.6-3.7
			C93,69.5,92.1,68.4,90.8,68.4"/>
		<path class="st0" d="M102.5,77.8c-3.2,0-5.6-1.8-5.6-6c0-3.7,2.2-6,5.2-6c3.4,0,5,2.6,5,5.8c0,0.2,0,0.5,0,0.7h-7.4
			c0.1,2.3,1.4,3.2,3.1,3.2c1.5,0,2.7-0.5,3.9-1.4l0.3,2.2C105.9,77.3,104.4,77.8,102.5,77.8 M99.7,70.7h4.6
			c-0.2-1.8-0.9-2.8-2.3-2.8C100.9,67.9,100,68.8,99.7,70.7"/>
		<path class="st0" d="M111.6,71v6.6h-2.8V66.1h2.4l0.4,2.3c0.8-1.3,1.9-2.4,3.7-2.5l0.5,2.8C113.8,68.8,112.4,69.8,111.6,71"/>
		<path class="st0" d="M122,77.8c-2,0-3.7-0.5-5.2-1.1l0.5-2.9c1.4,0.8,3.1,1.4,4.7,1.4c1.4,0,2.4-0.7,2.4-2c0-1.2-0.6-1.7-2.9-2.7
			c-3.2-1.3-4.5-2.4-4.5-4.9c0-2.9,2.2-4.6,5.3-4.6c1.9,0,3.1,0.4,4.3,1l-0.5,2.8c-1.2-0.8-2.6-1.3-3.9-1.3c-1.6,0-2.3,0.8-2.3,1.8
			c0,1,0.5,1.5,2.8,2.5c3.4,1.4,4.6,2.5,4.6,5.1C127.5,76.1,125.2,77.8,122,77.8"/>
		<path class="st0" d="M133.4,77.8c-2.3,0-3.8-0.8-3.8-3.4v-5.9H128v-2.3h1.6v-3.6l2.8,0v3.6h2.4l0.4,2.3h-2.7v5.4
			c0,0.9,0.4,1.4,1.5,1.4c0.3,0,0.6,0,0.9-0.1l0.4,2.4C134.7,77.7,134.2,77.8,133.4,77.8"/>
		<path class="st0" d="M143.1,77.6l-0.2-1.5c-0.9,1-2.1,1.7-3.8,1.7c-1.9,0-3.3-1.2-3.3-3.2c0-2.8,2.3-4,6.9-4.4v-0.3
			c0-1.2-0.7-1.7-2-1.7c-1.3,0-2.6,0.4-3.8,0.9l-0.4-2.3c1.3-0.5,2.7-0.9,4.6-0.9c3,0,4.4,1.1,4.4,3.8v7.9H143.1z M142.7,71.9
			c-3.3,0.4-4.1,1.4-4.1,2.5c0,0.8,0.5,1.3,1.4,1.3c1,0,1.9-0.5,2.7-1.2V71.9z"/>
		<path class="st0" d="M154.6,77.6v-7.5c0-1-0.4-1.7-1.5-1.7c-0.9,0-1.8,0.6-2.6,1.4v7.7h-2.8V66.1h2.4l0.3,1.6
			c1.1-1,2.3-1.9,3.8-1.9c2.1,0,3.3,1.3,3.3,3.4v8.3H154.6z"/>
		<path class="st0" d="M167.1,77.6l-0.2-1.6c-0.8,1-1.9,1.8-3.5,1.8c-2.4,0-4.3-1.8-4.3-5.7c0-4.3,2.4-6.2,5-6.2
			c1.1,0,2,0.2,2.7,0.4v-6l2.8,0v17.1H167.1z M166.7,68.8c-0.7-0.3-1.3-0.5-2.2-0.5c-1.5,0-2.6,1.2-2.6,3.7c0,2.2,0.9,3.3,2.2,3.3
			c1,0,1.9-0.6,2.6-1.6V68.8z"/>
		<path class="st0" d="M178.4,77.6l-0.2-1.5c-0.9,1-2.1,1.7-3.8,1.7c-1.9,0-3.3-1.2-3.3-3.2c0-2.8,2.3-4,6.9-4.4v-0.3
			c0-1.2-0.7-1.7-2-1.7c-1.3,0-2.6,0.4-3.8,0.9l-0.4-2.3c1.3-0.5,2.7-0.9,4.6-0.9c3,0,4.4,1.1,4.4,3.8v7.9H178.4z M178,71.9
			c-3.3,0.4-4.1,1.4-4.1,2.5c0,0.8,0.5,1.3,1.4,1.3c1,0,1.9-0.5,2.7-1.2V71.9z"/>
		<path class="st0" d="M185.7,71v6.6h-2.8V66.1h2.4l0.4,2.3c0.8-1.3,1.9-2.4,3.7-2.5l0.5,2.8C188,68.8,186.5,69.8,185.7,71"/>
		<path class="st0" d="M198.2,77.6l-0.2-1.6c-0.8,1-1.9,1.8-3.5,1.8c-2.4,0-4.3-1.8-4.3-5.7c0-4.3,2.3-6.2,5-6.2
			c1.1,0,2,0.2,2.7,0.4v-6l2.8,0v17.1H198.2z M197.8,68.8c-0.7-0.3-1.3-0.5-2.2-0.5c-1.5,0-2.6,1.2-2.6,3.7c0,2.2,0.9,3.3,2.2,3.3
			c1,0,1.9-0.6,2.6-1.6V68.8z"/>
	</g>
</g>
</svg>
