<?xml version="1.0" encoding="utf-8"?>
<!-- Generator: Adobe Illustrator 24.1.0, SVG Export Plug-In . SVG Version: 6.00 Build 0)  -->
<svg version="1.1" id="Layer_1" xmlns="http://www.w3.org/2000/svg" xmlns:xlink="http://www.w3.org/1999/xlink" x="0px" y="0px"
	 viewBox="0 0 217 141" style="enable-background:new 0 0 217 141;" xml:space="preserve">
<style type="text/css">
	.st0{fill:#1A1818;}
</style>
<g>
	<path class="st0" d="M167.6,78.8l0.2-2.1c-1.1,1.8-4.5,3.5-7.3,3.4c-1,0-1.8-0.3-2.5-0.8c-2-1.4-3-2.8-3.4-4.1c2-0.7,4-1.6,6-2.5
		c2.2-1.1,4.3-2.2,6.6-3.3c0.7-0.3,0.9-1,0.9-1.7v-0.2c0-0.5-0.1-0.9-0.2-1.1c-1.1-2.9-3.1-4.9-7.3-4.2c-0.5,0.1-1.1,0.2-1.7,0.4
		c-4,1.3-7.4,4.6-7.7,8.8l-1,0.2c3.9-13,8.2-22.3,8.4-25.9c0.1-2-1.7-3.2-2.8-2c-3.5,6.5-7,16.2-9.7,28.6l-0.1,0
		c-6.1,1.2-9.7,1.1-10.3-0.8c-0.7-1.2-1.5-1.5-2.3-1.5c-1.3,0.1-2.5,1.8-3.5,2.8c-20.2,19.7-9,2.1-8-0.5c-0.3-2.1-0.4-3.7-2.3-3.6
		c-0.8,0.1-1.7,1.2-2.4,1.9c-24.6,25.5-12.4,3.3-9-3.4c-0.5-0.5-1.5-1-1.9-1.2c0.8-0.9,1.5-1.6,1.5-1.6c0.9-0.3-0.7-4.3-1.9-3.4
		c-1.8,0.5-5.3,2.5-8.9,5.2C91.8,70,86.4,75,85.1,79.1c-3.4,4.5-2.2,0.5-0.5-2.3c3.5-6,8.1-13.2,12.4-19.1c0,0,0.1-0.1,0.1-0.2
		c0,0.1-0.1,0.1-0.1,0.2c1.8-2.4,3.4-4.7,5-6.5c2.2-2.6,4.6-5.9,5.4-5.2c-0.4-2.8-1.3-4.2-2.9-4.7c-2.6,2.9-5.1,5.7-7.5,8.6
		c-1.7,2.1-3.4,4.2-5,6.3c0.4-1.3,0.4-2.7,0-4.3c-2-8.3-27.8-14.4-53.5-2C27.9,54.9,18.5,63.4,17,70.1v3.4c0.7,2.5,2.9,4.6,7.4,5.8
		c0.2-0.4,0.4-0.8,0.6-1.2c-14-1,4-22.9,26.3-29c18.7-5,36.3-2,37.6,2.7c1.1,3.5-7.4,9.9-32.3,20c0,0,0,0,0.1-0.1c0,0-0.1,0-0.1,0.1
		c0.6-2.4,1.2-4.9,1.9-7.2c-1-0.3-2-0.5-3-0.8c-4.8,12.8-8.6,24.1-5.4,25.9c1.6-0.7,3.3-1.4,4.9-2.1c-1.3-0.8-0.4-6.5,1.1-13.1
		c0.7,0.8,1.3,1.6,2,2.4c17.4-8.5,26.7-12.9,31-16.7c-4.5,6.5-8.4,13.5-11.2,21.6l3.1,2.8c0.8-0.1,4.2-2.1,4.7-3.3
		c0.7,0.9,2,2.2,4.3,2.7c0.3,0.3,1.1,0.2,1.5-0.1c1.3-1.1,3.4-2.6,5.5-4.5c0.5-0.4,1-0.9,1.4-1.3c0.8-0.8-1.7,3.5,2.4,6.5
		c2.8,2,2.6,4.1,14.7-7.4c-1.2,4.7-0.3,5.5,1.8,6.8c2.6,1.6,4.2,1.4,9.3-3.5c1.8-1.7,3.9-4.1,6.6-7.1c0,0,1-0.7,1,0.9
		c0.1,4.2-0.3,41.6,1.3,44.8c0.4,0.9,1.4,0.8,1.8,0.7l0.5-2.9c-0.5-0.3-0.7-1.3-0.8-2.9c-1.1-10.1,1.4-29.2,0.6-38.6
		c0-0.5-0.1-1.5,0.1-1.2c1.5,3,5.1,2.9,6.3,2.4l1.4,0c-1,4.9-1.8,10.1-2.5,15.7l2.2,1.5c1-6.2,2.3-12,3.7-17.3l1.5-0.1
		c1-0.7,1.7-0.6,2.1,0.2c2.8,4.1,5.7,5.6,8.2,6c2.1,0.3,3.8-0.2,4.9-0.6L167.6,78.8z M159.5,67.1c0.3-0.2,0.7-0.4,1-0.5
		c2.1-0.9,4.3-1.2,4.6-0.6c0.4,0.6-2,2.3-4,3.4c-0.2,0.1-0.4,0.2-0.6,0.3c-2,1-4.3,1.8-4.6,1.5C155.6,70.7,157.2,68.4,159.5,67.1z
		 M97.5,56.9c0,0,0.1-0.1,0.1-0.1C97.5,56.9,97.5,56.9,97.5,56.9c-0.1,0.1-0.2,0.3-0.4,0.5C97.2,57.3,97.4,57.1,97.5,56.9z
		 M97.7,56.7C97.7,56.6,97.7,56.6,97.7,56.7L97.7,56.7z M56.8,71.8c0.1,0,0.2-0.1,0.4-0.2C57.1,71.7,57,71.7,56.8,71.8z M97.8,75.2
		c-0.3,0.2-0.6,0.5-0.9,0.7c-3.2,2.7-6.3,4.6-6.6,3.9c-0.4-0.7,1.9-4,5.6-7.5c0.3-0.3,0.7-0.6,1-0.9c3.3-2.9,6.3-4.2,6.7-3.5
		C104,68.7,101.3,72.2,97.8,75.2z"/>
	<path class="st0" d="M181.2,74.4c0.2-0.2,0.4-0.4,0.6-0.6C181.7,74,181.5,74.2,181.2,74.4z"/>
	<path class="st0" d="M180.2,75.4C180.2,75.4,180.3,75.3,180.2,75.4C180.3,75.4,180.2,75.4,180.2,75.4z"/>
	<path class="st0" d="M198.7,60.5c-6.3,4.4-12.5,9.2-18.4,14.9c-4.5-4.4-7-8.1-8.7-11.5c-0.5-0.2-1.1-0.1-1.6,0.3
		c2.3,4.6,5,9.1,8.7,12.5c0.1,0.1,0.1,0.1,0.2,0.2c-4.9,4.7-9.6,10-14.1,15.9l1.8,1.5c4.4-5.7,9.3-10.8,14.5-15.4
		c4.8,4.4,9.6,8.5,14.5,11.8c0.6,0.4,1.5,0.4,1.7-0.6c0.1-0.9,0.1-1.5-0.5-2.4c-0.6-1.1-1.1-1.3-1.4-0.2c-5.3-3.7-9.5-7-12.8-10
		c5.3-4.6,11.1-8.6,17.2-12.3C200.3,62.6,200.2,60.8,198.7,60.5z"/>
</g>
</svg>
