<?xml version="1.0" encoding="utf-8"?>
<!-- Generator: Adobe Illustrator 24.1.0, SVG Export Plug-In . SVG Version: 6.00 Build 0)  -->
<svg version="1.1" id="Capa_1" xmlns="http://www.w3.org/2000/svg" xmlns:xlink="http://www.w3.org/1999/xlink" x="0px" y="0px"
	 viewBox="0 0 217 141" style="enable-background:new 0 0 217 141;" xml:space="preserve">
<style type="text/css">
	.st0{fill-rule:evenodd;clip-rule:evenodd;fill:#00A359;}
	.st1{fill-rule:evenodd;clip-rule:evenodd;fill:#FFFFFF;}
	.st2{fill:#FFFFFF;}
</style>
<g>
	<g>
		<path class="st0" d="M195,94.3c2.9,0,5.2-2.5,5.2-5.7V52.3c0-3.1-2.3-5.7-5.2-5.7H13.7c-2.9,0-5.2,2.5-5.2,5.7v36.3
			c0,3.1,2.3,5.7,5.2,5.7H195"/>
	</g>
	<path class="st1" d="M72.9,63.9c-1.3,0.7-2.2,1.9-2.9,3.5v-4h-9.6v21.9h10.4v-9c0-1.7,0.5-2.9,1.5-3.7c1-0.8,2.5-1.2,4.6-1.2
		c0.3,0,0.7,0,1,0c0.4,0,0.7,0,1.1,0.1v-8.7h-0.9C75.9,62.8,74.2,63.2,72.9,63.9"/>
	<rect x="20.3" y="63.4" class="st2" width="10.4" height="21.9"/>
	<path class="st1" d="M49.3,63.9c-1.3,0.7-2.3,1.9-3,3.5v-4h-9.6v21.9h10.4v-9c0-1.7,0.5-2.9,1.5-3.7c1-0.8,2.5-1.2,4.6-1.2
		c0.3,0,0.7,0,1,0c0.3,0,0.7,0,1.1,0.1v-8.7h-0.9C52.3,62.8,50.6,63.2,49.3,63.9"/>
	<rect x="20.3" y="54.9" class="st2" width="10.4" height="6.3"/>
	<path class="st1" d="M155.1,75.8v-0.5c0-4.3-1.5-7.7-4.4-10.1c-2.9-2.4-6.9-3.6-12-3.6c0,0,0,0,0,0c-5.1,0-9.1,1.1-12.1,3.3
		c-3,2.3-4.4,5.3-4.4,9.2c0,3.7,1.5,6.6,4.4,8.8c2.9,2.2,6.8,3.3,11.7,3.3c0.2,0,0.3,0,0.5,0c0,0,0,0,0,0c4.2-0.1,7.6-0.7,10.2-2
		c2.7-1.3,4.4-3.2,5.2-5.7h-11c-0.3,0.6-0.7,1.1-1.5,1.4c-0.7,0.3-1.7,0.5-2.8,0.5c0,0-0.1,0-0.2,0c0,0,0,0,0,0
		c-1.5,0-2.7-0.5-3.6-1.2c-0.9-0.8-1.4-1.9-1.4-3.4h5.1L155.1,75.8z M133.7,71.2c0.1-1.3,0.5-2.4,1.4-3.1c0.9-0.7,2.1-1.1,3.6-1.1
		c0,0,0.1,0,0.1,0c0,0,0,0,0,0c1.6,0,2.8,0.4,3.6,1.1c0.9,0.7,1.4,1.8,1.5,3.2h-5.1H133.7z"/>
	<rect x="84.5" y="63.4" class="st2" width="9.7" height="21.9"/>
	<rect x="84.5" y="54.9" class="st2" width="9.7" height="6.3"/>
	<path class="st1" d="M115.5,79.2c-1.2,0-2-0.1-2.4-0.5c-0.5-0.3-0.7-0.8-0.7-1.6v-8.8h4.3v-5.1h-4.3v-6.8h-9.1v6.8H100v5.1h3.3v11
		c0,2.3,0.6,4,1.7,4.9c1.1,0.9,3.2,1.4,6.1,1.4c0.8,0,1.7,0,2.6-0.1c0.9,0,1.9-0.1,3.1-0.1v-6.3c-0.2,0-0.3,0-0.5,0
		C116.1,79.2,115.8,79.2,115.5,79.2"/>
	<path class="st1" d="M183.1,77.1c-1.2,2-3.4,3.4-5.9,3.4c-3.8,0-6.8-3.1-6.8-6.8c0-3.8,3-6.8,6.8-6.8c2.4,0,4.4,1.5,5.6,3.4
		l9.6-0.1c-0.2-2.9-1.6-4.4-4.4-6.1c-2.8-1.7-6.6-2.6-11.2-2.6c-5.1,0-9.1,1.1-12.1,3.3c-2.9,2.2-4.4,5.2-4.4,9c0,3.8,1.5,6.8,4.4,9
		c3,2.2,7,3.3,12.1,3.3c4.6,0,8.3-0.9,11.1-2.6c2.8-1.8,4.3-3.5,4.5-6.6L183.1,77.1"/>
	<path class="st0" d="M205.3,49.3v0.4c0,0-0.1,0-0.1,0h-0.5V51h0.5c0,0,0.1,0,0.1,0v0.4c-0.1,0-0.1,0-0.2,0h-0.5v1.3h-0.6v-3.4
		H205.3C205.3,49.3,205.3,49.3,205.3,49.3 M205.3,48.4v-0.4c-0.9,0-1.6,0.3-2.2,0.9c-0.6,0.6-0.9,1.4-0.9,2.2c0,0.9,0.3,1.6,0.9,2.2
		c0.6,0.6,1.4,0.9,2.2,0.9v-0.4c-0.8,0-1.4-0.3-1.9-0.8c-0.5-0.5-0.8-1.2-0.8-1.9c0-0.7,0.3-1.4,0.8-1.9
		C203.9,48.6,204.6,48.4,205.3,48.4z M205.3,51.4V51c0.2,0,0.4,0,0.5-0.1c0.2-0.1,0.4-0.3,0.4-0.5c0-0.2-0.1-0.4-0.2-0.5
		c-0.1-0.1-0.3-0.1-0.6-0.1v-0.4c0.4,0,0.7,0,0.9,0.1c0.4,0.1,0.5,0.4,0.5,0.9c0,0.3-0.1,0.5-0.3,0.7c-0.1,0.1-0.3,0.1-0.5,0.2
		c0.3,0,0.5,0.2,0.6,0.3c0.1,0.2,0.2,0.4,0.2,0.5v0.3c0,0.1,0,0.2,0,0.3c0,0.1,0,0.2,0,0.2l0,0h-0.6c0,0,0,0,0,0c0,0,0,0,0,0l0-0.1
		v-0.3c0-0.4-0.1-0.7-0.3-0.8C205.7,51.5,205.6,51.4,205.3,51.4z M205.3,48.4c0.7,0,1.4,0.3,1.9,0.8c0.5,0.5,0.8,1.2,0.8,1.9
		c0,0.8-0.3,1.4-0.8,1.9c-0.5,0.5-1.2,0.8-1.9,0.8v0.4c0.9,0,1.6-0.3,2.2-0.9c0.6-0.6,0.9-1.4,0.9-2.2c0-0.9-0.3-1.6-0.9-2.2
		c-0.6-0.6-1.4-0.9-2.2-0.9V48.4z"/>
</g>
</svg>
