<?xml version="1.0" encoding="utf-8"?>
<!-- Generator: Adobe Illustrator 24.1.0, SVG Export Plug-In . SVG Version: 6.00 Build 0)  -->
<svg version="1.1" id="Capa_1" xmlns="http://www.w3.org/2000/svg" xmlns:xlink="http://www.w3.org/1999/xlink" x="0px" y="0px"
	 viewBox="0 0 217 141" style="enable-background:new 0 0 217 141;" xml:space="preserve">
<style type="text/css">
	.st0{fill:#FFE200;}
</style>
<g>
	<path d="M179.6,93.4c13.1,0,23.7-10.6,23.7-23.7s-10.6-23.7-23.7-23.7H37.4c-13.1,0-23.7,10.6-23.7,23.7s10.6,23.7,23.7,23.7H179.6
		z"/>
	<path d="M95.4,20.5h-4.7v15.3c0,0.9-0.2,1.5-0.6,2c-0.4,0.4-0.9,0.6-1.5,0.6c-0.6,0-1.1-0.2-1.5-0.6c-0.4-0.4-0.6-1.1-0.6-2V20.5
		h-4.7c-0.7,0-1.3-0.2-1.6-0.5c-0.4-0.3-0.5-0.7-0.5-1.3c0-0.5,0.2-1,0.6-1.3c0.4-0.3,0.9-0.5,1.6-0.5h13.6c0.7,0,1.3,0.2,1.6,0.5
		c0.4,0.3,0.5,0.8,0.5,1.3c0,0.5-0.2,1-0.5,1.3C96.6,20.4,96.1,20.5,95.4,20.5z M104.5,19.2v6h9.2v-6c0-0.9,0.2-1.5,0.6-1.9
		c0.4-0.4,0.9-0.6,1.5-0.6c0.6,0,1.2,0.2,1.6,0.6c0.4,0.4,0.6,1.1,0.6,1.9v16.6c0,0.9-0.2,1.5-0.6,2c-0.4,0.4-0.9,0.6-1.6,0.6
		c-0.6,0-1.2-0.2-1.5-0.7c-0.4-0.4-0.6-1.1-0.6-1.9v-7.1h-9.2v7.1c0,0.9-0.2,1.5-0.6,2c-0.4,0.4-0.9,0.6-1.6,0.6
		c-0.6,0-1.2-0.2-1.5-0.7c-0.4-0.4-0.6-1.1-0.6-1.9V19.2c0-0.9,0.2-1.5,0.6-1.9c0.4-0.4,0.9-0.6,1.5-0.6c0.6,0,1.2,0.2,1.6,0.6
		C104.3,17.7,104.5,18.4,104.5,19.2z M136.3,20.3h-9.6v5.2h8.8c0.7,0,1.1,0.1,1.5,0.4c0.3,0.3,0.5,0.7,0.5,1.2
		c0,0.5-0.2,0.9-0.5,1.2c-0.3,0.3-0.8,0.5-1.5,0.5h-8.8v6h9.9c0.7,0,1.2,0.2,1.5,0.5c0.3,0.3,0.5,0.7,0.5,1.2c0,0.5-0.2,0.9-0.5,1.2
		c-0.3,0.3-0.8,0.5-1.5,0.5h-11.6c-0.9,0-1.6-0.2-2-0.6c-0.4-0.4-0.6-1.1-0.6-2V19.6c0-0.6,0.1-1.1,0.3-1.5c0.2-0.4,0.5-0.7,0.9-0.8
		c0.4-0.2,0.9-0.3,1.5-0.3h11.3c0.7,0,1.2,0.2,1.5,0.5c0.3,0.3,0.5,0.7,0.5,1.2c0,0.5-0.2,0.9-0.5,1.2
		C137.5,20.1,137,20.3,136.3,20.3z"/>
	<path class="st0" d="M47.5,61.4l8.2,12.4V61.3c0-0.8,0.2-1.4,0.5-1.8c0.3-0.4,0.8-0.6,1.4-0.6c0.6,0,1.1,0.2,1.5,0.6
		c0.4,0.4,0.5,1,0.5,1.8v16.6c0,1.8-0.8,2.8-2.3,2.8c-0.4,0-0.7-0.1-1-0.2c-0.3-0.1-0.6-0.3-0.9-0.5c-0.3-0.2-0.5-0.5-0.7-0.8
		c-0.2-0.3-0.5-0.6-0.7-1l-8-12.3v12.3c0,0.8-0.2,1.4-0.6,1.8c-0.4,0.4-0.9,0.6-1.4,0.6c-0.6,0-1.1-0.2-1.5-0.6
		c-0.4-0.4-0.5-1-0.5-1.8V62c0-0.7,0.1-1.2,0.2-1.6c0.2-0.4,0.5-0.8,0.9-1.1c0.4-0.3,0.9-0.4,1.4-0.4c0.4,0,0.7,0.1,1,0.2
		c0.3,0.1,0.5,0.3,0.7,0.5c0.2,0.2,0.4,0.5,0.6,0.8C47.1,60.7,47.3,61.1,47.5,61.4z M77.7,77.9l-1-2.6h-8.6l-1,2.7
		c-0.4,1.1-0.7,1.8-1,2.1c-0.3,0.4-0.7,0.6-1.4,0.6c-0.5,0-1-0.2-1.4-0.6c-0.4-0.4-0.6-0.8-0.6-1.3c0-0.3,0-0.6,0.1-0.9
		c0.1-0.3,0.3-0.7,0.5-1.3l5.4-13.7c0.2-0.4,0.3-0.9,0.6-1.4c0.2-0.6,0.4-1,0.7-1.4c0.2-0.4,0.6-0.7,1-0.9c0.4-0.2,0.9-0.3,1.5-0.3
		c0.6,0,1.1,0.1,1.5,0.3c0.4,0.2,0.7,0.5,1,0.9c0.2,0.4,0.4,0.7,0.6,1.1c0.2,0.4,0.4,1,0.6,1.6l5.5,13.6c0.4,1,0.6,1.8,0.6,2.3
		c0,0.5-0.2,0.9-0.6,1.3c-0.4,0.4-0.9,0.6-1.5,0.6c-0.3,0-0.6-0.1-0.9-0.2c-0.2-0.1-0.4-0.3-0.6-0.5c-0.2-0.2-0.3-0.5-0.5-0.9
		C78,78.6,77.9,78.2,77.7,77.9z M69.3,72.1h6.3l-3.2-8.7L69.3,72.1z M91.2,71.3h-1.5v6.8c0,0.9-0.2,1.5-0.6,2
		c-0.4,0.4-0.9,0.6-1.5,0.6c-0.7,0-1.2-0.2-1.6-0.7c-0.4-0.4-0.6-1.1-0.6-1.9V61.9c0-0.9,0.2-1.6,0.6-2c0.4-0.4,1.1-0.6,2-0.6H95
		c1,0,1.8,0,2.5,0.1c0.7,0.1,1.3,0.2,1.8,0.5c0.7,0.3,1.2,0.7,1.8,1.2c0.5,0.5,0.9,1.1,1.2,1.8c0.3,0.7,0.4,1.4,0.4,2.2
		c0,1.6-0.4,2.8-1.3,3.8c-0.9,0.9-2.2,1.6-4,2c0.8,0.4,1.5,1,2.2,1.8c0.7,0.8,1.3,1.6,1.8,2.5c0.5,0.9,1,1.7,1.3,2.4
		c0.3,0.7,0.5,1.2,0.5,1.5c0,0.3-0.1,0.6-0.3,0.8c-0.2,0.3-0.4,0.5-0.7,0.6c-0.3,0.2-0.7,0.2-1.1,0.2c-0.5,0-0.9-0.1-1.2-0.3
		c-0.3-0.2-0.6-0.5-0.8-0.9c-0.2-0.3-0.6-0.9-1-1.5l-1.7-2.8c-0.6-1-1.2-1.8-1.6-2.4c-0.5-0.5-1-0.9-1.5-1.1
		C92.5,71.4,91.9,71.3,91.2,71.3z M96.5,62.8c-0.5-0.2-1.5-0.3-2.9-0.3h-3.9v5.8h3.8c1,0,1.9-0.1,2.6-0.3c0.7-0.2,1.2-0.5,1.6-0.9
		c0.4-0.4,0.6-1,0.6-1.8c0-0.6-0.1-1.1-0.4-1.5C97.5,63.3,97.1,63,96.5,62.8L96.5,62.8z M113.7,77.1l-3.4-13.4v14.5
		c0,0.8-0.2,1.4-0.5,1.8c-0.4,0.4-0.8,0.6-1.4,0.6c-0.6,0-1-0.2-1.4-0.6c-0.4-0.4-0.5-1-0.5-1.8V61.6c0-0.9,0.2-1.5,0.7-1.9
		c0.5-0.3,1.1-0.5,1.9-0.5h1.3c0.8,0,1.4,0.1,1.7,0.2c0.4,0.1,0.6,0.4,0.8,0.8c0.2,0.4,0.4,1,0.6,1.8l3.1,11.5l3.1-11.5
		c0.2-0.8,0.4-1.5,0.6-1.8c0.2-0.4,0.4-0.6,0.8-0.8c0.4-0.1,0.9-0.2,1.7-0.2h1.3c0.8,0,1.5,0.2,1.9,0.5c0.5,0.3,0.7,0.9,0.7,1.9
		v16.7c0,0.8-0.2,1.4-0.5,1.8c-0.4,0.4-0.8,0.6-1.4,0.6c-0.6,0-1-0.2-1.4-0.6c-0.4-0.4-0.5-1-0.5-1.8V63.7l-3.4,13.4
		c-0.2,0.9-0.4,1.5-0.5,1.9c-0.1,0.4-0.4,0.8-0.8,1.1s-0.9,0.5-1.6,0.5c-0.5,0-0.9-0.1-1.3-0.3s-0.6-0.5-0.8-0.8
		c-0.2-0.3-0.3-0.7-0.5-1.1C113.9,78,113.8,77.6,113.7,77.1z M149.1,73.6c0,0.7-0.2,1.4-0.5,2.2c-0.3,0.8-0.8,1.5-1.6,2.3
		c-0.7,0.8-1.6,1.4-2.7,1.8c-1.1,0.5-2.4,0.7-3.8,0.7c-1.1,0-2.1-0.1-3-0.3c-0.9-0.2-1.7-0.5-2.5-1c-0.7-0.4-1.4-1-2-1.8
		c-0.6-0.7-1-1.4-1.4-2.2c-0.4-0.8-0.7-1.7-0.9-2.6c-0.2-0.9-0.3-1.9-0.3-3c0-1.7,0.2-3.2,0.7-4.6c0.5-1.3,1.2-2.5,2.1-3.4
		c0.9-1,2-1.7,3.2-2.2c1.2-0.5,2.6-0.7,3.9-0.7c1.7,0,3.2,0.3,4.6,1c1.3,0.7,2.4,1.5,3.1,2.5c0.7,1,1.1,1.9,1.1,2.8
		c0,0.5-0.2,0.9-0.5,1.3s-0.8,0.6-1.2,0.6c-0.5,0-1-0.1-1.2-0.4c-0.3-0.3-0.6-0.7-0.9-1.3c-0.6-1-1.2-1.8-2-2.3
		c-0.8-0.5-1.7-0.8-2.8-0.8c-1.8,0-3.1,0.7-4.2,2c-1,1.3-1.6,3.2-1.6,5.7c0,1.6,0.2,3,0.7,4.1c0.5,1.1,1.1,1.9,2,2.4
		c0.8,0.5,1.8,0.8,3,0.8c1.2,0,2.3-0.3,3.1-0.9c0.8-0.6,1.5-1.5,1.9-2.7c0.2-0.6,0.4-1,0.7-1.4c0.3-0.3,0.7-0.5,1.3-0.5
		c0.5,0,0.9,0.2,1.3,0.5C148.9,72.7,149.1,73.1,149.1,73.6z M162.3,58.9c2.2,0,4.1,0.4,5.6,1.3c1.6,0.9,2.8,2.1,3.6,3.8
		c0.8,1.6,1.2,3.6,1.2,5.8c0,1.6-0.2,3.1-0.7,4.4c-0.4,1.3-1.1,2.5-2,3.5c-0.9,1-2,1.7-3.2,2.2c-1.3,0.5-2.8,0.8-4.4,0.8
		c-1.6,0-3.1-0.3-4.4-0.8c-1.3-0.5-2.4-1.3-3.3-2.2c-0.9-1-1.5-2.1-2-3.5c-0.4-1.4-0.7-2.8-0.7-4.4c0-1.6,0.2-3.1,0.7-4.5
		c0.5-1.4,1.1-2.5,2-3.4c0.9-0.9,2-1.7,3.2-2.2S160.7,58.9,162.3,58.9z M168.3,69.7c0-1.5-0.2-2.9-0.7-4c-0.5-1.1-1.2-2-2.1-2.6
		c-0.9-0.6-2-0.9-3.2-0.9c-0.9,0-1.6,0.2-2.4,0.5c-0.7,0.3-1.3,0.8-1.9,1.4c-0.5,0.6-0.9,1.4-1.2,2.3c-0.3,1-0.5,2-0.5,3.2
		c0,1.2,0.2,2.3,0.5,3.2c0.3,1,0.7,1.8,1.3,2.4c0.6,0.6,1.2,1.1,1.9,1.4c0.7,0.3,1.5,0.5,2.3,0.5c1.1,0,2.1-0.3,3-0.8
		c0.9-0.5,1.6-1.4,2.2-2.5C168.1,72.8,168.3,71.4,168.3,69.7z"/>
	<path d="M75.9,115.4v4c0,0.5-0.1,1-0.2,1.3c-0.1,0.3-0.3,0.6-0.6,0.9c-0.3,0.3-0.6,0.5-1.1,0.7c-1.3,0.7-2.5,1.2-3.7,1.5
		c-1.2,0.3-2.5,0.5-3.8,0.5c-1.6,0-3.1-0.2-4.4-0.7c-1.3-0.5-2.5-1.2-3.4-2.2c-0.9-0.9-1.7-2.1-2.2-3.4s-0.8-2.9-0.8-4.5
		c0-1.6,0.2-3.1,0.7-4.5c0.5-1.4,1.2-2.5,2.2-3.5c0.9-0.9,2.1-1.7,3.5-2.2c1.4-0.5,2.9-0.8,4.6-0.8c1.4,0,2.7,0.2,3.8,0.6
		c1.1,0.4,2,0.9,2.7,1.4c0.7,0.6,1.2,1.2,1.5,1.8c0.3,0.6,0.5,1.2,0.5,1.7c0,0.5-0.2,1-0.6,1.4c-0.4,0.4-0.9,0.6-1.4,0.6
		c-0.3,0-0.6-0.1-0.9-0.2c-0.3-0.1-0.5-0.3-0.7-0.6c-0.5-0.8-1-1.4-1.3-1.9c-0.4-0.4-0.9-0.8-1.5-1.1c-0.6-0.3-1.4-0.4-2.4-0.4
		c-1,0-1.9,0.2-2.6,0.5c-0.8,0.3-1.4,0.8-2,1.5c-0.6,0.6-1,1.4-1.3,2.4c-0.3,0.9-0.4,2-0.4,3.1c0,2.5,0.6,4.4,1.7,5.7
		c1.1,1.3,2.7,2,4.7,2c1,0,1.9-0.1,2.8-0.4c0.9-0.3,1.7-0.6,2.6-1.1v-3.4h-3.3c-0.8,0-1.4-0.1-1.8-0.4c-0.4-0.2-0.6-0.6-0.6-1.2
		c0-0.5,0.2-0.9,0.5-1.2c0.3-0.3,0.8-0.5,1.4-0.5H73c0.6,0,1.1,0.1,1.5,0.2c0.4,0.1,0.7,0.3,1,0.7C75.8,114.2,75.9,114.7,75.9,115.4
		z M85.7,115h-1.5v6.8c0,0.9-0.2,1.5-0.6,2c-0.4,0.4-0.9,0.6-1.5,0.6c-0.7,0-1.2-0.2-1.6-0.7s-0.6-1.1-0.6-1.9v-16.2
		c0-0.9,0.2-1.6,0.6-2c0.4-0.4,1.1-0.6,2-0.6h6.9c1,0,1.8,0,2.5,0.1c0.7,0.1,1.3,0.2,1.8,0.5c0.7,0.3,1.2,0.7,1.8,1.2
		c0.5,0.5,0.9,1.1,1.2,1.8c0.3,0.7,0.4,1.4,0.4,2.2c0,1.6-0.4,2.8-1.3,3.8c-0.9,0.9-2.2,1.6-4,2c0.8,0.4,1.5,1,2.2,1.8
		c0.7,0.8,1.3,1.6,1.8,2.5c0.5,0.9,1,1.7,1.3,2.4c0.3,0.7,0.5,1.2,0.5,1.5c0,0.3-0.1,0.6-0.3,0.8c-0.2,0.3-0.4,0.5-0.7,0.6
		c-0.3,0.2-0.7,0.2-1.1,0.2c-0.5,0-0.9-0.1-1.2-0.3c-0.3-0.2-0.6-0.5-0.8-0.9c-0.2-0.3-0.6-0.9-1-1.5l-1.7-2.8
		c-0.6-1-1.2-1.8-1.6-2.4c-0.5-0.5-1-0.9-1.5-1.1C87.1,115.1,86.5,115,85.7,115z M91.1,106.5c-0.5-0.2-1.5-0.3-2.9-0.3h-3.9v5.8H88
		c1,0,1.9-0.1,2.6-0.3c0.7-0.2,1.2-0.5,1.6-0.9c0.4-0.4,0.6-1,0.6-1.8c0-0.6-0.1-1.1-0.4-1.5C92,107,91.6,106.7,91.1,106.5
		L91.1,106.5z M110.4,102.6c2.2,0,4.1,0.4,5.6,1.3c1.6,0.9,2.8,2.1,3.6,3.8c0.8,1.6,1.2,3.6,1.2,5.8c0,1.6-0.2,3.1-0.7,4.4
		c-0.4,1.3-1.1,2.5-2,3.5c-0.9,1-2,1.7-3.2,2.2c-1.3,0.5-2.8,0.8-4.4,0.8c-1.6,0-3.1-0.3-4.4-0.8c-1.3-0.5-2.4-1.3-3.3-2.2
		c-0.9-1-1.5-2.1-2-3.5c-0.4-1.4-0.7-2.8-0.7-4.4c0-1.6,0.2-3.1,0.7-4.5c0.5-1.4,1.1-2.5,2-3.4c0.9-0.9,2-1.7,3.2-2.2
		S108.8,102.6,110.4,102.6z M116.5,113.4c0-1.5-0.2-2.9-0.7-4c-0.5-1.1-1.2-2-2.1-2.6c-0.9-0.6-2-0.9-3.2-0.9
		c-0.9,0-1.6,0.2-2.4,0.5c-0.7,0.3-1.3,0.8-1.9,1.4c-0.5,0.6-0.9,1.4-1.2,2.3c-0.3,1-0.5,2-0.5,3.2c0,1.2,0.2,2.3,0.5,3.2
		c0.3,1,0.7,1.8,1.3,2.4c0.6,0.6,1.2,1.1,1.9,1.4c0.7,0.3,1.5,0.5,2.3,0.5c1.1,0,2.1-0.3,3-0.8c0.9-0.5,1.6-1.4,2.2-2.5
		C116.2,116.5,116.5,115.1,116.5,113.4z M124.5,115.3v-10.1c0-0.9,0.2-1.5,0.6-1.9s0.9-0.6,1.5-0.6c0.7,0,1.2,0.2,1.6,0.6
		c0.4,0.4,0.6,1.1,0.6,1.9v10.4c0,1.2,0.1,2.2,0.4,3c0.3,0.8,0.7,1.4,1.4,1.8c0.7,0.4,1.6,0.7,2.8,0.7c1.7,0,2.8-0.4,3.5-1.3
		c0.7-0.9,1-2.2,1-4v-10.4c0-0.9,0.2-1.5,0.6-1.9c0.4-0.4,0.9-0.6,1.5-0.6c0.6,0,1.2,0.2,1.6,0.6c0.4,0.4,0.6,1.1,0.6,1.9v10.1
		c0,1.6-0.2,3-0.5,4.1c-0.3,1.1-0.9,2.1-1.8,2.9c-0.8,0.7-1.7,1.2-2.7,1.6c-1,0.3-2.2,0.5-3.6,0.5c-1.6,0-3-0.2-4.2-0.5
		c-1.2-0.3-2.1-0.9-2.9-1.6c-0.7-0.7-1.3-1.7-1.6-2.8C124.7,118.2,124.5,116.9,124.5,115.3z M155.1,115.8h-3.9v6
		c0,0.9-0.2,1.5-0.6,1.9c-0.4,0.4-0.9,0.7-1.5,0.7c-0.6,0-1.2-0.2-1.6-0.7c-0.4-0.4-0.6-1.1-0.6-1.9v-16.2c0-0.9,0.2-1.6,0.6-2
		c0.4-0.4,1.1-0.6,2.1-0.6h5.5c1.6,0,2.9,0.1,3.7,0.4c0.9,0.2,1.6,0.6,2.2,1.2c0.6,0.6,1.1,1.2,1.4,2c0.3,0.8,0.5,1.7,0.5,2.7
		c0,2.1-0.7,3.8-2,4.9C159.7,115.2,157.7,115.8,155.1,115.8z M157.8,107.1c-0.6-0.6-1.9-0.9-3.8-0.9h-2.9v6.4h2.9
		c1,0,1.8-0.1,2.5-0.3c0.7-0.2,1.2-0.6,1.5-1c0.4-0.5,0.5-1.1,0.5-1.9C158.6,108.4,158.4,107.7,157.8,107.1L157.8,107.1z"/>
</g>
</svg>
