<?xml version="1.0" encoding="utf-8"?>
<!-- Generator: Adobe Illustrator 24.1.0, SVG Export Plug-In . SVG Version: 6.00 Build 0)  -->
<svg version="1.1" id="Capa_1" xmlns="http://www.w3.org/2000/svg" xmlns:xlink="http://www.w3.org/1999/xlink" x="0px" y="0px"
	 viewBox="0 0 217 141" style="enable-background:new 0 0 217 141;" xml:space="preserve">
<style type="text/css">
	.st0{fill:#888989;}
	.st1{fill:#0A2B4E;}
</style>
<g>
	<path class="st0" d="M199.1,61.1c2,0,3.4,0,4.2,0.1c0.6,0.1,1,0.2,1.2,0.3c1.4,0.6,2.2,2.2,2.2,3.8c0,1.3-0.6,2.2-0.9,2.6
		c-1.2,1.7-2.8,1.8-4.8,1.8h-2V61.1L199.1,61.1z M199.1,71.4c3.5,0,5,0,6.4-0.9c0.9-0.5,3-2.2,3-5.2c0-2.2-1-4.1-2.9-5
		c-0.8-0.4-1.9-0.7-2.2-0.7c-3-0.3-4.6-0.2-6.2-0.1v22.1h1.8L199.1,71.4L199.1,71.4z M177.7,59.5H176v14.2c0.1,1,0.1,1.9,0.4,2.9
		c0.5,1.8,2.4,5.4,7.4,5.4c1.8,0,3.7-0.6,5.1-1.8c0.6-0.5,2.2-2,2.6-4.3c0.2-0.9,0.2-2.1,0.2-2.2V59.5h-1.7v13.7
		c-0.2,1.8-0.3,3.5-1.5,5c-1.2,1.4-3,2.3-4.8,2.3s-3.6-0.8-4.7-2.1c-1.5-1.8-1.4-3.8-1.4-4.6L177.7,59.5L177.7,59.5z M151.7,70.1
		c0.2-2.8,1.5-5.5,3.7-7.3c1.7-1.4,3.9-2.2,6.2-2.2c2.7,0,5.5,1.2,7.4,3.3c2.2,2.4,2.5,5.4,2.5,6.6c0,3-1.4,5.8-3.7,7.6
		c-2.4,2-5,2.2-6.2,2.2c-2.9,0-5.8-1.4-7.7-3.8C152.4,74.8,151.6,72.4,151.7,70.1 M149.9,70c-0.2,3.3,1.2,6.6,3.6,8.9
		c3,2.8,6.6,3.1,8,3.1c1.6,0,5.6-0.4,8.6-3.8c2.6-3,3-6.3,3-7.8c0-3.2-1.4-6.5-3.8-8.6c-2.2-1.9-5-3-7.8-3c-1.6,0-5.6,0.3-8.6,3.8
		C150.4,65.6,150,68.7,149.9,70 M138.2,61.1c3-0.1,4.4-0.2,5.6,0.6c1.1,0.7,1.9,2.2,1.9,3.6c0,1.2-0.4,2.1-0.7,2.4
		c-1,1.8-2.7,1.8-3.4,1.9c-1.1,0.1-2.2,0.1-3.4,0.1V61.1z M141,71.5c1.8-0.2,3.3-0.4,4.6-1.7c1.6-1.6,1.8-3.6,1.8-4.4
		c0-2.2-1.2-4.2-3.2-5.2c-0.6-0.3-1.4-0.5-2.1-0.6c-2.9-0.2-4.3-0.1-5.7,0v22.2h1.8V70.9l8.2,10.8h2.3L141,71.5z M132.3,64.4
		c-1-1.4-1.5-1.9-2.2-2.6c-2.1-1.8-4.8-2.9-7.6-2.9c-3.4,0-6.7,1.5-9,4.1c-2.5,2.9-2.7,6.2-2.7,7.5c0,6.5,5.4,11.5,11.7,11.5
		c3.2,0,6.4-1.4,8.5-4c2.3-2.9,2.3-6.3,2.4-7.6h-10.2v1.7h8.4c-0.4,1.8-0.6,2.3-1,3.2c-0.6,1-2.1,3.5-5.3,4.5
		c-0.5,0.2-1.4,0.4-2.7,0.4c-1.4,0-4.9-0.3-7.5-3.4c-0.8-0.9-2.4-3-2.4-6.2c0-3,1.4-6,3.7-7.8c1.8-1.4,4-2.2,6.2-2.2
		c3.6,0,5.5,1.7,6.4,2.6c0.6,0.6,1.3,1.4,1.8,2.2L132.3,64.4z"/>
	<path class="st1" d="M96.6,59.3v22.4h12.5v-4.4h-7.7v-18H96.6L96.6,59.3z M80.5,73c0.6-1.4,1-3,1.6-4.4c0.4-1,1-2.9,1.3-4
		c0.1-0.4,0.2-1,0.2-1.4c0.2,1.6,0.4,2.3,1.4,5.2c0.6,1.5,1.1,3,1.6,4.6H80.5z M80.9,59.3l-8.8,22.4h5.2l1.6-4.6h9.3l1.8,4.6h5.3
		L86,59.3H80.9L80.9,59.3z M51.6,59.3v22.4h4.6L56,71c0-0.8-0.1-1.6-0.1-2.4c0-0.9-0.2-1.8-0.2-2.7c0.3,0.6,0.7,1.2,1,1.8
		c0.6,1,1.4,2,2,3l7.8,11h4.3V59.3h-4.5l0.1,9.1c0,1,0,2,0.1,3c0,1.4,0.2,2.7,0.3,4.1c-0.7-1.5-1.4-2.8-3.3-5.6L56,59.3H51.6z
		 M37.1,63.4c2.9,0,4.6,1.6,5.3,2.4c1.6,1.8,1.7,3.9,1.7,4.8c0,2.2-0.9,4.3-2.6,5.8c-0.7,0.6-2,1.4-4.2,1.4c-3,0-5.6-1.4-6.8-4.2
		c-0.6-1.3-0.6-2.4-0.6-2.9c0-3.1,1.8-5,2.7-5.7C34.4,63.6,36.4,63.4,37.1,63.4 M37,58.8c-4.8,0-9,2.6-10.9,7c-0.9,2.2-1,4.2-1,5
		c0,5.2,2.9,8.1,4.5,9.2c3,2.2,6.3,2.2,7.5,2.2c4.8,0,9-2.2,11-6.8c0.9-2.2,1-4,1-4.9c0-4-1.8-6.6-2.7-7.8c-2.3-2.7-5.2-3.5-6.4-3.8
		C38.7,58.6,37.4,58.8,37,58.8 M13.3,63.2H15c1.2,0,2.4,0.2,3.2,1c0.6,0.7,0.6,1.5,0.6,1.8c0,0.8-0.2,1.3-0.4,1.6
		c-0.7,1.3-2,1.4-3.4,1.4h-1.8V63.2L13.3,63.2z M8.5,59.3v22.4h4.7v-9.4l6,9.4H25l-6.5-9.5c1.4-0.3,1.8-0.5,2.5-0.9
		c1.8-1.1,2.6-3.4,2.6-5.4c0-0.6-0.1-2.2-1-3.8c-1.4-2.2-3.8-2.8-6.2-2.9c-0.6,0-1.2,0-1.8,0H8.5L8.5,59.3z"/>
</g>
</svg>
