<?xml version="1.0" encoding="utf-8"?>
<!-- Generator: Adobe Illustrator 24.1.0, SVG Export Plug-In . SVG Version: 6.00 Build 0)  -->
<svg version="1.1" id="Layer_1" xmlns="http://www.w3.org/2000/svg" xmlns:xlink="http://www.w3.org/1999/xlink" x="0px" y="0px"
	 viewBox="0 0 217 141" style="enable-background:new 0 0 217 141;" xml:space="preserve">
<style type="text/css">
	.st0{fill:#095540;}
	.st1{fill:#86A699;}
	.st2{fill:#6D6E71;}
</style>
<g>
	<path class="st0" d="M37.6,73.2L16.2,51.6c-1.1,2.2-1.9,4.5-2.3,7l23.8,23.9V73.2z"/>
	<path class="st0" d="M37.6,55.7L24.1,42.1c-1.8,1.4-3.4,2.9-4.8,4.7l18.3,18.4V55.7z"/>
	<path class="st0" d="M37.6,36.7c-3,0.3-5.9,1.1-8.5,2.3l8.5,8.6V36.7z"/>
	<path class="st0" d="M13.5,66.3c1.2,12.9,11.4,23.1,24.1,24.4v-0.2L13.5,66.3z"/>
	<path class="st1" d="M51.8,39.1c-2.6-1.2-5.5-2-8.5-2.4v10.9L51.8,39.1z"/>
	<path class="st1" d="M43.3,90.7c12.7-1.4,22.8-11.5,24-24.3l-24,24.1V90.7z"/>
	<path class="st1" d="M43.3,82.5L67,58.7c-0.5-2.5-1.2-4.8-2.3-7L43.3,73.1V82.5z"/>
	<path class="st1" d="M43.3,65.1l18.2-18.3c-1.4-1.8-3-3.3-4.8-4.7L43.3,55.6V65.1z"/>
	<path class="st2" d="M88.4,58.3c4.1,0,6.8-2,8.1-3.1l0.1-0.1v-8.3H88v2.4h6.1V54c-1.5,1.2-3.6,1.9-5.6,1.9c-4.6,0-7.7-3.3-7.7-8.1
		v-0.1c0-4.5,3.2-8,7.4-8c3,0,4.6,1.1,5.9,2.2l0.1,0.1l1.7-2l-0.2-0.1c-2.3-1.9-4.5-2.7-7.6-2.7c-5.7,0-10.2,4.6-10.2,10.6v0.1
		C78.1,54,82.4,58.3,88.4,58.3"/>
	<path class="st2" d="M107.2,42.5l-0.2,0c-2.4-0.1-4.5,1.2-5.8,3.5v-3.2h-2.6V58h2.6v-6.1c0-4,2.2-6.6,5.6-6.6h0.4V42.5z"/>
	<path class="st2" d="M109.7,53.3c0-1.7,1.6-2.8,4.1-2.8c1.8,0,3.2,0.3,4.1,0.6v1.2c0,2.2-2,3.8-4.7,3.8
		C111.5,56.1,109.7,55.2,109.7,53.3L109.7,53.3z M112.8,58.3c2.5,0,4.1-1.1,5.1-2.2V58h2.6v-9.2c0-1.9-0.5-3.4-1.6-4.5
		c-1.1-1.1-2.8-1.7-4.9-1.7c-2.1,0-3.2,0.2-4.9,1l-0.1,0.1l0,2.5l0.3-0.1c1.6-0.7,3-1.1,4.5-1.1c2.7,0,4.2,1.3,4.2,3.8v0.2
		c-1.1-0.3-2.4-0.6-4.3-0.6c-4.1,0-6.5,1.9-6.5,5v0.1C107.1,56.6,110,58.3,112.8,58.3"/>
	<path class="st2" d="M130.5,44.8c2.9,0,5,2.3,5,5.5v0.1c0,3.2-2.1,5.5-5,5.5c-2.5,0-5.1-2.1-5.1-5.5v-0.1
		C125.4,46.9,128,44.8,130.5,44.8 M125.5,55.5c1.4,1.8,3.3,2.7,5.4,2.7c3.5,0,7.2-2.8,7.2-7.9v-0.1c0-5.1-3.7-7.9-7.2-7.9
		c-2.2,0-4,0.9-5.4,2.9v-2.6h-2.6v19.1h2.6V55.5z"/>
	<path class="st2" d="M153.1,58v-9.4c0-3.7-2.3-6.1-5.8-6.1c-2,0-3.7,0.8-4.8,2.4v-8.2h-2.6V58h2.6v-8.7c0-2.6,1.7-4.4,4.2-4.4
		c2.4,0,3.9,1.6,3.9,4.3V58H153.1z"/>
	<rect x="155.2" y="37.1" class="st2" width="2.9" height="2.8"/>
	<rect x="155.3" y="42.8" class="st2" width="2.6" height="15.2"/>
	<path class="st2" d="M173.8,55.2l-1.7-1.6l-0.1,0.1c-1.3,1.4-2.8,2.1-4.4,2.1c-2.9,0-5.2-2.4-5.2-5.6v-0.1c0-3.1,2.2-5.5,5.1-5.5
		c2,0,3.3,1,4.3,2.2l0.1,0.2l1.7-1.8l-0.1-0.1c-1.2-1.3-2.9-2.7-6-2.7c-4.3,0-7.7,3.6-7.7,7.9v0.1c0,4.3,3.5,7.9,7.7,7.9
		c3.1,0,4.9-1.6,6.2-2.9L173.8,55.2z"/>
	<path class="st2" d="M142.3,82.7c-1.7,0-3.5-0.9-3.5-2.8v-0.1c0-1.7,1.6-2.8,4.1-2.8c1.8,0,3.2,0.3,4.1,0.6v1.2
		C147,81.1,145,82.7,142.3,82.7 M143.1,69.2c-2.1,0-3.2,0.2-4.9,1l-0.1,0.1l0,2.5l0.3-0.1c1.6-0.7,3-1.1,4.5-1.1
		c2.7,0,4.2,1.3,4.2,3.8v0.2c-1.1-0.3-2.4-0.6-4.3-0.6c-4.1,0-6.5,1.9-6.5,5v0.1c0,3.2,2.9,4.8,5.7,4.8c2.5,0,4.1-1.1,5.1-2.2v1.9
		h2.6v-9.2c0-1.9-0.5-3.4-1.6-4.5C146.9,69.7,145.2,69.2,143.1,69.2"/>
	<path class="st2" d="M98.5,82.7c-1.7,0-3.5-0.9-3.5-2.8v-0.1c0-1.7,1.6-2.8,4.1-2.8c1.8,0,3.2,0.3,4.1,0.6v1.2
		C103.2,81.1,101.2,82.7,98.5,82.7 M99.2,69.2c-2.2,0-3.2,0.2-4.9,1l-0.1,0.1l0,2.6l0.3-0.1c1.6-0.7,3-1.1,4.5-1.1
		c2.7,0,4.2,1.3,4.2,3.8v0.2c-1.1-0.3-2.4-0.6-4.3-0.6c-4.1,0-6.5,1.9-6.5,5v0.1c0,3.2,2.9,4.8,5.7,4.8c2.5,0,4.1-1.1,5.1-2.2v1.9
		h2.6v-9.2c0-1.9-0.5-3.4-1.6-4.5C103,69.7,101.3,69.2,99.2,69.2"/>
	<path class="st2" d="M81,66.6H85c3.3,0,5.2,1.5,5.2,4.2v0.1c0,2.5-2.1,4.2-5.3,4.2H81V66.6z M93.1,70.6c0-4-3-6.5-7.7-6.5h-6.9
		v20.4h2.6v-7.1H85C89,77.5,93.1,75.4,93.1,70.6L93.1,70.6z"/>
	<path class="st2" d="M119.7,80.4c-1.3,1.4-2.8,2.1-4.4,2.1c-2.9,0-5.2-2.4-5.2-5.6v-0.1c0-3.1,2.2-5.5,5.1-5.5c2,0,3.3,1,4.3,2.2
		l0.1,0.2l1.7-1.8l-0.1-0.1c-1.2-1.3-2.9-2.7-6-2.7c-4.3,0-7.7,3.6-7.7,7.9V77c0,4.3,3.5,7.9,7.7,7.9c3.1,0,4.9-1.6,6.2-2.9l0.1-0.1
		l-1.7-1.6L119.7,80.4z"/>
	<polygon class="st2" points="136.4,69.3 133.1,69.3 125.5,77.4 125.5,63.9 122.9,63.9 122.9,84.5 125.5,84.5 125.5,80.5 
		128.2,77.7 133.4,84.5 136.5,84.5 130,75.9 	"/>
	<path class="st2" d="M163.8,76.2L163.8,76.2c0,3-2.7,4.9-5.2,4.9c-2.8,0-4.9-2.1-4.9-4.8v-0.1c0-2.8,2.1-4.8,4.9-4.8
		C161.2,71.4,163.8,73.2,163.8,76.2 M163.7,71.6c-1.5-1.7-3.3-2.6-5.6-2.6c-3.5,0-7.1,2.7-7.1,7.2v0.1c0,4.5,3.6,7.1,7.1,7.1
		c2.2,0,4.1-0.9,5.6-2.7v1.2c0,3.2-1.9,5.1-5.2,5.1c-2,0-3.9-0.6-5.6-1.9l-0.2-0.1l-1.2,2.1l0.1,0.1c2,1.4,4.3,2.1,6.8,2.1
		c2.4,0,4.4-0.7,5.8-2c1.3-1.3,1.9-3.1,1.9-5.4V69.3h-2.6V71.6z"/>
	<rect x="168.3" y="63.7" class="st2" width="2.9" height="2.8"/>
	<rect x="168.5" y="69.3" class="st2" width="2.6" height="15.2"/>
	<path class="st2" d="M180.9,69c-2,0-3.7,0.8-4.8,2.4v-2.1h-2.6v15.2h2.6v-8.7c0-2.6,1.7-4.4,4.2-4.4c2.4,0,3.9,1.6,3.9,4.3v8.8h2.6
		v-9.4C186.7,71.4,184.4,69,180.9,69"/>
	<path class="st2" d="M201,76.2L201,76.2c0,3-2.7,4.9-5.2,4.9c-2.7,0-4.9-2.1-4.9-4.8v-0.1c0-2.8,2.1-4.8,4.9-4.8
		C198.3,71.4,201,73.2,201,76.2 M200.9,69.3v2.3c-1.5-1.7-3.3-2.6-5.6-2.6c-3.5,0-7.1,2.7-7.1,7.2v0.1c0,4.5,3.6,7.1,7.1,7.1
		c2.2,0,4.1-0.9,5.6-2.7v1.2c0,3.2-1.9,5.1-5.2,5.1c-2,0-3.9-0.6-5.6-1.9l-0.2-0.1l-1.2,2.1l0.1,0.1c2,1.4,4.3,2.1,6.8,2.1
		c2.4,0,4.4-0.7,5.7-2c1.3-1.3,1.9-3.1,1.9-5.4V69.3H200.9z"/>
	<rect x="78.6" y="96.5" class="st2" width="0.9" height="7.7"/>
	<polygon class="st2" points="82.2,96.5 83,96.5 87.8,102.7 87.8,96.5 88.6,96.5 88.6,104.2 88,104.2 83,97.9 83,104.2 82.2,104.2 	
		"/>
	<polygon class="st2" points="93.4,97.3 90.8,97.3 90.8,96.5 96.8,96.5 96.8,97.3 94.2,97.3 94.2,104.2 93.4,104.2 	"/>
	<polygon class="st2" points="98.9,96.5 104.5,96.5 104.5,97.3 99.8,97.3 99.8,99.9 104,99.9 104,100.7 99.8,100.7 99.8,103.4 
		104.5,103.4 104.5,104.2 98.9,104.2 	"/>
	<path class="st2" d="M110,100.5c1.1,0,2-0.6,2-1.6v0c0-0.9-0.7-1.5-2-1.5h-2.4v3.1H110z M106.8,96.5h3.3c0.9,0,1.7,0.3,2.2,0.8
		c0.4,0.4,0.6,0.9,0.6,1.5v0c0,1.3-0.9,2-2.1,2.2l2.3,3.1H112l-2.2-3h0h-2.2v3h-0.9V96.5z"/>
	<polygon class="st2" points="115.2,96.5 116,96.5 120.8,102.7 120.8,96.5 121.7,96.5 121.7,104.2 121,104.2 116,97.9 116,104.2 
		115.2,104.2 	"/>
	<path class="st2" d="M129.3,101.4l-1.7-3.9l-1.7,3.9H129.3z M127.2,96.5h0.8l3.5,7.7h-0.9l-0.9-2h-4.1l-0.9,2h-0.9L127.2,96.5z"/>
	<polygon class="st2" points="133.7,97.3 131.2,97.3 131.2,96.5 137.2,96.5 137.2,97.3 134.6,97.3 134.6,104.2 133.7,104.2 	"/>
	<rect x="139.4" y="96.5" class="st2" width="0.9" height="7.7"/>
	<path class="st2" d="M149.6,100.4L149.6,100.4c0-1.8-1.3-3.2-3-3.2c-1.7,0-3,1.4-3,3.1v0c0,1.7,1.3,3.2,3,3.2
		S149.6,102.1,149.6,100.4 M142.7,100.4L142.7,100.4c0-2.1,1.6-4,3.9-4c2.3,0,3.9,1.8,3.9,3.9c0,0,0,0,0,0c0,2.1-1.6,4-3.9,4
		C144.3,104.3,142.7,102.5,142.7,100.4"/>
	<polygon class="st2" points="152.8,96.5 153.6,96.5 158.4,102.7 158.4,96.5 159.3,96.5 159.3,104.2 158.6,104.2 153.7,97.9 
		153.7,104.2 152.8,104.2 	"/>
	<path class="st2" d="M166.9,101.4l-1.7-3.9l-1.7,3.9H166.9z M164.8,96.5h0.8l3.5,7.7h-0.9l-0.9-2h-4.2l-0.9,2h-0.9L164.8,96.5z"/>
	<polygon class="st2" points="171.1,96.5 172,96.5 172,103.4 176.3,103.4 176.3,104.2 171.1,104.2 	"/>
</g>
</svg>
