<?xml version="1.0" encoding="utf-8"?>
<!-- Generator: Adobe Illustrator 24.1.0, SVG Export Plug-In . SVG Version: 6.00 Build 0)  -->
<svg version="1.1" id="Capa_1" xmlns="http://www.w3.org/2000/svg" xmlns:xlink="http://www.w3.org/1999/xlink" x="0px" y="0px"
	 viewBox="0 0 612.3 408.2" style="enable-background:new 0 0 612.3 408.2;" xml:space="preserve">
<style type="text/css">
	.Arqueado:_x0020_verde{fill:url(#SVGID_1_);stroke:#FFFFFF;stroke-width:0.25;stroke-miterlimit:1;}
	.st0{fill:#2C3176;}
</style>
<linearGradient id="SVGID_1_" gradientUnits="userSpaceOnUse" x1="-494.3779" y1="-314.171" x2="-493.6708" y2="-314.8781">
	<stop  offset="0" style="stop-color:#20AC4B"/>
	<stop  offset="0.9831" style="stop-color:#19361A"/>
</linearGradient>
<g id="bw-logo-svg">
	<path class="st0" d="M605,199.7c-4.2-1.1-9.1-0.4-12,2.9c-0.9,1.3-1.8,2.9-1.8,4.5v19.2h-19.8v-42.1h19.2c0.2,1.6,0,3.8,0.4,5.1
		c3.1-4.9,8.9-6.9,14.3-6L605,199.7L605,199.7z M565.1,192.3c2.7,4.5,4,8.9,3.6,15.6H539c-0.4,1.8,0,3.8,1.1,5.1
		c1.3,1.6,2.9,2.2,4.9,2c2,0,3.3-1.6,4.5-3.1h18.9c-0.9,6-6.5,11.1-12,13.4c-9.6,3.3-22.7,3.6-30.5-4c-6-5.6-7.8-14.7-5.3-22.5
		c1.6-6.7,7.4-12.3,13.6-14.5C544.8,180.7,558.9,182.1,565.1,192.3 M542.6,194.7c-2,0.9-3.6,3.3-3.3,5.3h10c0-2-0.7-3.6-2-4.7
		S544.2,194.3,542.6,194.7 M516.5,189.8l0.9,4v32.3h-19.6v-26.7c-0.2-0.9-1.1-2-2.2-2.5c-1.8-0.7-3.8,0.2-4.9,1.6
		c-1.3,1.3-1.1,2-1.1,5.6c0,7.4,0.2,21.4,0,22.3h-18.7v-42.3h18.5c0.2,2,0.4,2.7,0.4,5.3c4-4.9,9.6-7.6,16-6.5
		C510.1,183.4,514.5,185.6,516.5,189.8 M468.2,182.9v16c-4.7-0.7-10.2-0.2-12.7,4.5c0,0-0.9,0.2-1.3,3.1v19.6h-19.4v-42.1h18.9
		c0,1.8,0.2,3.3,0.2,5.3C457.1,184.3,462.4,182.1,468.2,182.9 M410.5,188.1c0.2-2,0-2.7,0.4-4h19.8c0.2,12.9,0,27.8,0,42.1h-20
		c0-2.5-0.2-2.2-0.2-4.9c-3.6,4.2-8.9,7.1-15.1,6c-5.8-0.9-11.1-5.6-13.1-11.1c-3.1-8.9-3.1-21.4,4-28.5c4.5-4.7,11.8-6.2,18-4
		C406.7,184.5,408.3,185.8,410.5,188.1 M405.2,199.2c-1.8,0.2-3.6,0.9-4.7,2.5c-1.1,1.8-1.3,4.2-0.4,6c0.9,1.6,2.2,2.5,3.8,3.1
		c2.2,0.4,4.5-0.2,6-1.8c1.6-1.6,1.8-4.5,0.9-6.5C409.4,200.3,407.4,199.4,405.2,199.2 M324.3,196.8l7.8-30.5h19.2l0.4,0.4l7.1,29.6
		l0.2,0.2c2.7-10,4.7-20.3,7.1-30.3h21.6l-16.5,60.1h-21.4l-8.2-29l-8,29h-21.2l-16.7-60.1h21.6L324.3,196.8z M279.1,188.7
		c0.4-2.5,0-2.2,0.4-4.5h19.8v41.2c0.2,6.2-4.7,11.1-9.8,13.6c-8.7,4-20,4-29,0.7c-4.5-2-9.4-6.7-10.5-11.6h18.9
		c0.7,1.1,2,2.5,3.3,2.7c2.9,0.4,5.6-0.7,7.1-3.1c0.9-2,0.9-4,0.4-6.2c-5.3,4.5-14.5,5.3-20.7,1.8c-7.6-4.2-9.8-12.5-9.4-20.7
		c0.2-6.9,4-13.8,10.7-16.7C266.2,183.2,274.6,183.8,279.1,188.7 M276.2,199.4c-2-0.9-4.5-0.2-6,1.3c-1.6,1.6-2,3.8-1.3,6
		c0.7,2,2,3.6,4.7,3.8c1.8,0.2,3.1-0.2,4.5-1.3c2.5-2,2.2-4.2,1.8-6.7C279.1,201.2,277.5,199.9,276.2,199.4 M249,182.9v16
		c-4.7-0.7-10.2-0.2-12.7,4.5c0,0-0.9,0.2-1.3,3.1v19.6h-19.4v-42.1h18.9c0.2,1.8,0.2,3.3,0.2,5.3
		C237.9,184.3,243.4,182.1,249,182.9 M210.9,196.5c3.6,8,1.8,18.5-4.5,24.5c-7.6,7.6-20.5,8.7-30.1,4.7
		c-7.8-3.1-13.1-11.4-13.4-19.6c0.2-8.2,4.5-15.8,11.6-19.8c9.1-4.7,22.5-4.2,30.5,2.2C208,191,209.6,193.6,210.9,196.5 M186.9,199
		c-2.2,0.4-4,2.5-4.7,4.7c-0.7,2.7,0,5.3,2,7.4c1.3,0.9,2.9,1.6,4.7,1.1c2.5-0.2,4.5-2,5.1-4.2c0.9-3.1,0.4-6-2.5-8.2
		C190.2,199,188.6,199,186.9,199 M137.8,166.2c7.6,0,15.6,1.8,19.4,9.1c1.8,4.2,1.6,10-1.3,13.8c-1.8,2.9-4.7,3.8-7.1,5.6
		c4.2,1.6,9.4,3.6,11.4,8.2c2.7,5.8,0.9,12.9-3.3,17.6c-4.5,4.2-10,5.3-16.3,5.6h-33.4V166C107.1,166,137.8,166.2,137.8,166.2z
		 M128.9,180.3v8.5c3.3-0.4,8,1.3,9.6-2.5c0.2-1.1,0.7-1.8,0-3.3C137,178.9,132.3,180.7,128.9,180.3 M129.2,202.8v9.6
		c3.6-0.4,8.9,1.6,10-3.1c0.4-1.3,0.4-3.3-0.4-4.5C136.5,201.7,132.3,203,129.2,202.8 M26.9,166.5l10.2,10.5l10.2-10.5h19.4v27h-8
		l-2.7,3.1l2.7,2.9h8v6.2H56.3l-19.4-19.2v6l17.4,17.6h12.5v5.8H51.9c-5.1-4.7-9.8-10-14.9-14.5v5.6l13.4,13.6h16.3v5.8H47.6
		l-10.7-10.5l-10,10.5H7.1v-27h8.2l2.9-2.9l-2.9-3.1H7.1v-5.8H18l4.7,4.5l3.1-3.1l-5.3-5.8H7.5v-6.2h14.7l7.8,7.6l2.9-3.1l-8.7-8.9
		H7.5v-6.2L26.9,166.5z"/>
</g>
</svg>
