<?xml version="1.0" encoding="utf-8"?>
<!-- Generator: Adobe Illustrator 24.1.0, SVG Export Plug-In . SVG Version: 6.00 Build 0)  -->
<svg version="1.1" id="Capa_1" xmlns="http://www.w3.org/2000/svg" xmlns:xlink="http://www.w3.org/1999/xlink" x="0px" y="0px"
	 viewBox="0 0 612.3 408.2" style="enable-background:new 0 0 612.3 408.2;" xml:space="preserve">
<style type="text/css">
	.Arqueado:_x0020_verde{fill:url(#SVGID_1_);stroke:#FFFFFF;stroke-width:0.25;stroke-miterlimit:1;}
	.st0{fill:none;stroke:#000000;stroke-width:2;stroke-miterlimit:10;}
	.st1{fill:url(#SVGID_2_);}
	.st2{fill:url(#SVGID_3_);}
</style>
<linearGradient id="SVGID_1_" gradientUnits="userSpaceOnUse" x1="-494.3779" y1="-314.171" x2="-493.6708" y2="-314.8781">
	<stop  offset="0" style="stop-color:#20AC4B"/>
	<stop  offset="0.9831" style="stop-color:#19361A"/>
</linearGradient>
<g>
	<g>
		<path d="M203.6,343.6V306h26.2v6.4h-18.5v8.9h15.9v6.4h-15.9v16H203.6z"/>
		<path d="M267.5,343.6h-8.4l-3.3-8.5h-15.3l-3.2,8.5h-8.2l14.9-37.6h8.1L267.5,343.6z M253.4,328.7l-5.3-14l-5.2,14H253.4z"/>
		<path d="M271.7,343.6V306h7.5l15.6,25.1V306h7.2v37.6h-7.7l-15.4-24.5v24.5H271.7z"/>
		<path d="M344.6,343.6h-8.4l-3.3-8.5h-15.3l-3.2,8.5h-8.2l14.9-37.6h8.1L344.6,343.6z M330.4,328.7l-5.3-14l-5.2,14H330.4z"/>
		<path d="M346.7,331.3l7.5-0.7c0.5,2.5,1.4,4.3,2.7,5.5c1.4,1.2,3.2,1.7,5.6,1.7c2.5,0,4.4-0.5,5.6-1.6c1.3-1,1.9-2.2,1.9-3.6
			c0-0.9-0.3-1.6-0.8-2.3c-0.5-0.6-1.5-1.2-2.8-1.6c-0.9-0.3-3-0.9-6.2-1.6c-4.1-1-7-2.2-8.7-3.7c-2.3-2.1-3.5-4.6-3.5-7.6
			c0-1.9,0.6-3.7,1.7-5.4c1.1-1.7,2.7-2.9,4.8-3.8c2.1-0.9,4.6-1.3,7.5-1.3c4.8,0,8.4,1,10.8,3.1c2.4,2.1,3.7,4.8,3.8,8.3l-7.7,0.3
			c-0.3-1.9-1-3.3-2.1-4.2c-1.1-0.8-2.7-1.3-4.9-1.3c-2.2,0-4,0.5-5.3,1.4c-0.8,0.6-1.2,1.4-1.2,2.3c0,0.9,0.4,1.7,1.1,2.3
			c1,0.8,3.3,1.6,7.1,2.5c3.7,0.9,6.5,1.8,8.3,2.7c1.8,0.9,3.2,2.2,4.2,3.8c1,1.6,1.5,3.6,1.5,6c0,2.2-0.6,4.2-1.8,6.1
			c-1.2,1.9-2.9,3.3-5.2,4.2c-2.2,0.9-5,1.4-8.3,1.4c-4.8,0-8.5-1.1-11.1-3.3C348.7,338.8,347.2,335.6,346.7,331.3z"/>
		<path d="M418.6,343.6h-8.4l-3.3-8.5h-15.3l-3.2,8.5h-8.2l14.9-37.6h8.1L418.6,343.6z M404.4,328.7l-5.3-14l-5.2,14H404.4z"/>
	</g>
	<rect x="185.7" y="57.4" class="st0" width="240.9" height="293.4"/>
	<rect x="185.7" y="57.4" width="240.9" height="244"/>
	<g>
		<linearGradient id="SVGID_2_" gradientUnits="userSpaceOnUse" x1="306.1892" y1="248.7423" x2="307.188" y2="143.8733">
			<stop  offset="0" style="stop-color:#FFFFFF"/>
			<stop  offset="1" style="stop-color:#000000"/>
		</linearGradient>
		<polygon class="st1" points="335.1,230 269.7,146.6 201.3,228.5 201.3,279 411,279 411,230.3 		"/>
		<linearGradient id="SVGID_3_" gradientUnits="userSpaceOnUse" x1="327.5827" y1="116.5917" x2="199.243" y2="29.7003">
			<stop  offset="0" style="stop-color:#FFFFFF"/>
			<stop  offset="1" style="stop-color:#000000"/>
		</linearGradient>
		<polygon class="st2" points="277.2,126.7 342.6,210.1 411,128.2 411,77.7 201.3,77.7 201.3,126.4 		"/>
	</g>
</g>
</svg>
