<?xml version="1.0" encoding="utf-8"?>
<!-- Generator: Adobe Illustrator 24.1.0, SVG Export Plug-In . SVG Version: 6.00 Build 0)  -->
<svg version="1.1" id="Layer_1" xmlns="http://www.w3.org/2000/svg" xmlns:xlink="http://www.w3.org/1999/xlink" x="0px" y="0px"
	 viewBox="0 0 217 141" style="enable-background:new 0 0 217 141;" xml:space="preserve">
<style type="text/css">
	.st0{fill:#1E237E;}
	.st1{fill:#00AEE1;}
</style>
<g>
	<rect x="84.2" y="60.7" class="st0" width="4.5" height="20.1"/>
	<polygon class="st0" points="101.6,64.9 101.6,80.8 97.1,80.8 97.1,64.9 90.9,64.9 90.9,60.7 107.8,60.7 107.8,64.9 	"/>
	<path class="st0" d="M117.1,69.7c1.7,0,2.9-1,2.9-2.6c0-1.6-1.2-2.6-2.9-2.6h-2.6v5.1H117.1z M114.4,73.5v7.2h-4.5V60.7h7.6
		c4.1,0,6.9,2.7,6.9,6.4c0,3.8-2.8,6.4-6.9,6.4H114.4z"/>
	<path class="st1" d="M133.4,72.6h6.9l-3.5-9L133.4,72.6z M141.3,75.1h-8.9l-2.1,5.6h-3l8-20.1h3.2l8,20.1h-3L141.3,75.1z"/>
	<path class="st1" d="M158,72.5c-0.1-2-1.3-3.5-3.7-3.5c-2.2,0-3.6,1.7-3.7,3.5H158z M160.6,76.9c-0.8,2.4-3,4.3-6.1,4.3
		c-3.7,0-6.9-2.7-6.9-7.3c0-4.3,3.1-7.2,6.5-7.2c4.2,0,6.6,2.9,6.6,7.1c0,0.3,0,0.7-0.1,0.9h-10.3c0.1,2.4,1.8,4.1,4.1,4.1
		c2.2,0,3.3-1.2,3.8-2.8L160.6,76.9z"/>
	<path class="st1" d="M170.6,69.8c-0.4-0.1-0.8-0.1-1.2-0.1c-2.2,0-3.7,1.2-3.7,4.2v6.8H163V67.1h2.6v2.4c1-2.1,2.7-2.6,4.1-2.6
		c0.4,0,0.7,0.1,0.9,0.1V69.8z"/>
	<path class="st1" d="M182.8,73.9c0-3.1-2-4.8-4.3-4.8c-2.3,0-4.3,1.7-4.3,4.8c0,3.2,2,4.9,4.3,4.9
		C180.8,78.8,182.8,77.1,182.8,73.9 M185.5,73.9c0,4.2-2.9,7.3-7,7.3c-4.1,0-7-3.1-7-7.3c0-4.1,2.9-7.2,7-7.2
		C182.6,66.7,185.5,69.8,185.5,73.9"/>
	<path class="st1" d="M68.5,56.4c-6.2-6.2-15.4-7.4-22.8-3.8l0.6,0.6c3.8-0.8,8,0.3,11,3.2c4.7,4.7,4.7,12.3,0,16.9l11.3,11.3
		C76.3,76.8,76.3,64.2,68.5,56.4"/>
	<path class="st0" d="M40.4,84.6c6.2,6.2,15.4,7.4,22.8,3.8l-0.6-0.6c-3.8,0.8-8-0.3-11-3.2c-4.7-4.7-4.7-12.3,0-16.9L40.4,56.4
		C32.6,64.2,32.6,76.8,40.4,84.6"/>
</g>
</svg>
