<?xml version="1.0" encoding="utf-8"?>
<!-- Generator: Adobe Illustrator 24.1.0, SVG Export Plug-In . SVG Version: 6.00 Build 0)  -->
<svg version="1.1" id="Capa_1" xmlns="http://www.w3.org/2000/svg" xmlns:xlink="http://www.w3.org/1999/xlink" x="0px" y="0px"
	 viewBox="0 0 612.3 408.2" style="enable-background:new 0 0 612.3 408.2;" xml:space="preserve">
<style type="text/css">
	.Arqueado:_x0020_verde{fill:url(#SVGID_1_);stroke:#FFFFFF;stroke-width:0.25;stroke-miterlimit:1;}
	.st0{fill:#EC3C34;}
</style>
<linearGradient id="SVGID_1_" gradientUnits="userSpaceOnUse" x1="-494.3779" y1="-314.171" x2="-493.6708" y2="-314.8781">
	<stop  offset="0" style="stop-color:#20AC4B"/>
	<stop  offset="0.9831" style="stop-color:#19361A"/>
</linearGradient>
<g>
	<g>
		<path class="st0" d="M113.4,237.5V132h32v77.5h25.1v28H113.4z"/>
		<path class="st0" d="M265.7,154v42.4c0,16.4-5.6,27.3-11.3,32.8c-5.7,5.5-16.1,8.2-31.2,8.2c-15.1,0-25.6-2.7-31.4-8.2
			c-5.8-5.5-10.7-16.5-10.7-32.9V154l31.3,0.1v52.7c0,4.3,0.6,4.7,2.2,6.2c1.6,1.5,12.2,2.3,8.2,2.3c-1.9,0,5.7,0.2,8.3-2.3
			c1.6-1.6,2.5-2,2.5-6.1v-52.7L265.7,154z"/>
		<path class="st0" d="M338.8,176.7c-2.4-1.3-4.7-2.3-6.9-2.9c-2.2-0.6-4.4-0.9-6.7-0.9c-5.8,0-10.4,1.9-13.8,5.6
			c-3.4,3.8-5.1,8.8-5.1,15.2c0,6.7,1.7,11.9,5.2,15.6c3.4,3.6,8.3,5.5,14.6,5.5c2.4,0,4.6-0.3,6.7-1c2.1-0.7,4.1-1.8,6-3.2V232
			c-3.1,1.6-6.4,2.8-9.8,3.6c-3.4,0.8-7.1,1.2-10.8,1.2c-12.7,0-22.9-3.8-30.4-11.4c-7.5-7.6-11.3-18-11.3-31.1
			c0-13,3.8-23.3,11.3-30.9c7.6-7.6,17.7-11.4,30.3-11.4c3.6,0,7.1,0.3,10.6,0.8c3.4,0.5,6.8,1.3,10.1,2.4V176.7z"/>
		<path class="st0" d="M360.3,235.9l0-58l-12.2,0l-0.1-23.1h11.9v-23.6h30v23.6l15,0.1l-9,23H390l0.3,58H360.3z"/>
		<g>
			<path class="st0" d="M470.7,155.3v9.6c-3.5-4.6-7.7-7-11.7-9.2c-4-2.2-8.4-3.3-13.2-3.3c-10.2,0-27.2,5.3-32.9,12.5
				c-5.7,7.3-8.5,17.6-8.5,31c0,13.7,4.6,21.4,10.1,28.6c5.5,7.2,21.2,14.1,31.6,14.1c5,0,9.5-1.1,13.6-3.4
				c4.1-2.3,7.8-5.7,10.9-10.2v12.1h28.2v-81.9H470.7z M452.4,213c-9.5,0-17.2-7.7-17.2-17.2s7.7-17.2,17.2-17.2
				c9.5,0,17.2,7.7,17.2,17.2S461.9,213,452.4,213z"/>
		</g>
	</g>
	<rect x="113.4" y="250.6" class="st0" width="385.5" height="26.3"/>
</g>
</svg>
