<?xml version="1.0" encoding="utf-8"?>
<!-- Generator: Adobe Illustrator 24.1.0, SVG Export Plug-In . SVG Version: 6.00 Build 0)  -->
<svg version="1.1" id="Layer_1" xmlns="http://www.w3.org/2000/svg" xmlns:xlink="http://www.w3.org/1999/xlink" x="0px" y="0px"
	 viewBox="0 0 217 141" style="enable-background:new 0 0 217 141;" xml:space="preserve">
<style type="text/css">
	.st0{fill:#287BC1;}
	.st1{fill:#96989B;}
	.st2{fill:#0B4B92;}
</style>
<g>
	<path class="st0" d="M27.5,59.3c0,1.8,1.6,3.3,3.5,3.3s3.5-1.5,3.5-3.3c0-1.8-1.6-3.3-3.5-3.3S27.5,57.5,27.5,59.3"/>
</g>
<g>
	<path class="st0" d="M34.4,56.3c0,1.7,1.4,3,3.2,3c1.8,0,3.2-1.4,3.2-3s-1.4-3-3.2-3C35.8,53.2,34.4,54.6,34.4,56.3"/>
	<path class="st0" d="M41.2,54.3c0,1.5,1.3,2.7,2.9,2.7c1.6,0,2.9-1.2,2.9-2.7c0-1.5-1.3-2.7-2.9-2.7C42.5,51.6,41.2,52.8,41.2,54.3
		"/>
	<path class="st0" d="M47.5,52.8c0,1.4,1.2,2.5,2.6,2.5c1.5,0,2.6-1.1,2.6-2.5c0-1.4-1.2-2.5-2.6-2.5C48.7,50.3,47.5,51.4,47.5,52.8
		"/>
	<path class="st0" d="M53.5,51.6c0,1.2,1.1,2.2,2.4,2.2c1.3,0,2.4-1,2.4-2.2c0-1.2-1.1-2.2-2.4-2.2C54.6,49.4,53.5,50.4,53.5,51.6"
		/>
	<path class="st0" d="M58.9,50.8c0,1.2,1,2.1,2.3,2.1c1.3,0,2.3-1,2.3-2.1c0-1.2-1-2.1-2.3-2.1C60,48.6,58.9,49.6,58.9,50.8"/>
	<path class="st0" d="M64.7,50.2c0,1,0.8,1.8,1.9,1.8c1,0,1.9-0.8,1.9-1.8c0-1-0.8-1.8-1.9-1.8C65.5,48.4,64.7,49.2,64.7,50.2"/>
	<path class="st0" d="M70.1,50.4c0,0.8,0.7,1.5,1.6,1.5c0.9,0,1.6-0.7,1.6-1.5c0-0.8-0.7-1.5-1.6-1.5C70.8,48.9,70.1,49.6,70.1,50.4
		"/>
	<path class="st0" d="M75.2,51.3c0,0.8,0.7,1.4,1.5,1.4c0.8,0,1.5-0.6,1.5-1.4c0-0.8-0.7-1.4-1.5-1.4C75.8,49.9,75.2,50.5,75.2,51.3
		"/>
	<path class="st0" d="M79.9,54.1c0,0.7,0.6,1.2,1.3,1.2c0.7,0,1.3-0.5,1.3-1.2c0-0.7-0.6-1.2-1.3-1.2C80.4,52.9,79.9,53.4,79.9,54.1
		"/>
	<path class="st0" d="M82.3,59.1c0,0.5,0.4,0.9,0.9,0.9c0.5,0,0.9-0.4,0.9-0.9c0-0.5-0.4-0.9-0.9-0.9C82.7,58.2,82.3,58.6,82.3,59.1
		"/>
	<path class="st0" d="M81.5,63.3c0,0.4,0.3,0.7,0.7,0.7c0.4,0,0.7-0.3,0.7-0.7c0-0.4-0.3-0.7-0.7-0.7C81.9,62.6,81.5,63,81.5,63.3"
		/>
	<path class="st1" d="M105.1,81.7c0-1.8-1.6-3.3-3.5-3.3c-1.9,0-3.5,1.5-3.5,3.3c0,1.8,1.6,3.3,3.5,3.3
		C103.5,85,105.1,83.5,105.1,81.7"/>
	<path class="st1" d="M98.1,84.7c0-1.7-1.4-3-3.2-3c-1.8,0-3.2,1.4-3.2,3c0,1.7,1.4,3,3.2,3C96.7,87.8,98.1,86.4,98.1,84.7"/>
	<path class="st1" d="M91.3,86.7c0-1.5-1.3-2.7-2.9-2.7c-1.6,0-2.9,1.2-2.9,2.7c0,1.5,1.3,2.7,2.9,2.7C90,89.4,91.3,88.2,91.3,86.7"
		/>
	<path class="st1" d="M84.9,88.2c0-1.4-1.2-2.5-2.6-2.5c-1.5,0-2.6,1.1-2.6,2.5c0,1.4,1.2,2.5,2.6,2.5
		C83.8,90.7,84.9,89.6,84.9,88.2"/>
	<path class="st1" d="M78.9,89.4c0-1.2-1.1-2.2-2.4-2.2c-1.3,0-2.4,1-2.4,2.2c0,1.2,1.1,2.2,2.4,2.2C77.9,91.6,78.9,90.6,78.9,89.4"
		/>
	<path class="st1" d="M73.5,90.2c0-1.2-1-2.1-2.3-2.1c-1.2,0-2.3,1-2.3,2.1c0,1.2,1,2.1,2.3,2.1C72.5,92.4,73.5,91.4,73.5,90.2"/>
	<path class="st1" d="M67.8,90.8c0-1-0.8-1.8-1.9-1.8c-1,0-1.9,0.8-1.9,1.8c0,1,0.8,1.8,1.9,1.8C67,92.6,67.8,91.8,67.8,90.8"/>
	<path class="st1" d="M62.4,90.6c0-0.8-0.7-1.5-1.6-1.5c-0.9,0-1.6,0.7-1.6,1.5c0,0.8,0.7,1.5,1.6,1.5
		C61.6,92.1,62.4,91.4,62.4,90.6"/>
	<path class="st1" d="M57.3,89.7c0-0.8-0.7-1.4-1.5-1.4c-0.8,0-1.5,0.6-1.5,1.4s0.7,1.4,1.5,1.4C56.6,91.1,57.3,90.5,57.3,89.7"/>
	<path class="st1" d="M52.6,86.9c0-0.7-0.6-1.2-1.3-1.2c-0.7,0-1.3,0.5-1.3,1.2c0,0.7,0.6,1.2,1.3,1.2C52,88.1,52.6,87.6,52.6,86.9"
		/>
	<path class="st1" d="M50.2,81.9c0-0.5-0.4-0.9-0.9-0.9c-0.5,0-0.9,0.4-0.9,0.9c0,0.5,0.4,0.9,0.9,0.9
		C49.8,82.8,50.2,82.4,50.2,81.9"/>
	<path class="st1" d="M50.9,77.7c0-0.4-0.3-0.7-0.7-0.7c-0.4,0-0.7,0.3-0.7,0.7c0,0.4,0.3,0.7,0.7,0.7C50.6,78.4,50.9,78,50.9,77.7"
		/>
	<path class="st2" d="M60.3,81.8l-0.3-1.1l1.2-0.8c1.1-0.9,2.4-1.6,3.7-2.2c-2.6,0-5.2-1.2-7-2.8C55.7,73,55,70.4,55,67.1
		c0-2.3,0.6-4.1,1.6-5.7c1-1.6,2.2-2.9,3.9-3.7c1.7-0.9,3.5-1.4,6.6-1.4c2.6,0,4.7,0.4,6.4,1.2c1.6,0.8,2.9,2,3.8,3.4
		c0.9,1.5,1.3,3.3,1.3,5.4c0,2.3-0.3,4.3-1.3,6c-0.9,1.7-2.4,2.9-4,3.8c-1.6,0.9-4.5,1.5-7.4,1.6c0.8,0.1,2.1,0.6,2.8,0.8l3.1,1
		c1.2,0.4,2,0.6,2.6,0.7c1,0.3,1.4,0.4,3.9-0.4v1l-2.6,1.5c-0.6,0.5-1.8,0.3-2.3,0.2c-0.9-0.1-3.2-0.7-4.5-1.1
		c-1.3-0.4-3.5-0.9-3.9-1c-0.4-0.1-1-0.2-1.2-0.2c-0.6,0-1,0.2-1.4,0.3C62,80.8,60.9,81.3,60.3,81.8 M67.2,76c1.8,0,3.7-0.9,4.7-2.1
		c1.2-1.5,2-4.1,2-6.6c0-3.1-0.7-5.5-2.1-7.1C70.5,58.8,69,58,66.7,58c-2.2,0-3.9,0.9-5.1,2.3c-1.2,1.4-1.9,3.8-1.9,6.6
		c0,1.4,0.4,3.4,1.1,4.8c0.7,1.4,1.4,2.5,2.4,3.1C64.2,75.5,65.4,76,67.2,76"/>
	<path class="st2" d="M80.4,71.3c0,0,0.9-2.1,1.2-3.2h8.5c0,0-0.7,1.5-1.2,3.2C88.6,71.3,80.8,71.3,80.4,71.3"/>
	<path class="st2" d="M91.4,77.2v-1.3c0.7,0,1.7,0,2.2-0.4c0.6-0.5,0.4-1.4,0.4-3.2c0-1.8,0-3.5,0-5.2c0-3.1,0-5.4,0-6.8
		c0-1.5-0.1-1.7-0.3-2c-0.2-0.3-1-0.3-1.3-0.3c-0.3,0-1.1,0-1.1,0v-1.4l1.8,0.1c1,0,1.9,0,2.5,0c0.8,0,2.2,0,4.1-0.1
		c1,0,1.8,0,2.2,0c1.8,0,3.1,0,4,0.3c0.8,0.3,1.6,0.8,2,1.4c0.4,0.7,0.9,1.8,0.9,2.8c0,1.8-0.8,3.4-2.1,4.7
		c-1.3,1.2-2.3,1.5-4.2,1.7c-0.3,0-1.7,0-2.3-0.1c-0.6-0.1-0.8-1.1-0.7-1.2l0.3-0.3c0.2,0,1.1,0.1,1.2,0.1c1,0,1.6-0.2,2.2-0.9
		c0.6-0.7,1-1.8,1-3.1c0-1.4-0.5-2.3-1.1-3c-0.7-0.7-1.7-1-3-1c-0.5,0-1,0.1-1.7,0.2c0,0.3,0,7,0,7.6c0,0.7-0.1,2.9,0,6.7
		c0,0.7,0.1,1.9,0.1,2.1c0.1,1,1.4,0.9,2.9,1v1.3c-1.8-0.1-3.8-0.1-5-0.1C95.9,77.1,94.5,77.1,91.4,77.2"/>
	<path class="st2" d="M110.4,65.6v-1.2c1.7,0,2.7-0.3,4.6-0.8l1.4-0.5c0.2,0,0.4,0,0.4,0.2l0,0.9c0,0.6-0.2,8,0,8.8
		c0.4,1.7,1.5,1.8,2.2,1.8c0.7,0,3-0.3,3-2.7c0-0.5-0.1-5-0.1-5.6c0-0.7-0.4-0.8-0.7-0.9c-0.3-0.1-1.2-0.1-1.6-0.1v-1.3
		c1.8-0.1,3.9-0.5,4.5-0.7c0.6-0.2,1.5-0.5,1.5-0.5c0.3-0.1,0.4,0.1,0.4,0.3c0,0-0.1,6.4-0.1,10.9c0,1,0.1,1.2,0.4,1.4
		c0.3,0.2,0.9,0.3,1.8,0.3v1.2c-1.2-0.1-2.1,0-3.3,0c-0.9,0-2.1,0-2.9,0.1c0,0,0-1.4,0-2.4c-0.8,0.7-1.6,1.5-2.1,2
		c-0.7,0.7-1.9,0.8-2.8,0.8c-1.4,0-1.8-0.2-2.5-0.5c-0.7-0.4-1.2-0.8-1.5-1.4c-0.3-0.6-0.4-1.4-0.4-2.5l0-1.6c0-1.3-0.1-4.6-0.1-5.1
		c0-0.6-0.5-0.8-0.8-0.8C111.7,65.6,111,65.6,110.4,65.6"/>
	<path class="st2" d="M129.9,77.1V76c1.2,0,2.1,0.2,2.1-1.1c0-0.4,0-7.4,0-8.4c0-0.5-0.6-0.8-1.2-0.8l-1,0v-1.3
		c3.1-0.3,4.7-0.9,5.5-1.2c0.3-0.1,0.6,0.1,0.6,0.3v2c0,0,1.7-1.2,2.3-1.7c0.4-0.3,0.7-0.7,2.4-0.7c1.1,0,1.9,0.1,2.5,0.5
		c0.6,0.4,1.3,1.1,1.7,1.9l2.4-1.8c0.5-0.4,1-0.7,1.9-0.7c1.6,0,2.9,0.3,3.7,1.1c0.8,0.7,1.3,2,1.3,3.7v1.3c0,1.3,0,2.4,0,3.4
		c0,1.4,0,2.3,0.1,2.8c0,0.2,0.2,0.4,0.3,0.5c0.1,0.1,0.8,0.2,1.8,0.2v1.2c-1.2-0.1-2.8,0-3.8,0c-0.7,0-1.6,0-2.1,0
		c-0.2,0-0.5-0.2-0.5-0.7c0-1.9,0.2-6.3,0.2-8.2c0-0.9-0.4-2.5-2.8-2.5c-1.3,0-2.4,1.2-2.4,2.1c0,0.7,0,6,0,7c0,0.8,0.7,0.9,1.1,1
		c0.3,0.1,1.1,0.1,1.2,0.1v1.1c-1.3,0-7,0-8.2,0V76c1,0,2,0.2,2-1.4c0-1,0-6.5,0-7c0-1.1-1-1.9-2.3-1.9c-1.6,0-2.9,1-2.9,1.8v2.1
		c0,0,0,4.8,0,5.4c0,0.9,1.1,1.1,2,1.1v1.1H129.9z"/>
	<path class="st2" d="M157.9,65.5v-1.1c1.8-0.1,3.4-0.6,4.5-0.9l1.3-0.4c0.4-0.1,0.5,0.1,0.5,0.5c0,0.2,0,2,0,2s1.8-1.4,2.3-1.9
		c0.7-0.6,1.6-0.7,2.8-0.7c2,0,3,0.5,4,1.5c1,1,1.7,2.4,1.7,4.2c0,1.5-0.2,2.7-0.9,3.9c-0.7,1.3-1.7,1.9-2.6,2.6
		c-1.6,1.2-2,1.5-2.3,1.7c-0.5,0.3-1.5,0.5-2.3,0.5c-0.8,0-1.9-0.2-2.8-0.5l0,4.5c0,1.1-0.1,1.9,0.8,2c0.3,0,1.4,0.1,1.9,0.1v1.2
		c-1.6-0.1-3-0.1-4.2-0.1c-2.3,0-3.9,0-4.9,0.1v-1.1h1.3c0.9,0,1-1.1,1-2.3V66.6c0-0.8-0.4-0.9-0.7-1
		C159.3,65.5,158.9,65.5,157.9,65.5 M164.2,74.3c0.6,0.7,2.1,1.4,3,1.4c1.3,0,3.8-0.9,3.9-5.2c0-1.6-0.8-4.8-3.7-4.8
		c-0.5,0-2.2,0.2-3.2,1.3V74.3z"/>
	<path class="st2" d="M179.4,72.6c0,0.6,0,1.6,0.1,1.9c0,0.3,0.8,0.8,1.5,1.1c0.6,0.3,1.5,0.5,2.3,0.5c1,0,1.5-0.2,2-0.6
		c0.5-0.4,0.8-1.3,0.8-2c0-0.7-0.4-1.2-1.6-1.5c-1.1-0.3-3.9-0.9-4.7-1.3c-0.5-0.3-1-0.7-1.3-1.2c-0.3-0.5-0.5-1.2-0.5-2
		c0-0.9,0.3-1.6,0.8-2.3c0.5-0.7,1.3-1.3,2.2-1.7c0.9-0.4,1.9-0.6,3.4-0.6c1.5,0,2.8,0.3,4.1,0.7c0,0.5-0.2,3-0.2,3.8l-1.2,0
		c-0.2-1.7-0.1-1.8-0.4-2c-0.3-0.3-1.2-1-2.6-1c-0.9,0-1.5,0.2-2,0.6c-0.5,0.4-0.8,1-0.8,1.5c0,0.5,0.2,0.8,0.6,1.1
		c0.4,0.3,1.5,0.6,3.1,0.9c1.1,0.2,1.9,0.4,2.4,0.5c0.7,0.3,1.2,0.7,1.5,1.3c0.4,0.6,0.7,1.2,0.7,2c0,1.7-0.7,3-2.1,3.9
		c-1.2,0.9-2.1,1.3-4.8,1.3c-0.6,0-1.4,0-2.1-0.2c-0.6-0.1-1.4-0.3-2.2-0.5c-0.2-0.1-0.5-0.4-0.5-0.7c0-0.9,0.1-1.9,0.2-3.7H179.4z"
		/>
	<path class="st2" d="M60.3,81.8l-0.3-1.1l1.2-0.8c1.1-0.9,2.4-1.6,3.7-2.2c-2.6,0-5.2-1.2-7-2.8C55.7,73,55,70.4,55,67.1
		c0-2.3,0.6-4.1,1.6-5.7c1-1.6,2.2-2.9,3.9-3.7c1.7-0.9,3.5-1.4,6.6-1.4c2.6,0,4.7,0.4,6.4,1.2c1.6,0.8,2.9,2,3.8,3.4
		c0.9,1.5,1.3,3.3,1.3,5.4c0,2.3-0.3,4.3-1.3,6c-0.9,1.7-2.4,2.9-4,3.8c-1.6,0.9-4.5,1.5-7.4,1.6c0.8,0.1,2.1,0.6,2.8,0.8l3.1,1
		c1.2,0.4,2,0.6,2.6,0.7c1,0.3,1.4,0.4,3.9-0.4v1l-2.6,1.5c-0.6,0.5-1.8,0.3-2.3,0.2c-0.9-0.1-3.2-0.7-4.5-1.1
		c-1.3-0.4-3.5-0.9-3.9-1c-0.4-0.1-1-0.2-1.2-0.2c-0.6,0-1,0.2-1.4,0.3C62,80.8,60.9,81.3,60.3,81.8 M67.2,76c1.8,0,3.7-0.9,4.7-2.1
		c1.2-1.5,2-4.1,2-6.6c0-3.1-0.7-5.5-2.1-7.1C70.5,58.8,69,58,66.7,58c-2.2,0-3.9,0.9-5.1,2.3c-1.2,1.4-1.9,3.8-1.9,6.6
		c0,1.4,0.4,3.4,1.1,4.8c0.7,1.4,1.4,2.5,2.4,3.1C64.2,75.5,65.4,76,67.2,76"/>
	<path class="st2" d="M80.4,71.3c0,0,0.9-2.1,1.2-3.2h8.5c0,0-0.7,1.5-1.2,3.2C88.6,71.3,80.8,71.3,80.4,71.3"/>
	<path class="st2" d="M91.4,77.2v-1.3c0.7,0,1.7,0,2.2-0.4c0.6-0.5,0.4-1.4,0.4-3.2c0-1.8,0-3.5,0-5.2c0-3.1,0-5.4,0-6.8
		c0-1.5-0.1-1.7-0.3-2c-0.2-0.3-1-0.3-1.3-0.3c-0.3,0-1.1,0-1.1,0v-1.4l1.8,0.1c1,0,1.9,0,2.5,0c0.8,0,2.2,0,4.1-0.1
		c1,0,1.8,0,2.2,0c1.8,0,3.1,0,4,0.3c0.8,0.3,1.6,0.8,2,1.4c0.4,0.7,0.9,1.8,0.9,2.8c0,1.8-0.8,3.4-2.1,4.7
		c-1.3,1.2-2.3,1.5-4.2,1.7c-0.3,0-1.7,0-2.3-0.1c-0.6-0.1-0.8-1.1-0.7-1.2l0.3-0.3c0.2,0,1.1,0.1,1.2,0.1c1,0,1.6-0.2,2.2-0.9
		c0.6-0.7,1-1.8,1-3.1c0-1.4-0.5-2.3-1.1-3c-0.7-0.7-1.7-1-3-1c-0.5,0-1,0.1-1.7,0.2c0,0.3,0,7,0,7.6c0,0.7-0.1,2.9,0,6.7
		c0,0.7,0.1,1.9,0.1,2.1c0.1,1,1.4,0.9,2.9,1v1.3c-1.8-0.1-3.8-0.1-5-0.1C95.9,77.1,94.5,77.1,91.4,77.2"/>
	<path class="st2" d="M110.4,65.6v-1.2c1.7,0,2.7-0.3,4.6-0.8l1.4-0.5c0.2,0,0.4,0,0.4,0.2l0,0.9c0,0.6-0.2,8,0,8.8
		c0.4,1.7,1.5,1.8,2.2,1.8c0.7,0,3-0.3,3-2.7c0-0.5-0.1-5-0.1-5.6c0-0.7-0.4-0.8-0.7-0.9c-0.3-0.1-1.2-0.1-1.6-0.1v-1.3
		c1.8-0.1,3.9-0.5,4.5-0.7c0.6-0.2,1.5-0.5,1.5-0.5c0.3-0.1,0.4,0.1,0.4,0.3c0,0-0.1,6.4-0.1,10.9c0,1,0.1,1.2,0.4,1.4
		c0.3,0.2,0.9,0.3,1.8,0.3v1.2c-1.2-0.1-2.1,0-3.3,0c-0.9,0-2.1,0-2.9,0.1c0,0,0-1.4,0-2.4c-0.8,0.7-1.6,1.5-2.1,2
		c-0.7,0.7-1.9,0.8-2.8,0.8c-1.4,0-1.8-0.2-2.5-0.5c-0.7-0.4-1.2-0.8-1.5-1.4c-0.3-0.6-0.4-1.4-0.4-2.5l0-1.6c0-1.3-0.1-4.6-0.1-5.1
		c0-0.6-0.5-0.8-0.8-0.8C111.7,65.6,111,65.6,110.4,65.6"/>
	<path class="st2" d="M129.9,77.1V76c1.2,0,2.1,0.2,2.1-1.1c0-0.4,0-7.4,0-8.4c0-0.5-0.6-0.8-1.2-0.8l-1,0v-1.3
		c3.1-0.3,4.7-0.9,5.5-1.2c0.3-0.1,0.6,0.1,0.6,0.3v2c0,0,1.7-1.2,2.3-1.7c0.4-0.3,0.7-0.7,2.4-0.7c1.1,0,1.9,0.1,2.5,0.5
		c0.6,0.4,1.3,1.1,1.7,1.9l2.4-1.8c0.5-0.4,1-0.7,1.9-0.7c1.6,0,2.9,0.3,3.7,1.1c0.8,0.7,1.3,2,1.3,3.7v1.3c0,1.3,0,2.4,0,3.4
		c0,1.4,0,2.3,0.1,2.8c0,0.2,0.2,0.4,0.3,0.5c0.1,0.1,0.8,0.2,1.8,0.2v1.2c-1.2-0.1-2.8,0-3.8,0c-0.7,0-1.6,0-2.1,0
		c-0.2,0-0.5-0.2-0.5-0.7c0-1.9,0.2-6.3,0.2-8.2c0-0.9-0.4-2.5-2.8-2.5c-1.3,0-2.4,1.2-2.4,2.1c0,0.7,0,6,0,7c0,0.8,0.7,0.9,1.1,1
		c0.3,0.1,1.1,0.1,1.2,0.1v1.1c-1.3,0-7,0-8.2,0V76c1,0,2,0.2,2-1.4c0-1,0-6.5,0-7c0-1.1-1-1.9-2.3-1.9c-1.6,0-2.9,1-2.9,1.8v2.1
		c0,0,0,4.8,0,5.4c0,0.9,1.1,1.1,2,1.1v1.1H129.9z"/>
	<path class="st2" d="M157.9,65.5v-1.1c1.8-0.1,3.4-0.6,4.5-0.9l1.3-0.4c0.4-0.1,0.5,0.1,0.5,0.5c0,0.2,0,2,0,2s1.8-1.4,2.3-1.9
		c0.7-0.6,1.6-0.7,2.8-0.7c2,0,3,0.5,4,1.5c1,1,1.7,2.4,1.7,4.2c0,1.5-0.2,2.7-0.9,3.9c-0.7,1.3-1.7,1.9-2.6,2.6
		c-1.6,1.2-2,1.5-2.3,1.7c-0.5,0.3-1.5,0.5-2.3,0.5c-0.8,0-1.9-0.2-2.8-0.5l0,4.5c0,1.1-0.1,1.9,0.8,2c0.3,0,1.4,0.1,1.9,0.1v1.2
		c-1.6-0.1-3-0.1-4.2-0.1c-2.3,0-3.9,0-4.9,0.1v-1.1h1.3c0.9,0,1-1.1,1-2.3V66.6c0-0.8-0.4-0.9-0.7-1
		C159.3,65.5,158.9,65.5,157.9,65.5 M164.2,74.3c0.6,0.7,2.1,1.4,3,1.4c1.3,0,3.8-0.9,3.9-5.2c0-1.6-0.8-4.8-3.7-4.8
		c-0.5,0-2.2,0.2-3.2,1.3V74.3z"/>
	<path class="st2" d="M179.4,72.6c0,0.6,0,1.6,0.1,1.9c0,0.3,0.8,0.8,1.5,1.1c0.6,0.3,1.5,0.5,2.3,0.5c1,0,1.5-0.2,2-0.6
		c0.5-0.4,0.8-1.3,0.8-2c0-0.7-0.4-1.2-1.6-1.5c-1.1-0.3-3.9-0.9-4.7-1.3c-0.5-0.3-1-0.7-1.3-1.2c-0.3-0.5-0.5-1.2-0.5-2
		c0-0.9,0.3-1.6,0.8-2.3c0.5-0.7,1.3-1.3,2.2-1.7c0.9-0.4,1.9-0.6,3.4-0.6c1.5,0,2.8,0.3,4.1,0.7c0,0.5-0.2,3-0.2,3.8l-1.2,0
		c-0.2-1.7-0.1-1.8-0.4-2c-0.3-0.3-1.2-1-2.6-1c-0.9,0-1.5,0.2-2,0.6c-0.5,0.4-0.8,1-0.8,1.5c0,0.5,0.2,0.8,0.6,1.1
		c0.4,0.3,1.5,0.6,3.1,0.9c1.1,0.2,1.9,0.4,2.4,0.5c0.7,0.3,1.2,0.7,1.5,1.3c0.4,0.6,0.7,1.2,0.7,2c0,1.7-0.7,3-2.1,3.9
		c-1.2,0.9-2.1,1.3-4.8,1.3c-0.6,0-1.4,0-2.1-0.2c-0.6-0.1-1.4-0.3-2.2-0.5c-0.2-0.1-0.5-0.4-0.5-0.7c0-0.9,0.1-1.9,0.2-3.7H179.4z"
		/>
</g>
</svg>
