<?xml version="1.0" encoding="utf-8"?>
<!-- Generator: Adobe Illustrator 24.1.0, SVG Export Plug-In . SVG Version: 6.00 Build 0)  -->
<svg version="1.1" xmlns="http://www.w3.org/2000/svg" xmlns:xlink="http://www.w3.org/1999/xlink" x="0px" y="0px"
	 viewBox="0 0 612.3 408.2" style="enable-background:new 0 0 612.3 408.2;" xml:space="preserve">
<style type="text/css">
	.Arqueado:_x0020_verde{fill:url(#SVGID_1_);stroke:#FFFFFF;stroke-width:0.25;stroke-miterlimit:1;}
	.st0{fill:#0055A6;}
	.st1{fill:#FFFFFF;}
</style>
<linearGradient id="SVGID_1_" gradientUnits="userSpaceOnUse" x1="-494.3779" y1="-314.171" x2="-493.6708" y2="-314.8781">
	<stop  offset="0" style="stop-color:#20AC4B"/>
	<stop  offset="0.9831" style="stop-color:#19361A"/>
</linearGradient>
<g id="Capa_1">
	<g>
		<g>
			<g>
				<g>
					<path class="st0" d="M150.2,313h7l5,23.5h0.1L168,313h6.7l-8.5,32.3h-7.9L150.2,313z"/>
				</g>
				<g>
					<path class="st0" d="M177.7,345.3V313h6.8v32.3H177.7z"/>
				</g>
				<g>
					<path class="st0" d="M190.3,313h11.3c8.9,0,10.5,5.9,10.5,16c0,5,0.8,16.3-10.8,16.3h-11V313z M197,340.3h3.3
						c4.1,0,4.9-3.1,4.9-11.2c0-5.9,0-11.2-4.7-11.2H197V340.3z"/>
				</g>
				<g>
					<path class="st0" d="M224.1,345.3h-6.8V313h12.5c4.6,0,7.6,3,7.6,8.5c0,4.1-1.6,7.2-6,7.9v0.1c1.5,0.2,5.9,0.5,5.9,6.4
						c0,2.1,0.1,8.1,0.8,9.5h-6.6c-0.9-2-0.7-4.2-0.7-6.3c0-3.8,0.4-7.1-4.8-7.1h-1.7V345.3z M224.1,326.9h3c2.7,0,3.4-2.7,3.4-4.7
						c0-3.1-1.3-4.2-3.4-4.2h-3V326.9z"/>
				</g>
				<g>
					<path class="st0" d="M242.3,345.3V313h6.8v32.3H242.3z"/>
				</g>
				<g>
					<path class="st0" d="M254.4,329.1c0-8.5,0-16.7,11.1-16.7c11.1,0,11.1,8.1,11.1,16.7c0,8.5,0,16.7-11.1,16.7
						C254.4,345.8,254.4,337.6,254.4,329.1z M269.9,329.1c0-8.3-0.5-11.9-4.3-11.9c-3.8,0-4.3,3.6-4.3,11.9c0,8.3,0.5,11.9,4.3,11.9
						C269.4,341,269.9,337.4,269.9,329.1z"/>
				</g>
				<g>
					<path class="st0" d="M291.9,345.3V313h16.8v5h-10v8.3h9.6v5h-9.6v14.1H291.9z"/>
				</g>
				<g>
					<path class="st0" d="M311.5,329.1c0-8.5,0-16.7,11.1-16.7c11.1,0,11.1,8.1,11.1,16.7c0,8.5,0,16.7-11.1,16.7
						C311.5,345.8,311.5,337.6,311.5,329.1z M327,329.1c0-8.3-0.5-11.9-4.3-11.9c-3.8,0-4.3,3.6-4.3,11.9c0,8.3,0.5,11.9,4.3,11.9
						C326.5,341,327,337.4,327,329.1z"/>
				</g>
				<g>
					<path class="st0" d="M345.8,345.3H339V313h12.5c4.6,0,7.6,3,7.6,8.5c0,4.1-1.6,7.2-6,7.9v0.1c1.5,0.2,5.9,0.5,5.9,6.4
						c0,2.1,0.1,8.1,0.8,9.5h-6.6c-0.9-2-0.7-4.2-0.7-6.3c0-3.8,0.4-7.1-4.8-7.1h-1.7V345.3z M345.8,326.9h3c2.7,0,3.4-2.7,3.4-4.7
						c0-3.1-1.3-4.2-3.4-4.2h-3V326.9z"/>
				</g>
				<g>
					<path class="st0" d="M363.9,345.3V313h10.9l5.1,22h0.1l5.4-22h10.5v32.3h-6.6v-24.9h-0.1l-6.2,24.9h-6.4l-5.9-24.9h-0.1v24.9
						H363.9z"/>
				</g>
				<g>
					<path class="st0" d="M398.8,345.3l8.9-32.3h8.9l8.8,32.3h-7.1l-1.8-7.2h-9.2l-1.8,7.2H398.8z M411.8,319.2L411.8,319.2l-3.2,14
						h6.4L411.8,319.2z"/>
				</g>
				<g>
					<path class="st0" d="M437.4,345.8c-8.4,0-9.9-4.9-9.6-10.5h6.8c0,3.1,0.1,5.7,3.8,5.7c2.3,0,3.4-1.5,3.4-3.7
						c0-5.8-13.6-6.2-13.6-15.8c0-5.1,2.4-9.1,10.6-9.1c6.6,0,9.8,3,9.4,9.7h-6.6c0-2.4-0.4-4.9-3.1-4.9c-2.2,0-3.5,1.2-3.5,3.4
						c0,6.1,13.6,5.6,13.6,15.7C448.6,344.8,442.5,345.8,437.4,345.8z"/>
				</g>
			</g>
			<g>
				<g>
					<path class="st0" d="M462,309c0,3.3-2.6,6-6,6c-3.3,0-6-2.7-6-6c0-3.3,2.7-6,6-6C459.4,303.1,462,305.7,462,309z M460.9,309
						c0-2.7-2.2-4.8-4.8-4.8c-2.7,0-4.9,2.2-4.9,4.8c0,2.7,2.2,4.9,4.9,4.9C458.7,313.9,460.9,311.7,460.9,309z M455.3,312.5h-1.6
						v-6.9h2.9c1.1,0,1.8,0.6,1.8,1.8c0,0.9-0.4,1.5-1.4,1.7v0c0.3,0,1.4,0.1,1.4,1.3c0,0.4,0,1.7,0.2,2H457
						c-0.2-0.4-0.2-0.9-0.2-1.3c0-0.8,0.1-1.5-1.1-1.5h-0.4V312.5z M455.3,308.6h0.7c0.6,0,0.8-0.6,0.8-1c0-0.7-0.3-0.9-0.8-0.9
						h-0.7V308.6z"/>
				</g>
			</g>
		</g>
		<g>
			<path class="st0" d="M347.3,288.6h-91.9c-4.8,0-8.7-3.9-8.7-8.7V166.7c0-20.6,10.4-28.8,18.7-35.4c7.1-5.6,12.7-10,12.7-21V62.4
				h46.5v47.9c0,11,5.6,15.4,12.7,21c8.3,6.6,18.7,14.8,18.7,35.4v113.2C356,284.7,352.1,288.6,347.3,288.6z M286.5,70.8v39.5
				c0,15-8.4,21.7-15.9,27.6c-8,6.3-15.5,12.2-15.5,28.8v113.2c0,0.2,0.1,0.3,0.3,0.3h91.9c0.2,0,0.3-0.1,0.3-0.3V166.7
				c0-16.6-7.5-22.5-15.5-28.8c-7.4-5.9-15.9-12.6-15.9-27.6V70.8H286.5z"/>
		</g>
		<g>
			<rect x="284.1" y="104.8" class="st0" width="34.4" height="5.1"/>
		</g>
		<g>
			<polygon class="st0" points="254.6,201.1 294.2,282.5 308.4,282.5 347.6,200.7 348.8,168.2 252,168.2 			"/>
		</g>
		<g>
			<path class="st1" d="M301.3,264.8c-4.2,0-8-2.4-9.8-6.2v0l-33.4-69.6c-1.6-3.4-1.4-7.3,0.6-10.5c2-3.2,5.4-5.1,9.2-5.1h66.7
				c3.8,0,7.2,1.9,9.2,5.1c2,3.2,2.2,7.1,0.6,10.5l-33.4,69.6C309.3,262.5,305.5,264.8,301.3,264.8L301.3,264.8z M300.6,254.3
				c0.1,0.1,0.2,0.4,0.7,0.4c0.5,0,0.6-0.3,0.7-0.4l33.4-69.6c0.1-0.3,0.1-0.5,0-0.7c-0.1-0.2-0.4-0.4-0.6-0.4H268
				c-0.3,0-0.5,0.1-0.6,0.4c-0.1,0.2-0.2,0.5,0,0.7L300.6,254.3z"/>
		</g>
		<g>
			<rect x="276.5" y="205.5" class="st1" width="49.7" height="10.1"/>
		</g>
	</g>
</g>
<g id="Layer_2">
</g>
</svg>
