<?xml version="1.0" encoding="utf-8"?>
<!-- Generator: Adobe Illustrator 24.1.0, SVG Export Plug-In . SVG Version: 6.00 Build 0)  -->
<svg version="1.1" id="Capa_1" xmlns="http://www.w3.org/2000/svg" xmlns:xlink="http://www.w3.org/1999/xlink" x="0px" y="0px"
	 viewBox="0 0 612.3 408.2" style="enable-background:new 0 0 612.3 408.2;" xml:space="preserve">
<style type="text/css">
	.Arqueado:_x0020_verde{fill:url(#SVGID_1_);stroke:#FFFFFF;stroke-width:0.25;stroke-miterlimit:1;}
	.st0{fill:#231F20;}
	.st1{fill:#EC2227;}
</style>
<linearGradient id="SVGID_1_" gradientUnits="userSpaceOnUse" x1="-494.3779" y1="-314.171" x2="-493.6708" y2="-314.8781">
	<stop  offset="0" style="stop-color:#20AC4B"/>
	<stop  offset="0.9831" style="stop-color:#19361A"/>
</linearGradient>
<g>
	<polygon class="st0" points="280.3,231.7 283.1,191.2 282.9,191.2 268.5,231.7 241.8,231.7 241.6,169.2 263.7,169.2 260.7,208.5 
		260.8,208.5 274.9,169.2 300.6,169.2 298,208.5 298.1,208.5 311.8,169.2 333.9,169.2 307,231.7 	"/>
	<path class="st0" d="M345.1,216.3L345.1,216.3c-0.8,3.6-2.4,6-6,6c-3.2,0-4.6-1.8-4-4.6c0.6-2.4,2.4-5,7.9-5h2.8L345.1,216.3z
		 M347.5,204.7L347.5,204.7h-2.4c-16.2,0-25.8,4.4-28.3,15.1c-1.8,8.6,3.4,13.2,12.2,13.2c4.9,0,9.6-1.4,13.6-5.4l-0.4,4.2h18.2
		l6.2-29.3c2.2-10.2-2-15.4-18.7-15.4c-11,0-22.2,2.4-25.5,14.1h17.4c1-3.6,2.6-4.4,5.2-4.4c3,0,3.8,1.4,3.4,3.4L347.5,204.7z"/>
	<path class="st0" d="M390.4,209.9L390.4,209.9c0.8-3.8,1-4.8,1.8-6.6c1-2.6,3-4,5.2-4c4.4,0,4.2,3.8,2.6,10.6
		c-1.2,6-2.8,10.8-7.2,10.8c-2.4,0-3-1-3.4-2.4C389,217.1,389.4,214.5,390.4,209.9 M364.7,231.7L364.7,231.7h19.8l1.4-5
		c2.6,4.8,7.2,6.2,12,6.2c10.6,0,19.8-8,23.1-23.4c3.6-16.4-3.6-22.4-13-22.4c-4.9,0-9.6,1.4-14.1,5.2l5-23h-20.8L364.7,231.7z"/>
	<path class="st0" d="M428.1,201L428.1,201h-5.6l2.8-12.8h5.6l1.4-7l22.5-7.2l-3,14.2h9.5l-2.6,12.8h-9.5l-3,13.2
		c-0.6,3.4,0.2,4.4,2.6,4.4c1.6,0,3.2,0,5.2-0.4l-2.6,12.8c-5,1-10.2,1.8-14.2,1.8c-8.2,0-15.2-2.4-13.2-12.2L428.1,201z"/>
	<path class="st0" d="M477.5,204.7L477.5,204.7l0.2-0.6c0.8-4.2,3.6-6.4,6.9-6.4c3.4,0,5,2.2,4.2,6.4l-0.2,0.6H477.5z M485.7,217.7
		L485.7,217.7c-1.2,3.2-3.8,4.6-6,4.6c-4.2,0-5.4-2.2-4.4-7.2l0.2-1.4h29.9l0.8-2.8c3.2-15.4-2.8-23.8-19.2-23.8
		c-15.6,0-27.3,7.8-30.4,22.7c-3.8,17.6,6.4,23.3,19.1,23.3c16.2,0,24.8-5.4,28.7-15.2L485.7,217.7L485.7,217.7z"/>
	<path class="st0" d="M537.5,206L537.5,206c1-5.4,0.8-8.4-2.8-8.4c-3.4,0-5.6,1.8-7.9,12.8c-2.2,10.2-0.8,11.8,2.4,11.8
		c3.4,0,4.9-2.6,6.4-8.2h19.5c-2.8,12-11.8,18.8-29.1,18.8c-13.5,0-23.7-5.6-20.1-23.3c3.2-14.8,15.1-22.7,30.4-22.7
		c16.8,0,22.2,7.2,20.2,19.1L537.5,206L537.5,206z"/>
	<path class="st0" d="M251.8,258L251.8,258c0.2-2-1.6-3.2-3.6-3.2c-4.9,0-6.6,4.4-7.2,7.8c-1,4-0.6,7.8,3.6,7.8c2.2,0,4.2-1,5-3h2.8
		c-0.8,3.2-4.6,5.4-8.4,5.4c-5.9,0-7-4.8-6-10.2c1.2-4.8,4.4-10.2,10.8-10c3.8,0,6.2,1.8,5.9,5.4L251.8,258L251.8,258z"/>
	<path class="st0" d="M265.9,262.6L265.9,262.6c0.8-4.2,2.8-7.8,7.6-7.8c5,0,5.4,3.6,4.4,7.8c-0.8,4-2.8,7.8-7.6,7.8
		C265.3,270.4,264.9,266.6,265.9,262.6 M262.9,262.6L262.9,262.6c-1.2,5.8,0.8,10.2,6.9,10.2c6.2,0,9.8-4.4,11-10.2
		c1.4-5.6-0.6-10-6.6-10C267.9,252.6,264.3,257,262.9,262.6"/>
	<path class="st0" d="M295.7,255.1L295.7,255.1h4.4c3,0.2,3.4,1.6,3,3c-0.2,1.6-1.2,3-4.2,3h-4.6L295.7,255.1z M297.7,263.6
		L297.7,263.6c1,0,2.2,0,2.8,0.8c0.6,1,0.4,2.6,0.2,4.4c-0.2,1.2,0,2.4,0,3.6h2.8c-0.4-1.8,0-4,0-5.8c0.2-2.2,0.2-3.6-2.2-4l0.2-0.2
		c2.2-0.4,4-2.2,4.6-4.6c0.8-3.8-2.4-4.8-5.6-4.8h-7l-4.2,19.4h2.8l1.8-8.8h3.7V263.6z"/>
	<path class="st0" d="M319.2,261.3L319.2,261.3l1.4-6.2h4.2c0.4,0,3.6-0.2,2.8,3.2c-0.6,3.2-3.8,3-4,3H319.2z M314.2,272.4
		L314.2,272.4h2.8l1.8-8.6h3.6c3.6,0,7.2-1.4,8.2-5.4c0.8-4.2-2-5.6-5.6-5.4h-6.6L314.2,272.4z"/>
	<path class="st0" d="M341.7,262.6L341.7,262.6c0.8-4.2,2.8-7.8,7.9-7.8c4.9,0,5.2,3.6,4.4,7.8c-1,4-2.8,7.8-7.9,7.8
		C341.1,270.4,340.9,266.6,341.7,262.6 M338.9,262.6L338.9,262.6c-1.2,5.8,0.6,10.2,6.9,10.2c6,0,9.8-4.4,11-10.2
		c1.2-5.6-0.8-10-6.9-10C343.9,252.6,340.1,257,338.9,262.6"/>
	<path class="st0" d="M371.6,255.1L371.6,255.1h4.6c2.8,0.2,3.2,1.6,3,3c-0.4,1.6-1.4,3-4.4,3h-4.4L371.6,255.1z M373.8,263.6
		L373.8,263.6c1,0,2,0,2.6,0.8c0.8,1,0.4,2.6,0.2,4.4v3.6h2.8c-0.2-1.8,0-4,0-5.8c0.2-2.2,0.2-3.6-2-4v-0.3c2.4-0.4,4.2-2.2,4.6-4.6
		c0.8-3.8-2.2-4.8-5.6-4.8h-7l-4,19.4h2.6l2-8.8H373.8z"/>
	<path class="st0" d="M401.3,255.6L401.3,255.6l1.4,9.5h-7.2L401.3,255.6z M390.8,272.4L390.8,272.4l3.2-5h9l1,5h3l-3.8-19.4h-2.8
		L388,272.4H390.8z"/>
	<polygon class="st0" points="422.7,255.1 422.7,255.1 416.1,255.1 416.7,253 432.3,253 432,255.1 425.3,255.1 421.7,272.4 
		419.1,272.4 	"/>
	<polygon class="st0" points="437.8,272.4 437.8,272.4 441.9,253 444.6,253 440.6,272.4 	"/>
	<path class="st0" d="M456.2,262.6L456.2,262.6c0.8-4.2,2.8-7.8,7.6-7.8c5,0,5.4,3.6,4.6,7.8c-1,4-2.8,7.8-7.9,7.8
		S455.2,266.6,456.2,262.6 M453.4,262.6L453.4,262.6c-1.2,5.8,0.6,10.2,6.6,10.2c6.2,0,10-4.4,11.2-10.2c1.2-5.6-0.8-10-6.9-10
		C458.4,252.6,454.6,257,453.4,262.6"/>
	<polygon class="st0" points="499.9,253 499.9,253 496,272.4 492.5,272.4 486.1,255.7 482.5,272.4 480.1,272.4 484.3,253 487.9,253 
		494.1,268.9 497.6,253 	"/>
	<path class="st1" d="M149.2,118.9L149.2,118.9l-3.6,16.6c37.3,8,61.1,44.7,53.4,82c-8,37.2-44.7,61.1-82.1,53.1
		c-37.3-7.8-61.1-44.5-53.4-81.7l-6.6-1.4c-8.6,40.9,17.5,81.1,58.6,89.9l-2.3,10c46.5,9.8,92.4-19.8,102.3-66.3
		C225.4,174.4,195.7,128.8,149.2,118.9"/>
	<path class="st1" d="M139.9,162.2L139.9,162.2c22.7,4.8,37.1,27,32.3,49.7l10,2c-6,28-33.7,46.1-61.8,40.1l-1.4,6.6
		c31.7,6.8,63-13.4,69.8-45.3c6.9-31.6-13.6-62.9-45.3-69.7c-31.9-6.8-63.2,13.6-70,45.3l16.6,3.6C95,171.8,117.2,157.4,139.9,162.2
		"/>
	<path class="st1" d="M144.7,223.9L144.7,223.9l3.8,5.6c6.6-4.2,11.8-11.2,13.6-19.8c3.6-17.1-7.2-33.9-24.5-37.5
		c-17.1-3.6-33.9,7.2-37.5,24.3c-3.6,17.2,7.4,33.9,24.5,37.5l1.4-6.6l2.2-10c-8-1.6-13-9.5-11.5-17.2c1.8-7.8,9.5-12.8,17.5-11.2
		l2-10c13.5,2.8,22.1,16.1,19.2,29.4C154.1,214.9,149.9,220.5,144.7,223.9"/>
</g>
</svg>
