<?xml version="1.0" encoding="utf-8"?>
<!-- Generator: Adobe Illustrator 24.1.0, SVG Export Plug-In . SVG Version: 6.00 Build 0)  -->
<svg version="1.1" id="Layer_1" xmlns="http://www.w3.org/2000/svg" xmlns:xlink="http://www.w3.org/1999/xlink" x="0px" y="0px"
	 viewBox="0 0 217 141" style="enable-background:new 0 0 217 141;" xml:space="preserve">
<style type="text/css">
	.st0{fill-rule:evenodd;clip-rule:evenodd;fill:#DE1E24;}
</style>
<g>
	<g>
		<g>
			<polyline class="st0" points="70,60.6 79.3,60.6 69.9,74.5 69.9,81.5 63.1,81.5 63.1,74.5 53.5,60.7 62.8,60.7 62.8,60.7 
				66.3,66.6 66.3,66.6 			"/>
			<path class="st0" d="M107.5,81.5l-4.5-6.5c-0.1,0-0.1,0.1-0.1,0.1l0.1,6.4h-6.6V60.7l0,0h6.5v11.9l0.2-0.1l3.6-6.1h7.5v0.1
				l-4.5,7.3l6,7.6v0.1"/>
			<path class="st0" d="M121.6,66.3v7.3c0.1,1.3,0.9,2.5,1.8,3.1c0.7,0.4,1.5,0.5,2.3,0.2c1-0.3,2.2-1.2,2.4-2.6v-8l0,0h6.3l0,0v15
				h-6.3v-1l0,0c-1.1,1.5-3,2.7-5.1,2.7c-1.8,0-3.6-0.6-5.1-1.8c-1.5-1.3-2.5-3.7-2.5-5.9c0,0,0-8.7,0-8.9l0,0H121.6z"/>
			<polygon class="st0" points="143.1,60.7 143.1,81.3 136.6,81.3 136.6,81.3 136.6,60.7 			"/>
			<path class="st0" d="M155.2,71.2v4.6c0,0.7,0.3,1.4,0.9,1.8c1,0.6,2.1-0.3,2.3-1.2c0.1-0.4,0.1-0.9,0.1-1.3h6.8
				c0,0-0.4,4.9-3.8,6.7c-1.9,1-3.9,1.4-6,1c-2.3-0.3-4.2-1.5-5.3-3.3c-0.8-1.5-1.3-3.1-1.3-4.9v-3.4l0,0h-3.9v-4.9l0,0l0,0h3.9
				v-5.6h6.2v5.6h3.8l0,0v4.9"/>
			<path class="st0" d="M165.5,70.9c0-1.9,1.5-3.5,3.5-3.5c1.9,0,3.5,1.5,3.5,3.5c0,1.9-1.5,3.5-3.5,3.5
				C167,74.4,165.5,72.8,165.5,70.9L165.5,70.9z M166,70.9c0,1.6,1.3,2.9,2.9,2.9c1.6,0,2.9-1.3,2.9-2.9c0-1.6-1.3-2.9-2.9-2.9
				C167.4,68,166,69.3,166,70.9L166,70.9z M170.5,72.9h-0.6l-1-1.8h-0.7v1.8h-0.6V69h1.6c0.7,0,1.3,0.2,1.3,1c0,0.8-0.5,1.1-1,1.1
				L170.5,72.9L170.5,72.9z M168.2,69.6v1h0.6c0.5,0,1.2,0.1,1.2-0.4c0-0.5-0.4-0.5-0.9-0.5H168.2L168.2,69.6z"/>
			<path class="st0" d="M20,71.7L20,71.7c2,22.6,57.8,21.4,65,21.4h18.9V90c-11.1,0-57-0.4-59.8-18.2c0,0-0.1-1-0.1-1.4
				c0-1,0.1-1.4,0.1-1.4c2.8-17.7,48.7-18.2,59.8-18.2v-3H85c-7.2,0-63-1.2-64.9,21.4h0C20,69.3,20,70.8,20,71.7z"/>
			<path class="st0" d="M196.9,69.3c-2-22.6-57.8-21.4-64.9-21.4h-19.3v3c9.1,0,57.9-0.1,60.8,18.2c0,0,0.1,0.6,0.1,1.6
				c0,0.5-0.1,1.2-0.1,1.2c-2.9,18.3-51.7,18.2-60.8,18.2v3.1H132c7.2,0,63,1.2,64.9-21.4c0,0,0.1-0.5,0.1-1.2
				C197,70.1,196.9,69.3,196.9,69.3z"/>
		</g>
		<g>
			<g>
				<path class="st0" d="M92.5,68.1c-0.5-0.4-0.9-0.7-1.4-1c-1.6-1-3.5-1.3-5.3-1.5c-1-0.1-5.4,0-7.5,1.1c-1.1,0.6-2.8,1.9-3,4.2
					h7.2c0.3-0.6,0.9-0.8,1.4-0.9c1-0.3,2.1-0.2,3,0.3c1.1,0.6,0.8,1.5,0.8,1.5c-0.6-0.1-1.1-0.3-1.8-0.4c-1.2-0.2-3-0.2-4-0.1
					c-2.2,0.2-4.4,0.9-6,2.7c-0.5,0.6-0.9,1.3-0.9,2.2c-0.1,2.1,0.7,3.7,2,4.9c1.5,1.5,4,1.8,5.9,1.8c1.4,0,2.5-0.3,3.7-1
					c0.5-0.3,0.9-0.6,1.4-1v0.7h6.3v-9.6C94.2,70.3,93.5,69,92.5,68.1z M84.7,78.1c-1.8,0-3.2-0.6-3.2-1.3s1.4-1.3,3.2-1.3
					c1.8,0,3.2,0.6,3.2,1.3S86.5,78.1,84.7,78.1z"/>
			</g>
		</g>
	</g>
</g>
</svg>
